<svg xmlns="http://www.w3.org/2000/svg" width="1150" height="937" fill="none" xmlns:v="https://vecta.io/nano"><g fill="#2f2f2f"><circle r="3" transform="matrix(0 1 1 0 932 708)"/><circle r="3" transform="matrix(0 1 1 0 199 753)"/></g><path d="M932 870V709M199 871V752.5" stroke="#2f2f2f" stroke-width=".635"/><circle r="3" transform="matrix(0 -1 -1 0 254 340)" fill="#2f2f2f"/><path d="M254 69v270" stroke="#2f2f2f" stroke-width=".635"/><circle r="3" transform="matrix(0 -1 -1 0 578 386)" fill="#2f2f2f"/><path d="M578 69v316" stroke="#2f2f2f" stroke-width=".635"/><g fill="#2f2f2f"><path d="M164.086 53.008l3.25-9.383h1.641L164.758 55h-1.328l-4.211-11.375h1.633l3.234 9.383zM171.852 55h-1.446v-8.453h1.446V55zm-1.563-10.695a.87.87 0 0 1 .211-.594c.146-.161.359-.242.641-.242s.494.081.64.242.219.359.219.594-.073.43-.219.586-.359.234-.64.234-.495-.078-.641-.234a.84.84 0 0 1-.211-.586zm8.805 8.453c0-.391-.149-.693-.446-.906-.291-.219-.804-.406-1.539-.562-.729-.156-1.31-.344-1.742-.562-.427-.219-.745-.479-.953-.781-.203-.302-.305-.661-.305-1.078 0-.693.292-1.279.875-1.758.589-.479 1.339-.719 2.25-.719.959 0 1.735.247 2.328.742a2.35 2.35 0 0 1 .899 1.898h-1.453c0-.396-.169-.737-.508-1.023-.333-.286-.755-.43-1.266-.43-.526 0-.937.115-1.234.344a1.08 1.08 0 0 0-.445.898c0 .349.138.612.414.789s.773.346 1.492.508 1.31.354 1.758.578.778.495.992.813c.219.313.328.695.328 1.148a2.17 2.17 0 0 1-.906 1.82c-.604.453-1.388.68-2.352.68-.677 0-1.276-.12-1.797-.359s-.929-.573-1.226-1a2.45 2.45 0 0 1-.438-1.398h1.446a1.51 1.51 0 0 0 .578 1.156c.364.281.844.422 1.437.422.547 0 .985-.109 1.313-.328.333-.224.5-.521.5-.891zm8.547 1.406c-.563.661-1.388.992-2.477.992-.901 0-1.588-.26-2.062-.781-.469-.526-.706-1.302-.711-2.328v-5.5h1.445v5.461c0 1.281.521 1.922 1.562 1.922 1.105 0 1.839-.411 2.204-1.234v-6.148h1.445V55h-1.375l-.031-.836zm8.828.836c-.084-.167-.151-.464-.203-.891-.672.698-1.474 1.047-2.407 1.047-.833 0-1.518-.234-2.054-.703a2.3 2.3 0 0 1-.797-1.797c0-.88.333-1.562 1-2.047.672-.49 1.614-.734 2.828-.734h1.406v-.664c0-.505-.151-.906-.453-1.203-.302-.302-.747-.453-1.336-.453-.515 0-.948.13-1.297.391s-.523.575-.523.945h-1.453c0-.422.148-.828.445-1.219.302-.396.708-.708 1.219-.937s1.08-.344 1.695-.344c.974 0 1.737.245 2.289.734.552.484.839 1.154.86 2.008v3.891c0 .776.098 1.393.296 1.852V55h-1.515zm-2.399-1.102a2.54 2.54 0 0 0 1.289-.352c.407-.234.701-.539.883-.914v-1.734h-1.133c-1.77 0-2.656.518-2.656 1.555 0 .453.151.807.453 1.063s.69.383 1.164.383zM201.523 55h-1.445V43h1.445v12zm3.891 0h-1.445v-8.453h1.445V55zm-1.562-10.695c0-.234.07-.432.21-.594.146-.161.36-.242.641-.242s.495.081.641.242.218.359.218.594-.072.43-.218.586-.36.234-.641.234-.495-.078-.641-.234c-.14-.156-.21-.352-.21-.586zm5.242 9.516h4.945V55h-6.711v-1.062l4.664-6.195h-4.594v-1.195h6.407v1.023l-4.711 6.25zm9.961 1.336c-1.146 0-2.078-.375-2.797-1.125-.719-.755-1.078-1.763-1.078-3.023v-.266c0-.839.159-1.586.476-2.242.323-.661.771-1.177 1.344-1.547a3.38 3.38 0 0 1 1.875-.562c1.099 0 1.953.362 2.563 1.086s.914 1.76.914 3.109v.602h-5.727c.021.833.263 1.508.727 2.023a2.31 2.31 0 0 0 1.781.766c.51 0 .943-.104 1.297-.312a3.25 3.25 0 0 0 .929-.828l.883.688c-.708 1.089-1.771 1.633-3.187 1.633zm-.18-7.578a1.92 1.92 0 0 0-1.469.641c-.396.422-.64 1.016-.734 1.781h4.234v-.109c-.041-.734-.239-1.302-.594-1.703-.354-.406-.833-.609-1.437-.609zM233.219 55c-.084-.167-.151-.464-.203-.891-.672.698-1.474 1.047-2.407 1.047-.833 0-1.518-.234-2.054-.703a2.3 2.3 0 0 1-.797-1.797c0-.88.333-1.562 1-2.047.672-.49 1.614-.734 2.828-.734h1.406v-.664c0-.505-.151-.906-.453-1.203-.302-.302-.747-.453-1.336-.453-.515 0-.948.13-1.297.391s-.523.575-.523.945h-1.453c0-.422.148-.828.445-1.219.302-.396.708-.708 1.219-.937s1.08-.344 1.695-.344c.974 0 1.737.245 2.289.734.552.484.839 1.154.86 2.008v3.891c0 .776.098 1.393.296 1.852V55h-1.515zm-2.399-1.102a2.54 2.54 0 0 0 1.289-.352c.407-.234.701-.539.883-.914v-1.734h-1.133c-1.77 0-2.656.518-2.656 1.555 0 .453.151.807.453 1.063s.69.383 1.164.383zm7.25-7.352l.047 1.063c.646-.812 1.49-1.219 2.531-1.219 1.787 0 2.688 1.008 2.704 3.023V55h-1.446v-5.594c-.005-.609-.146-1.06-.422-1.352-.27-.292-.695-.437-1.273-.437-.469 0-.88.125-1.234.375a2.54 2.54 0 0 0-.829.984V55h-1.445v-8.453h1.367zm7.11 4.156c0-1.297.307-2.338.922-3.125.614-.792 1.419-1.187 2.414-1.187.989 0 1.773.339 2.351 1.016V43h1.445v12h-1.328l-.07-.906c-.578.708-1.383 1.062-2.414 1.062-.979 0-1.779-.401-2.398-1.203s-.922-1.849-.922-3.141v-.109zm1.445.164c0 .958.198 1.708.594 2.25s.942.813 1.64.813c.917 0 1.586-.411 2.008-1.234v-3.883a2.12 2.12 0 0 0-1.992-1.195c-.708 0-1.26.273-1.656.82s-.594 1.357-.594 2.43zm19.047 0c0 1.286-.294 2.323-.883 3.109s-1.385 1.18-2.391 1.18c-1.026 0-1.833-.325-2.421-.977v4.07h-1.446V46.547h1.321l.07.938c.588-.729 1.406-1.094 2.453-1.094 1.016 0 1.818.383 2.406 1.148.594.766.891 1.831.891 3.195v.133zm-1.445-.164c0-.953-.204-1.706-.61-2.258a1.96 1.96 0 0 0-1.672-.828c-.875 0-1.531.388-1.968 1.164v4.039c.432.771 1.093 1.156 1.984 1.156.693 0 1.242-.273 1.648-.82.412-.552.618-1.37.618-2.453zM269.086 55h-1.445V43h1.445v12zm7.539 0c-.083-.167-.151-.464-.203-.891-.672.698-1.474 1.047-2.406 1.047-.834 0-1.519-.234-2.055-.703-.531-.474-.797-1.073-.797-1.797 0-.88.333-1.562 1-2.047.672-.49 1.615-.734 2.828-.734h1.406v-.664c0-.505-.151-.906-.453-1.203-.302-.302-.747-.453-1.336-.453-.515 0-.948.13-1.297.391s-.523.575-.523.945h-1.453c0-.422.148-.828.445-1.219.302-.396.709-.708 1.219-.937.516-.229 1.081-.344 1.695-.344.974 0 1.737.245 2.289.734.552.484.839 1.154.86 2.008v3.891c0 .776.099 1.393.297 1.852V55h-1.516zm-2.398-1.102c.453 0 .882-.117 1.289-.352s.7-.539.882-.914v-1.734h-1.132c-1.771 0-2.657.518-2.657 1.555 0 .453.151.807.453 1.063s.691.383 1.165.383zm7.25-7.352l.046 1.063a3.08 3.08 0 0 1 2.532-1.219c1.786 0 2.687 1.008 2.703 3.023V55h-1.446v-5.594c-.005-.609-.145-1.06-.421-1.352s-.696-.437-1.274-.437c-.469 0-.88.125-1.234.375s-.63.578-.828.984V55h-1.446v-8.453h1.368zm18.57 4.32c0 1.286-.294 2.323-.883 3.109s-1.385 1.18-2.391 1.18c-1.026 0-1.833-.325-2.421-.977v4.07h-1.446V46.547h1.321l.07.938c.588-.729 1.406-1.094 2.453-1.094 1.016 0 1.818.383 2.406 1.148.594.766.891 1.831.891 3.195v.133zm-1.445-.164c0-.953-.204-1.706-.61-2.258a1.96 1.96 0 0 0-1.672-.828c-.875 0-1.531.388-1.968 1.164v4.039c.432.771 1.093 1.156 1.984 1.156.693 0 1.242-.273 1.648-.82.412-.552.618-1.37.618-2.453zm7.375-2.859a4.33 4.33 0 0 0-.711-.055c-.948 0-1.592.404-1.93 1.211v6h-1.445v-8.453h1.406l.023.977c.474-.755 1.146-1.133 2.016-1.133.281 0 .495.037.641.109v1.344zm.796 2.852c0-.828.162-1.573.485-2.234.328-.661.781-1.172 1.359-1.531.584-.359 1.248-.539 1.992-.539 1.151 0 2.081.398 2.789 1.195.714.797 1.071 1.857 1.071 3.18v.102c0 .823-.159 1.563-.477 2.219-.312.651-.763 1.159-1.351 1.523s-1.256.547-2.016.547c-1.146 0-2.076-.398-2.789-1.195s-1.063-1.852-1.063-3.164v-.102zm1.454.172c0 .938.216 1.69.648 2.258s1.021.852 1.75.852 1.318-.286 1.75-.859c.432-.578.648-1.385.648-2.422 0-.927-.221-1.677-.664-2.25a2.08 2.08 0 0 0-1.75-.867 2.07 2.07 0 0 0-1.726.852c-.438.568-.656 1.38-.656 2.438zm9.546-4.32v9.43c0 1.625-.737 2.438-2.211 2.438a2.68 2.68 0 0 1-.882-.141v-1.156c.166.042.385.063.656.063.323 0 .568-.089.734-.266.172-.172.258-.474.258-.906v-9.461h1.445zm-1.593-2.242a.86.86 0 0 1 .211-.586c.145-.167.356-.25.632-.25.282 0 .495.081.641.242s.219.359.219.594-.073.43-.219.586-.359.234-.641.234-.492-.078-.632-.234a.84.84 0 0 1-.211-.586zm7.437 10.852c-1.146 0-2.078-.375-2.797-1.125-.718-.755-1.078-1.763-1.078-3.023v-.266c0-.839.159-1.586.477-2.242.323-.661.771-1.177 1.343-1.547.579-.375 1.204-.562 1.876-.562 1.098 0 1.953.362 2.562 1.086s.914 1.76.914 3.109v.602h-5.726c.02.833.263 1.508.726 2.023.469.511 1.063.766 1.781.766.511 0 .943-.104 1.297-.312s.664-.484.93-.828l.883.688c-.709 1.089-1.771 1.633-3.188 1.633zm-.179-7.578a1.92 1.92 0 0 0-1.469.641c-.396.422-.641 1.016-.735 1.781h4.235v-.109c-.042-.734-.24-1.302-.594-1.703-.354-.406-.833-.609-1.437-.609zm8.546 6.398a2.08 2.08 0 0 0 1.352-.469c.385-.312.599-.703.641-1.172h1.367c-.026.484-.193.945-.5 1.383a3.29 3.29 0 0 1-1.235 1.047c-.51.26-1.052.391-1.625.391-1.151 0-2.067-.383-2.75-1.148-.677-.771-1.015-1.823-1.015-3.156v-.242c0-.823.151-1.555.453-2.195s.734-1.138 1.297-1.492 1.237-.531 2.008-.531c.947 0 1.734.284 2.359.852s.966 1.305 1.008 2.211h-1.367a1.97 1.97 0 0 0-.625-1.344c-.37-.354-.829-.531-1.375-.531-.735 0-1.305.266-1.711.797-.401.526-.602 1.289-.602 2.289v.273c0 .974.201 1.724.602 2.25s.974.789 1.718.789zm6.946-9.477v2.047h1.578v1.117h-1.578v5.242c0 .339.07.594.211.766.14.167.38.25.718.25.167 0 .396-.031.688-.094V55c-.38.104-.75.156-1.109.156-.646 0-1.133-.195-1.461-.586s-.493-.945-.493-1.664v-5.242h-1.539v-1.117h1.539V44.5h1.446zm8.195 8.258c0-.391-.148-.693-.445-.906-.292-.219-.805-.406-1.539-.562s-1.31-.344-1.743-.562c-.427-.219-.744-.479-.953-.781-.203-.302-.304-.661-.304-1.078 0-.693.291-1.279.875-1.758s1.338-.719 2.25-.719c.958 0 1.734.247 2.328.742a2.35 2.35 0 0 1 .898 1.898h-1.453c0-.396-.169-.737-.508-1.023-.333-.286-.755-.43-1.265-.43-.526 0-.938.115-1.235.344a1.08 1.08 0 0 0-.445.898c0 .349.138.612.414.789s.773.346 1.492.508 1.31.354 1.758.578.779.495.992.813c.219.313.328.695.328 1.148a2.17 2.17 0 0 1-.906 1.82c-.604.453-1.388.68-2.352.68-.677 0-1.276-.12-1.796-.359s-.93-.573-1.227-1a2.45 2.45 0 0 1-.437-1.398h1.445c.026.484.219.87.578 1.156.365.281.844.422 1.437.422.547 0 .985-.109 1.313-.328.333-.224.5-.521.5-.891z"/><path d="M530.82 55.031h-4.765L524.984 58h-1.546l4.343-11.375h1.313L533.445 58h-1.539l-1.086-2.969zm-4.312-1.234h3.867l-1.937-5.32-1.93 5.32zm7.89-.094c0-1.297.308-2.338.922-3.125a2.91 2.91 0 0 1 2.414-1.187c.99 0 1.774.339 2.352 1.016V46h1.445v12h-1.328l-.07-.906c-.578.708-1.383 1.062-2.414 1.062-.979 0-1.779-.401-2.399-1.203-.614-.802-.922-1.849-.922-3.141v-.109zm1.446.164c0 .958.198 1.708.594 2.25s.942.813 1.64.813c.917 0 1.586-.411 2.008-1.234v-3.883a2.12 2.12 0 0 0-1.992-1.195c-.709 0-1.261.273-1.656.82s-.594 1.357-.594 2.43zm7.586-.164c0-1.297.307-2.338.922-3.125.614-.792 1.419-1.187 2.414-1.187.989 0 1.773.339 2.351 1.016V46h1.445v12h-1.328l-.07-.906c-.578.708-1.383 1.062-2.414 1.062-.979 0-1.779-.401-2.398-1.203s-.922-1.849-.922-3.141v-.109zm1.445.164c0 .958.198 1.708.594 2.25s.942.813 1.64.813c.917 0 1.586-.411 2.008-1.234v-3.883a2.12 2.12 0 0 0-1.992-1.195c-.708 0-1.26.273-1.656.82s-.594 1.357-.594 2.43zm13.266-4.32l.039.938c.619-.729 1.455-1.094 2.508-1.094 1.182 0 1.986.453 2.414 1.359a3.21 3.21 0 0 1 1.093-.984c.448-.25.987-.375 1.602-.375 1.854 0 2.797.982 2.828 2.945V58h-1.445v-5.578c0-.604-.138-1.055-.414-1.352-.276-.302-.74-.453-1.391-.453-.536 0-.982.161-1.336.484-.354.318-.56.747-.617 1.289V58h-1.453v-5.539c0-1.229-.602-1.844-1.805-1.844-.948 0-1.596.404-1.945 1.211V58h-1.446v-8.453h1.368zM572.383 58h-1.445v-8.453h1.445V58zm-1.563-10.695c0-.234.071-.432.211-.594.146-.161.36-.242.641-.242s.495.081.64.242.219.359.219.594-.073.43-.219.586-.359.234-.64.234-.495-.078-.641-.234c-.14-.156-.211-.352-.211-.586zM576.273 58h-1.445V46h1.445v12zm5.829.156c-1.146 0-2.079-.375-2.797-1.125-.719-.755-1.078-1.763-1.078-3.023v-.266c0-.839.158-1.586.476-2.242.323-.661.771-1.177 1.344-1.547a3.38 3.38 0 0 1 1.875-.562c1.099 0 1.953.362 2.562 1.086s.914 1.76.914 3.109v.602h-5.726c.021.833.263 1.508.726 2.023.469.511 1.063.766 1.782.766.51 0 .942-.104 1.297-.312a3.25 3.25 0 0 0 .929-.828l.883.688c-.708 1.089-1.771 1.633-3.187 1.633zm-.18-7.578a1.92 1.92 0 0 0-1.469.641c-.396.422-.641 1.016-.734 1.781h4.234v-.109c-.042-.734-.239-1.302-.594-1.703s-.833-.609-1.437-.609zM592 55.758c0-.391-.148-.693-.445-.906-.292-.219-.805-.406-1.539-.562s-1.31-.344-1.743-.562c-.427-.219-.744-.479-.953-.781-.203-.302-.304-.661-.304-1.078 0-.693.291-1.279.875-1.758s1.338-.719 2.25-.719c.958 0 1.734.247 2.328.742a2.35 2.35 0 0 1 .898 1.898h-1.453c0-.396-.169-.737-.508-1.023-.333-.286-.755-.43-1.265-.43-.526 0-.938.115-1.235.344a1.08 1.08 0 0 0-.445.898c0 .349.138.612.414.789s.773.346 1.492.508c.724.161 1.31.354 1.758.578s.779.495.992.813c.219.313.328.695.328 1.148a2.17 2.17 0 0 1-.906 1.82c-.604.453-1.388.68-2.351.68-.678 0-1.277-.12-1.797-.359s-.93-.573-1.227-1a2.45 2.45 0 0 1-.437-1.398h1.445c.026.484.219.87.578 1.156.365.281.844.422 1.438.422.546 0 .984-.109 1.312-.328s.5-.521.5-.891zm5.289-8.258v2.047h1.578v1.117h-1.578v5.242c0 .339.07.594.211.766s.38.25.719.25c.166 0 .396-.031.687-.094V58c-.38.104-.75.156-1.109.156-.646 0-1.133-.195-1.461-.586s-.492-.945-.492-1.664v-5.242h-1.539v-1.117h1.539V47.5h1.445zm2.734 6.195c0-.828.162-1.573.485-2.234s.781-1.172 1.359-1.531c.584-.359 1.248-.539 1.992-.539 1.151 0 2.081.398 2.789 1.195.714.797 1.071 1.857 1.071 3.18v.102c0 .823-.159 1.563-.477 2.219-.312.651-.763 1.159-1.351 1.523s-1.256.547-2.016.547c-1.146 0-2.076-.398-2.789-1.195s-1.063-1.852-1.063-3.164v-.102zm1.454.172c0 .938.216 1.69.648 2.258s1.021.852 1.75.852 1.318-.286 1.75-.859c.432-.578.648-1.385.648-2.422 0-.927-.221-1.677-.664-2.25a2.08 2.08 0 0 0-1.75-.867 2.07 2.07 0 0 0-1.726.852c-.438.568-.656 1.38-.656 2.438zm9.421-4.32l.047 1.063a3.08 3.08 0 0 1 2.532-1.219c1.786 0 2.687 1.008 2.703 3.023V58h-1.446v-5.594c-.005-.609-.145-1.06-.422-1.352-.27-.292-.695-.437-1.273-.437-.469 0-.88.125-1.234.375a2.54 2.54 0 0 0-.828.984V58h-1.446v-8.453h1.367zm10.969 8.609c-1.146 0-2.078-.375-2.797-1.125-.718-.755-1.078-1.763-1.078-3.023v-.266c0-.839.159-1.586.477-2.242.323-.661.771-1.177 1.343-1.547.579-.375 1.204-.562 1.876-.562 1.098 0 1.953.362 2.562 1.086s.914 1.76.914 3.109v.602h-5.726c.02.833.263 1.508.726 2.023.469.511 1.063.766 1.781.766.511 0 .943-.104 1.297-.312s.664-.484.93-.828l.883.688c-.709 1.089-1.771 1.633-3.188 1.633zm-.179-7.578a1.92 1.92 0 0 0-1.469.641c-.396.422-.641 1.016-.735 1.781h4.235v-.109c-.042-.734-.24-1.302-.594-1.703s-.833-.609-1.437-.609zm10.078 5.18c0-.391-.149-.693-.446-.906-.291-.219-.804-.406-1.539-.562-.729-.156-1.31-.344-1.742-.562s-.745-.479-.953-.781-.305-.661-.305-1.078c0-.693.292-1.279.875-1.758.589-.479 1.339-.719 2.25-.719.959 0 1.735.247 2.328.742a2.35 2.35 0 0 1 .899 1.898h-1.453c0-.396-.17-.737-.508-1.023s-.755-.43-1.266-.43c-.526 0-.937.115-1.234.344a1.08 1.08 0 0 0-.445.898c0 .349.138.612.414.789s.773.346 1.492.508 1.31.354 1.758.578.778.495.992.813c.219.313.328.695.328 1.148a2.17 2.17 0 0 1-.906 1.82c-.604.453-1.388.68-2.352.68-.677 0-1.276-.12-1.797-.359a2.96 2.96 0 0 1-1.226-1 2.45 2.45 0 0 1-.438-1.398h1.446a1.51 1.51 0 0 0 .578 1.156c.364.281.843.422 1.437.422.547 0 .985-.109 1.313-.328s.5-.521.5-.891zM856.883 884.93c-1.287-.37-2.224-.823-2.813-1.36a2.62 2.62 0 0 1-.875-2c0-.896.357-1.635 1.071-2.218.718-.589 1.651-.883 2.796-.883.782 0 1.477.151 2.086.453.615.302 1.089.719 1.422 1.25.339.531.508 1.112.508 1.742h-1.508c0-.687-.218-1.226-.656-1.617s-1.055-.594-1.852-.594c-.739 0-1.317.164-1.734.492-.411.323-.617.774-.617 1.352 0 .463.195.857.586 1.18.396.317 1.065.609 2.008.875s1.687.559 2.218.882c.537.318.933.69 1.188 1.118s.391.929.391 1.507c0 .922-.36 1.662-1.079 2.219s-1.679.828-2.882.828c-.782 0-1.511-.148-2.188-.445s-1.2-.714-1.57-1.234-.547-1.112-.547-1.774h1.508c0 .688.252 1.232.758 1.633.51.396 1.19.594 2.039.594.791 0 1.398-.162 1.82-.485s.633-.763.633-1.32-.196-.987-.586-1.289-1.099-.609-2.125-.906zm9.429 5.226c-1.145 0-2.078-.375-2.796-1.125s-1.078-1.763-1.078-3.023v-.266c0-.838.158-1.586.476-2.242s.771-1.177 1.344-1.547a3.38 3.38 0 0 1 1.875-.562c1.099 0 1.953.362 2.562 1.086s.914 1.76.914 3.109v.602h-5.726c.021.833.263 1.507.726 2.023.469.51 1.063.766 1.782.766.51 0 .942-.105 1.297-.313a3.24 3.24 0 0 0 .929-.828l.883.687c-.708 1.089-1.771 1.633-3.188 1.633zm-.179-7.578a1.92 1.92 0 0 0-1.469.641c-.396.422-.641 1.015-.734 1.781h4.234v-.109c-.042-.735-.24-1.302-.594-1.703-.354-.407-.833-.61-1.437-.61zm8.664 7.578c-1.146 0-2.078-.375-2.797-1.125s-1.078-1.763-1.078-3.023v-.266c0-.838.159-1.586.476-2.242.323-.661.771-1.177 1.344-1.547a3.38 3.38 0 0 1 1.875-.562c1.099 0 1.953.362 2.563 1.086s.914 1.76.914 3.109v.602h-5.727c.021.833.263 1.507.727 2.023.468.51 1.062.766 1.781.766.51 0 .943-.105 1.297-.313s.664-.484.93-.828l.882.687c-.708 1.089-1.77 1.633-3.187 1.633zm-.18-7.578c-.583 0-1.073.214-1.469.641s-.64 1.015-.734 1.781h4.234v-.109c-.041-.735-.239-1.302-.593-1.703-.354-.407-.834-.61-1.438-.61zm16.61 5.43l1.625-6.461h1.445L891.836 890h-1.172l-2.055-6.406-2 6.406h-1.171l-2.454-8.453h1.438l1.664 6.328 1.969-6.328h1.164l2.008 6.461zm5.992-5.438a3.07 3.07 0 0 1 2.5-1.179c1.786 0 2.687 1.007 2.703 3.023V890h-1.445v-5.594c-.006-.609-.146-1.06-.422-1.351-.271-.292-.696-.438-1.274-.438-.469 0-.88.125-1.234.375s-.63.578-.828.985V890h-1.446v-12h1.446v4.57zm6.984 3.125c0-.828.162-1.573.485-2.234s.781-1.172 1.359-1.531 1.247-.539 1.992-.539c1.151 0 2.081.398 2.789 1.195.714.797 1.07 1.857 1.07 3.18v.101c0 .823-.158 1.563-.476 2.219-.313.651-.763 1.159-1.352 1.523-.583.365-1.255.547-2.015.547-1.146 0-2.076-.398-2.789-1.195s-1.063-1.852-1.063-3.164v-.102zm1.453.172c0 .938.216 1.69.649 2.258a2.09 2.09 0 0 0 1.75.852c.734 0 1.317-.287 1.75-.86s.648-1.385.648-2.422c0-.927-.221-1.677-.664-2.25-.437-.578-1.021-.867-1.75-.867-.713 0-1.289.284-1.727.852s-.656 1.38-.656 2.437zm7.532-4.039l-.821-.562c.485-.677.735-1.391.75-2.141V878h1.43v1.016a3.61 3.61 0 0 1-.391 1.562c-.25.516-.573.932-.968 1.25zm7.148 5.93c0-.391-.148-.693-.445-.906-.292-.219-.805-.407-1.539-.563s-1.31-.344-1.743-.562c-.427-.219-.744-.48-.953-.782-.203-.302-.304-.661-.304-1.078 0-.693.291-1.278.875-1.758s1.338-.718 2.25-.718c.958 0 1.734.247 2.328.742a2.35 2.35 0 0 1 .898 1.898h-1.453c0-.396-.169-.737-.508-1.023-.333-.287-.755-.43-1.265-.43-.526 0-.938.115-1.235.344a1.08 1.08 0 0 0-.445.898c0 .349.138.612.414.789s.773.347 1.492.508c.724.162 1.31.354 1.758.578s.779.495.992.813c.219.312.328.695.328 1.148 0 .755-.302 1.362-.906 1.821-.604.453-1.388.679-2.352.679-.677 0-1.276-.12-1.796-.359s-.93-.573-1.227-1a2.45 2.45 0 0 1-.438-1.399h1.446c.026.485.219.87.578 1.157.365.281.844.422 1.437.422.547 0 .985-.11 1.313-.329.333-.224.5-.52.5-.89zm6.914-2.063c0-.828.161-1.573.484-2.234s.782-1.172 1.36-1.531 1.247-.539 1.992-.539c1.151 0 2.081.398 2.789 1.195.714.797 1.07 1.857 1.07 3.18v.101c0 .823-.159 1.563-.476 2.219-.313.651-.763 1.159-1.352 1.523-.583.365-1.255.547-2.015.547-1.146 0-2.076-.398-2.79-1.195-.708-.797-1.062-1.852-1.062-3.164v-.102zm1.453.172c0 .938.216 1.69.649 2.258s1.02.852 1.75.852 1.317-.287 1.75-.86.648-1.385.648-2.422c0-.927-.221-1.677-.664-2.25s-1.021-.867-1.75-.867c-.714 0-1.289.284-1.727.852s-.656 1.38-.656 2.437zm10.719 2.172l2.094-6.492h1.476L939.961 890h-1.102l-3.062-8.453h1.476l2.149 6.492zm8.359 2.117c-1.146 0-2.078-.375-2.797-1.125s-1.078-1.763-1.078-3.023v-.266c0-.838.159-1.586.477-2.242s.771-1.177 1.344-1.547a3.38 3.38 0 0 1 1.875-.562c1.099 0 1.953.362 2.562 1.086s.914 1.76.914 3.109v.602h-5.726c.02.833.263 1.507.726 2.023.469.51 1.063.766 1.781.766.511 0 .943-.105 1.297-.313s.664-.484.93-.828l.883.687c-.709 1.089-1.771 1.633-3.188 1.633zm-.179-7.578a1.92 1.92 0 0 0-1.469.641c-.396.422-.641 1.015-.735 1.781h4.235v-.109c-.042-.735-.24-1.302-.594-1.703-.354-.407-.833-.61-1.437-.61zm9.242.266c-.219-.037-.456-.055-.711-.055-.948 0-1.591.404-1.93 1.211v6h-1.445v-8.453h1.406l.024.976c.473-.755 1.145-1.132 2.015-1.132.281 0 .495.036.641.109v1.344zm8.492 3.023c0 1.292-.297 2.331-.891 3.117s-1.39 1.172-2.39 1.172c-1.068 0-1.894-.377-2.477-1.133l-.07.977h-1.328v-12h1.445v4.477c.583-.724 1.388-1.086 2.414-1.086s1.831.388 2.414 1.164c.589.776.883 1.838.883 3.187v.125zm-1.445-.164c0-.984-.19-1.745-.571-2.281s-.927-.805-1.64-.805c-.953 0-1.638.443-2.055 1.328v3.657c.443.885 1.133 1.328 2.07 1.328.693 0 1.232-.269 1.617-.805s.579-1.344.579-2.422zm2.89-.008c0-.828.162-1.573.485-2.234s.781-1.172 1.359-1.531 1.247-.539 1.992-.539c1.151 0 2.081.398 2.789 1.195.714.797 1.071 1.857 1.071 3.18v.101c0 .823-.159 1.563-.477 2.219a3.55 3.55 0 0 1-1.352 1.523c-.583.365-1.255.547-2.015.547-1.146 0-2.076-.398-2.789-1.195s-1.063-1.852-1.063-3.164v-.102zm1.453.172c0 .938.217 1.69.649 2.258s1.021.852 1.75.852 1.318-.287 1.75-.86.648-1.385.648-2.422c0-.927-.221-1.677-.664-2.25-.437-.578-1.021-.867-1.75-.867a2.07 2.07 0 0 0-1.726.852c-.438.567-.657 1.38-.657 2.437zm7.672-.172c0-.828.162-1.573.485-2.234s.781-1.172 1.359-1.531 1.247-.539 1.992-.539c1.151 0 2.081.398 2.789 1.195.714.797 1.071 1.857 1.071 3.18v.101c0 .823-.159 1.563-.477 2.219-.313.651-.763 1.159-1.352 1.523-.583.365-1.255.547-2.015.547-1.146 0-2.076-.398-2.789-1.195s-1.063-1.852-1.063-3.164v-.102zm1.453.172c0 .938.217 1.69.649 2.258s1.021.852 1.75.852 1.318-.287 1.75-.86.648-1.385.648-2.422c0-.927-.221-1.677-.664-2.25-.437-.578-1.021-.867-1.75-.867a2.07 2.07 0 0 0-1.726.852c-.438.567-.657 1.38-.657 2.437zm10.414.219l-.906.945V890h-1.445v-12h1.445v7.258l.774-.93 2.632-2.781h1.758l-3.289 3.531 3.672 4.922h-1.695l-2.946-3.914zm9.102 4.07c-1.146 0-2.078-.375-2.797-1.125S993 887.268 993 886.008v-.266c0-.838.159-1.586.477-2.242s.77-1.177 1.343-1.547a3.38 3.38 0 0 1 1.875-.562c1.099 0 1.953.362 2.563 1.086s.912 1.76.912 3.109v.602h-5.725c.021.833.263 1.507.727 2.023.469.51 1.062.766 1.781.766.511 0 .943-.105 1.297-.313s.664-.484.93-.828l.88.687c-.706 1.089-1.768 1.633-3.185 1.633zm-.18-7.578a1.92 1.92 0 0 0-1.468.641c-.396.422-.641 1.015-.735 1.781h4.235v-.109c-.042-.735-.24-1.302-.594-1.703-.354-.407-.834-.61-1.438-.61zm4.805 3.125c0-1.297.31-2.338.92-3.125.62-.792 1.42-1.187 2.42-1.187.99 0 1.77.338 2.35 1.015V878h1.44v12h-1.33l-.07-.906c-.57.708-1.38 1.062-2.41 1.062-.98 0-1.78-.401-2.4-1.203-.61-.802-.92-1.849-.92-3.141v-.109zm1.45.164c0 .959.19 1.709.59 2.25.39.542.94.813 1.64.813.92 0 1.59-.412 2.01-1.235v-3.883c-.43-.796-1.1-1.195-1.99-1.195-.71 0-1.27.274-1.66.821-.4.546-.59 1.356-.59 2.429z"/><path d="M118.977 888.031h-4.766l-1.07 2.969h-1.547l4.344-11.375h1.312L121.602 891h-1.54l-1.085-2.969zm-4.313-1.234h3.867l-1.937-5.32-1.93 5.32zm13.164 1.961c0-.391-.148-.693-.445-.906-.292-.219-.805-.407-1.539-.563-.729-.156-1.31-.344-1.742-.562s-.745-.48-.954-.782c-.203-.302-.304-.661-.304-1.078 0-.693.291-1.278.875-1.758s1.338-.718 2.25-.718c.958 0 1.734.247 2.328.742a2.35 2.35 0 0 1 .898 1.898h-1.453c0-.396-.169-.737-.508-1.023-.333-.287-.755-.43-1.265-.43-.526 0-.938.115-1.235.344s-.445.529-.445.898c0 .349.138.612.414.789s.774.347 1.492.508c.724.162 1.31.354 1.758.578s.779.495.992.813c.219.312.328.695.328 1.148 0 .755-.302 1.362-.906 1.821-.604.453-1.388.679-2.351.679-.677 0-1.276-.12-1.797-.359s-.93-.573-1.227-1c-.291-.432-.437-.899-.437-1.399H124c.026.485.219.87.578 1.157.365.281.844.422 1.438.422.546 0 .984-.11 1.312-.329.333-.224.5-.52.5-.89zm8.25 0c0-.391-.148-.693-.445-.906-.292-.219-.805-.407-1.539-.563-.729-.156-1.31-.344-1.742-.562s-.745-.48-.954-.782c-.203-.302-.304-.661-.304-1.078 0-.693.291-1.278.875-1.758s1.338-.718 2.25-.718c.958 0 1.734.247 2.328.742a2.35 2.35 0 0 1 .898 1.898h-1.453c0-.396-.169-.737-.508-1.023-.333-.287-.755-.43-1.265-.43-.526 0-.938.115-1.235.344s-.445.529-.445.898c0 .349.138.612.414.789s.774.347 1.492.508c.724.162 1.31.354 1.758.578s.779.495.992.813c.219.312.328.695.328 1.148 0 .755-.302 1.362-.906 1.821-.604.453-1.388.679-2.351.679-.677 0-1.276-.12-1.797-.359s-.93-.573-1.227-1c-.291-.432-.437-.899-.437-1.399h1.445c.026.485.219.87.578 1.157.365.281.844.422 1.438.422.546 0 .984-.11 1.312-.329.333-.224.5-.52.5-.89zm4.899 2.242h-1.446v-8.453h1.446V891zm-1.563-10.695a.87.87 0 0 1 .211-.594c.146-.162.359-.242.641-.242s.494.08.64.242a.85.85 0 0 1 .219.594c0 .234-.073.429-.219.586s-.359.234-.64.234-.495-.078-.641-.234-.211-.352-.211-.586zm3.539 6.398c0-1.318.305-2.364.914-3.141s1.417-1.171 2.422-1.171c1.031 0 1.836.364 2.414 1.093l.07-.937h1.321v8.25c0 1.094-.326 1.956-.977 2.586-.646.63-1.515.945-2.609.945a4.35 4.35 0 0 1-1.789-.39c-.584-.261-1.029-.618-1.336-1.071l.75-.867c.62.766 1.377 1.148 2.273 1.148.703 0 1.25-.197 1.641-.593.396-.396.594-.953.594-1.672v-.727c-.579.667-1.368 1-2.368 1-.989 0-1.791-.398-2.406-1.195-.609-.797-.914-1.883-.914-3.258zm1.453.164c0 .953.196 1.703.586 2.25s.938.813 1.641.813c.911 0 1.581-.414 2.008-1.242v-3.86c-.443-.807-1.107-1.211-1.993-1.211-.703 0-1.252.274-1.648.821s-.594 1.356-.594 2.429zm9.242-4.32l.047 1.062a3.08 3.08 0 0 1 2.532-1.218c1.786 0 2.687 1.007 2.703 3.023V891h-1.446v-5.594c-.005-.609-.145-1.06-.422-1.351-.27-.292-.695-.438-1.273-.438-.469 0-.88.125-1.234.375s-.631.578-.828.985V891h-1.446v-8.453h1.367zm18.571 4.32c0 1.287-.295 2.323-.883 3.11s-1.385 1.179-2.391 1.179c-1.026 0-1.833-.325-2.422-.976v4.07h-1.445v-11.703h1.32l.071.937c.588-.729 1.406-1.093 2.453-1.093 1.016 0 1.818.382 2.406 1.148.594.766.891 1.831.891 3.195v.133zm-1.446-.164c0-.953-.203-1.706-.609-2.258a1.96 1.96 0 0 0-1.672-.828c-.875 0-1.531.388-1.969 1.164v4.039c.433.771 1.094 1.157 1.985 1.157.693 0 1.242-.274 1.648-.821.412-.552.617-1.37.617-2.453zm6.797 4.453c-1.146 0-2.078-.375-2.797-1.125s-1.078-1.763-1.078-3.023v-.266c0-.838.159-1.586.477-2.242.323-.661.771-1.177 1.344-1.547a3.38 3.38 0 0 1 1.875-.562c1.099 0 1.953.362 2.562 1.086s.914 1.76.914 3.109v.602h-5.726c.02.833.263 1.507.726 2.023.469.51 1.063.766 1.781.766.511 0 .943-.105 1.297-.313s.664-.484.93-.828l.883.687c-.709 1.089-1.771 1.633-3.188 1.633zm-.179-7.578a1.92 1.92 0 0 0-1.469.641c-.396.422-.641 1.015-.734 1.781h4.234v-.109c-.042-.735-.24-1.302-.594-1.703-.354-.407-.833-.61-1.437-.61zm4.773 3.117c0-.828.162-1.573.484-2.234.329-.662.782-1.172 1.36-1.531s1.247-.539 1.992-.539c1.151 0 2.081.398 2.789 1.195.714.797 1.07 1.857 1.07 3.18v.101c0 .823-.158 1.563-.476 2.219-.313.651-.763 1.159-1.352 1.523-.583.365-1.255.547-2.015.547-1.146 0-2.076-.398-2.789-1.195s-1.063-1.852-1.063-3.164v-.102zm1.453.172c0 .938.216 1.69.649 2.258s1.02.852 1.75.852 1.317-.287 1.75-.86.648-1.385.648-2.422c0-.927-.221-1.677-.664-2.25-.438-.578-1.021-.867-1.75-.867-.714 0-1.289.284-1.727.852s-.656 1.38-.656 2.437zm15.195 0c0 1.287-.294 2.323-.882 3.11s-1.386 1.179-2.391 1.179c-1.026 0-1.833-.325-2.422-.976v4.07h-1.445v-11.703h1.32l.07.937c.589-.729 1.407-1.093 2.454-1.093 1.015 0 1.817.382 2.406 1.148s.89 1.831.89 3.195v.133zm-1.445-.164c0-.953-.203-1.706-.609-2.258s-.964-.828-1.672-.828c-.875 0-1.531.388-1.969 1.164v4.039c.432.771 1.094 1.157 1.985 1.157.692 0 1.242-.274 1.648-.821s.617-1.37.617-2.453zm4.86 4.297h-1.446v-12h1.446v12zm5.828.156c-1.146 0-2.078-.375-2.797-1.125s-1.078-1.763-1.078-3.023v-.266c0-.838.159-1.586.476-2.242.323-.661.771-1.177 1.344-1.547a3.38 3.38 0 0 1 1.875-.562c1.099 0 1.953.362 2.563 1.086s.914 1.76.914 3.109v.602h-5.727c.021.833.263 1.507.727 2.023.468.51 1.062.766 1.781.766.51 0 .943-.105 1.297-.313a3.24 3.24 0 0 0 .929-.828l.883.687c-.708 1.089-1.771 1.633-3.187 1.633zm-.18-7.578c-.583 0-1.073.214-1.469.641-.396.422-.64 1.015-.734 1.781h4.234v-.109c-.041-.735-.239-1.302-.594-1.703-.354-.407-.833-.61-1.437-.61zm11.086-3.078v2.047h1.578v1.117h-1.578v5.242c0 .339.07.594.211.766s.38.25.719.25a3.47 3.47 0 0 0 .687-.094V891c-.38.104-.75.156-1.109.156-.646 0-1.133-.195-1.461-.586s-.492-.945-.492-1.664v-5.242h-1.539v-1.117h1.539V880.5h1.445zm2.734 6.195c0-.828.162-1.573.485-2.234s.781-1.172 1.359-1.531c.583-.36 1.247-.539 1.992-.539 1.151 0 2.081.398 2.789 1.195.714.797 1.071 1.857 1.071 3.18v.101c0 .823-.159 1.563-.477 2.219a3.55 3.55 0 0 1-1.352 1.523c-.583.365-1.255.547-2.015.547-1.146 0-2.076-.398-2.789-1.195s-1.063-1.852-1.063-3.164v-.102zm1.453.172c0 .938.217 1.69.649 2.258.437.568 1.021.852 1.75.852.734 0 1.318-.287 1.75-.86s.648-1.385.648-2.422c0-.927-.221-1.677-.664-2.25-.437-.578-1.021-.867-1.75-.867a2.07 2.07 0 0 0-1.726.852c-.438.567-.657 1.38-.657 2.437zm19.164 0c0 1.287-.294 2.323-.882 3.11s-1.386 1.179-2.391 1.179c-1.026 0-1.833-.325-2.422-.976v4.07h-1.445v-11.703h1.32l.07.937c.589-.729 1.407-1.093 2.454-1.093 1.015 0 1.817.382 2.406 1.148s.89 1.831.89 3.195v.133zm-1.445-.164c0-.953-.203-1.706-.609-2.258s-.964-.828-1.672-.828c-.875 0-1.531.388-1.969 1.164v4.039c.432.771 1.094 1.157 1.985 1.157.692 0 1.242-.274 1.648-.821s.617-1.37.617-2.453zm7.375-2.859c-.219-.037-.456-.055-.711-.055-.948 0-1.591.404-1.929 1.211v6h-1.446v-8.453h1.406l.024.976c.474-.755 1.146-1.132 2.016-1.132.281 0 .494.036.64.109v1.344zm.797 2.851c0-.828.162-1.573.484-2.234.329-.662.782-1.172 1.36-1.531s1.247-.539 1.992-.539c1.151 0 2.081.398 2.789 1.195.714.797 1.07 1.857 1.07 3.18v.101c0 .823-.158 1.563-.476 2.219-.313.651-.763 1.159-1.352 1.523-.583.365-1.255.547-2.015.547-1.146 0-2.076-.398-2.789-1.195s-1.063-1.852-1.063-3.164v-.102zm1.453.172c0 .938.216 1.69.649 2.258s1.02.852 1.75.852 1.317-.287 1.75-.86.648-1.385.648-2.422c0-.927-.221-1.677-.664-2.25-.437-.578-1.021-.867-1.75-.867-.714 0-1.289.284-1.727.852s-.656 1.38-.656 2.437zm9.547-4.32v9.43c0 1.625-.737 2.437-2.211 2.437-.318 0-.612-.047-.883-.141v-1.156a2.78 2.78 0 0 0 .657.063c.322 0 .567-.089.734-.266s.258-.474.258-.906v-9.461h1.445zm-1.594-2.242c0-.229.071-.425.211-.586.146-.167.357-.25.633-.25s.495.08.641.242a.85.85 0 0 1 .218.594c0 .234-.072.429-.218.586s-.36.234-.641.234-.492-.078-.633-.234-.211-.352-.211-.586zm7.438 10.851c-1.146 0-2.078-.375-2.797-1.125s-1.078-1.763-1.078-3.023v-.266c0-.838.159-1.586.476-2.242.323-.661.771-1.177 1.344-1.547a3.38 3.38 0 0 1 1.875-.562c1.099 0 1.953.362 2.563 1.086s.914 1.76.914 3.109v.602h-5.727c.021.833.263 1.507.727 2.023.468.51 1.062.766 1.781.766.51 0 .943-.105 1.297-.313s.664-.484.93-.828l.882.687c-.708 1.089-1.771 1.633-3.187 1.633zm-.18-7.578c-.583 0-1.073.214-1.469.641-.395.422-.64 1.015-.734 1.781h4.234v-.109c-.041-.735-.239-1.302-.593-1.703-.355-.407-.834-.61-1.438-.61zm8.547 6.399c.516 0 .966-.157 1.352-.469s.599-.703.64-1.172h1.367c-.026.484-.192.945-.5 1.383a3.29 3.29 0 0 1-1.234 1.047 3.53 3.53 0 0 1-1.625.39c-1.151 0-2.068-.383-2.75-1.148-.677-.771-1.016-1.823-1.016-3.156v-.243c0-.823.151-1.554.454-2.195s.734-1.138 1.296-1.492c.568-.354 1.237-.531 2.008-.531.948 0 1.735.283 2.36.851.63.568.966 1.305 1.007 2.211h-1.367c-.041-.547-.25-.995-.625-1.344a1.91 1.91 0 0 0-1.375-.531c-.734 0-1.304.266-1.711.797-.401.526-.601 1.289-.601 2.289v.274c0 .973.2 1.723.601 2.25s.974.789 1.719.789zm6.945-9.477v2.047h1.578v1.117h-1.578v5.242c0 .339.071.594.211.766s.38.25.719.25c.167 0 .396-.031.687-.094V891c-.38.104-.75.156-1.109.156-.646 0-1.133-.195-1.461-.586s-.492-.945-.492-1.664v-5.242h-1.539v-1.117h1.539V880.5h1.445zm8.196 8.258c0-.391-.149-.693-.446-.906-.291-.219-.804-.407-1.539-.563-.729-.156-1.31-.344-1.742-.562-.427-.219-.745-.48-.953-.782s-.305-.661-.305-1.078c0-.693.292-1.278.875-1.758.589-.479 1.339-.718 2.25-.718.959 0 1.735.247 2.328.742a2.35 2.35 0 0 1 .899 1.898h-1.453c0-.396-.17-.737-.508-1.023s-.755-.43-1.266-.43c-.526 0-.937.115-1.234.344a1.08 1.08 0 0 0-.445.898c0 .349.138.612.414.789s.773.347 1.492.508c.724.162 1.31.354 1.758.578s.778.495.992.813c.219.312.328.695.328 1.148 0 .755-.302 1.362-.906 1.821-.604.453-1.388.679-2.352.679-.677 0-1.276-.12-1.797-.359s-.929-.573-1.226-1a2.45 2.45 0 0 1-.438-1.399h1.445c.027.485.219.87.579 1.157.364.281.843.422 1.437.422.547 0 .984-.11 1.313-.329.333-.224.5-.52.5-.89z"/></g></svg>