<svg xmlns="http://www.w3.org/2000/svg" xmlns:xlink="http://www.w3.org/1999/xlink" width="1150" height="699" fill="none" xmlns:v="https://vecta.io/nano"><style><![CDATA[.B{fill:#fff}.C{stroke:#3d4853}.D{stroke:#c6d2d9}.E{fill-rule:evenodd}.F{fill:#03a9f4}.G{fill:#8bc34a}.H{fill:#84d2f6}.I{fill:#e5ebf0}.J{fill:#607d8b}.K{fill:#2e2f30}.L{stroke-miterlimit:16}.M{stroke-dasharray:1 2}.N{color-interpolation-filters:sRGB}]]></style><g filter="url(#F)"><path d="M38 83.096C38 81.386 39.386 80 41.096 80H1107.9a3.1 3.1 0 0 1 3.1 3.096v532.808a3.1 3.1 0 0 1-3.1 3.096H41.096c-1.71 0-3.096-1.386-3.096-3.096V83.096z" class="B"/><use xlink:href="#H" class="E I"/><path d="M63.27 95.229c2.06 0 3.731-1.663 3.731-3.715s-1.67-3.715-3.731-3.715-3.731 1.663-3.731 3.715 1.67 3.715 3.731 3.715z" class="E I"/><use xlink:href="#H" x="24.476" class="E I"/><path fill="#eff4f7" d="M38 101h1073v518H38z"/></g><mask id="A" class="B"><path d="M166 184a2 2 0 0 0-2 2v37H57v377a2 2 0 0 0 2 2h1034c1.1 0 2-.895 2-2V223H271v-37a2 2 0 0 0-2-2H166z" class="E"/></mask><path d="M166 184a2 2 0 0 0-2 2v37H57v377a2 2 0 0 0 2 2h1034c1.1 0 2-.895 2-2V223H271v-37a2 2 0 0 0-2-2H166z" class="B E"/><path d="M164 223v1h1v-1h-1zm-107 0v-1h-1v1h1zm1038 0h1v-1h-1v1zm-824 0h-1v1h1v-1zm-106-37a1 1 0 0 1 1-1v-2a3 3 0 0 0-3 3h2zm0 37v-37h-2v37h2zm-108 1h107v-2H57v2zm1 376V223h-2v377h2zm1 1a1 1 0 0 1-1-1h-2a3 3 0 0 0 3 3v-2zm1034 0H59v2h1034v-2zm1-1a1 1 0 0 1-1 1v2a3 3 0 0 0 3-3h-2zm0-377v377h2V223h-2zm-823 1h824v-2H271v2zm-1-38v37h2v-37h-2zm-1-1a1 1 0 0 1 1 1h2a3 3 0 0 0-3-3v2zm-103 0h103v-2H166v2z" fill="#c6d2d9" mask="url(#A)"/><g class="B D"><path d="M74.5 343.5h1001v59H74.5z"/><path d="M74.5 402.5h1001v59H74.5z"/><path d="M74.5 461.5h1001v59H74.5z"/><path d="M74.5 520.5h1001v59H74.5z"/></g><path opacity=".23" d="M337 344h2v236h-2z" class="F"/><path d="M74.5 306a1.5 1.5 0 0 1 1.5-1.5h998a1.5 1.5 0 0 1 1.5 1.5v37.5H74.5V306z" fill="#e4eaee" class="D"/><rect x="335" y="340" width="6" height="6" rx="3" class="F"/><path d="M952.93 336h-5.59v-.779l2.953-3.282c.437-.496.738-.898.902-1.207a2.05 2.05 0 0 0 .252-.966c0-.446-.135-.811-.404-1.096s-.629-.428-1.078-.428c-.539 0-.959.154-1.26.463s-.445.731-.445 1.277h-1.084c0-.785.252-1.42.756-1.904s1.185-.726 2.033-.726c.793 0 1.42.209 1.881.627s.691.966.691 1.658c0 .84-.535 1.84-1.605 3l-2.286 2.478h4.284V336zm31.986-4.793h.814c.512-.008.915-.143 1.208-.404s.439-.615.439-1.061c0-1-.498-1.5-1.494-1.5-.469 0-.844.135-1.125.404s-.416.62-.416 1.061h-1.084a2.17 2.17 0 0 1 .738-1.682c.496-.449 1.125-.673 1.887-.673.805 0 1.435.212 1.892.638s.686 1.018.686 1.776c0 .371-.121.73-.363 1.078s-.565.607-.979.779c.469.148.83.395 1.084.738s.387.764.387 1.26c0 .766-.25 1.373-.75 1.822s-1.151.674-1.951.674-1.453-.217-1.957-.65-.75-1.006-.75-1.717h1.089c0 .449.147.809.44 1.078s.685.404 1.178.404c.523 0 .923-.136 1.201-.41s.416-.666.416-1.177c0-.497-.152-.877-.457-1.143s-.744-.402-1.319-.41h-.814v-.885zm39.004 1.928h1.18v.885h-1.18V336h-1.09v-1.98h-3.89v-.639l3.82-5.912h1.16v5.666zm-3.75 0h2.66v-4.184l-.13.235-2.53 3.949zm35.67-1.412l.43-4.254h4.37v1.002h-3.45l-.26 2.326c.42-.246.9-.369 1.43-.369.77 0 1.39.258 1.85.773s.68 1.205.68 2.08-.23 1.573-.71 2.08c-.47.504-1.14.756-1.99.756-.75 0-1.37-.209-1.84-.627-.48-.418-.75-.996-.82-1.734h1.03c.06.488.24.857.52 1.107s.65.369 1.11.369c.51 0 .9-.171 1.19-.515s.43-.819.43-1.424c0-.57-.16-1.027-.47-1.371s-.72-.522-1.23-.522c-.48 0-.85.104-1.12.311l-.28.234-.87-.222zM914.902 336h-1.09v-7.225l-2.185.803v-.984l3.105-1.166h.17V336z" fill="#666"/><path d="M320 304v276m36-256v256m36-256v256m36-256v256m36-256v256m36-256v256m36-256v256m36-276v276m36-256v256" class="D L M"/><rect x="392" y="533" width="215" height="30" rx="2" style="mix-blend-mode:multiply" class="G"/><path d="M644 324v256m36-256v256m36-256v256m36-256v256m36-256v256m36-276v276m36-256v256m36-256v256m36-256v256m36-256v256m36-256v256m36-256v256" class="D L M"/><path d="M335.533 336h-1.09v-7.225l-2.185.803v-.984l3.105-1.166h.17V336zm3.674-4.277l.434-4.254h4.371v1.002h-3.451l-.258 2.326c.418-.246.892-.369 1.424-.369.777 0 1.394.258 1.851.773s.686 1.205.686 2.08-.239 1.573-.715 2.08-1.135.756-1.987.756c-.753 0-1.369-.209-1.845-.627s-.748-.996-.815-1.734h1.026c.066.488.24.857.521 1.107s.653.369 1.113.369c.504 0 .899-.171 1.184-.515s.434-.819.434-1.424c0-.57-.157-1.027-.469-1.371s-.721-.522-1.236-.522c-.473 0-.844.104-1.114.311l-.287.234-.867-.222z" class="F"/><g fill="#666"><path d="M439.467 316.773h-3.574L435.09 319h-1.16l3.258-8.531h.984l3.264 8.531h-1.155l-.814-2.227zm-3.235-.925h2.901l-1.453-3.991-1.448 3.991zm11.538.052c0 .965-.221 1.743-.663 2.332s-1.039.885-1.793.885c-.769 0-1.375-.244-1.816-.732v3.053h-1.084v-8.778h.99l.053.703c.441-.547 1.055-.82 1.84-.82.762 0 1.363.287 1.805.861s.668 1.373.668 2.397v.099zm-1.084-.123c0-.715-.153-1.279-.457-1.693a1.47 1.47 0 0 0-1.254-.621 1.59 1.59 0 0 0-1.477.873v3.029c.324.578.82.867 1.488.867a1.46 1.46 0 0 0 1.237-.615c.308-.414.463-1.027.463-1.84zm5.531-2.144a3.18 3.18 0 0 0-.533-.041c-.711 0-1.194.303-1.448.908v4.5h-1.084v-6.34h1.055l.018.733c.355-.567.859-.85 1.511-.85.211 0 .371.027.481.082v1.008zm2.179 5.367h-1.084v-6.34h1.084V319zm-1.171-8.021c0-.176.052-.325.158-.446s.269-.181.48-.181.371.06.481.181.164.27.164.446a.62.62 0 0 1-.164.439c-.11.117-.27.176-.481.176s-.371-.059-.48-.176a.63.63 0 0 1-.158-.439zm4.089 8.021h-1.084v-9h1.084v9zm234.153-2.227h-3.574L687.09 319h-1.16l3.258-8.531h.984l3.264 8.531h-1.155l-.814-2.227zm-3.235-.925h2.901l-1.453-3.991-1.448 3.991zm11.538.052c0 .965-.221 1.743-.663 2.332s-1.039.885-1.793.885c-.769 0-1.375-.244-1.816-.732v3.053h-1.084v-8.778h.99l.053.703c.441-.547 1.055-.82 1.84-.82.762 0 1.363.287 1.805.861s.668 1.373.668 2.397v.099zm-1.084-.123c0-.715-.153-1.279-.457-1.693a1.47 1.47 0 0 0-1.254-.621 1.59 1.59 0 0 0-1.477.873v3.029c.324.578.82.867 1.488.867a1.46 1.46 0 0 0 1.237-.615c.308-.414.463-1.027.463-1.84zm5.531-2.144a3.18 3.18 0 0 0-.533-.041c-.711 0-1.194.303-1.448.908v4.5h-1.084v-6.34h1.055l.018.733c.355-.567.859-.85 1.511-.85.211 0 .371.027.481.082v1.008zm2.179 5.367h-1.084v-6.34h1.084V319zm-1.171-8.021c0-.176.052-.325.158-.446s.269-.181.48-.181.371.06.481.181.164.27.164.446a.62.62 0 0 1-.164.439c-.11.117-.27.176-.481.176s-.371-.059-.48-.176a.63.63 0 0 1-.158-.439zm4.089 8.021h-1.084v-9h1.084v9zm218.221-2.227h-3.574l-.803 2.227h-1.16l3.258-8.531h.984l3.264 8.531h-1.154l-.815-2.227zm-3.234-.925h2.9l-1.453-3.991-1.447 3.991zm11.537.052c0 .965-.221 1.743-.662 2.332a2.12 2.12 0 0 1-1.793.885c-.77 0-1.375-.244-1.817-.732v3.053h-1.084v-8.778h.991l.052.703c.442-.547 1.055-.82 1.84-.82.762 0 1.364.287 1.805.861s.668 1.373.668 2.397v.099zm-1.084-.123c0-.715-.152-1.279-.457-1.693a1.47 1.47 0 0 0-1.254-.621c-.656 0-1.148.291-1.477.873v3.029c.325.578.821.867 1.489.867a1.46 1.46 0 0 0 1.236-.615c.309-.414.463-1.027.463-1.84zm5.531-2.144a3.18 3.18 0 0 0-.533-.041c-.711 0-1.193.303-1.447.908v4.5h-1.084v-6.34h1.054l.018.733c.355-.567.859-.85 1.512-.85.211 0 .371.027.48.082v1.008zm2.18 5.367h-1.084v-6.34h1.084V319zm-1.172-8.021c0-.176.053-.325.158-.446s.27-.181.481-.181.371.06.48.181.164.27.164.446a.62.62 0 0 1-.164.439c-.109.117-.269.176-.48.176s-.371-.059-.481-.176-.158-.264-.158-.439zm4.09 8.021h-1.084v-9h1.084v9zm6.972-3.182h-2.859v-.884h2.859v.884zm5.661-5.349l2.789 6.961 2.789-6.961h1.459V319h-1.125v-3.322l.105-3.586-2.801 6.908h-.861l-2.795-6.891.112 3.569V319h-1.126v-8.531h1.454zM970.783 319c-.062-.125-.113-.348-.152-.668a2.42 2.42 0 0 1-1.805.785c-.625 0-1.138-.176-1.541-.527a1.73 1.73 0 0 1-.597-1.348c0-.66.25-1.172.75-1.535s1.21-.551 2.121-.551h1.054v-.498c0-.379-.113-.679-.34-.902s-.56-.34-1.002-.34c-.386 0-.71.098-.972.293s-.393.432-.393.709h-1.09c0-.316.112-.621.334-.914s.532-.531.914-.703.811-.258 1.272-.258c.73 0 1.303.184 1.717.551s.629.865.644 1.506v2.918c0 .582.074 1.044.223 1.388V319h-1.137zm-1.799-.826c.34 0 .662-.088.967-.264a1.59 1.59 0 0 0 .662-.685v-1.301h-.849c-1.328 0-1.993.388-1.993 1.166 0 .34.114.605.34.797s.518.287.873.287zm6.393-.762l1.477-4.752h1.16l-2.549 7.319c-.395 1.054-1.022 1.582-1.881 1.582l-.205-.018-.404-.076v-.879l.293.023c.367 0 .652-.074.855-.222s.377-.42.51-.815l.24-.644-2.262-6.27h1.184l1.582 4.752zM589.561 336h-5.59v-.779l2.953-3.282c.437-.496.738-.898.902-1.207a2.05 2.05 0 0 0 .252-.966c0-.446-.135-.811-.404-1.096s-.629-.428-1.078-.428c-.539 0-.959.154-1.26.463s-.445.731-.445 1.277h-1.084c0-.785.252-1.42.755-1.904s1.186-.726 2.034-.726c.793 0 1.42.209 1.881.627s.691.966.691 1.658c0 .84-.535 1.84-1.606 3l-2.285 2.478h4.284V336zm6.738 0h-5.59v-.779l2.953-3.282c.438-.496.738-.898.902-1.207a2.05 2.05 0 0 0 .252-.966c0-.446-.134-.811-.404-1.096s-.629-.428-1.078-.428c-.539 0-.959.154-1.26.463s-.445.731-.445 1.277h-1.084c0-.785.252-1.42.756-1.904s1.185-.726 2.033-.726c.793 0 1.42.209 1.881.627s.691.966.691 1.658c0 .84-.535 1.84-1.605 3l-2.285 2.478h4.283V336zm-224.766 0h-1.09v-7.225l-2.185.803v-.984l3.105-1.166h.17V336zm7.43-8.537v.92h-.199c-.844.015-1.516.265-2.016.75s-.789 1.166-.867 2.045c.449-.516 1.062-.774 1.84-.774.742 0 1.334.262 1.775.785s.668 1.2.668 2.028c0 .879-.24 1.582-.721 2.109s-1.117.791-1.922.791c-.816 0-1.478-.312-1.986-.937s-.762-1.438-.762-2.426v-.416c0-1.57.334-2.77 1.002-3.598s1.67-1.258 2.995-1.277h.193zm-1.424 3.844c-.371 0-.713.111-1.025.334s-.53.502-.651.838v.398c0 .703.158 1.269.475 1.699s.711.645 1.183.645c.489 0 .872-.18 1.149-.539s.422-.83.422-1.412-.143-1.059-.428-1.418-.656-.545-1.125-.545zM625.561 336h-5.59v-.779l2.953-3.282c.437-.496.738-.898.902-1.207a2.05 2.05 0 0 0 .252-.966c0-.446-.135-.811-.404-1.096s-.629-.428-1.078-.428c-.539 0-.959.154-1.26.463s-.445.731-.445 1.277h-1.084c0-.785.252-1.42.755-1.904s1.186-.726 2.034-.726c.793 0 1.42.209 1.881.627s.691.966.691 1.658c0 .84-.535 1.84-1.606 3l-2.285 2.478h4.284V336zm2.724-4.793h.815c.511-.008.914-.143 1.207-.404s.439-.615.439-1.061c0-1-.498-1.5-1.494-1.5-.469 0-.844.135-1.125.404s-.416.62-.416 1.061h-1.084a2.17 2.17 0 0 1 .738-1.682c.496-.449 1.125-.673 1.887-.673.805 0 1.436.212 1.893.638s.685 1.018.685 1.776c0 .371-.121.73-.363 1.078s-.565.607-.979.779c.469.148.83.395 1.084.738s.387.764.387 1.26c0 .766-.25 1.373-.75 1.822s-1.15.674-1.951.674-1.453-.217-1.957-.65-.75-1.006-.75-1.717h1.09c0 .449.146.809.439 1.078s.686.404 1.178.404c.523 0 .924-.136 1.201-.41s.416-.666.416-1.177c0-.497-.152-.877-.457-1.143s-.744-.402-1.318-.41h-.815v-.885zM407.533 336h-1.09v-7.225l-2.185.803v-.984l3.105-1.166h.17V336zm8.684-7.922L412.684 336h-1.137l3.521-7.641h-4.617v-.89h5.766v.609zM661.561 336h-5.59v-.779l2.953-3.282c.437-.496.738-.898.902-1.207a2.05 2.05 0 0 0 .252-.966c0-.446-.135-.811-.404-1.096s-.629-.428-1.078-.428c-.539 0-.959.154-1.26.463s-.445.731-.445 1.277h-1.084c0-.785.252-1.42.755-1.904s1.186-.726 2.034-.726c.793 0 1.42.209 1.881.627s.691.966.691 1.658c0 .84-.535 1.84-1.606 3l-2.285 2.478h4.284V336zm5.724-2.865h1.184v.885h-1.184V336h-1.09v-1.98h-3.884v-.639l3.82-5.912h1.154v5.666zm-3.744 0h2.654v-4.184l-.129.235-2.525 3.949z"/><path d="M443.533 336h-1.09v-7.225l-2.185.803v-.984l3.105-1.166h.17V336zm8.35-6.305c0 .426-.113.805-.34 1.137s-.525.592-.908.779c.445.192.797.471 1.054.838a2.13 2.13 0 0 1 .393 1.248c0 .739-.25 1.326-.75 1.764s-1.15.656-1.963.656c-.82 0-1.478-.219-1.974-.656s-.739-1.029-.739-1.764c0-.461.125-.877.375-1.248s.604-.652 1.049-.844c-.379-.187-.678-.447-.896-.779s-.329-.709-.329-1.131c0-.718.231-1.289.692-1.711s1.068-.632 1.822-.632 1.356.21 1.817.632.697.993.697 1.711zm-.885 3.979c0-.477-.152-.865-.457-1.166s-.695-.451-1.184-.451-.88.148-1.177.445-.44.687-.44 1.172.143.865.428 1.142.689.416 1.201.416.906-.138 1.195-.416.434-.662.434-1.142zm-1.629-5.432c-.426 0-.771.133-1.037.399s-.393.619-.393 1.072c0 .433.129.785.387 1.055s.61.398 1.043.398.779-.133 1.037-.398.393-.622.393-1.055-.135-.787-.404-1.061-.612-.41-1.026-.41zM697.561 336h-5.59v-.779l2.953-3.282c.437-.496.738-.898.902-1.207a2.05 2.05 0 0 0 .252-.966c0-.446-.135-.811-.404-1.096s-.629-.428-1.078-.428c-.539 0-.959.154-1.26.463s-.445.731-.445 1.277h-1.084c0-.785.252-1.42.755-1.904s1.186-.726 2.034-.726c.793 0 1.42.209 1.881.627s.691.966.691 1.658c0 .84-.535 1.84-1.606 3l-2.285 2.478h4.284V336zm1.646-4.277l.434-4.254h4.371v1.002h-3.451l-.258 2.326c.418-.246.892-.369 1.424-.369.777 0 1.394.258 1.851.773s.686 1.205.686 2.08-.239 1.573-.715 2.08-1.135.756-1.987.756c-.753 0-1.369-.209-1.845-.627s-.748-.996-.815-1.734h1.026c.066.488.24.857.521 1.107s.653.369 1.113.369c.504 0 .899-.171 1.184-.515s.434-.819.434-1.424c0-.57-.157-1.027-.469-1.371s-.721-.522-1.236-.522c-.473 0-.844.104-1.114.311l-.287.234-.867-.222zM479.533 336h-1.09v-7.225l-2.185.803v-.984l3.105-1.166h.17V336zm7.33-3.75a2.63 2.63 0 0 1-.814.65c-.313.164-.656.246-1.031.246-.493 0-.922-.121-1.289-.363s-.645-.582-.844-1.019-.299-.928-.299-1.459c0-.571.107-1.084.322-1.541a2.41 2.41 0 0 1 .926-1.049c.398-.242.863-.363 1.395-.363.843 0 1.507.316 1.992.949s.732 1.488.732 2.578v.316c0 1.66-.328 2.873-.984 3.639s-1.647 1.152-2.971 1.172h-.211v-.914h.229c.894-.016 1.582-.248 2.062-.697s.742-1.168.785-2.145zm-1.67 0c.364 0 .698-.111 1.002-.334s.534-.498.674-.826v-.434c0-.711-.154-1.289-.463-1.734s-.699-.668-1.172-.668a1.39 1.39 0 0 0-1.148.551c-.289.363-.434.843-.434 1.441 0 .582.139 1.063.416 1.442a1.34 1.34 0 0 0 1.125.562zM733.561 336h-5.59v-.779l2.953-3.282c.437-.496.738-.898.902-1.207a2.05 2.05 0 0 0 .252-.966c0-.446-.135-.811-.404-1.096s-.629-.428-1.078-.428c-.539 0-.959.154-1.26.463s-.445.731-.445 1.277h-1.084c0-.785.252-1.42.755-1.904s1.186-.726 2.034-.726c.793 0 1.42.209 1.881.627s.691.966.691 1.658c0 .84-.535 1.84-1.606 3l-2.285 2.478h4.284V336zm5.402-8.537v.92h-.199c-.844.015-1.516.265-2.016.75s-.789 1.166-.867 2.045c.449-.516 1.062-.774 1.84-.774.742 0 1.334.262 1.775.785s.668 1.2.668 2.028c0 .879-.24 1.582-.721 2.109s-1.117.791-1.922.791c-.816 0-1.478-.312-1.986-.937s-.762-1.438-.762-2.426v-.416c0-1.57.334-2.77 1.002-3.598s1.67-1.258 2.995-1.277h.193zm-1.424 3.844c-.371 0-.713.111-1.025.334s-.53.502-.651.838v.398c0 .703.158 1.269.475 1.699s.711.645 1.183.645c.489 0 .872-.18 1.149-.539s.422-.83.422-1.412-.143-1.059-.428-1.418-.656-.545-1.125-.545zM517.561 336h-5.59v-.779l2.953-3.282c.437-.496.738-.898.902-1.207a2.05 2.05 0 0 0 .252-.966c0-.446-.135-.811-.404-1.096s-.629-.428-1.078-.428c-.539 0-.959.154-1.26.463s-.445.731-.445 1.277h-1.084c0-.785.252-1.42.755-1.904s1.186-.726 2.034-.726c.793 0 1.42.209 1.881.627s.691.966.691 1.658c0 .84-.535 1.84-1.606 3l-2.285 2.478h4.284V336zm6.498-3.639c0 1.27-.217 2.213-.651 2.83s-1.111.926-2.033.926c-.91 0-1.584-.301-2.021-.902s-.665-1.508-.68-2.707v-1.447c0-1.254.217-2.186.65-2.795s1.114-.914 2.039-.914c.918 0 1.594.294 2.028.884s.656 1.493.668 2.719v1.406zm-1.084-1.482c0-.918-.129-1.586-.387-2.004s-.666-.633-1.225-.633-.959.209-1.213.627-.384 1.061-.392 1.928v1.734c0 .922.133 1.604.398 2.045s.676.656 1.219.656c.535 0 .932-.207 1.189-.621s.399-1.066.411-1.957v-1.775zM769.561 336h-5.59v-.779l2.953-3.282c.437-.496.738-.898.902-1.207a2.05 2.05 0 0 0 .252-.966c0-.446-.135-.811-.404-1.096s-.629-.428-1.078-.428c-.539 0-.959.154-1.26.463s-.445.731-.445 1.277h-1.084c0-.785.252-1.42.755-1.904s1.186-.726 2.034-.726c.793 0 1.42.209 1.881.627s.691.966.691 1.658c0 .84-.535 1.84-1.606 3l-2.285 2.478h4.284V336zm6.656-7.922L772.684 336h-1.137l3.521-7.641h-4.617v-.89h5.766v.609zM553.561 336h-5.59v-.779l2.953-3.282c.437-.496.738-.898.902-1.207a2.05 2.05 0 0 0 .252-.966c0-.446-.135-.811-.404-1.096s-.629-.428-1.078-.428c-.539 0-.959.154-1.26.463s-.445.731-.445 1.277h-1.084c0-.785.252-1.42.755-1.904s1.186-.726 2.034-.726c.793 0 1.42.209 1.881.627s.691.966.691 1.658c0 .84-.535 1.84-1.606 3l-2.285 2.478h4.284V336zm4.71 0h-1.089v-7.225l-2.186.803v-.984l3.106-1.166h.169V336zm247.29 0h-5.59v-.779l2.953-3.282c.437-.496.738-.898.902-1.207a2.05 2.05 0 0 0 .252-.966c0-.446-.135-.811-.404-1.096s-.629-.428-1.078-.428c-.539 0-.959.154-1.26.463s-.445.731-.445 1.277h-1.084c0-.785.252-1.42.755-1.904s1.186-.726 2.034-.726c.793 0 1.42.209 1.881.627s.691.966.691 1.658c0 .84-.535 1.84-1.606 3l-2.285 2.478h4.284V336zm6.322-6.305c0 .426-.113.805-.34 1.137s-.525.592-.908.779c.445.192.797.471 1.054.838s.393.783.393 1.248c0 .739-.25 1.326-.75 1.764s-1.15.656-1.963.656c-.82 0-1.478-.219-1.974-.656s-.739-1.029-.739-1.764c0-.461.125-.877.375-1.248s.604-.652 1.049-.844c-.379-.187-.678-.447-.896-.779s-.329-.709-.329-1.131c0-.718.231-1.289.692-1.711s1.068-.632 1.822-.632 1.356.21 1.817.632.697.993.697 1.711zm-.885 3.979c0-.477-.152-.865-.457-1.166s-.695-.451-1.184-.451-.88.148-1.177.445-.44.687-.44 1.172.143.865.428 1.142.689.416 1.201.416.906-.138 1.195-.416.434-.662.434-1.142zm-1.629-5.432c-.426 0-.771.133-1.037.399s-.393.619-.393 1.072c0 .433.129.785.387 1.055s.61.398 1.043.398.779-.133 1.037-.398.393-.622.393-1.055-.135-.787-.404-1.061-.612-.41-1.026-.41zM841.561 336h-5.59v-.779l2.953-3.282c.437-.496.738-.898.902-1.207a2.05 2.05 0 0 0 .252-.966c0-.446-.135-.811-.404-1.096s-.629-.428-1.078-.428c-.539 0-.959.154-1.26.463s-.445.731-.445 1.277h-1.084c0-.785.252-1.42.755-1.904s1.186-.726 2.034-.726c.793 0 1.42.209 1.881.627s.691.966.691 1.658c0 .84-.535 1.84-1.606 3l-2.285 2.478h4.284V336zm5.302-3.75a2.63 2.63 0 0 1-.814.65c-.313.164-.656.246-1.031.246-.493 0-.922-.121-1.289-.363s-.645-.582-.844-1.019-.299-.928-.299-1.459c0-.571.107-1.084.322-1.541a2.41 2.41 0 0 1 .926-1.049c.398-.242.863-.363 1.395-.363.843 0 1.507.316 1.992.949s.732 1.488.732 2.578v.316c0 1.66-.328 2.873-.984 3.639s-1.647 1.152-2.971 1.172h-.211v-.914h.229c.894-.016 1.582-.248 2.062-.697s.742-1.168.785-2.145zm-1.67 0c.364 0 .698-.111 1.002-.334s.534-.498.674-.826v-.434c0-.711-.154-1.289-.463-1.734s-.699-.668-1.172-.668a1.39 1.39 0 0 0-1.148.551c-.289.363-.434.843-.434 1.441 0 .582.139 1.063.416 1.442a1.34 1.34 0 0 0 1.125.562zm28.354-1.043h.814c.512-.008.914-.143 1.207-.404s.44-.615.44-1.061c0-1-.498-1.5-1.494-1.5-.469 0-.844.135-1.125.404s-.416.62-.416 1.061h-1.084a2.17 2.17 0 0 1 .738-1.682c.496-.449 1.125-.673 1.887-.673.804 0 1.435.212 1.892.638s.686 1.018.686 1.776c0 .371-.121.73-.363 1.078s-.565.607-.979.779c.469.148.83.395 1.084.738s.387.764.387 1.26c0 .766-.25 1.373-.75 1.822s-1.151.674-1.951.674-1.454-.217-1.958-.65-.75-1.006-.75-1.717h1.09c0 .449.147.809.44 1.078s.685.404 1.178.404c.523 0 .923-.136 1.201-.41s.416-.666.416-1.177c0-.497-.153-.877-.457-1.143s-.744-.402-1.319-.41h-.814v-.885zm10.512 1.154c0 1.27-.217 2.213-.651 2.83s-1.111.926-2.033.926c-.91 0-1.584-.301-2.021-.902s-.665-1.508-.68-2.707v-1.447c0-1.254.217-2.186.65-2.795s1.114-.914 2.039-.914c.918 0 1.594.294 2.028.884s.656 1.493.668 2.719v1.406zm-1.084-1.482c0-.918-.129-1.586-.387-2.004s-.666-.633-1.225-.633-.959.209-1.213.627-.384 1.061-.392 1.928v1.734c0 .922.133 1.604.398 2.045s.676.656 1.219.656c.535 0 .932-.207 1.189-.621s.399-1.066.411-1.957v-1.775z"/></g><path d="M100.885 320.395h-2.742V328h-1.119v-7.605h-2.736v-.926h6.598v.926zm3.14 7.722c-.859 0-1.558-.281-2.097-.844s-.809-1.322-.809-2.267v-.199c0-.629.119-1.19.358-1.682s.578-.883 1.007-1.16a2.54 2.54 0 0 1 1.407-.422c.824 0 1.464.271 1.921.814s.686 1.321.686 2.332v.452h-4.295c.016.625.197 1.13.545 1.517s.797.574 1.336.574c.383 0 .707-.078.973-.234a2.44 2.44 0 0 0 .697-.621l.662.516c-.531.816-1.328 1.224-2.391 1.224zm-.134-5.683a1.44 1.44 0 0 0-1.102.48c-.297.316-.48.762-.551 1.336h3.176v-.082c-.031-.551-.18-.977-.445-1.277-.266-.305-.625-.457-1.078-.457zm7.781 5.566c-.063-.125-.113-.348-.152-.668a2.42 2.42 0 0 1-1.805.785c-.625 0-1.139-.176-1.541-.527s-.598-.805-.598-1.348c0-.66.25-1.172.75-1.535s1.211-.551 2.121-.551h1.055v-.498c0-.379-.113-.679-.34-.902s-.56-.34-1.002-.34c-.387 0-.711.098-.972.293s-.393.432-.393.709h-1.09c0-.316.111-.621.334-.914s.531-.531.914-.703.811-.258 1.272-.258c.73 0 1.302.184 1.716.551s.629.865.645 1.506v2.918c0 .582.074 1.044.223 1.388V328h-1.137zm-1.799-.826c.34 0 .662-.088.967-.264s.525-.404.662-.685v-1.301h-.85c-1.328 0-1.992.388-1.992 1.166 0 .34.113.605.34.797s.518.287.873.287zm5.432-5.514l.029.703c.465-.547 1.092-.82 1.881-.82.887 0 1.49.34 1.81 1.019.211-.304.485-.55.821-.738s.74-.281 1.201-.281c1.391 0 2.098.736 2.121 2.209V328h-1.084v-4.184c0-.453-.104-.791-.311-1.013s-.554-.34-1.043-.34c-.402 0-.736.121-1.001.363s-.42.561-.463.967V328h-1.09v-4.154c0-.922-.451-1.383-1.354-1.383-.711 0-1.197.303-1.459.908V328h-1.084v-6.34h1.026zm13.5 0l.029.703c.465-.547 1.092-.82 1.881-.82.887 0 1.49.34 1.81 1.019.211-.304.485-.55.821-.738s.74-.281 1.201-.281c1.391 0 2.098.736 2.121 2.209V328h-1.084v-4.184c0-.453-.104-.791-.311-1.013s-.554-.34-1.043-.34c-.402 0-.736.121-1.001.363s-.42.561-.463.967V328h-1.09v-4.154c0-.922-.451-1.383-1.354-1.383-.711 0-1.197.303-1.459.908V328h-1.084v-6.34h1.026zm12.134 6.457c-.859 0-1.558-.281-2.097-.844s-.809-1.322-.809-2.267v-.199c0-.629.119-1.19.358-1.682s.578-.883 1.007-1.16a2.54 2.54 0 0 1 1.407-.422c.824 0 1.465.271 1.922.814s.685 1.321.685 2.332v.452h-4.295c.016.625.197 1.13.545 1.517s.797.574 1.336.574c.383 0 .707-.078.973-.234a2.44 2.44 0 0 0 .697-.621l.662.516c-.531.816-1.328 1.224-2.391 1.224zm-.134-5.683a1.44 1.44 0 0 0-1.102.48c-.297.316-.48.762-.551 1.336h3.176v-.082c-.031-.551-.18-.977-.445-1.277-.266-.305-.625-.457-1.078-.457zm4.886-.774l.03.703c.465-.547 1.091-.82 1.881-.82.886 0 1.49.34 1.81 1.019a2.42 2.42 0 0 1 .82-.738c.34-.187.741-.281 1.202-.281 1.39 0 2.097.736 2.121 2.209V328h-1.084v-4.184c0-.453-.104-.791-.311-1.013s-.555-.34-1.043-.34c-.402 0-.736.121-1.002.363s-.42.561-.463.967V328h-1.09v-4.154c0-.922-.451-1.383-1.353-1.383-.711 0-1.197.303-1.459.908V328h-1.084v-6.34h1.025zm14.871 3.24c0 .969-.222 1.748-.667 2.338s-1.043.879-1.793.879c-.801 0-1.42-.283-1.858-.849l-.053.732h-.996v-9h1.084v3.357c.438-.543 1.041-.814 1.811-.814s1.373.291 1.81.873.662 1.379.662 2.391v.093zm-1.083-.123c0-.738-.143-1.308-.428-1.711s-.696-.603-1.231-.603c-.715 0-1.228.332-1.541.996v2.742c.332.664.85.996 1.553.996.52 0 .924-.201 1.213-.603s.434-1.008.434-1.817zm5.085 3.34c-.859 0-1.558-.281-2.097-.844s-.809-1.322-.809-2.267v-.199c0-.629.119-1.19.358-1.682s.578-.883 1.007-1.16a2.54 2.54 0 0 1 1.407-.422c.824 0 1.465.271 1.922.814s.685 1.321.685 2.332v.452h-4.295c.016.625.197 1.13.545 1.517s.797.574 1.336.574c.383 0 .707-.078.973-.234a2.44 2.44 0 0 0 .697-.621l.662.516c-.531.816-1.328 1.224-2.391 1.224zm-.134-5.683a1.44 1.44 0 0 0-1.102.48c-.297.316-.48.762-.551 1.336h3.176v-.082c-.031-.551-.18-.977-.445-1.277-.266-.305-.625-.457-1.078-.457zm6.931.199a3.17 3.17 0 0 0-.533-.041c-.711 0-1.193.303-1.447.908v4.5h-1.084v-6.34h1.055l.017.733c.356-.567.86-.85 1.512-.85.211 0 .371.027.48.082v1.008z" fill="#999"/><path d="M67.77 124.789h-5.484V140h-2.238v-15.211h-5.473v-1.851H67.77v1.851zM72.316 140h-2.168v-12.68h2.168V140zm-2.344-16.043a1.31 1.31 0 0 1 .316-.891c.219-.242.539-.363.961-.363s.742.121.961.363.328.539.328.891-.109.645-.328.879-.539.352-.961.352-.742-.118-.961-.352c-.211-.234-.316-.527-.316-.879zm7.863 3.363l.059 1.407c.93-1.094 2.184-1.641 3.762-1.641 1.773 0 2.981.68 3.621 2.039.422-.609.969-1.102 1.641-1.477.68-.375 1.48-.562 2.402-.562 2.781 0 4.195 1.473 4.242 4.418V140h-2.168v-8.367c0-.906-.207-1.582-.621-2.028-.414-.453-1.109-.679-2.086-.679-.805 0-1.473.242-2.004.726-.531.477-.84 1.121-.926 1.934V140h-2.18v-8.309c0-1.843-.902-2.765-2.707-2.765-1.422 0-2.394.605-2.918 1.816V140h-2.168v-12.68h2.051zm24.269 12.914c-1.718 0-3.117-.562-4.195-1.687-1.078-1.133-1.617-2.645-1.617-4.535v-.399c0-1.258.238-2.379.715-3.363.484-.992 1.156-1.766 2.016-2.32.867-.563 1.805-.844 2.813-.844 1.648 0 2.93.543 3.844 1.629s1.371 2.64 1.371 4.664v.902h-8.59c.031 1.25.395 2.262 1.09 3.035.703.766 1.594 1.149 2.672 1.149.765 0 1.414-.156 1.945-.469a4.87 4.87 0 0 0 1.394-1.242l1.325 1.031c-1.063 1.633-2.657 2.449-4.782 2.449zm-.269-11.367c-.875 0-1.609.321-2.203.961-.594.633-.961 1.524-1.102 2.672h6.352v-.164c-.063-1.102-.36-1.953-.891-2.555-.531-.609-1.25-.914-2.156-.914zm13.113 4.676c0-1.242.242-2.359.727-3.352.492-.992 1.172-1.757 2.039-2.296.875-.54 1.871-.809 2.988-.809 1.727 0 3.121.598 4.184 1.793 1.07 1.195 1.605 2.785 1.605 4.769v.153c0 1.234-.238 2.344-.715 3.328-.468.976-1.144 1.738-2.027 2.285-.875.547-1.883.82-3.023.82-1.719 0-3.114-.597-4.184-1.793-1.063-1.195-1.594-2.777-1.594-4.746v-.152zm2.18.258c0 1.406.324 2.535.973 3.387.656.851 1.531 1.277 2.625 1.277 1.101 0 1.976-.43 2.625-1.289.648-.867.972-2.078.972-3.633 0-1.391-.332-2.516-.996-3.375-.656-.867-1.531-1.301-2.625-1.301a3.11 3.11 0 0 0-2.59 1.278c-.656.851-.984 2.07-.984 3.656zM130.277 140v-11.004h-2.004v-1.676h2.004v-1.3c0-1.36.364-2.411 1.09-3.153s1.754-1.113 3.082-1.113a5.69 5.69 0 0 1 1.489.199l-.118 1.758a6.25 6.25 0 0 0-1.172-.106c-.703 0-1.246.207-1.628.622-.383.406-.575.992-.575 1.757v1.336h2.707v1.676h-2.707V140h-2.168zm8.344 0v-11.004h-2.004v-1.676h2.004v-1.3c0-1.36.363-2.411 1.09-3.153s1.754-1.113 3.082-1.113a5.68 5.68 0 0 1 1.488.199l-.117 1.758a6.25 6.25 0 0 0-1.172-.106c-.703 0-1.246.207-1.629.622-.383.406-.574.992-.574 1.757v1.336h2.707v1.676h-2.707V140h-2.168z" fill="#666"/><rect x="871.5" y="118.5" width="39" height="39" rx="1.5" class="B D"/><path d="M900.3 136l-1-.2c-.2-.7-.5-1.4-.9-2.1l.6-.9c.2-.3.3-.7 0-.9l-1.9-1.9a.76.76 0 0 0-.4-.2c-.2 0-.4.1-.5.2l-.9.5c-.6-.4-1.3-.7-2.1-.9l-.2-1c-.1-.3-.3-.6-.7-.6h-2.6c-.4 0-.6.3-.7.7l-.2 1c-.8.1-1.5.4-2.1.8l-.9-.5c-.1-.1-.3-.2-.5-.2s-.3.1-.4.2l-1.9 1.9c-.3.2-.2.6 0 .9l.5.9c-.4.6-.7 1.3-.9 2.1l-.9.2c-.4.1-.7.3-.7.7v2.7c0 .4.3.6.7.7l1 .2c.2.7.5 1.4.9 2.1l-.6.8c-.2.3-.3.7 0 .9l1.9 1.9a.76.76 0 0 0 .4.2c.2 0 .4-.1.5-.2l.9-.5c.6.4 1.3.7 2.1.9l.2 1c.1.3.3.6.7.6h2.7c.4 0 .6-.3.7-.7l.2-1c.7-.2 1.4-.5 2.1-.9l.9.5c.2.1.4.2.5.2s.3 0 .4-.2l1.9-1.9c.3-.3.2-.7 0-.9l-.5-.9c.4-.6.7-1.3.9-2.1l1-.2c.3-.1.5-.3.5-.7v-2.5c-.2-.4-.3-.6-.7-.7zm-.3 3.1l-.9.2c-.3.1-.6.3-.7.6-.2.6-.4 1.3-.8 1.9-.2.3-.2.6 0 .9l.5.8-1.6 1.6-.8-.5c-.1-.1-.3-.1-.5-.1s-.3 0-.4.1l-1.8.8c-.3.1-.6.3-.6.7l-.3.9h-2.2l-.2-.9c-.1-.3-.3-.6-.6-.7-.6-.2-1.3-.4-1.8-.8-.1-.1-.3-.1-.4-.1-.2 0-.3 0-.5.1l-.8.5-1.6-1.6.5-.8c.2-.3.2-.6 0-.9-.5-.5-.7-1.2-.9-1.8-.1-.3-.3-.6-.7-.6l-.9-.3v-2.2l1-.2c.3-.1.5-.4.6-.7.2-.6.4-1.3.8-1.8.2-.3.2-.6 0-.9l-.5-.9 1.6-1.6.8.5c.1.1.3.1.5.1s.3 0 .4-.1c.6-.3 1.2-.5 1.8-.7.3-.1.6-.3.6-.7l.3-.9h2.2l.2.9c.1.3.3.6.6.7.6.2 1.3.4 1.8.8.1.1.3.1.4.1.2 0 .3 0 .5-.1l.8-.5 1.6 1.6-.5.8c-.2.3-.2.6 0 .9.5.5.8 1.2.9 1.8.1.3.3.6.7.6l.9.3v2.2zm-9-6.1a4.95 4.95 0 1 0 0 10 4.95 4.95 0 1 0 0-10zm0 9c-2.2 0-4-1.8-4-4s1.8-4 4-4 4 1.8 4 4-1.7 4-4 4z" fill="#37474f"/><rect x="931" y="118" width="164" height="40" rx="2" class="F"/><path d="M955.806 138.974h-2.338V143h-1.32v-9.953h3.295c1.121 0 1.983.255 2.584.765s.91 1.254.91 2.229c0 .62-.169 1.16-.506 1.62s-.798.804-1.395 1.032l2.338 4.225V143h-1.408l-2.16-4.026zm-2.338-1.074h2.016c.652 0 1.169-.168 1.552-.505.388-.338.581-.789.581-1.354 0-.615-.184-1.087-.554-1.415-.364-.328-.893-.494-1.585-.499h-2.01v3.773zm12.94.499h-4.313v3.528h5.01V143h-6.323v-9.953h6.255v1.08h-4.942v3.199h4.313v1.073zm9.933-.054c0 .961-.153 1.791-.458 2.488s-.734 1.235-1.285 1.627l1.777 1.394-.896.828-2.098-1.668c-.328.082-.675.123-1.039.123-.784 0-1.479-.192-2.085-.575s-1.078-.936-1.415-1.647-.504-1.543-.513-2.481v-.718c0-.957.166-1.803.499-2.536s.802-1.295 1.408-1.682 1.308-.588 2.092-.588c.802 0 1.506.194 2.112.581s1.081.946 1.409 1.675.492 1.572.492 2.543v.636zm-1.313-.643c0-1.171-.234-2.073-.704-2.707-.465-.638-1.13-.957-1.996-.957-.825 0-1.476.317-1.955.95s-.718 1.504-.731 2.625v.732c0 1.139.237 2.037.711 2.693s1.141.984 1.989.984 1.504-.307 1.969-.922.704-1.507.717-2.66v-.738zm10.343-4.655v6.767c-.004.939-.301 1.707-.889 2.304-.583.597-1.376.932-2.378 1.005l-.349.014c-1.089 0-1.957-.294-2.605-.882s-.975-1.397-.984-2.427v-6.781h1.299v6.74c0 .72.198 1.281.595 1.682s.961.594 1.695.594c.743 0 1.31-.198 1.702-.594.397-.397.595-.955.595-1.675v-6.747h1.319zm7.697 5.352h-4.313v3.528h5.011V143h-6.324v-9.953h6.255v1.08h-4.942v3.199h4.313v1.073zm5.264.164c-1.126-.323-1.946-.72-2.461-1.189s-.766-1.057-.766-1.75c0-.784.313-1.431.937-1.941s1.445-.773 2.447-.773c.684 0 1.292.132 1.821.397.54.264.96.629 1.25 1.093a2.83 2.83 0 0 1 .44 1.525h-1.32c0-.602-.19-1.073-.57-1.415s-.923-.52-1.621-.52c-.647 0-1.153.144-1.517.431s-.54.677-.54 1.183c0 .405.171.749.512 1.032.347.278.932.533 1.757.765s1.479.49 1.939.773c.47.278.82.604 1.04.977.23.374.34.814.34 1.32 0 .806-.31 1.453-.94 1.941s-1.47.725-2.522.725c-.684 0-1.322-.13-1.914-.39s-1.051-.624-1.374-1.08a2.64 2.64 0 0 1-.479-1.552h1.319c0 .602.221 1.078.663 1.429.447.346 1.042.519 1.785.519.692 0 1.223-.141 1.592-.423s.55-.668.55-1.156-.17-.863-.51-1.128-.96-.533-1.858-.793zm12.258-4.436h-3.2V143h-1.31v-8.873h-3.19v-1.08h7.7v1.08zm11.28 0h-3.2V143h-1.31v-8.873h-3.19v-1.08h7.7v1.08zm2.88 8.873h-1.31v-9.953h1.31V143zm4.1-9.953l3.26 8.121 3.25-8.121h1.7V143h-1.31v-3.876l.13-4.184-3.27 8.06h-1.01l-3.26-8.039.13 4.163V143h-1.31v-9.953h1.69zm16.16 5.352h-4.32v3.528h5.02V143h-6.33v-9.953h6.26v1.08h-4.95v3.199h4.32v1.073zm13.46-.054c0 .975-.17 1.827-.49 2.556-.33.725-.8 1.279-1.4 1.661s-1.3.575-2.1.575c-.79 0-1.48-.192-2.09-.575s-1.08-.936-1.41-1.647c-.34-.715-.51-1.543-.52-2.481v-.718c0-.957.17-1.803.5-2.536s.8-1.295 1.41-1.682 1.31-.588 2.09-.588c.8 0 1.5.194 2.11.581s1.08.941 1.41 1.675c.32.729.49 1.579.49 2.55v.629zm-1.31-.643c0-1.18-.23-2.085-.71-2.714-.47-.633-1.14-.95-1.99-.95-.83 0-1.48.317-1.96.95-.47.629-.72 1.504-.73 2.625v.732c0 1.144.24 2.044.72 2.7s1.14.977 1.99.977c.84 0 1.5-.307 1.96-.922.47-.62.71-1.507.72-2.66v-.738zm8.77.902h-4.18V143h-1.31v-9.953h6.16v1.08h-4.85v3.404h4.18v1.073zm7.73 0h-4.17V143h-1.32v-9.953h6.17v1.08h-4.85v3.404h4.17v1.073z" class="B"/><path d="M57.5 186a1.5 1.5 0 0 1 1.5-1.5h98a1.5 1.5 0 0 1 1.5 1.5v37.5h-101V186zm219 0a1.5 1.5 0 0 1 1.5-1.5h98a1.5 1.5 0 0 1 1.5 1.5v37.5h-101V186z" fill="#e4eaee" class="D"/><path d="M194.032 200.127h-3.199V209h-1.306v-8.873h-3.192v-1.08h7.697v1.08zm2.885 8.873h-1.313v-9.953h1.313V209zm4.102-9.953l3.253 8.121 3.254-8.121h1.703V209h-1.313v-3.876l.123-4.184-3.268 8.06h-1.004l-3.261-8.039.13 4.163V209h-1.313v-9.953h1.696zm16.153 5.352h-4.314v3.528h5.011V209h-6.323v-9.953h6.255v1.08h-4.943v3.199h4.314v1.073zm3.65 3.528h4.717V209h-6.036v-9.953h1.319v8.88zm7.622 1.073h-1.312v-9.953h1.312V209zm10.056 0h-1.319l-5.011-7.67V209h-1.319v-9.953h1.319l5.024 7.704v-7.704h1.306V209zm7.957-4.601h-4.313v3.528h5.01V209h-6.323v-9.953h6.255v1.08h-4.942v3.199h4.313v1.073zM297.155 209v-9.953h3.254c1.08 0 1.891.223 2.434.67s.82 1.107.82 1.982a2.04 2.04 0 0 1-.396 1.238c-.265.355-.625.631-1.08.827.537.15.961.437 1.271.861s.472.921.472 1.504c0 .893-.29 1.595-.868 2.105s-1.397.766-2.455.766h-3.452zm1.313-4.655v3.582h2.167c.61 0 1.091-.157 1.442-.472s.533-.756.533-1.312c0-1.199-.651-1.798-1.955-1.798h-2.187zm0-1.053h1.982c.574 0 1.032-.144 1.374-.431s.52-.676.52-1.169c0-.546-.16-.943-.479-1.189s-.804-.376-1.456-.376h-1.941v3.165zm12.906 3.11h-4.17l-.936 2.598h-1.354l3.801-9.953h1.148l3.808 9.953h-1.347l-.95-2.598zm-3.773-1.08h3.383l-1.695-4.655-1.688 4.655zm8.729 2.605h4.717V209h-6.036v-9.953h1.319v8.88zm11.847-1.525h-4.17L323.07 209h-1.353l3.801-9.953h1.148l3.808 9.953h-1.347l-.95-2.598zm-3.774-1.08h3.384l-1.695-4.655-1.689 4.655zm15.06 3.678h-1.319l-5.011-7.67V209h-1.32v-9.953h1.32l5.024 7.704v-7.704h1.306V209zm9.652-3.158c-.123 1.053-.512 1.866-1.169 2.44-.651.57-1.52.855-2.604.855-1.176 0-2.119-.422-2.83-1.265s-1.06-1.971-1.06-3.384v-.957c0-.925.164-1.738.492-2.44s.802-1.24 1.409-1.613c.606-.379 1.307-.568 2.105-.568 1.057 0 1.905.296 2.543.889.638.588 1.009 1.403 1.114 2.447h-1.319c-.114-.793-.362-1.367-.745-1.723s-.909-.533-1.593-.533c-.839 0-1.497.31-1.976.93s-.711 1.502-.711 2.645v.964c0 1.08.226 1.939.677 2.577s1.083.957 1.894.957c.729 0 1.287-.164 1.675-.492s.651-.909.779-1.729h1.319zm7.424-1.443h-4.313v3.528h5.01V209h-6.323v-9.953h6.255v1.08h-4.942v3.199h4.313v1.073zm-277.733.575h-2.338V209h-1.319v-9.953h3.295c1.121 0 1.982.255 2.584.765s.909 1.254.909 2.229c0 .62-.169 1.16-.506 1.62s-.798.804-1.395 1.032l2.338 4.225V209h-1.408l-2.16-4.026zm-2.338-1.074h2.017c.652 0 1.169-.168 1.552-.505s.581-.789.581-1.354c0-.615-.185-1.087-.554-1.415s-.893-.494-1.586-.499h-2.01v3.773zm12.94.499h-4.313v3.528h5.011V209h-6.323v-9.953h6.255v1.08h-4.942v3.199h4.313v1.073zm9.933-.054c0 .961-.153 1.791-.458 2.488s-.734 1.235-1.285 1.627l1.777 1.394-.895.828-2.099-1.668a4.27 4.27 0 0 1-1.039.123c-.784 0-1.479-.192-2.085-.575s-1.078-.936-1.415-1.647-.504-1.543-.513-2.481v-.718c0-.957.166-1.803.499-2.536s.802-1.295 1.408-1.682 1.308-.588 2.092-.588c.802 0 1.506.194 2.112.581s1.08.946 1.408 1.675.492 1.572.492 2.543v.636zm-1.312-.643c0-1.171-.235-2.073-.704-2.707s-1.13-.957-1.996-.957c-.825 0-1.477.317-1.955.95s-.718 1.504-.731 2.625v.732c0 1.139.237 2.037.711 2.693s1.142.984 1.989.984 1.504-.307 1.969-.922.704-1.507.718-2.66v-.738zm10.343-4.655v6.767c-.004.939-.301 1.707-.889 2.304s-1.376.932-2.378 1.005l-.349.014c-1.089 0-1.957-.294-2.605-.882s-.975-1.397-.984-2.427v-6.781h1.299v6.74c0 .72.198 1.281.595 1.682s.961.594 1.695.594c.743 0 1.31-.198 1.702-.594.397-.397.595-.955.595-1.675v-6.747h1.319zm7.697 5.352h-4.313v3.528h5.011V209h-6.324v-9.953h6.255v1.08h-4.942v3.199h4.313v1.073zm5.264.164c-1.126-.323-1.946-.72-2.461-1.189s-.766-1.057-.766-1.75c0-.784.313-1.431.937-1.941.629-.515 1.445-.773 2.447-.773.684 0 1.292.132 1.825.397s.953.629 1.245 1.093.444.973.444 1.525h-1.319c0-.602-.192-1.073-.575-1.415s-.922-.52-1.62-.52c-.647 0-1.153.144-1.517.431s-.54.677-.54 1.183c0 .405.171.749.512 1.032.347.278.932.533 1.757.765s1.477.49 1.942.773.815.604 1.039.977.341.814.341 1.32c0 .806-.314 1.453-.943 1.941s-1.47.725-2.522.725c-.684 0-1.322-.13-1.914-.39s-1.051-.624-1.374-1.08a2.64 2.64 0 0 1-.479-1.552h1.319c0 .602.221 1.078.663 1.429.447.346 1.042.519 1.785.519.692 0 1.223-.141 1.592-.423s.554-.668.554-1.156-.171-.863-.513-1.128-.961-.533-1.859-.793zm12.257-4.436h-3.199V209h-1.306v-8.873h-3.192v-1.08h7.697v1.08zm4.3 4.436c-1.126-.323-1.946-.72-2.461-1.189a2.29 2.29 0 0 1-.766-1.75c0-.784.312-1.431.937-1.941s1.444-.773 2.447-.773c.683 0 1.292.132 1.825.397s.953.629 1.244 1.093.445.973.445 1.525h-1.32c0-.602-.191-1.073-.574-1.415s-.923-.52-1.62-.52c-.647 0-1.153.144-1.518.431s-.54.677-.54 1.183c0 .405.171.749.513 1.032s.932.533 1.757.765 1.476.49 1.941.773.816.604 1.039.977.342.814.342 1.32c0 .806-.314 1.453-.943 1.941s-1.47.725-2.523.725c-.683 0-1.321-.13-1.914-.39s-1.05-.624-1.374-1.08a2.64 2.64 0 0 1-.478-1.552h1.319c0 .602.221 1.078.663 1.429s1.041.519 1.784.519c.693 0 1.224-.141 1.593-.423s.554-.668.554-1.156-.171-.863-.513-1.128-.962-.533-1.859-.793z" fill="#666"/><path d="M74.5 246a1.5 1.5 0 0 1 1.5-1.5h308a1.5 1.5 0 0 1 1.5 1.5v36a1.5 1.5 0 0 1-1.5 1.5H76a1.5 1.5 0 0 1-1.5-1.5v-36z" class="B D"/><path d="M103.5 256H100v-1.5a.47.47 0 1 0-1 0v1.5h-9v-1.5a.47.47 0 1 0-1 0v1.5h-3.5a.47.47 0 0 0-.5.5v16a.47.47 0 0 0 .5.5h18 .2a.55.55 0 0 0 .3-.5v-16a.47.47 0 0 0-.5-.5zm-.5 16H86v-11h17v11zm0-12H86v-3h3v1.5a.47.47 0 1 0 1 0V257h9v1.5a.47.47 0 1 0 1 0V257h3v3zm-13 4h-1v1h1v-1zm10 0h-1v1h1v-1zm-2 0h-1v1h1v-1zm-6 0h-1v1h1v-1zm4 0h-1v1h1v-1zm-2 0h-1v1h1v-1zm-4 2h-1v1h1v-1zm10 0h-1v1h1v-1zm-2 0h-1v1h1v-1zm-6 0h-1v1h1v-1zm4 0h-1v1h1v-1zm-2 0h-1v1h1v-1zm-4 2h-1v1h1v-1zm10 0h-1v1h1v-1zm-2 0h-1v1h1v-1zm-6 0h-1v1h1v-1zm4 0h-1v1h1v-1zm-2 0h-1v1h1v-1z" fill="#37474f" class="E"/><path d="M306.5 244.5h39v39h-39v-39z" class="B D"/><path d="M120.651 265.402h-4.17l-.936 2.598h-1.354l3.801-9.953h1.149l3.807 9.953h-1.346l-.951-2.598zm-3.773-1.08h3.384l-1.696-4.655-1.688 4.655zm13.46.062c0 1.125-.258 2.032-.773 2.72a2.47 2.47 0 0 1-2.091 1.033c-.898 0-1.605-.285-2.12-.855v3.562h-1.264v-10.24h1.155l.062.82c.515-.638 1.23-.957 2.146-.957.889 0 1.591.335 2.106 1.005s.779 1.602.779 2.796v.116zm-1.265-.144c0-.834-.177-1.492-.533-1.975s-.843-.725-1.463-.725c-.765 0-1.34.34-1.723 1.019v3.534a1.86 1.86 0 0 0 1.737 1.011 1.7 1.7 0 0 0 1.442-.717c.36-.483.54-1.199.54-2.147zm6.453-2.502c-.191-.032-.398-.048-.622-.048-.829 0-1.392.354-1.688 1.06V268h-1.265v-7.396h1.231l.02.854c.415-.661 1.003-.991 1.764-.991.246 0 .433.032.56.095v1.176zm8.668 6.262h-1.271v-8.429l-2.55.937v-1.149l3.623-1.36h.198V268zm4.286-4.99l.506-4.963h5.1v1.169h-4.026l-.301 2.714a3.21 3.21 0 0 1 1.661-.431c.907 0 1.627.301 2.16.902s.8 1.406.8 2.427c0 1.026-.278 1.834-.834 2.427s-1.324.882-2.317.882c-.88 0-1.598-.244-2.154-.732s-.873-1.162-.95-2.023h1.196c.078.569.281 1 .609 1.292s.761.43 1.299.43c.587 0 1.048-.2 1.38-.601.338-.401.506-.955.506-1.661 0-.666-.182-1.199-.547-1.6s-.84-.608-1.442-.608c-.551 0-.984.121-1.299.362l-.335.274-1.012-.26zm7.37 6.972l-.718-.492c.428-.597.652-1.212.67-1.845v-1.142h1.237v.991c0 .46-.114.921-.342 1.381s-.506.829-.847 1.107zM168.503 268h-6.522v-.909l3.446-3.828c.51-.579.861-1.048 1.052-1.409a2.35 2.35 0 0 0 .294-1.127c0-.52-.157-.946-.471-1.279s-.734-.499-1.258-.499c-.629 0-1.119.18-1.47.54s-.519.852-.519 1.49h-1.265c0-.916.294-1.656.882-2.221s1.383-.848 2.372-.848c.925 0 1.657.244 2.194.732s.807 1.128.807 1.934c0 .98-.624 2.147-1.873 3.5l-2.666 2.892h4.997V268zm7.581-4.245c0 1.481-.253 2.582-.759 3.302s-1.296 1.08-2.372 1.08c-1.062 0-1.848-.351-2.358-1.053s-.775-1.759-.793-3.158v-1.689c0-1.463.253-2.549.759-3.26s1.298-1.067 2.378-1.067c1.071 0 1.86.344 2.366 1.032s.765 1.741.779 3.172v1.641zm-1.265-1.73c0-1.071-.15-1.85-.451-2.337-.301-.493-.777-.739-1.429-.739-.647 0-1.118.244-1.415.732s-.448 1.237-.458 2.249v2.023c0 1.076.155 1.871.465 2.386s.789.765 1.422.765c.624 0 1.087-.241 1.388-.724s.465-1.244.478-2.283v-2.072zm9.407 5.975h-6.522v-.909l3.445-3.828c.511-.579.862-1.048 1.053-1.409a2.35 2.35 0 0 0 .294-1.127c0-.52-.157-.946-.472-1.279s-.733-.499-1.257-.499c-.629 0-1.119.18-1.47.54s-.52.852-.52 1.49h-1.264c0-.916.294-1.656.882-2.221s1.383-.848 2.372-.848c.925 0 1.656.244 2.194.732s.807 1.128.807 1.934c0 .98-.625 2.147-1.873 3.5l-2.666 2.892h4.997V268zm7.581-4.245c0 1.481-.253 2.582-.759 3.302s-1.297 1.08-2.372 1.08c-1.062 0-1.848-.351-2.359-1.053s-.774-1.759-.793-3.158v-1.689c0-1.463.253-2.549.759-3.26s1.299-1.067 2.379-1.067c1.071 0 1.859.344 2.365 1.032s.766 1.741.78 3.172v1.641zm-1.265-1.73c0-1.071-.15-1.85-.451-2.337-.301-.493-.777-.739-1.429-.739s-1.119.244-1.415.732-.449 1.237-.458 2.249v2.023c0 1.076.155 1.871.465 2.386s.788.765 1.422.765c.624 0 1.087-.241 1.387-.724.306-.483.465-1.244.479-2.283v-2.072zm9.119 2.263h-3.336v-1.032h3.336v1.032zm6.604-6.241l3.254 8.121 3.253-8.121h1.703V268h-1.313v-3.876l.123-4.184-3.267 8.06h-1.005l-3.261-8.039.13 4.163V268h-1.313v-9.953h1.696zM221.16 268c-.073-.146-.132-.406-.178-.779-.587.61-1.289.916-2.105.916-.729 0-1.328-.205-1.798-.616a2.01 2.01 0 0 1-.697-1.572c0-.77.292-1.367.875-1.791s1.413-.642 2.474-.642h1.231v-.581c0-.442-.132-.793-.397-1.053s-.654-.397-1.169-.397c-.451 0-.829.114-1.134.342s-.458.504-.458.827h-1.272c0-.369.13-.724.39-1.066a2.7 2.7 0 0 1 1.066-.82c.451-.201.946-.301 1.484-.301.852 0 1.52.214 2.003.642s.733 1.01.752 1.757v3.405c0 .679.086 1.219.259 1.62V268h-1.326zm-2.098-.964a2.22 2.22 0 0 0 1.127-.307c.356-.206.613-.472.773-.8v-1.518h-.991c-1.55 0-2.325.454-2.325 1.36 0 .397.133.707.397.93s.604.335 1.019.335zm7.458-.889l1.722-5.543h1.354l-2.974 8.538c-.46 1.23-1.192 1.845-2.194 1.845l-.24-.02-.471-.089v-1.025l.342.027c.428 0 .761-.087.998-.26s.439-.49.594-.95l.281-.752-2.639-7.314h1.381l1.846 5.543zM238.229 268h-1.271v-8.429l-2.55.937v-1.149l3.623-1.36h.198V268zm3.794 1.982l-.717-.492c.428-.597.651-1.212.67-1.845v-1.142h1.237v.991c0 .46-.114.921-.342 1.381s-.506.829-.848 1.107zM254.677 268h-6.522v-.909l3.446-3.828c.51-.579.861-1.048 1.052-1.409a2.35 2.35 0 0 0 .294-1.127c0-.52-.157-.946-.471-1.279s-.734-.499-1.258-.499c-.629 0-1.119.18-1.47.54s-.519.852-.519 1.49h-1.265c0-.916.294-1.656.882-2.221s1.383-.848 2.372-.848c.925 0 1.656.244 2.194.732s.807 1.128.807 1.934c0 .98-.625 2.147-1.873 3.5l-2.666 2.892h4.997V268zm7.581-4.245c0 1.481-.253 2.582-.759 3.302s-1.297 1.08-2.372 1.08c-1.062 0-1.848-.351-2.358-1.053s-.775-1.759-.793-3.158v-1.689c0-1.463.253-2.549.758-3.26s1.299-1.067 2.379-1.067c1.071 0 1.86.344 2.366 1.032s.765 1.741.779 3.172v1.641zm-1.265-1.73c0-1.071-.15-1.85-.451-2.337-.301-.493-.777-.739-1.429-.739s-1.119.244-1.415.732-.449 1.237-.458 2.249v2.023c0 1.076.155 1.871.465 2.386s.788.765 1.422.765c.624 0 1.087-.241 1.388-.724s.464-1.244.478-2.283v-2.072zm9.406 5.975h-6.521v-.909l3.445-3.828c.511-.579.862-1.048 1.053-1.409a2.35 2.35 0 0 0 .294-1.127c0-.52-.157-.946-.472-1.279s-.733-.499-1.258-.499c-.628 0-1.118.18-1.469.54s-.52.852-.52 1.49h-1.264c0-.916.293-1.656.881-2.221.593-.565 1.383-.848 2.372-.848.926 0 1.657.244 2.195.732s.806 1.128.806 1.934c0 .98-.624 2.147-1.873 3.5l-2.666 2.892h4.997V268zm7.581-4.245c0 1.481-.252 2.582-.758 3.302s-1.297 1.08-2.372 1.08c-1.062 0-1.848-.351-2.359-1.053s-.775-1.759-.793-3.158v-1.689c0-1.463.253-2.549.759-3.26s1.299-1.067 2.379-1.067c1.071 0 1.859.344 2.365 1.032s.766 1.741.779 3.172v1.641zm-1.264-1.73c0-1.071-.151-1.85-.451-2.337-.301-.493-.777-.739-1.429-.739s-1.119.244-1.415.732-.449 1.237-.458 2.249v2.023c0 1.076.155 1.871.465 2.386s.788.765 1.422.765c.624 0 1.087-.241 1.387-.724.306-.483.465-1.244.479-2.283v-2.072z" fill="#333"/><path d="M322.199 264.48c-.266-.265-.266-.695 0-.96l4.321-4.321a.68.68 0 0 1 .96 0 .68.68 0 0 1 0 .96L323.639 264l3.841 3.841a.68.68 0 0 1 0 .96.68.68 0 0 1-.96 0l-4.321-4.321zm46.281 0a.68.68 0 0 0 0-.96l-4.321-4.321a.68.68 0 0 0-.96 0 .68.68 0 0 0 0 .96L367.04 264l-3.841 3.841a.68.68 0 0 0 0 .96.68.68 0 0 0 .96 0l4.321-4.321z" fill="#666"/><path d="M138.851 368.047l3.253 8.121 3.254-8.121h1.703V378h-1.313v-3.876l.123-4.184-3.267 8.06h-1.005l-3.261-8.039.13 4.163V378h-1.313v-9.953h1.696zM153.746 378c-.073-.146-.132-.406-.178-.779-.588.61-1.289.916-2.105.916-.729 0-1.329-.205-1.798-.616a2.01 2.01 0 0 1-.697-1.572c0-.77.291-1.367.875-1.791s1.413-.642 2.474-.642h1.231v-.581c0-.442-.132-.793-.397-1.053s-.654-.397-1.169-.397c-.451 0-.829.114-1.134.342s-.458.504-.458.827h-1.272c0-.369.13-.724.39-1.066a2.7 2.7 0 0 1 1.066-.82c.451-.201.946-.301 1.484-.301.852 0 1.519.214 2.003.642s.733 1.01.751 1.757v3.405c0 .679.087 1.219.26 1.62V378h-1.326zm-2.099-.964a2.22 2.22 0 0 0 1.128-.307c.356-.206.613-.472.773-.8v-1.518h-.991c-1.55 0-2.325.454-2.325 1.36 0 .397.133.707.397.93s.604.335 1.018.335zm8.723-5.298c-.191-.032-.399-.048-.622-.048-.829 0-1.392.354-1.688 1.06V378h-1.265v-7.396h1.23l.021.854c.415-.661 1.003-.991 1.764-.991.246 0 .433.032.56.095v1.176zm3.234 2.837l-.793.827V378h-1.265v-10.5h1.265v6.351l.676-.814 2.304-2.433h1.538l-2.878 3.089 3.213 4.307h-1.483l-2.577-3.425zm-25.464 61.352h5.694V437h-7.246v-.984l5.455-7.889h-5.366v-1.08h6.938v.964l-5.475 7.916zm6.713-2.694c0-.724.141-1.376.423-1.955s.684-1.025 1.19-1.34 1.091-.471 1.743-.471c1.007 0 1.821.348 2.44 1.046.625.697.937 1.624.937 2.782v.089c0 .72-.139 1.367-.417 1.941a3.11 3.11 0 0 1-1.183 1.333c-.51.319-1.098.479-1.763.479-1.003 0-1.816-.349-2.441-1.046s-.929-1.62-.929-2.769v-.089zm1.271.151c0 .82.189 1.479.567 1.975a1.83 1.83 0 0 0 1.532.745 1.82 1.82 0 0 0 1.531-.751c.378-.506.567-1.213.567-2.12 0-.811-.193-1.467-.581-1.968a1.82 1.82 0 0 0-1.531-.759c-.624 0-1.128.248-1.511.745s-.574 1.208-.574 2.133zm10.117 3.753c-1.002 0-1.818-.328-2.447-.985s-.943-1.542-.943-2.645v-.233c0-.733.139-1.387.417-1.962s.674-1.029 1.175-1.353a2.96 2.96 0 0 1 1.641-.492c.962 0 1.709.317 2.242.95s.8 1.54.8 2.721v.526h-5.011c.018.729.23 1.319.636 1.771.41.446.93.669 1.559.669.446 0 .824-.091 1.134-.273s.581-.424.814-.725l.772.602c-.62.952-1.549 1.429-2.789 1.429zm-.157-6.631c-.51 0-.939.187-1.285.56s-.561.889-.643 1.559h3.705v-.096c-.036-.642-.209-1.139-.519-1.49s-.729-.533-1.258-.533zm-14.759 54.541h1.32v7.048c0 .952-.288 1.697-.862 2.235s-1.331.807-2.283.807c-.989 0-1.759-.253-2.311-.759s-.827-1.215-.827-2.126h1.313c0 .57.155 1.014.465 1.333s.768.478 1.36.478c.542 0 .98-.17 1.312-.512.338-.342.509-.821.513-1.436v-7.068zm7.923 9.953c-.073-.146-.132-.406-.178-.779-.588.61-1.289.916-2.105.916-.729 0-1.329-.205-1.798-.616a2.01 2.01 0 0 1-.697-1.572c0-.77.291-1.367.875-1.791s1.412-.642 2.474-.642h1.231v-.581c0-.442-.132-.793-.397-1.053s-.654-.397-1.169-.397c-.451 0-.829.114-1.134.342s-.458.504-.458.827h-1.272c0-.369.13-.724.39-1.066a2.7 2.7 0 0 1 1.066-.82c.451-.201.946-.301 1.484-.301.852 0 1.519.214 2.002.642s.734 1.01.752 1.757v3.405c0 .679.087 1.219.26 1.62V495h-1.326zm-2.099-.964a2.22 2.22 0 0 0 1.128-.307c.356-.206.613-.472.773-.8v-1.518h-.991c-1.55 0-2.325.454-2.325 1.36 0 .397.133.707.397.93s.604.335 1.018.335zm8.115.068c.451 0 .845-.136 1.182-.41a1.44 1.44 0 0 0 .561-1.025h1.196c-.023.424-.168.827-.437 1.21s-.629.688-1.08.916a3.1 3.1 0 0 1-1.422.342c-1.007 0-1.81-.335-2.407-1.005s-.888-1.595-.888-2.762v-.212c0-.72.132-1.36.396-1.921s.643-.995 1.135-1.305c.497-.31 1.082-.465 1.757-.465.829 0 1.517.248 2.064.745s.846 1.142.882 1.934h-1.196c-.037-.478-.219-.87-.547-1.175a1.7 1.7 0 0 0-1.203-.465c-.643 0-1.142.232-1.497.697s-.527 1.128-.527 2.003v.239c0 .853.176 1.509.527 1.969s.852.69 1.504.69zm6.425-2.529l-.793.827V495h-1.264v-10.5h1.264v6.351l.677-.814 2.304-2.433h1.538l-2.878 3.089L165.75 495h-1.483l-2.578-3.425zm-18.908 58.824h-4.313v3.528h5.011V555h-6.324v-9.953h6.255v1.08h-4.942v3.199h4.313v1.073zm3.323-2.795l.034.82c.542-.638 1.273-.957 2.194-.957 1.035 0 1.739.396 2.112 1.189.246-.355.565-.642.957-.861s.864-.328 1.402-.328c1.622 0 2.447.859 2.474 2.577V555h-1.264v-4.881c0-.529-.121-.923-.363-1.182-.241-.265-.647-.397-1.216-.397-.47 0-.859.141-1.169.424s-.49.654-.54 1.128V555h-1.272v-4.847c0-1.075-.526-1.613-1.579-1.613-.829 0-1.397.353-1.702 1.06v5.4h-1.265v-7.396h1.197zm12.277 0l.034.82c.542-.638 1.274-.957 2.194-.957 1.035 0 1.739.396 2.113 1.189.246-.355.565-.642.957-.861s.863-.328 1.401-.328c1.622 0 2.447.859 2.475 2.577V555h-1.265v-4.881c0-.529-.121-.923-.362-1.182-.242-.265-.647-.397-1.217-.397-.469 0-.859.141-1.169.424s-.49.654-.54 1.128V555h-1.272v-4.847c0-1.075-.526-1.613-1.579-1.613-.829 0-1.396.353-1.702 1.06v5.4h-1.264v-7.396h1.196zM174.035 555c-.073-.146-.132-.406-.178-.779-.587.61-1.289.916-2.105.916-.729 0-1.328-.205-1.798-.616a2.01 2.01 0 0 1-.697-1.572c0-.77.292-1.367.875-1.791s1.413-.642 2.474-.642h1.231v-.581c0-.442-.132-.793-.397-1.053s-.654-.397-1.169-.397c-.451 0-.829.114-1.134.342s-.458.504-.458.827h-1.272c0-.369.13-.724.39-1.066a2.7 2.7 0 0 1 1.066-.82c.451-.201.946-.301 1.484-.301.852 0 1.52.214 2.003.642s.733 1.01.752 1.757v3.405c0 .679.086 1.219.259 1.62V555h-1.326zm-2.098-.964a2.22 2.22 0 0 0 1.127-.307c.356-.206.613-.472.773-.8v-1.518h-.991c-1.55 0-2.325.454-2.325 1.36 0 .397.133.707.397.93s.604.335 1.019.335z" fill="#333"/><path d="M107.14 435.927h5.694V437h-7.246v-.984l5.455-7.889h-5.366v-1.08h6.938v.964l-5.475 7.916z" class="B"/><rect x="321" y="359" width="70" height="30" rx="2" style="mix-blend-mode:multiply" class="G"/><path opacity=".1" d="M752 344h72v236h-72zm252 0h72v236h-72z" class="J"/><path d="M608 418h36v30h-36z" style="mix-blend-mode:multiply" class="G"/><rect x="573" y="359" width="322" height="30" rx="2" fill="#ffc107" style="mix-blend-mode:multiply"/><path d="M429 420a2 2 0 0 1 2-2h177v30H431a2 2 0 0 1-2-2v-26zm215-2h177a2 2 0 0 1 2 2v26a2 2 0 0 1-2 2H644v-30z" style="mix-blend-mode:multiply" class="G"/><path d="M552 360h111v51H552z" class="K"/><path d="M568.651 375.402h-4.17l-.936 2.598h-1.354l3.801-9.953h1.149l3.807 9.953h-1.346l-.951-2.598zm-3.773-1.08h3.384l-1.696-4.655-1.688 4.655zm13.46.062c0 1.125-.258 2.032-.773 2.72a2.47 2.47 0 0 1-2.091 1.033c-.898 0-1.605-.285-2.12-.855v3.562h-1.264v-10.24h1.155l.062.82c.515-.638 1.23-.957 2.146-.957.889 0 1.591.335 2.106 1.005s.779 1.602.779 2.796v.116zm-1.265-.144c0-.834-.177-1.492-.533-1.975s-.843-.725-1.463-.725c-.765 0-1.34.34-1.723 1.019v3.534a1.86 1.86 0 0 0 1.737 1.011 1.7 1.7 0 0 0 1.442-.717c.36-.483.54-1.199.54-2.147zm6.453-2.502c-.191-.032-.398-.048-.622-.048-.829 0-1.392.354-1.688 1.06V378h-1.265v-7.396h1.231l.02.854c.415-.661 1.003-.991 1.764-.991.246 0 .433.032.56.095v1.176zm8.668 6.262h-1.271v-8.429l-2.55.937v-1.149l3.623-1.36h.198V378zm9.742-7.355c0 .496-.133.938-.397 1.326s-.613.69-1.06.909c.52.223.93.549 1.231.977a2.45 2.45 0 0 1 .458 1.456c0 .862-.292 1.548-.875 2.058s-1.342.766-2.29.766c-.957 0-1.725-.255-2.304-.766-.574-.515-.861-1.201-.861-2.058 0-.537.146-1.023.437-1.456.297-.433.704-.761 1.224-.984-.442-.219-.791-.522-1.046-.909s-.383-.827-.383-1.319c0-.839.269-1.504.807-1.997s1.246-.738 2.126-.738 1.581.246 2.119.738.814 1.158.814 1.997zm-1.033 4.641c0-.556-.177-1.009-.533-1.36s-.811-.527-1.381-.527-1.027.174-1.374.52-.512.802-.512 1.367.166 1.01.499 1.333.804.485 1.401.485c.592 0 1.057-.161 1.394-.485s.506-.772.506-1.333zm-1.9-6.337c-.497 0-.9.155-1.21.465s-.458.722-.458 1.251c0 .506.15.916.451 1.231.305.309.711.464 1.217.464s.909-.155 1.21-.464c.305-.315.458-.725.458-1.231s-.157-.918-.472-1.237-.713-.479-1.196-.479zm10.992 5.339h-3.336v-1.032h3.336v1.032zm10.404 1.114h-4.17l-.936 2.598h-1.354l3.801-9.953h1.149l3.807 9.953h-1.346l-.951-2.598zm-3.773-1.08h3.384l-1.696-4.655-1.688 4.655zm13.46.062c0 1.125-.258 2.032-.773 2.72a2.47 2.47 0 0 1-2.091 1.033c-.898 0-1.604-.285-2.119-.855v3.562h-1.265v-10.24h1.155l.062.82c.515-.638 1.23-.957 2.146-.957.889 0 1.591.335 2.106 1.005s.779 1.602.779 2.796v.116zm-1.265-.144c0-.834-.177-1.492-.533-1.975s-.843-.725-1.463-.725c-.765 0-1.34.34-1.722 1.019v3.534a1.86 1.86 0 0 0 1.736 1.011 1.7 1.7 0 0 0 1.442-.717c.36-.483.54-1.199.54-2.147zm6.453-2.502c-.191-.032-.398-.048-.622-.048-.829 0-1.392.354-1.688 1.06V378h-1.265v-7.396h1.231l.02.854c.415-.661 1.003-.991 1.764-.991.246 0 .433.032.56.095v1.176zM646.308 378h-6.522v-.909l3.445-3.828c.511-.579.862-1.048 1.053-1.409a2.35 2.35 0 0 0 .294-1.127c0-.52-.157-.946-.472-1.279s-.733-.499-1.257-.499c-.629 0-1.119.18-1.47.54s-.52.852-.52 1.49h-1.264c0-.916.294-1.656.882-2.221s1.383-.848 2.372-.848c.925 0 1.656.244 2.194.732s.807 1.128.807 1.934c0 .98-.625 2.147-1.873 3.5l-2.666 2.892h4.997V378zm7.376-7.355c0 .496-.133.938-.397 1.326s-.613.69-1.059.909c.519.223.929.549 1.23.977a2.45 2.45 0 0 1 .458 1.456c0 .862-.292 1.548-.875 2.058s-1.342.766-2.29.766c-.957 0-1.725-.255-2.304-.766s-.861-1.201-.861-2.058c0-.537.146-1.023.437-1.456a2.77 2.77 0 0 1 1.224-.984c-.442-.219-.791-.522-1.046-.909s-.383-.827-.383-1.319c0-.839.269-1.504.807-1.997s1.246-.738 2.126-.738 1.581.246 2.119.738.814 1.158.814 1.997zm-1.033 4.641c0-.556-.177-1.009-.533-1.36s-.811-.527-1.381-.527-1.027.174-1.374.52-.512.802-.512 1.367.166 1.01.499 1.333.804.485 1.401.485 1.057-.161 1.395-.485.505-.772.505-1.333zm-1.9-6.337c-.497 0-.9.155-1.21.465s-.458.722-.458 1.251c0 .506.15.916.451 1.231.306.309.711.464 1.217.464s.909-.155 1.21-.464c.305-.315.458-.725.458-1.231s-.157-.918-.472-1.237-.713-.479-1.196-.479z" fill="#999"/><path d="M566.45 396.257l2.844-8.21h1.435L567.038 398h-1.162l-3.685-9.953h1.429l2.83 8.21zm9.673 1.743c-.073-.146-.132-.406-.178-.779-.588.61-1.289.916-2.105.916-.729 0-1.329-.205-1.798-.616a2.01 2.01 0 0 1-.697-1.572c0-.77.291-1.367.875-1.791s1.412-.642 2.474-.642h1.231v-.581c0-.442-.132-.793-.397-1.053s-.654-.397-1.169-.397c-.451 0-.829.114-1.134.342s-.458.504-.458.827h-1.272c0-.369.13-.724.39-1.066a2.7 2.7 0 0 1 1.066-.82c.451-.201.946-.301 1.484-.301.852 0 1.519.214 2.003.642s.733 1.01.751 1.757v3.405c0 .679.087 1.219.26 1.62V398h-1.326zm-2.099-.964a2.22 2.22 0 0 0 1.128-.307c.356-.206.613-.472.773-.8v-1.518h-.991c-1.55 0-2.325.454-2.325 1.36 0 .397.133.707.397.93s.604.335 1.018.335zm8.115.068c.451 0 .845-.136 1.182-.41a1.44 1.44 0 0 0 .561-1.025h1.196c-.023.424-.168.827-.437 1.21s-.629.688-1.08.916-.921.342-1.422.342c-1.007 0-1.81-.335-2.407-1.005s-.888-1.595-.888-2.762v-.212c0-.72.132-1.36.396-1.921s.643-.995 1.135-1.305 1.082-.465 1.757-.465c.829 0 1.517.248 2.064.745s.846 1.142.882 1.934h-1.196c-.037-.478-.219-.87-.547-1.175s-.725-.465-1.203-.465c-.643 0-1.142.232-1.497.697s-.527 1.128-.527 2.003v.239c0 .853.176 1.509.527 1.969s.852.69 1.504.69zm8.927.896c-.073-.146-.132-.406-.177-.779-.588.61-1.29.916-2.106.916-.729 0-1.328-.205-1.798-.616-.464-.414-.697-.938-.697-1.572 0-.77.292-1.367.875-1.791s1.413-.642 2.475-.642h1.23v-.581c0-.442-.132-.793-.396-1.053s-.654-.397-1.169-.397c-.451 0-.83.114-1.135.342s-.458.504-.458.827h-1.272c0-.369.13-.724.39-1.066s.62-.62 1.067-.82a3.6 3.6 0 0 1 1.483-.301c.852 0 1.52.214 2.003.642s.734 1.01.752 1.757v3.405c0 .679.086 1.219.26 1.62V398h-1.327zm-2.098-.964c.396 0 .772-.102 1.128-.307s.613-.472.772-.8v-1.518h-.991c-1.55 0-2.324.454-2.324 1.36 0 .397.132.707.396.93s.604.335 1.019.335zm6.863-8.224v1.792h1.381v.977h-1.381v4.587c0 .296.062.52.185.67s.332.219.629.219c.145 0 .346-.028.601-.082V398c-.333.091-.656.137-.971.137-.565 0-.991-.171-1.278-.513s-.431-.827-.431-1.456v-4.587h-1.346v-.977h1.346v-1.792h1.265zm4.238 9.188h-1.264v-7.396h1.264V398zm-1.367-9.358c0-.205.062-.379.185-.52s.314-.212.56-.212.433.071.561.212a.75.75 0 0 1 .191.52c0 .205-.064.376-.191.512s-.315.205-.561.205-.433-.068-.56-.205-.185-.307-.185-.512zm3.063 5.591c0-.724.141-1.376.423-1.955.288-.578.684-1.025 1.19-1.34s1.091-.471 1.743-.471c1.007 0 1.821.348 2.441 1.046s.936 1.624.936 2.782v.089c0 .72-.139 1.367-.417 1.941a3.11 3.11 0 0 1-1.183 1.333c-.51.319-1.098.479-1.763.479-1.003 0-1.816-.349-2.441-1.046-.619-.697-.929-1.62-.929-2.769v-.089zm1.271.151c0 .82.189 1.479.568 1.975a1.83 1.83 0 0 0 1.531.745c.642 0 1.153-.25 1.531-.751.378-.506.567-1.213.567-2.12 0-.811-.193-1.467-.581-1.968a1.82 1.82 0 0 0-1.531-.759c-.624 0-1.128.248-1.511.745s-.574 1.208-.574 2.133zm8.244-3.78l.041.929c.565-.711 1.304-1.066 2.215-1.066 1.563 0 2.352.882 2.365 2.645V398h-1.264v-4.895c-.005-.533-.128-.927-.369-1.182s-.609-.383-1.115-.383c-.41 0-.77.109-1.08.328a2.23 2.23 0 0 0-.724.861V398h-1.265v-7.396h1.196z" class="B"/><path d="M608 403l7.778 7.778-7.778 7.778-7.778-7.778z" class="K"/><g class="J"><rect x="933" y="477" width="70" height="30" rx="2" style="mix-blend-mode:multiply"/><rect x="937" y="419" width="70" height="30" rx="2" style="mix-blend-mode:multiply"/><rect x="937" y="360" width="70" height="30" rx="2" style="mix-blend-mode:multiply"/><rect x="933" y="535" width="70" height="30" rx="2" style="mix-blend-mode:multiply"/></g><g class="K"><path d="M968 458l7.778 7.778-7.778 7.778-7.778-7.778z"/><path d="M915 416h105v51H915z"/></g><path d="M927.851 424.047l3.253 8.121 3.254-8.121h1.703V434h-1.313v-3.876l.123-4.184-3.267 8.06h-1.005l-3.261-8.039.13 4.163V434h-1.313v-9.953h1.696zM942.746 434c-.073-.146-.132-.406-.178-.779-.588.61-1.289.916-2.105.916-.729 0-1.329-.205-1.798-.616a2.01 2.01 0 0 1-.697-1.572c0-.77.291-1.367.875-1.791s1.413-.642 2.474-.642h1.231v-.581c0-.442-.132-.793-.397-1.053s-.654-.397-1.169-.397c-.451 0-.829.114-1.134.342s-.458.504-.458.827h-1.272c0-.369.13-.724.39-1.066a2.7 2.7 0 0 1 1.066-.82c.451-.201.946-.301 1.484-.301.852 0 1.519.214 2.003.642s.733 1.01.751 1.757v3.405c0 .679.087 1.219.26 1.62V434h-1.326zm-2.099-.964a2.22 2.22 0 0 0 1.128-.307c.356-.206.613-.472.773-.8v-1.518h-.991c-1.55 0-2.325.454-2.325 1.36 0 .397.133.707.397.93s.604.335 1.018.335zm7.458-.889l1.723-5.543h1.354l-2.974 8.538c-.46 1.23-1.192 1.845-2.194 1.845l-.24-.02-.471-.089v-1.025l.342.027c.428 0 .761-.087.998-.26s.439-.49.594-.95l.281-.752-2.639-7.314h1.381l1.845 5.543zM962.181 434h-6.522v-.909l3.445-3.828c.511-.579.862-1.048 1.053-1.409a2.35 2.35 0 0 0 .294-1.127c0-.52-.157-.946-.472-1.279s-.733-.499-1.257-.499c-.629 0-1.119.18-1.47.54s-.52.852-.52 1.49h-1.264c0-.916.294-1.656.882-2.221s1.383-.848 2.372-.848c.925 0 1.656.244 2.194.732s.807 1.128.807 1.934c0 .98-.625 2.147-1.873 3.5l-2.666 2.892h4.997V434zm7.574-3.712h-3.336v-1.032h3.336v1.032zm6.603-6.241l3.254 8.121 3.254-8.121h1.702V434h-1.312v-3.876l.123-4.184-3.268 8.06h-1.005l-3.26-8.039.13 4.163V434h-1.313v-9.953h1.695zM991.254 434c-.073-.146-.132-.406-.178-.779-.588.61-1.29.916-2.105.916-.729 0-1.329-.205-1.798-.616a2.01 2.01 0 0 1-.697-1.572c0-.77.291-1.367.875-1.791s1.412-.642 2.474-.642h1.231v-.581c0-.442-.132-.793-.397-1.053s-.654-.397-1.169-.397c-.451 0-.829.114-1.135.342s-.458.504-.458.827h-1.271c0-.369.13-.724.39-1.066s.619-.62 1.066-.82.946-.301 1.483-.301c.853 0 1.52.214 2.003.642s.734 1.01.752 1.757v3.405c0 .679.087 1.219.26 1.62V434h-1.326zm-2.099-.964a2.22 2.22 0 0 0 1.128-.307c.356-.206.613-.472.773-.8v-1.518h-.992c-1.549 0-2.324.454-2.324 1.36 0 .397.132.707.397.93s.604.335 1.018.335zm7.458-.889l1.723-5.543h1.353l-2.973 8.538c-.46 1.23-1.192 1.845-2.195 1.845l-.239-.02-.471-.089v-1.025l.341.027c.429 0 .761-.087.998-.26.242-.173.44-.49.595-.95l.28-.752-2.638-7.314h1.381l1.845 5.543zm9.397-3.739h.95c.59-.009 1.06-.166 1.4-.471.35-.306.52-.718.52-1.238 0-1.166-.58-1.75-1.75-1.75-.54 0-.98.157-1.31.472-.32.31-.48.722-.48 1.237h-1.27c0-.788.29-1.442.86-1.962.58-.524 1.32-.786 2.2-.786.94 0 1.68.249 2.21.745.54.497.8 1.187.8 2.072 0 .433-.14.852-.42 1.257a2.54 2.54 0 0 1-1.14.91c.54.173.96.46 1.26.861s.45.891.45 1.47c0 .893-.29 1.601-.87 2.126-.59.524-1.35.786-2.28.786s-1.69-.253-2.28-.759-.88-1.174-.88-2.003h1.27c0 .524.17.943.52 1.258.34.314.8.471 1.37.471.61 0 1.08-.159 1.4-.478.33-.319.49-.777.49-1.374 0-.579-.18-1.023-.54-1.333-.35-.31-.86-.469-1.53-.479h-.95v-1.032z" fill="#999"/><path d="M933.805 454h-1.32v-4.601h-5.017V454h-1.313v-9.953h1.313v4.279h5.017v-4.279h1.32V454zm1.798-3.767c0-.724.141-1.376.423-1.955.287-.578.684-1.025 1.19-1.34s1.091-.471 1.743-.471c1.007 0 1.821.348 2.44 1.046.625.697.937 1.624.937 2.782v.089c0 .72-.139 1.367-.417 1.941a3.11 3.11 0 0 1-1.183 1.333c-.51.319-1.098.479-1.763.479-1.003 0-1.816-.349-2.441-1.046s-.929-1.62-.929-2.769v-.089zm1.271.151c0 .82.189 1.479.567 1.975s.894.745 1.532.745 1.153-.25 1.531-.751c.378-.506.567-1.213.567-2.12 0-.811-.193-1.467-.581-1.968a1.82 1.82 0 0 0-1.531-.759c-.624 0-1.128.248-1.511.745s-.574 1.208-.574 2.133zm8.422 3.616h-1.265v-10.5h1.265V454zm3.404 0h-1.264v-7.396h1.264V454zm-1.367-9.358c0-.205.062-.379.185-.52s.314-.212.56-.212.433.071.561.212a.75.75 0 0 1 .191.52c0 .205-.064.376-.191.512s-.315.205-.561.205-.433-.068-.56-.205-.185-.307-.185-.512zm3.09 5.598c0-1.135.269-2.046.806-2.734s1.242-1.039 2.113-1.039 1.552.296 2.057.888V443.5h1.265V454h-1.162l-.062-.793c-.505.62-1.21.93-2.112.93-.857 0-1.556-.351-2.099-1.053-.537-.702-.806-1.618-.806-2.748v-.096zm1.265.144c0 .838.173 1.495.519 1.969s.825.71 1.436.71a1.84 1.84 0 0 0 1.756-1.08v-3.397c-.378-.697-.959-1.046-1.743-1.046-.62 0-1.103.239-1.449.718s-.519 1.187-.519 2.126zM963.199 454c-.073-.146-.132-.406-.178-.779-.587.61-1.289.916-2.105.916-.729 0-1.328-.205-1.798-.616a2.01 2.01 0 0 1-.697-1.572c0-.77.292-1.367.875-1.791s1.413-.642 2.475-.642h1.23v-.581c0-.442-.132-.793-.397-1.053s-.653-.397-1.168-.397c-.452 0-.83.114-1.135.342s-.458.504-.458.827h-1.272c0-.369.13-.724.39-1.066a2.7 2.7 0 0 1 1.066-.82c.452-.201.946-.301 1.484-.301.852 0 1.52.214 2.003.642s.733 1.01.752 1.757v3.405c0 .679.086 1.219.259 1.62V454h-1.326zm-2.098-.964c.396 0 .772-.102 1.128-.307s.612-.472.772-.8v-1.518h-.991c-1.55 0-2.324.454-2.324 1.36 0 .397.132.707.396.93s.604.335 1.019.335zm7.458-.889l1.722-5.543h1.354l-2.974 8.538c-.46 1.23-1.192 1.845-2.194 1.845l-.239-.02-.472-.089v-1.025l.342.027c.428 0 .761-.087.998-.26s.439-.49.594-.95l.281-.752-2.639-7.314h1.381l1.846 5.543z" class="B"/><mask id="B" mask-type="alpha" maskUnits="userSpaceOnUse" x="95" y="535" width="31" height="31"><path d="M110.5 565c8.008 0 14.5-6.492 14.5-14.5s-6.492-14.5-14.5-14.5S96 542.492 96 550.5s6.492 14.5 14.5 14.5z" class="C H"/></mask><g mask="url(#B)" class="C"><path d="M110.5 557a5.5 5.5 0 1 0 0-11 5.5 5.5 0 1 0 0 11zm6.5-14.5c0 .022-.02.155-.33.364-.293.198-.749.396-1.358.569-1.211.346-2.912.567-4.812.567s-3.602-.221-4.812-.567c-.609-.173-1.065-.371-1.358-.569-.31-.209-.33-.342-.33-.364s.02-.155.33-.364c.293-.198.749-.396 1.358-.569 1.211-.346 2.912-.567 4.812-.567s3.602.221 4.812.567c.609.173 1.065.371 1.358.569.31.209.33.342.33.364z" class="B"/><use xlink:href="#I" class="B"/><path d="M115 560l3.086-3.086c1.26-1.26 3.414-.367 3.414 1.414V562m-15.5-2l-3.086-3.086c-1.26-1.26-3.414-.367-3.414 1.414V562l6.5-2z"/><path d="M110.5 565c8.008 0 14.5-6.492 14.5-14.5s-6.492-14.5-14.5-14.5S96 542.492 96 550.5s6.492 14.5 14.5 14.5z"/></g><mask id="C" mask-type="alpha" maskUnits="userSpaceOnUse" x="95" y="359" width="31" height="31"><path d="M110.5 389c8.008 0 14.5-6.492 14.5-14.5s-6.492-14.5-14.5-14.5S96 366.492 96 374.5s6.492 14.5 14.5 14.5z" class="C H"/></mask><g mask="url(#C)" class="C"><use xlink:href="#I" y="-179" class="B"/><path d="M110.5 378a5.5 5.5 0 1 0 0-11 5.5 5.5 0 1 0 0 11z" class="B"/><path d="M110.5 389c8.008 0 14.5-6.492 14.5-14.5s-6.492-14.5-14.5-14.5S96 366.492 96 374.5s6.492 14.5 14.5 14.5z"/></g><mask id="D" mask-type="alpha" maskUnits="userSpaceOnUse" x="95" y="417" width="31" height="31"><path d="M110.5 447c8.008 0 14.5-6.492 14.5-14.5s-6.492-14.5-14.5-14.5S96 424.492 96 432.5s6.492 14.5 14.5 14.5z" class="C H"/></mask><g mask="url(#D)" class="C"><path d="M111.526 429.553L105 424.5V442v5.5l-3.5 5V432m19 15.5l-4.521-5.5 4.521-5.5-4.521-3.5 4.521 14.5zm-4.521-14.5l.294-8.5-4.747 5.053 4.453 3.447zm0 0l-4.453-3.447 4.453 3.447z"/><path d="M110.5 447c8.008 0 14.5-6.492 14.5-14.5s-6.492-14.5-14.5-14.5S96 424.492 96 432.5s6.492 14.5 14.5 14.5z"/></g><mask id="E" mask-type="alpha" maskUnits="userSpaceOnUse" x="95" y="475" width="31" height="31"><path d="M110.5 505c8.008 0 14.5-6.492 14.5-14.5s-6.492-14.5-14.5-14.5S96 482.492 96 490.5s6.492 14.5 14.5 14.5z" class="C H"/></mask><g mask="url(#E)" class="C"><path d="M103.5 497h14c.398 0 .779.158 1.061.439s.439.663.439 1.061v14c0 .398-.158.779-.439 1.061s-.663.439-1.061.439h-14c-.398 0-.779-.158-1.061-.439s-.439-.663-.439-1.061v-14c0-.398.158-.779.439-1.061s.663-.439 1.061-.439zm3-14h8c.398 0 .779.158 1.061.439s.439.663.439 1.061v8c0 .398-.158.779-.439 1.061s-.663.439-1.061.439h-8c-.398 0-.779-.158-1.061-.439s-.439-.663-.439-1.061v-8c0-.398.158-.779.439-1.061s.663-.439 1.061-.439z" class="B"/><path d="M113.5 487.5h-5"/><path d="M110.5 505c8.008 0 14.5-6.492 14.5-14.5s-6.492-14.5-14.5-14.5S96 482.492 96 490.5s6.492 14.5 14.5 14.5z"/></g><path opacity=".1" d="M500 344h72v236h-72z" class="J"/><g filter="url(#G)" class="B"><rect x="873" y="152" width="168" height="73" rx="2"/></g><path d="M885.851 165.047l3.253 8.121 3.254-8.121h1.703V175h-1.313v-3.876l.123-4.184-3.267 8.06h-1.005l-3.261-8.039.13 4.163V175h-1.313v-9.953h1.696zM900.746 175c-.073-.146-.132-.406-.178-.779-.588.61-1.289.916-2.105.916-.729 0-1.329-.205-1.798-.616a2.01 2.01 0 0 1-.697-1.572c0-.77.291-1.367.875-1.791s1.413-.642 2.474-.642h1.231v-.581c0-.442-.132-.793-.397-1.053s-.654-.397-1.169-.397c-.451 0-.829.114-1.134.342s-.458.504-.458.827h-1.272c0-.369.13-.724.39-1.066a2.7 2.7 0 0 1 1.066-.82c.451-.201.946-.301 1.484-.301.852 0 1.519.214 2.003.642s.733 1.01.751 1.757v3.405c0 .679.087 1.219.26 1.62V175h-1.326zm-2.099-.964a2.22 2.22 0 0 0 1.128-.307c.356-.206.613-.472.773-.8v-1.518h-.991c-1.55 0-2.325.454-2.325 1.36 0 .397.133.707.397.93s.604.335 1.018.335zm6.344-6.432l.041.929c.565-.711 1.304-1.066 2.215-1.066 1.563 0 2.352.882 2.365 2.645V175h-1.264v-4.895c-.005-.533-.128-.927-.369-1.182s-.609-.383-1.115-.383c-.41 0-.77.109-1.08.328a2.23 2.23 0 0 0-.724.861V175h-1.265v-7.396h1.196zM916.086 175c-.073-.146-.132-.406-.178-.779-.588.61-1.29.916-2.105.916-.729 0-1.329-.205-1.798-.616a2.01 2.01 0 0 1-.697-1.572c0-.77.291-1.367.875-1.791s1.412-.642 2.474-.642h1.231v-.581c0-.442-.132-.793-.397-1.053s-.654-.397-1.169-.397c-.451 0-.829.114-1.134.342s-.459.504-.459.827h-1.271c0-.369.13-.724.39-1.066s.619-.62 1.066-.82.946-.301 1.483-.301c.853 0 1.52.214 2.003.642s.734 1.01.752 1.757v3.405c0 .679.087 1.219.26 1.62V175h-1.326zm-2.099-.964a2.22 2.22 0 0 0 1.128-.307c.356-.206.613-.472.773-.8v-1.518h-.992c-1.549 0-2.324.454-2.324 1.36 0 .397.132.707.397.93s.604.335 1.018.335zm4.847-2.796c0-1.153.267-2.069.8-2.748s1.239-1.025 2.119-1.025c.902 0 1.606.319 2.112.957l.062-.82h1.155v7.218c0 .957-.285 1.712-.854 2.263s-1.327.827-2.284.827a3.8 3.8 0 0 1-1.565-.342c-.511-.228-.9-.54-1.169-.936l.656-.759c.543.67 1.206 1.005 1.989 1.005.616 0 1.094-.173 1.436-.52s.52-.834.52-1.463v-.635c-.506.583-1.197.875-2.072.875-.866 0-1.567-.349-2.105-1.046s-.8-1.648-.8-2.851zm1.271.144c0 .834.171 1.49.513 1.969.342.473.82.71 1.436.71.797 0 1.383-.362 1.757-1.086V169.6c-.388-.707-.969-1.06-1.744-1.06-.615 0-1.096.239-1.442.718s-.52 1.187-.52 2.126zm9.96 3.753c-1.002 0-1.818-.328-2.447-.985s-.943-1.542-.943-2.645v-.233c0-.733.139-1.387.417-1.962a3.28 3.28 0 0 1 1.176-1.353c.505-.328 1.052-.492 1.64-.492.962 0 1.709.317 2.242.95s.8 1.54.8 2.721v.526h-5.011c.019.729.231 1.319.636 1.771.41.446.93.669 1.559.669.446 0 .825-.091 1.135-.273a2.85 2.85 0 0 0 .813-.725l.772.602c-.619.952-1.549 1.429-2.789 1.429zm-.157-6.631c-.51 0-.939.187-1.285.56s-.561.889-.643 1.559h3.706v-.096c-.037-.642-.21-1.139-.52-1.49s-.729-.533-1.258-.533zm9.249-.007c.561-.688 1.29-1.032 2.188-1.032 1.563 0 2.351.882 2.365 2.645V175h-1.265v-4.895c-.004-.533-.127-.927-.369-1.182s-.608-.383-1.114-.383c-.41 0-.77.109-1.08.328a2.23 2.23 0 0 0-.725.861V175h-1.264v-10.5h1.264v3.999zm6.112 2.734c0-.724.141-1.376.423-1.955s.684-1.025 1.19-1.34 1.091-.471 1.743-.471c1.007 0 1.821.348 2.44 1.046.625.697.937 1.624.937 2.782v.089c0 .72-.139 1.367-.417 1.941a3.11 3.11 0 0 1-1.183 1.333c-.51.319-1.098.479-1.763.479-1.003 0-1.816-.349-2.441-1.046s-.929-1.62-.929-2.769v-.089zm1.271.151c0 .82.189 1.479.567 1.975.383.497.894.745 1.532.745s1.153-.25 1.531-.751.567-1.213.567-2.12c0-.811-.193-1.467-.581-1.968a1.82 1.82 0 0 0-1.531-.759c-.624 0-1.128.248-1.511.745s-.574 1.208-.574 2.133zm8.422 3.616h-1.265v-10.5h1.265V175zm3.404 0h-1.264v-7.396h1.264V175zm-1.367-9.358c0-.205.062-.379.185-.52s.314-.212.56-.212.433.071.561.212a.75.75 0 0 1 .191.52c0 .205-.064.376-.191.512s-.315.205-.561.205-.433-.068-.56-.205-.185-.307-.185-.512zm3.09 5.598c0-1.135.269-2.046.807-2.734a2.54 2.54 0 0 1 2.112-1.039c.866 0 1.552.296 2.057.888V164.5h1.265V175h-1.162l-.062-.793c-.505.62-1.21.93-2.112.93a2.53 2.53 0 0 1-2.098-1.053c-.538-.702-.807-1.618-.807-2.748v-.096zm1.265.144c0 .838.173 1.495.519 1.969s.825.71 1.436.71a1.84 1.84 0 0 0 1.756-1.08v-3.397c-.378-.697-.959-1.046-1.743-1.046-.62 0-1.103.239-1.449.718s-.519 1.187-.519 2.126zM972.865 175c-.073-.146-.132-.406-.177-.779-.588.61-1.29.916-2.106.916-.729 0-1.328-.205-1.798-.616a2.01 2.01 0 0 1-.697-1.572c0-.77.292-1.367.875-1.791s1.413-.642 2.475-.642h1.23v-.581c0-.442-.132-.793-.396-1.053s-.654-.397-1.169-.397c-.452 0-.83.114-1.135.342s-.458.504-.458.827h-1.272c0-.369.13-.724.39-1.066a2.7 2.7 0 0 1 1.066-.82c.452-.201.946-.301 1.484-.301.852 0 1.52.214 2.003.642s.733 1.01.752 1.757v3.405c0 .679.086 1.219.259 1.62V175h-1.326zm-2.098-.964c.396 0 .772-.102 1.128-.307s.612-.472.772-.8v-1.518h-.991c-1.55 0-2.324.454-2.324 1.36 0 .397.132.707.396.93s.604.335 1.019.335zm7.458-.889l1.722-5.543h1.354l-2.974 8.538c-.46 1.23-1.192 1.845-2.194 1.845l-.239-.02-.472-.089v-1.025l.342.027c.428 0 .761-.087.998-.26s.439-.49.594-.95l.281-.752-2.639-7.314h1.381l1.846 5.543zm8.517-.109a.92.92 0 0 0-.389-.793c-.256-.191-.705-.355-1.347-.492s-1.146-.301-1.525-.492c-.373-.192-.651-.42-.834-.684-.177-.264-.266-.579-.266-.943 0-.606.255-1.119.765-1.538s1.172-.629 1.969-.629c.839 0 1.518.216 2.037.649s.786.987.786 1.661h-1.271c0-.346-.148-.645-.444-.895s-.661-.376-1.108-.376c-.46 0-.82.1-1.08.301s-.389.462-.389.786c0 .305.12.535.362.69s.677.303 1.305.445c.634.141 1.147.309 1.539.505s.681.433.868.711.287.609.287 1.005a1.9 1.9 0 0 1-.793 1.593c-.529.396-1.215.595-2.058.595-.592 0-1.116-.105-1.572-.315s-.813-.501-1.073-.875-.383-.786-.383-1.223h1.265a1.32 1.32 0 0 0 .505 1.011c.319.246.739.369 1.258.369.479 0 .862-.095 1.149-.287s.437-.455.437-.779zm-100.891 23.009l3.253 8.121 3.254-8.121h1.703V206h-1.313v-3.876l.123-4.184-3.267 8.06h-1.005l-3.261-8.039.13 4.163V206h-1.313v-9.953h1.696zM900.746 206c-.073-.146-.132-.406-.178-.779-.588.61-1.289.916-2.105.916-.729 0-1.329-.205-1.798-.616a2.01 2.01 0 0 1-.697-1.572c0-.77.291-1.367.875-1.791s1.413-.642 2.474-.642h1.231v-.581c0-.442-.132-.793-.397-1.053s-.654-.397-1.169-.397c-.451 0-.829.114-1.134.342s-.458.504-.458.827h-1.272c0-.369.13-.724.39-1.066a2.7 2.7 0 0 1 1.066-.82c.451-.201.946-.301 1.484-.301.852 0 1.519.214 2.003.642s.733 1.01.751 1.757v3.405c0 .679.087 1.219.26 1.62V206h-1.326zm-2.099-.964a2.22 2.22 0 0 0 1.128-.307c.356-.206.613-.472.773-.8v-1.518h-.991c-1.55 0-2.325.454-2.325 1.36 0 .397.133.707.397.93s.604.335 1.018.335zm6.344-6.432l.041.929c.565-.711 1.304-1.066 2.215-1.066 1.563 0 2.352.882 2.365 2.645V206h-1.264v-4.895c-.005-.533-.128-.927-.369-1.182s-.609-.383-1.115-.383c-.41 0-.77.109-1.08.328a2.23 2.23 0 0 0-.724.861V206h-1.265v-7.396h1.196zM916.086 206c-.073-.146-.132-.406-.178-.779-.588.61-1.29.916-2.105.916-.729 0-1.329-.205-1.798-.616a2.01 2.01 0 0 1-.697-1.572c0-.77.291-1.367.875-1.791s1.412-.642 2.474-.642h1.231v-.581c0-.442-.132-.793-.397-1.053s-.654-.397-1.169-.397c-.451 0-.829.114-1.134.342s-.459.504-.459.827h-1.271c0-.369.13-.724.39-1.066s.619-.62 1.066-.82.946-.301 1.483-.301c.853 0 1.52.214 2.003.642s.734 1.01.752 1.757v3.405c0 .679.087 1.219.26 1.62V206h-1.326zm-2.099-.964a2.22 2.22 0 0 0 1.128-.307c.356-.206.613-.472.773-.8v-1.518h-.992c-1.549 0-2.324.454-2.324 1.36 0 .397.132.707.397.93s.604.335 1.018.335zm4.847-2.796c0-1.153.267-2.069.8-2.748s1.239-1.025 2.119-1.025c.902 0 1.606.319 2.112.957l.062-.82h1.155v7.218c0 .957-.285 1.712-.854 2.263s-1.327.827-2.284.827a3.8 3.8 0 0 1-1.565-.342c-.511-.228-.9-.54-1.169-.936l.656-.759c.543.67 1.206 1.005 1.989 1.005.616 0 1.094-.173 1.436-.52s.52-.834.52-1.463v-.635c-.506.583-1.197.875-2.072.875-.866 0-1.567-.349-2.105-1.046s-.8-1.648-.8-2.851zm1.271.144c0 .834.171 1.49.513 1.969.342.473.82.71 1.436.71.797 0 1.383-.362 1.757-1.086V200.6c-.388-.707-.969-1.06-1.744-1.06-.615 0-1.096.239-1.442.718s-.52 1.187-.52 2.126zm9.96 3.753c-1.002 0-1.818-.328-2.447-.985s-.943-1.542-.943-2.645v-.233c0-.733.139-1.387.417-1.962a3.28 3.28 0 0 1 1.176-1.353c.505-.328 1.052-.492 1.64-.492.962 0 1.709.317 2.242.95s.8 1.54.8 2.721v.526h-5.011c.019.729.231 1.319.636 1.771.41.446.93.669 1.559.669.446 0 .825-.091 1.135-.273a2.85 2.85 0 0 0 .813-.725l.772.602c-.619.952-1.549 1.429-2.789 1.429zm-.157-6.631c-.51 0-.939.187-1.285.56s-.561.889-.643 1.559h3.706v-.096c-.037-.642-.21-1.139-.52-1.49s-.729-.533-1.258-.533zm14.233 2.878c0 1.125-.258 2.032-.773 2.72a2.47 2.47 0 0 1-2.092 1.033c-.897 0-1.604-.285-2.119-.855v3.562h-1.264v-10.24h1.155l.061.82c.515-.638 1.231-.957 2.147-.957.889 0 1.59.335 2.105 1.005s.78 1.602.78 2.796v.116zm-1.265-.144c0-.834-.178-1.492-.533-1.975s-.843-.725-1.463-.725c-.766 0-1.34.34-1.723 1.019v3.534a1.86 1.86 0 0 0 1.737 1.011 1.7 1.7 0 0 0 1.442-.717c.36-.483.54-1.199.54-2.147zm2.543-.007c0-.724.141-1.376.424-1.955s.683-1.025 1.189-1.34 1.092-.471 1.743-.471c1.008 0 1.821.348 2.441 1.046s.936 1.624.936 2.782v.089c0 .72-.139 1.367-.417 1.941s-.667 1.014-1.182 1.333-1.099.479-1.764.479c-1.003 0-1.816-.349-2.44-1.046s-.93-1.62-.93-2.769v-.089zm1.271.151c0 .82.19 1.479.568 1.975s.893.745 1.531.745 1.153-.25 1.531-.751.568-1.213.568-2.12c0-.811-.194-1.467-.581-1.968s-.894-.759-1.532-.759a1.81 1.81 0 0 0-1.51.745c-.383.497-.575 1.208-.575 2.133zm8.422 3.616h-1.264v-10.5h1.264V206zm3.405 0h-1.265v-7.396h1.265V206zm-1.368-9.358c0-.205.062-.379.185-.52.128-.141.314-.212.561-.212s.432.071.56.212.191.315.191.52-.063.376-.191.512-.314.205-.56.205-.433-.068-.561-.205c-.123-.136-.185-.307-.185-.512zm6.365 8.462c.451 0 .845-.136 1.182-.41a1.44 1.44 0 0 0 .561-1.025h1.196c-.023.424-.168.827-.437 1.21s-.629.688-1.08.916-.921.342-1.422.342c-1.007 0-1.81-.335-2.407-1.005-.592-.675-.888-1.595-.888-2.762v-.212c0-.72.132-1.36.396-1.921s.643-.995 1.135-1.305 1.082-.465 1.757-.465c.829 0 1.517.248 2.064.745s.846 1.142.882 1.934h-1.196c-.037-.478-.219-.87-.547-1.175s-.725-.465-1.203-.465c-.643 0-1.142.232-1.497.697s-.527 1.128-.527 2.003v.239c0 .853.176 1.509.527 1.969s.852.69 1.504.69zm5.735.896h-1.265v-7.396h1.265V206zm-1.367-9.358c0-.205.061-.379.184-.52s.315-.212.561-.212.433.071.561.212a.75.75 0 0 1 .191.52c0 .205-.064.376-.191.512s-.315.205-.561.205-.433-.068-.561-.205-.184-.307-.184-.512zm6.467 9.495c-1.003 0-1.819-.328-2.448-.985s-.943-1.542-.943-2.645v-.233c0-.733.139-1.387.417-1.962s.674-1.029 1.176-1.353a2.96 2.96 0 0 1 1.64-.492c.962 0 1.709.317 2.243.95s.799 1.54.799 2.721v.526h-5.01c.018.729.23 1.319.635 1.771.411.446.93.669 1.559.669.447 0 .825-.091 1.135-.273s.581-.424.813-.725l.773.602c-.62.952-1.55 1.429-2.789 1.429zm-.158-6.631c-.51 0-.938.187-1.285.56s-.56.889-.642 1.559h3.705v-.096c-.037-.642-.21-1.139-.52-1.49s-.729-.533-1.258-.533zm8.819 4.532c0-.342-.13-.606-.39-.793s-.704-.355-1.347-.492-1.146-.301-1.524-.492-.652-.42-.834-.684-.267-.579-.267-.943c0-.606.256-1.119.766-1.538s1.171-.629 1.969-.629c.838 0 1.517.216 2.037.649s.786.987.786 1.661h-1.271c0-.346-.149-.645-.445-.895s-.661-.376-1.107-.376c-.46 0-.821.1-1.08.301s-.39.462-.39.786c0 .305.121.535.362.69s.677.303 1.306.445 1.146.309 1.538.505.681.433.868.711.287.609.287 1.005a1.9 1.9 0 0 1-.793 1.593c-.528.396-1.214.595-2.057.595-.593 0-1.117-.105-1.572-.315s-.814-.501-1.074-.875-.382-.786-.382-1.223h1.264c.023.423.192.761.506 1.011s.738.369 1.258.369c.478 0 .861-.095 1.148-.287s.438-.455.438-.779z" fill="#333"/><defs><filter id="F" x="23" y="71" width="1103" height="569" filterUnits="userSpaceOnUse" class="N"><feFlood flood-opacity="0" result="A"/><feColorMatrix in="SourceAlpha" values="0 0 0 0 0 0 0 0 0 0 0 0 0 0 0 0 0 0 127 0"/><feOffset dy="6"/><feGaussianBlur stdDeviation="7.5"/><feColorMatrix values="0 0 0 0 0.270588 0 0 0 0 0.352941 0 0 0 0 0.392157 0 0 0 0.15 0"/><feBlend in2="A" result="B"/><feColorMatrix in="SourceAlpha" values="0 0 0 0 0 0 0 0 0 0 0 0 0 0 0 0 0 0 127 0"/><feOffset dy="1"/><feGaussianBlur stdDeviation="1.5"/><feColorMatrix values="0 0 0 0 0.270588 0 0 0 0 0.352941 0 0 0 0 0.392157 0 0 0 0.1 0"/><feBlend in2="B"/><feBlend in="SourceGraphic"/></filter><filter id="G" x="863" y="147" width="188" height="93" filterUnits="userSpaceOnUse" class="N"><feFlood flood-opacity="0" result="A"/><feColorMatrix in="SourceAlpha" values="0 0 0 0 0 0 0 0 0 0 0 0 0 0 0 0 0 0 127 0"/><feOffset dy="5"/><feGaussianBlur stdDeviation="5"/><feColorMatrix values="0 0 0 0 0 0 0 0 0 0 0 0 0 0 0 0 0 0 0.1 0"/><feBlend in2="A"/><feBlend in="SourceGraphic"/></filter><path id="H" d="M50.542 95.229c2.061 0 3.731-1.663 3.731-3.715s-1.67-3.715-3.731-3.715-3.731 1.663-3.731 3.715 1.67 3.715 3.731 3.715z"/><path id="I" d="M107.5 560h6a6.5 6.5 0 0 1 6.5 6.5v4a6.5 6.5 0 0 1-6.5 6.5h-6a6.5 6.5 0 0 1-6.5-6.5v-4a6.5 6.5 0 0 1 6.5-6.5z"/></defs></svg>