<svg xmlns="http://www.w3.org/2000/svg" width="1150" height="699" fill="none" xmlns:v="https://vecta.io/nano"><circle r="3" transform="matrix(0 -1 -1 0 286 196)" fill="#2f2f2f"/><path d="M286 61v135.5" stroke="#2f2f2f"/><g fill="#2f2f2f"><path d="M155.742 39.625l3.719 9.281 3.719-9.281h1.945V51h-1.5v-4.43l.141-4.781L160.031 51h-1.148l-3.727-9.187.149 4.758V51h-1.5V39.625h1.937zM172.766 51c-.084-.167-.151-.464-.204-.891-.671.698-1.473 1.047-2.406 1.047-.833 0-1.518-.234-2.054-.703a2.3 2.3 0 0 1-.797-1.797c0-.88.333-1.562 1-2.047.672-.49 1.614-.734 2.828-.734h1.406v-.664c0-.505-.151-.906-.453-1.203-.302-.302-.747-.453-1.336-.453-.516 0-.948.13-1.297.391s-.523.575-.523.945h-1.453c0-.422.148-.828.445-1.219.302-.396.708-.708 1.219-.937s1.08-.344 1.695-.344c.974 0 1.737.245 2.289.734.552.484.839 1.154.859 2.008v3.891c0 .776.099 1.393.297 1.852V51h-1.515zm-2.399-1.102a2.54 2.54 0 0 0 1.289-.352c.406-.234.701-.539.883-.914v-1.734h-1.133c-1.771 0-2.656.518-2.656 1.555 0 .453.151.807.453 1.063s.69.383 1.164.383zm7.25-7.352l.047 1.063c.646-.812 1.49-1.219 2.531-1.219 1.787 0 2.688 1.008 2.703 3.023V51h-1.445v-5.594c-.005-.609-.146-1.06-.422-1.352s-.695-.437-1.273-.437c-.469 0-.88.125-1.235.375s-.63.578-.828.984V51h-1.445v-8.453h1.367zM190.297 51c-.083-.167-.151-.464-.203-.891-.672.698-1.474 1.047-2.406 1.047-.834 0-1.519-.234-2.055-.703-.531-.474-.797-1.073-.797-1.797 0-.88.333-1.562 1-2.047.672-.49 1.615-.734 2.828-.734h1.406v-.664c0-.505-.151-.906-.453-1.203-.302-.302-.747-.453-1.336-.453-.515 0-.948.13-1.297.391s-.523.575-.523.945h-1.453c0-.422.148-.828.445-1.219.302-.396.708-.708 1.219-.937s1.081-.344 1.695-.344c.974 0 1.737.245 2.289.734.552.484.839 1.154.86 2.008v3.891c0 .776.099 1.393.296 1.852V51h-1.515zm-2.399-1.102c.454 0 .883-.117 1.29-.352s.7-.539.882-.914v-1.734h-1.132c-1.771 0-2.657.518-2.657 1.555 0 .453.151.807.453 1.063s.69.383 1.164.383zm5.54-3.195c0-1.318.304-2.365.914-3.141.609-.781 1.416-1.172 2.421-1.172 1.032 0 1.836.365 2.415 1.094l.07-.937h1.32v8.25c0 1.094-.325 1.956-.976 2.586s-1.516.945-2.61.945c-.609 0-1.206-.13-1.789-.391s-1.029-.617-1.336-1.07l.75-.867c.62.766 1.378 1.148 2.274 1.148.703 0 1.25-.198 1.64-.594.396-.396.594-.953.594-1.672v-.727c-.578.667-1.367 1-2.367 1-.99 0-1.792-.398-2.406-1.195s-.914-1.883-.914-3.258zm1.453.164c0 .953.195 1.703.586 2.25.39.542.937.813 1.64.813.912 0 1.581-.414 2.008-1.242v-3.859c-.443-.807-1.107-1.211-1.992-1.211-.703 0-1.253.273-1.649.82s-.593 1.357-.593 2.43zm11.382 4.289c-1.145 0-2.078-.375-2.796-1.125-.719-.755-1.079-1.763-1.079-3.023v-.266c0-.839.159-1.586.477-2.242.323-.661.771-1.177 1.344-1.547a3.38 3.38 0 0 1 1.875-.562c1.099 0 1.953.362 2.562 1.086s.914 1.76.914 3.109v.602h-5.726c.021.833.263 1.508.726 2.023.469.511 1.063.766 1.782.766.51 0 .942-.104 1.296-.312s.664-.484.93-.828l.883.688c-.708 1.089-1.771 1.633-3.188 1.633zm-.179-7.578a1.92 1.92 0 0 0-1.469.641c-.396.422-.641 1.016-.734 1.781h4.234v-.109c-.042-.734-.24-1.302-.594-1.703-.354-.406-.833-.609-1.437-.609zM220.438 51c-.084-.167-.152-.464-.204-.891-.672.698-1.474 1.047-2.406 1.047-.833 0-1.518-.234-2.055-.703-.531-.474-.796-1.073-.796-1.797 0-.88.333-1.562 1-2.047.671-.49 1.614-.734 2.828-.734h1.406v-.664c0-.505-.151-.906-.453-1.203-.302-.302-.748-.453-1.336-.453-.516 0-.948.13-1.297.391s-.523.575-.523.945h-1.454c0-.422.149-.828.446-1.219.302-.396.708-.708 1.218-.937a4.13 4.13 0 0 1 1.696-.344c.974 0 1.737.245 2.289.734.552.484.838 1.154.859 2.008v3.891c0 .776.099 1.393.297 1.852V51h-1.515zm-2.399-1.102a2.54 2.54 0 0 0 1.289-.352c.406-.234.701-.539.883-.914v-1.734h-1.133c-1.771 0-2.656.518-2.656 1.555 0 .453.151.807.453 1.063s.69.383 1.164.383zm9.273.078a2.08 2.08 0 0 0 1.352-.469c.385-.312.599-.703.641-1.172h1.367c-.026.484-.193.945-.5 1.383s-.719.786-1.234 1.047a3.53 3.53 0 0 1-1.626.391c-1.151 0-2.067-.383-2.75-1.148-.677-.771-1.015-1.823-1.015-3.156v-.242c0-.823.151-1.555.453-2.195s.734-1.138 1.297-1.492c.568-.354 1.237-.531 2.008-.531.948 0 1.734.284 2.359.852.63.568.966 1.305 1.008 2.211h-1.367a1.97 1.97 0 0 0-.625-1.344 1.91 1.91 0 0 0-1.375-.531c-.735 0-1.305.266-1.711.797-.401.526-.602 1.289-.602 2.289v.273c0 .974.201 1.724.602 2.25s.974.789 1.718.789zm8.376 0a2.08 2.08 0 0 0 1.351-.469c.385-.312.599-.703.641-1.172h1.367c-.026.484-.193.945-.5 1.383s-.719.786-1.235 1.047c-.51.26-1.052.391-1.624.391-1.152 0-2.068-.383-2.75-1.148-.678-.771-1.016-1.823-1.016-3.156v-.242c0-.823.151-1.555.453-2.195s.734-1.138 1.297-1.492c.568-.354 1.237-.531 2.008-.531.948 0 1.734.284 2.359.852.63.568.966 1.305 1.008 2.211h-1.367a1.97 1.97 0 0 0-.625-1.344 1.91 1.91 0 0 0-1.375-.531c-.735 0-1.305.266-1.711.797-.401.526-.602 1.289-.602 2.289v.273c0 .974.201 1.724.602 2.25s.974.789 1.719.789zm9.07-6.133a4.33 4.33 0 0 0-.711-.055c-.948 0-1.591.404-1.93 1.211v6h-1.445v-8.453h1.406l.024.977c.474-.755 1.145-1.133 2.015-1.133.281 0 .495.037.641.109v1.344zm6.554 6.32c-.562.661-1.388.992-2.476.992-.901 0-1.589-.26-2.063-.781-.468-.526-.705-1.302-.711-2.328v-5.5h1.446v5.461c0 1.281.521 1.922 1.562 1.922 1.104 0 1.839-.411 2.203-1.234v-6.148h1.446V51h-1.375l-.032-.836zm8.829.836c-.084-.167-.151-.464-.203-.891-.672.698-1.474 1.047-2.407 1.047-.833 0-1.518-.234-2.054-.703a2.3 2.3 0 0 1-.797-1.797c0-.88.333-1.562 1-2.047.672-.49 1.614-.734 2.828-.734h1.406v-.664c0-.505-.151-.906-.453-1.203-.302-.302-.747-.453-1.336-.453-.516 0-.948.13-1.297.391s-.523.575-.523.945h-1.453c0-.422.148-.828.445-1.219.302-.396.708-.708 1.219-.937s1.08-.344 1.695-.344c.974 0 1.737.245 2.289.734.552.484.839 1.154.859 2.008v3.891c0 .776.099 1.393.297 1.852V51h-1.515zm-2.399-1.102a2.54 2.54 0 0 0 1.289-.352c.407-.234.701-.539.883-.914v-1.734h-1.133c-1.771 0-2.656.518-2.656 1.555 0 .453.151.807.453 1.063s.69.383 1.164.383zM265.195 51h-1.445V39h1.445v12zm7.243-2.242c0-.391-.149-.693-.446-.906-.291-.219-.804-.406-1.539-.562-.729-.156-1.31-.344-1.742-.562s-.745-.479-.953-.781c-.203-.302-.305-.661-.305-1.078 0-.693.292-1.279.875-1.758.589-.479 1.339-.719 2.25-.719.958 0 1.734.247 2.328.742a2.35 2.35 0 0 1 .899 1.898h-1.453c0-.396-.17-.737-.508-1.023s-.755-.43-1.266-.43c-.526 0-.937.115-1.234.344a1.08 1.08 0 0 0-.446.898c0 .349.138.612.414.789s.774.346 1.493.508 1.31.354 1.757.578.779.495.993.813c.218.313.328.695.328 1.148a2.17 2.17 0 0 1-.906 1.82c-.605.453-1.388.68-2.352.68-.677 0-1.276-.12-1.797-.359s-.93-.573-1.226-1a2.45 2.45 0 0 1-.438-1.398h1.445a1.51 1.51 0 0 0 .579 1.156c.364.281.843.422 1.437.422.547 0 .984-.109 1.313-.328.333-.224.5-.521.5-.891zM284.953 51c-.083-.167-.151-.464-.203-.891-.672.698-1.474 1.047-2.406 1.047-.834 0-1.518-.234-2.055-.703-.531-.474-.797-1.073-.797-1.797 0-.88.334-1.562 1-2.047.672-.49 1.615-.734 2.828-.734h1.407v-.664c0-.505-.151-.906-.454-1.203-.302-.302-.747-.453-1.335-.453-.516 0-.948.13-1.297.391s-.524.575-.524.945h-1.453c0-.422.148-.828.445-1.219.302-.396.709-.708 1.219-.937.516-.229 1.081-.344 1.695-.344.974 0 1.737.245 2.289.734.553.484.839 1.154.86 2.008v3.891c0 .776.099 1.393.297 1.852V51h-1.516zm-2.398-1.102a2.54 2.54 0 0 0 1.289-.352c.406-.234.7-.539.883-.914v-1.734h-1.133c-1.771 0-2.656.518-2.656 1.555 0 .453.151.807.453 1.063s.69.383 1.164.383zm7.25-7.352l.047 1.063c.645-.812 1.489-1.219 2.531-1.219 1.786 0 2.687 1.008 2.703 3.023V51h-1.445v-5.594c-.006-.609-.146-1.06-.422-1.352s-.696-.437-1.274-.437c-.468 0-.88.125-1.234.375s-.63.578-.828.984V51h-1.445v-8.453h1.367zm7.109 4.156c0-1.297.307-2.338.922-3.125a2.91 2.91 0 0 1 2.414-1.187c.99 0 1.773.339 2.352 1.016V39h1.445v12h-1.328l-.071-.906c-.578.708-1.382 1.062-2.414 1.062-.979 0-1.778-.401-2.398-1.203s-.922-1.849-.922-3.141v-.109zm1.445.164c0 .958.198 1.708.594 2.25s.943.813 1.641.813c.916 0 1.586-.411 2.008-1.234v-3.883c-.433-.797-1.097-1.195-1.993-1.195-.708 0-1.26.273-1.656.82s-.594 1.357-.594 2.43zm15.297 3.109c.516 0 .966-.156 1.352-.469s.599-.703.64-1.172h1.368c-.026.484-.193.945-.5 1.383a3.29 3.29 0 0 1-1.235 1.047c-.51.26-1.052.391-1.625.391-1.151 0-2.067-.383-2.75-1.148-.677-.771-1.015-1.823-1.015-3.156v-.242c0-.823.151-1.555.453-2.195s.734-1.138 1.297-1.492 1.237-.531 2.007-.531c.948 0 1.735.284 2.36.852s.966 1.305 1.008 2.211h-1.368c-.041-.547-.25-.995-.625-1.344-.369-.354-.828-.531-1.375-.531-.734 0-1.304.266-1.71.797-.402.526-.602 1.289-.602 2.289v.273c0 .974.2 1.724.602 2.25s.973.789 1.718.789zm6.43-6.406a3.07 3.07 0 0 1 2.5-1.18c1.786 0 2.687 1.008 2.703 3.023V51h-1.445v-5.594c-.005-.609-.146-1.06-.422-1.352s-.695-.437-1.274-.437c-.468 0-.88.125-1.234.375s-.63.578-.828.984V51h-1.445V39h1.445v4.57zm10.875 7.586c-1.146 0-2.078-.375-2.797-1.125-.719-.755-1.078-1.763-1.078-3.023v-.266c0-.839.159-1.586.476-2.242.323-.661.771-1.177 1.344-1.547a3.38 3.38 0 0 1 1.875-.562c1.099 0 1.953.362 2.563 1.086s.914 1.76.914 3.109v.602h-5.727c.021.833.263 1.508.727 2.023.469.511 1.062.766 1.781.766.51 0 .943-.104 1.297-.312s.664-.484.93-.828l.882.688c-.708 1.089-1.77 1.633-3.187 1.633zm-.18-7.578a1.92 1.92 0 0 0-1.469.641c-.395.422-.64 1.016-.734 1.781h4.234v-.109c-.041-.734-.239-1.302-.593-1.703-.354-.406-.834-.609-1.438-.609zm8.547 6.398c.516 0 .966-.156 1.352-.469s.599-.703.64-1.172h1.368c-.027.484-.193.945-.5 1.383a3.29 3.29 0 0 1-1.235 1.047c-.51.26-1.052.391-1.625.391-1.151 0-2.068-.383-2.75-1.148-.677-.771-1.016-1.823-1.016-3.156v-.242c0-.823.152-1.555.454-2.195s.734-1.138 1.296-1.492c.568-.354 1.237-.531 2.008-.531.948 0 1.735.284 2.36.852s.966 1.305 1.008 2.211h-1.368c-.041-.547-.25-.995-.625-1.344-.369-.354-.828-.531-1.375-.531-.734 0-1.304.266-1.711.797-.401.526-.601 1.289-.601 2.289v.273c0 .974.2 1.724.601 2.25s.974.789 1.719.789zm7.344-2.891l-.906.945V51h-1.446V39h1.446v7.258l.773-.93 2.633-2.781h1.758l-3.289 3.531L351.312 51h-1.695l-2.945-3.914zm16.875-.219c0 1.292-.297 2.331-.891 3.117-.594.781-1.39 1.172-2.39 1.172-1.068 0-1.894-.378-2.477-1.133l-.07.977h-1.328V39h1.445v4.477c.583-.724 1.388-1.086 2.414-1.086s1.831.388 2.414 1.164c.589.776.883 1.839.883 3.188v.125zm-1.445-.164c0-.984-.191-1.745-.571-2.281s-.927-.805-1.64-.805c-.953 0-1.638.443-2.055 1.328v3.656c.443.885 1.133 1.328 2.07 1.328.693 0 1.232-.268 1.617-.805s.579-1.344.579-2.422zM370.594 51c-.084-.167-.151-.464-.203-.891-.672.698-1.474 1.047-2.407 1.047-.833 0-1.518-.234-2.054-.703a2.3 2.3 0 0 1-.797-1.797c0-.88.333-1.562 1-2.047.672-.49 1.614-.734 2.828-.734h1.406v-.664c0-.505-.151-.906-.453-1.203-.302-.302-.747-.453-1.336-.453-.516 0-.948.13-1.297.391s-.523.575-.523.945h-1.453c0-.422.148-.828.445-1.219.302-.396.708-.708 1.219-.937s1.08-.344 1.695-.344c.974 0 1.737.245 2.289.734.552.484.839 1.154.859 2.008v3.891c0 .776.099 1.393.297 1.852V51h-1.515zm-2.399-1.102a2.54 2.54 0 0 0 1.289-.352c.407-.234.701-.539.883-.914v-1.734h-1.133c-1.77 0-2.656.518-2.656 1.555 0 .453.151.807.453 1.063s.69.383 1.164.383zM375.648 51h-1.445V39h1.445v12zm7.54 0c-.084-.167-.152-.464-.204-.891-.672.698-1.474 1.047-2.406 1.047-.833 0-1.518-.234-2.055-.703-.531-.474-.796-1.073-.796-1.797 0-.88.333-1.562 1-2.047.671-.49 1.614-.734 2.828-.734h1.406v-.664c0-.505-.151-.906-.453-1.203-.302-.302-.748-.453-1.336-.453-.516 0-.948.13-1.297.391s-.523.575-.523.945h-1.454c0-.422.149-.828.446-1.219.302-.396.708-.708 1.218-.937a4.13 4.13 0 0 1 1.696-.344c.974 0 1.737.245 2.289.734.552.484.838 1.154.859 2.008v3.891c0 .776.099 1.393.297 1.852V51h-1.515zm-2.399-1.102a2.54 2.54 0 0 0 1.289-.352c.406-.234.701-.539.883-.914v-1.734h-1.133c-1.771 0-2.656.518-2.656 1.555 0 .453.151.807.453 1.063s.69.383 1.164.383zm7.25-7.352l.047 1.063c.646-.812 1.49-1.219 2.531-1.219 1.787 0 2.688 1.008 2.703 3.023V51h-1.445v-5.594c-.005-.609-.146-1.06-.422-1.352-.271-.292-.695-.437-1.273-.437-.469 0-.881.125-1.235.375s-.63.578-.828.984V51h-1.445v-8.453h1.367zm10.852 7.43a2.08 2.08 0 0 0 1.351-.469c.386-.312.599-.703.641-1.172h1.367c-.026.484-.193.945-.5 1.383s-.719.786-1.234 1.047a3.53 3.53 0 0 1-1.625.391c-1.151 0-2.068-.383-2.75-1.148-.677-.771-1.016-1.823-1.016-3.156v-.242c0-.823.151-1.555.453-2.195s.734-1.138 1.297-1.492 1.237-.531 2.008-.531c.948 0 1.734.284 2.359.852s.966 1.305 1.008 2.211h-1.367a1.97 1.97 0 0 0-.625-1.344 1.91 1.91 0 0 0-1.375-.531c-.735 0-1.305.266-1.711.797-.401.526-.602 1.289-.602 2.289v.273c0 .974.201 1.724.602 2.25s.974.789 1.719.789zm8.492 1.18c-1.146 0-2.078-.375-2.797-1.125-.719-.755-1.078-1.763-1.078-3.023v-.266c0-.839.159-1.586.476-2.242.323-.661.771-1.177 1.344-1.547a3.38 3.38 0 0 1 1.875-.562c1.099 0 1.953.362 2.563 1.086s.914 1.76.914 3.109v.602h-5.727c.021.833.263 1.508.727 2.023a2.31 2.31 0 0 0 1.781.766c.51 0 .943-.104 1.297-.312s.664-.484.93-.828l.882.688c-.708 1.089-1.771 1.633-3.187 1.633zm-.18-7.578a1.92 1.92 0 0 0-1.469.641c-.395.422-.64 1.016-.734 1.781h4.234v-.109c-.041-.734-.239-1.302-.593-1.703-.355-.406-.834-.609-1.438-.609zm10.078 5.18c0-.391-.148-.693-.445-.906-.292-.219-.805-.406-1.539-.562s-1.31-.344-1.742-.562-.745-.479-.953-.781-.305-.661-.305-1.078c0-.693.292-1.279.875-1.758s1.338-.719 2.25-.719c.958 0 1.734.247 2.328.742a2.35 2.35 0 0 1 .898 1.898h-1.453c0-.396-.169-.737-.507-1.023s-.756-.43-1.266-.43c-.526 0-.938.115-1.234.344a1.08 1.08 0 0 0-.446.898c0 .349.138.612.414.789s.774.346 1.492.508c.724.161 1.31.354 1.758.578s.779.495.992.813c.219.313.329.695.329 1.148 0 .755-.303 1.362-.907 1.82-.604.453-1.388.68-2.351.68-.677 0-1.276-.12-1.797-.359s-.93-.573-1.227-1c-.291-.432-.437-.898-.437-1.398h1.445c.026.484.219.87.578 1.156.365.281.844.422 1.438.422.547 0 .984-.109 1.312-.328.334-.224.5-.521.5-.891z"/><circle r="3" transform="matrix(0 -1 -1 0 919 124)"/></g><path d="M919 61v63.5" stroke="#2f2f2f"/><g fill="#2f2f2f"><path d="M794.328 51V39.625h3.211c.99 0 1.865.219 2.625.656a4.42 4.42 0 0 1 1.758 1.867c.417.807.627 1.734.633 2.781v.727c0 1.073-.209 2.013-.625 2.82a4.34 4.34 0 0 1-1.774 1.859c-.765.432-1.659.654-2.679.664h-3.149zm1.5-10.141v8.914h1.578c1.156 0 2.055-.359 2.696-1.078s.968-1.742.968-3.07v-.664c0-1.292-.304-2.294-.914-3.008-.604-.719-1.463-1.083-2.578-1.094h-1.75zm12.281 10.297c-1.145 0-2.078-.375-2.797-1.125-.718-.755-1.078-1.763-1.078-3.023v-.266c0-.839.159-1.586.477-2.242.323-.661.771-1.177 1.344-1.547a3.38 3.38 0 0 1 1.875-.562c1.099 0 1.953.362 2.562 1.086s.914 1.76.914 3.109v.602h-5.726c.021.833.263 1.508.726 2.023.469.511 1.063.766 1.782.766.51 0 .942-.104 1.296-.312s.664-.484.93-.828l.883.688c-.708 1.089-1.771 1.633-3.188 1.633zm-.179-7.578a1.92 1.92 0 0 0-1.469.641c-.396.422-.641 1.016-.734 1.781h4.234v-.109c-.042-.734-.24-1.302-.594-1.703-.354-.406-.833-.609-1.437-.609zM813.57 51v-7.336h-1.336v-1.117h1.336v-.719c0-.943.269-1.677.805-2.203.542-.526 1.305-.789 2.289-.789.583 0 1.32.159 2.211.477l-.242 1.219c-.651-.26-1.271-.391-1.86-.391-.619 0-1.067.141-1.343.422-.271.276-.407.693-.407 1.25v.734h1.727v1.117h-1.727V51h-1.453zm6.024 0h-1.453v-8.453h1.453V51zm3.718-8.453l.047 1.063a3.08 3.08 0 0 1 2.532-1.219c1.786 0 2.687 1.008 2.703 3.023V51h-1.446v-5.594c-.005-.609-.145-1.06-.421-1.352-.271-.292-.696-.437-1.274-.437-.469 0-.88.125-1.234.375s-.63.578-.828.984V51h-1.446v-8.453h1.367zm10.969 8.609c-1.146 0-2.078-.375-2.797-1.125-.718-.755-1.078-1.763-1.078-3.023v-.266c0-.839.159-1.586.477-2.242.323-.661.771-1.177 1.344-1.547a3.38 3.38 0 0 1 1.875-.562c1.099 0 1.953.362 2.562 1.086s.914 1.76.914 3.109v.602h-5.726c.02.833.263 1.508.726 2.023.469.511 1.063.766 1.781.766.511 0 .943-.104 1.297-.312s.664-.484.93-.828l.883.688c-.709 1.089-1.771 1.633-3.188 1.633zm-.179-7.578a1.92 1.92 0 0 0-1.469.641c-.396.422-.641 1.016-.735 1.781h4.235v-.109c-.042-.734-.24-1.302-.594-1.703-.354-.406-.833-.609-1.437-.609zm16.265 3.289c0 1.286-.294 2.323-.883 3.109s-1.385 1.18-2.39 1.18c-1.026 0-1.834-.325-2.422-.977v4.07h-1.445V42.547h1.32l.07.938c.589-.729 1.406-1.094 2.453-1.094 1.016 0 1.818.383 2.407 1.148s.89 1.831.89 3.195v.133zm-1.445-.164c0-.953-.203-1.706-.61-2.258s-.963-.828-1.671-.828a2.12 2.12 0 0 0-1.969 1.164v4.039c.432.771 1.094 1.156 1.984 1.156.693 0 1.242-.273 1.649-.82.411-.552.617-1.37.617-2.453zm2.906-.008c0-.828.162-1.573.484-2.234.329-.661.782-1.172 1.36-1.531s1.247-.539 1.992-.539c1.151 0 2.081.398 2.789 1.195.714.797 1.07 1.857 1.07 3.18v.102c0 .823-.158 1.563-.476 2.219a3.56 3.56 0 0 1-1.352 1.523c-.583.365-1.255.547-2.015.547-1.146 0-2.076-.398-2.789-1.195s-1.063-1.852-1.063-3.164v-.102zm1.453.172c0 .938.216 1.69.649 2.258s1.021.852 1.75.852c.734 0 1.317-.286 1.75-.859.432-.578.648-1.385.648-2.422 0-.927-.221-1.677-.664-2.25a2.08 2.08 0 0 0-1.75-.867 2.07 2.07 0 0 0-1.726.852c-.438.568-.657 1.38-.657 2.438zM862.906 51h-1.445V39h1.445v12zm3.891 0h-1.445v-8.453h1.445V51zm-1.563-10.695c0-.234.071-.432.211-.594.146-.161.36-.242.641-.242s.495.081.641.242.218.359.218.594-.073.43-.218.586-.36.234-.641.234-.495-.078-.641-.234c-.14-.156-.211-.352-.211-.586zm7.274 9.672a2.08 2.08 0 0 0 1.351-.469c.386-.312.599-.703.641-1.172h1.367c-.026.484-.193.945-.5 1.383s-.719.786-1.234 1.047a3.53 3.53 0 0 1-1.625.391c-1.151 0-2.068-.383-2.75-1.148-.677-.771-1.016-1.823-1.016-3.156v-.242c0-.823.151-1.555.453-2.195s.735-1.138 1.297-1.492c.568-.354 1.237-.531 2.008-.531.948 0 1.734.284 2.359.852.631.568.967 1.305 1.008 2.211H874.5a1.97 1.97 0 0 0-.625-1.344 1.91 1.91 0 0 0-1.375-.531c-.734 0-1.305.266-1.711.797-.401.526-.601 1.289-.601 2.289v.273c0 .974.2 1.724.601 2.25s.974.789 1.719.789zM879.062 51h-1.445v-8.453h1.445V51zM877.5 40.305a.87.87 0 0 1 .211-.594c.146-.161.359-.242.641-.242s.494.081.64.242.219.359.219.594-.073.43-.219.586-.359.234-.64.234-.495-.078-.641-.234a.84.84 0 0 1-.211-.586zm7.391 10.852c-1.146 0-2.079-.375-2.797-1.125-.719-.755-1.078-1.763-1.078-3.023v-.266c0-.839.158-1.586.476-2.242.323-.661.771-1.177 1.344-1.547a3.38 3.38 0 0 1 1.875-.562c1.099 0 1.953.362 2.562 1.086s.915 1.76.915 3.109v.602h-5.727c.021.833.263 1.508.727 2.023a2.31 2.31 0 0 0 1.781.766c.51 0 .942-.104 1.297-.312a3.25 3.25 0 0 0 .929-.828l.883.688c-.708 1.089-1.771 1.633-3.187 1.633zm-.18-7.578a1.92 1.92 0 0 0-1.469.641c-.396.422-.64 1.016-.734 1.781h4.234v-.109c-.041-.734-.239-1.302-.594-1.703-.354-.406-.833-.609-1.437-.609zm10.078 5.18c0-.391-.148-.693-.445-.906-.292-.219-.805-.406-1.539-.562-.729-.156-1.31-.344-1.743-.562-.427-.219-.744-.479-.953-.781-.203-.302-.304-.661-.304-1.078 0-.693.291-1.279.875-1.758s1.338-.719 2.25-.719c.958 0 1.734.247 2.328.742a2.35 2.35 0 0 1 .898 1.898h-1.453c0-.396-.169-.737-.508-1.023-.333-.286-.755-.43-1.265-.43-.526 0-.938.115-1.235.344a1.08 1.08 0 0 0-.445.898c0 .349.138.612.414.789s.774.346 1.492.508c.724.161 1.31.354 1.758.578s.779.495.992.813c.219.313.328.695.328 1.148a2.17 2.17 0 0 1-.906 1.82c-.604.453-1.388.68-2.351.68-.678 0-1.276-.12-1.797-.359s-.93-.573-1.227-1a2.45 2.45 0 0 1-.437-1.398h1.445c.026.484.219.87.578 1.156.365.281.844.422 1.438.422.546 0 .984-.109 1.312-.328.333-.224.5-.521.5-.891zM907.305 51c-.084-.167-.151-.464-.203-.891-.672.698-1.474 1.047-2.407 1.047-.833 0-1.518-.234-2.054-.703a2.3 2.3 0 0 1-.797-1.797c0-.88.333-1.562 1-2.047.672-.49 1.614-.734 2.828-.734h1.406v-.664c0-.505-.151-.906-.453-1.203-.302-.302-.747-.453-1.336-.453-.516 0-.948.13-1.297.391s-.523.575-.523.945h-1.453c0-.422.148-.828.445-1.219.302-.396.708-.708 1.219-.937s1.08-.344 1.695-.344c.974 0 1.737.245 2.289.734.552.484.839 1.154.859 2.008v3.891c0 .776.099 1.393.297 1.852V51h-1.515zm-2.399-1.102a2.54 2.54 0 0 0 1.289-.352c.407-.234.701-.539.883-.914v-1.734h-1.133c-1.771 0-2.656.518-2.656 1.555 0 .453.151.807.453 1.063s.69.383 1.164.383zm7.25-7.352l.047 1.063c.646-.812 1.49-1.219 2.531-1.219 1.787 0 2.688 1.008 2.704 3.023V51h-1.446v-5.594c-.005-.609-.146-1.06-.422-1.352s-.695-.437-1.273-.437c-.469 0-.88.125-1.235.375s-.63.578-.828.984V51h-1.445v-8.453h1.367zm7.11 4.156c0-1.297.307-2.338.922-3.125.614-.792 1.419-1.187 2.414-1.187.989 0 1.773.339 2.351 1.016V39h1.445v12h-1.328l-.07-.906c-.578.708-1.383 1.062-2.414 1.062-.979 0-1.779-.401-2.398-1.203s-.922-1.849-.922-3.141v-.109zm1.445.164c0 .958.198 1.708.594 2.25s.942.813 1.64.813c.917 0 1.586-.411 2.008-1.234v-3.883a2.12 2.12 0 0 0-1.992-1.195c-.708 0-1.26.273-1.656.82s-.594 1.357-.594 2.43zm15.992-3.023a4.33 4.33 0 0 0-.711-.055c-.948 0-1.591.404-1.93 1.211v6h-1.445v-8.453h1.406l.024.977c.474-.755 1.146-1.133 2.015-1.133.282 0 .495.037.641.109v1.344zm4.688 7.312c-1.146 0-2.079-.375-2.797-1.125-.719-.755-1.078-1.763-1.078-3.023v-.266c0-.839.158-1.586.476-2.242.323-.661.771-1.177 1.344-1.547a3.38 3.38 0 0 1 1.875-.562c1.099 0 1.953.362 2.562 1.086s.915 1.76.915 3.109v.602h-5.727c.021.833.263 1.508.727 2.023a2.31 2.31 0 0 0 1.781.766c.51 0 .942-.104 1.297-.312a3.25 3.25 0 0 0 .929-.828l.883.688c-.708 1.089-1.771 1.633-3.187 1.633zm-.18-7.578a1.92 1.92 0 0 0-1.469.641c-.396.422-.64 1.016-.734 1.781h4.234v-.109c-.041-.734-.239-1.302-.594-1.703-.354-.406-.833-.609-1.437-.609zm4.805 3.125c0-1.328.304-2.378.914-3.148.609-.776 1.427-1.164 2.453-1.164 1 0 1.789.336 2.367 1.008l.062-.852h1.329V54.25h-1.446v-4.031c-.583.625-1.359.937-2.328.937-1.021 0-1.836-.396-2.445-1.187-.604-.797-.906-1.852-.906-3.164v-.102zm1.445.164c0 .969.203 1.729.609 2.281a1.96 1.96 0 0 0 1.657.828c.859 0 1.515-.38 1.968-1.141v-4.141c-.458-.745-1.109-1.117-1.953-1.117a1.96 1.96 0 0 0-1.664.836c-.411.552-.617 1.37-.617 2.453zm13.219 3.297c-.563.661-1.388.992-2.477.992-.901 0-1.588-.26-2.062-.781-.469-.526-.706-1.302-.711-2.328v-5.5h1.445v5.461c0 1.281.521 1.922 1.563 1.922 1.104 0 1.838-.411 2.203-1.234v-6.148h1.445V51h-1.375l-.031-.836zm7.117.992c-1.146 0-2.078-.375-2.797-1.125-.719-.755-1.078-1.763-1.078-3.023v-.266c0-.839.159-1.586.476-2.242.323-.661.771-1.177 1.344-1.547a3.38 3.38 0 0 1 1.875-.562c1.099 0 1.953.362 2.563 1.086s.914 1.76.914 3.109v.602h-5.727c.021.833.263 1.508.727 2.023a2.31 2.31 0 0 0 1.781.766c.51 0 .943-.104 1.297-.312s.664-.484.93-.828l.882.688c-.708 1.089-1.77 1.633-3.187 1.633zm-.18-7.578a1.92 1.92 0 0 0-1.469.641c-.395.422-.64 1.016-.734 1.781h4.234v-.109c-.041-.734-.239-1.302-.593-1.703-.354-.406-.834-.609-1.438-.609zm10.078 5.18c0-.391-.148-.693-.445-.906-.292-.219-.805-.406-1.539-.562s-1.31-.344-1.742-.562-.745-.479-.953-.781-.305-.661-.305-1.078c0-.693.292-1.279.875-1.758s1.338-.719 2.25-.719c.958 0 1.734.247 2.328.742a2.35 2.35 0 0 1 .898 1.898h-1.453c0-.396-.169-.737-.507-1.023s-.756-.43-1.266-.43c-.526 0-.938.115-1.234.344a1.08 1.08 0 0 0-.446.898c0 .349.138.612.414.789s.774.346 1.492.508c.724.161 1.31.354 1.758.578s.779.495.992.813c.219.313.329.695.329 1.148a2.17 2.17 0 0 1-.907 1.82c-.604.453-1.388.68-2.351.68-.677 0-1.276-.12-1.797-.359s-.93-.573-1.227-1c-.291-.432-.437-.898-.437-1.398h1.445c.026.484.219.87.578 1.156.365.281.844.422 1.438.422.547 0 .984-.109 1.312-.328.334-.224.5-.521.5-.891zm5.289-8.258v2.047h1.578v1.117h-1.578v5.242c0 .339.071.594.211.766.141.167.381.25.719.25.167 0 .396-.031.688-.094V51c-.381.104-.75.156-1.11.156-.646 0-1.133-.195-1.461-.586s-.492-.945-.492-1.664v-5.242H980v-1.117h1.539V40.5h1.445zm9.204 0v2.047h1.578v1.117h-1.578v5.242c0 .339.07.594.21.766.141.167.381.25.719.25.167 0 .396-.031.688-.094V51c-.381.104-.75.156-1.11.156-.646 0-1.133-.195-1.461-.586s-.492-.945-.492-1.664v-5.242h-1.539v-1.117h1.539V40.5h1.446zm4.843 10.5h-1.445v-8.453h1.445V51zm-1.562-10.695a.87.87 0 0 1 .211-.594c.146-.161.359-.242.64-.242s.495.081.641.242.219.359.219.594-.073.43-.219.586-.359.234-.641.234-.494-.078-.64-.234a.84.84 0 0 1-.211-.586zm5.241 2.242l.04.938c.62-.729 1.46-1.094 2.51-1.094 1.18 0 1.98.453 2.41 1.359.28-.406.65-.734 1.1-.984s.98-.375 1.6-.375c1.85 0 2.79.982 2.83 2.945V51h-1.45v-5.578c0-.604-.14-1.055-.41-1.352-.28-.302-.74-.453-1.39-.453-.54 0-.99.161-1.34.484-.35.318-.56.747-.62 1.289V51h-1.45v-5.539c0-1.229-.6-1.844-1.81-1.844-.94 0-1.59.404-1.94 1.211V51h-1.446v-8.453h1.366zm16.18 8.609c-1.15 0-2.08-.375-2.8-1.125-.71-.755-1.07-1.763-1.07-3.023v-.266c0-.839.15-1.586.47-2.242.33-.661.77-1.177 1.35-1.547a3.35 3.35 0 0 1 1.87-.562c1.1 0 1.95.362 2.56 1.086s.92 1.76.92 3.109v.602h-5.73c.02.833.26 1.508.73 2.023.47.511 1.06.766 1.78.766.51 0 .94-.104 1.3-.312.35-.208.66-.484.93-.828l.88.688c-.71 1.089-1.77 1.633-3.19 1.633zm-.18-7.578c-.58 0-1.07.214-1.47.641-.39.422-.64 1.016-.73 1.781h4.23v-.109c-.04-.734-.24-1.302-.59-1.703-.36-.406-.83-.609-1.44-.609zm8.74 3.117c0-.828.16-1.573.49-2.234s.78-1.172 1.36-1.531 1.24-.539 1.99-.539c1.15 0 2.08.398 2.79 1.195s1.07 1.857 1.07 3.18v.102c0 .823-.16 1.563-.48 2.219a3.53 3.53 0 0 1-1.35 1.523c-.58.365-1.25.547-2.02.547-1.14 0-2.07-.398-2.78-1.195s-1.07-1.852-1.07-3.164v-.102zm1.46.172c0 .938.21 1.69.64 2.258a2.11 2.11 0 0 0 1.75.852c.74 0 1.32-.286 1.75-.859.44-.578.65-1.385.65-2.422 0-.927-.22-1.677-.66-2.25-.44-.578-1.02-.867-1.75-.867-.71 0-1.29.284-1.73.852s-.65 1.38-.65 2.438zm8.76 4.133v-7.336h-1.33v-1.117h1.33v-.867c0-.906.24-1.607.73-2.102.48-.495 1.17-.742 2.05-.742a3.82 3.82 0 0 1 1 .133l-.08 1.172a4.23 4.23 0 0 0-.78-.07c-.47 0-.83.138-1.09.414-.26.271-.38.661-.38 1.172v.891h1.8v1.117h-1.8V51h-1.45zm5.56 0v-7.336h-1.33v-1.117h1.33v-.867c0-.906.25-1.607.73-2.102.49-.495 1.17-.742 2.06-.742.33 0 .66.044.99.133l-.08 1.172a4.23 4.23 0 0 0-.78-.07c-.47 0-.83.138-1.09.414-.25.271-.38.661-.38 1.172v.891h1.8v1.117h-1.8V51h-1.45z"/><ellipse rx="3" ry="2.981" transform="matrix(0 1 1 0 203.981 570)"/></g><path stroke="#2f2f2f" d="M203.5 632v-62"/><path d="M100.734 651.93c-1.286-.37-2.224-.823-2.812-1.36a2.62 2.62 0 0 1-.875-2c0-.896.357-1.635 1.07-2.218.719-.589 1.651-.883 2.797-.883.781 0 1.477.151 2.086.453.615.302 1.089.719 1.422 1.25a3.18 3.18 0 0 1 .508 1.742h-1.508c0-.687-.219-1.226-.656-1.617-.438-.396-1.055-.594-1.852-.594-.74 0-1.318.164-1.734.492-.412.323-.617.774-.617 1.352 0 .463.195.857.586 1.18.396.317 1.066.609 2.008.875.948.265 1.688.559 2.219.882.536.318.932.69 1.187 1.118.261.427.391.929.391 1.507 0 .922-.359 1.662-1.078 2.219s-1.68.828-2.883.828c-.781 0-1.51-.148-2.187-.445s-1.2-.714-1.57-1.234c-.365-.521-.547-1.112-.547-1.774h1.508c0 .688.253 1.232.758 1.633.51.396 1.19.594 2.039.594.792 0 1.399-.162 1.82-.485s.633-.763.633-1.32-.195-.987-.586-1.289-1.099-.609-2.125-.906zm9.43 5.226c-1.146 0-2.078-.375-2.797-1.125s-1.078-1.763-1.078-3.023v-.266c0-.838.159-1.586.477-2.242s.77-1.177 1.343-1.547a3.38 3.38 0 0 1 1.875-.562c1.099 0 1.954.362 2.563 1.086s.914 1.76.914 3.109v.602h-5.727c.021.833.263 1.507.727 2.023.469.51 1.062.766 1.781.766.511 0 .943-.105 1.297-.313s.664-.484.93-.828l.883.687c-.709 1.089-1.771 1.633-3.188 1.633zm-.18-7.578a1.92 1.92 0 0 0-1.468.641c-.396.422-.641 1.015-.735 1.781h4.235v-.109c-.042-.735-.24-1.302-.594-1.703-.354-.407-.833-.61-1.438-.61zm8.664 7.578c-1.145 0-2.078-.375-2.796-1.125s-1.079-1.763-1.079-3.023v-.266c0-.838.159-1.586.477-2.242s.771-1.177 1.344-1.547a3.38 3.38 0 0 1 1.875-.562c1.099 0 1.953.362 2.562 1.086s.914 1.76.914 3.109v.602h-5.726c.021.833.263 1.507.726 2.023.469.51 1.063.766 1.782.766.51 0 .942-.105 1.296-.313a3.23 3.23 0 0 0 .93-.828l.883.687c-.708 1.089-1.771 1.633-3.188 1.633zm-.179-7.578a1.92 1.92 0 0 0-1.469.641c-.396.422-.641 1.015-.734 1.781h4.234v-.109c-.042-.735-.24-1.302-.594-1.703-.354-.407-.833-.61-1.437-.61zm16.609 5.43l1.625-6.461h1.445l-2.46 8.453h-1.172l-2.055-6.406-2 6.406h-1.172l-2.453-8.453h1.437l1.665 6.328 1.968-6.328h1.164l2.008 6.461zm5.992-5.438a3.07 3.07 0 0 1 2.5-1.179c1.787 0 2.688 1.007 2.703 3.023V657h-1.445v-5.594c-.005-.609-.146-1.06-.422-1.351s-.695-.438-1.273-.438c-.469 0-.88.125-1.235.375s-.63.578-.828.985V657h-1.445v-12h1.445v4.57zm6.985 3.125c0-.828.161-1.573.484-2.234.328-.662.781-1.172 1.359-1.531.584-.36 1.248-.539 1.993-.539 1.151 0 2.08.398 2.789 1.195s1.07 1.857 1.07 3.18v.101c0 .823-.159 1.563-.477 2.219-.312.651-.763 1.159-1.351 1.523s-1.255.547-2.016.547c-1.146 0-2.075-.398-2.789-1.195-.708-.797-1.062-1.852-1.062-3.164v-.102zm1.453.172c0 .938.216 1.69.648 2.258.438.568 1.021.852 1.75.852.735 0 1.318-.287 1.75-.86s.649-1.385.649-2.422c0-.927-.222-1.677-.664-2.25-.438-.578-1.021-.867-1.75-.867-.714 0-1.289.284-1.727.852s-.656 1.38-.656 2.437zm7.531-4.039l-.82-.562c.484-.677.734-1.391.75-2.141V645h1.429v1.016c-.005.52-.135 1.041-.39 1.562s-.573.932-.969 1.25zm7.149 5.93c0-.391-.149-.693-.446-.906-.291-.219-.804-.407-1.539-.563-.729-.156-1.31-.344-1.742-.562s-.745-.48-.953-.782-.305-.661-.305-1.078c0-.693.292-1.278.875-1.758.589-.479 1.339-.718 2.25-.718.958 0 1.734.247 2.328.742a2.35 2.35 0 0 1 .899 1.898h-1.453c0-.396-.17-.737-.508-1.023s-.755-.43-1.266-.43c-.526 0-.937.115-1.234.344a1.08 1.08 0 0 0-.446.898c0 .349.138.612.414.789s.774.347 1.493.508 1.31.354 1.757.578.779.495.993.813c.218.312.328.695.328 1.148 0 .755-.302 1.362-.906 1.821-.605.453-1.388.679-2.352.679-.677 0-1.276-.12-1.797-.359s-.93-.573-1.226-1a2.45 2.45 0 0 1-.438-1.399h1.445c.026.485.219.87.579 1.157.364.281.843.422 1.437.422.547 0 .984-.11 1.313-.329.333-.224.5-.52.5-.89zM176.703 657c-.083-.167-.151-.464-.203-.891-.672.698-1.474 1.047-2.406 1.047-.834 0-1.518-.234-2.055-.703-.531-.474-.797-1.073-.797-1.797 0-.88.334-1.562 1-2.047.672-.489 1.615-.734 2.828-.734h1.407v-.664c0-.505-.151-.906-.454-1.203-.302-.302-.747-.453-1.335-.453-.516 0-.948.13-1.297.39s-.524.576-.524.946h-1.453c0-.422.148-.829.445-1.219.302-.396.709-.708 1.219-.938.516-.229 1.081-.343 1.695-.343.974 0 1.737.244 2.289.734.553.484.839 1.154.86 2.008v3.89c0 .776.099 1.394.297 1.852V657h-1.516zm-2.398-1.102c.453 0 .883-.117 1.289-.351s.7-.539.883-.914v-1.735h-1.133c-1.771 0-2.656.519-2.656 1.555 0 .453.151.807.453 1.063s.69.382 1.164.382zm13.367-.89l1.625-6.461h1.445L188.281 657h-1.172l-2.054-6.406-2 6.406h-1.172l-2.453-8.453h1.437l1.664 6.328 1.969-6.328h1.164l2.008 6.461zm9.766 1.992c-.084-.167-.152-.464-.204-.891-.672.698-1.474 1.047-2.406 1.047-.833 0-1.518-.234-2.055-.703-.531-.474-.796-1.073-.796-1.797 0-.88.333-1.562 1-2.047s1.614-.734 2.828-.734h1.406v-.664c0-.505-.151-.906-.453-1.203-.302-.302-.748-.453-1.336-.453-.516 0-.948.13-1.297.39s-.523.576-.523.946h-1.454c0-.422.149-.829.446-1.219.302-.396.708-.708 1.218-.938.516-.229 1.081-.343 1.696-.343.974 0 1.737.244 2.289.734.552.484.838 1.154.859 2.008v3.89c0 .776.099 1.394.297 1.852V657h-1.515zm-2.399-1.102c.453 0 .883-.117 1.289-.351s.701-.539.883-.914v-1.735h-1.133c-1.771 0-2.656.519-2.656 1.555 0 .453.151.807.453 1.063s.69.382 1.164.382zm8.523-1.015l1.969-6.336h1.547l-3.398 9.758c-.526 1.406-1.362 2.109-2.508 2.109l-.274-.023-.539-.102v-1.172l.391.031c.49 0 .87-.099 1.141-.296.276-.198.502-.56.679-1.086l.321-.86-3.016-8.359h1.578l2.109 6.336zm14 2.117c-.083-.167-.151-.464-.203-.891-.671.698-1.474 1.047-2.406 1.047-.833 0-1.518-.234-2.055-.703-.531-.474-.796-1.073-.796-1.797 0-.88.333-1.562 1-2.047s1.614-.734 2.828-.734h1.406v-.664c0-.505-.151-.906-.453-1.203-.302-.302-.748-.453-1.336-.453-.516 0-.948.13-1.297.39s-.523.576-.523.946h-1.454c0-.422.149-.829.446-1.219a3.09 3.09 0 0 1 1.219-.938c.515-.229 1.08-.343 1.695-.343.974 0 1.737.244 2.289.734.552.484.838 1.154.859 2.008v3.89c0 .776.099 1.394.297 1.852V657h-1.516zm-2.398-1.102c.453 0 .883-.117 1.289-.351s.701-.539.883-.914v-1.735h-1.133c-1.771 0-2.656.519-2.656 1.555 0 .453.151.807.453 1.063s.69.382 1.164.382zm7.25-7.351l.047 1.062a3.08 3.08 0 0 1 2.531-1.218c1.787 0 2.688 1.007 2.703 3.023V657h-1.445v-5.594c-.005-.609-.146-1.06-.422-1.351s-.695-.438-1.273-.438c-.469 0-.881.125-1.235.375s-.63.578-.828.985V657h-1.445v-8.453h1.367zm7.109 4.156c0-1.297.308-2.338.922-3.125a2.91 2.91 0 0 1 2.414-1.187c.99 0 1.774.338 2.352 1.015V645h1.445v12h-1.328l-.07-.906c-.578.708-1.383 1.062-2.414 1.062-.979 0-1.779-.401-2.399-1.203-.614-.802-.922-1.849-.922-3.141v-.109zm1.446.164c0 .959.198 1.709.593 2.25s.943.813 1.641.813c.917 0 1.586-.412 2.008-1.235v-3.883c-.432-.796-1.096-1.195-1.992-1.195-.709 0-1.261.274-1.657.821s-.593 1.356-.593 2.429zm19.39 2.141l1.625-6.461h1.446L250.969 657h-1.172l-2.055-6.406-2 6.406h-1.172l-2.453-8.453h1.438l1.664 6.328 1.969-6.328h1.164l2.007 6.461zm5.993-5.438a3.07 3.07 0 0 1 2.5-1.179c1.786 0 2.687 1.007 2.703 3.023V657h-1.446v-5.594c-.005-.609-.145-1.06-.421-1.351s-.696-.438-1.274-.438c-.469 0-.88.125-1.234.375s-.631.578-.828.985V657h-1.446v-12h1.446v4.57zm10.875 7.586c-1.146 0-2.079-.375-2.797-1.125s-1.078-1.763-1.078-3.023v-.266c0-.838.158-1.586.476-2.242.323-.661.771-1.177 1.344-1.547a3.38 3.38 0 0 1 1.875-.562c1.099 0 1.953.362 2.562 1.086s.914 1.76.914 3.109v.602h-5.726c.021.833.263 1.507.726 2.023.469.51 1.063.766 1.782.766.51 0 .942-.105 1.297-.313a3.24 3.24 0 0 0 .929-.828l.883.687c-.708 1.089-1.771 1.633-3.187 1.633zm-.18-7.578c-.583 0-1.073.214-1.469.641-.396.422-.64 1.015-.734 1.781h4.234v-.109c-.042-.735-.239-1.302-.594-1.703-.354-.407-.833-.61-1.437-.61zm6.523-1.031l.047 1.062a3.08 3.08 0 0 1 2.531-1.218c1.787 0 2.688 1.007 2.704 3.023V657h-1.446v-5.594c-.005-.609-.146-1.06-.422-1.351-.27-.292-.695-.438-1.273-.438-.469 0-.88.125-1.234.375a2.54 2.54 0 0 0-.829.985V657h-1.445v-8.453h1.367z" fill="#2f2f2f"/></svg>