<svg xmlns="http://www.w3.org/2000/svg" width="1150" height="614" fill="none" xmlns:v="https://vecta.io/nano"><circle r="3" transform="matrix(0 -1 -1 0 139 133)" fill="#2f2f2f"/><path d="M138.935 52v81.5" stroke="#2f2f2f"/><g fill="#2f2f2f"><path d="M77.766 39.125a1.84 1.84 0 0 0-.125-.703c-.078-.208-.219-.396-.422-.562-.198-.167-.474-.325-.828-.477-.349-.151-.792-.305-1.328-.461-.562-.167-1.07-.352-1.523-.555-.453-.208-.841-.445-1.164-.711s-.57-.57-.742-.914-.258-.737-.258-1.18.091-.852.273-1.227a2.87 2.87 0 0 1 .781-.977c.344-.281.753-.5 1.227-.656s1.003-.234 1.586-.234c.854 0 1.578.164 2.172.492.599.323 1.055.747 1.367 1.274.313.521.469 1.078.469 1.672h-1.5c0-.427-.091-.805-.273-1.133-.182-.333-.458-.594-.828-.781-.37-.193-.838-.289-1.406-.289-.537 0-.979.081-1.328.242s-.609.38-.781.656c-.167.276-.25.591-.25.945 0 .24.049.458.148.656.104.193.263.372.477.539.219.167.495.32.828.461.339.141.742.276 1.211.406.646.182 1.203.385 1.672.609s.854.477 1.156.758c.307.276.534.591.68.945.151.349.227.745.227 1.188 0 .463-.094.883-.281 1.258s-.456.695-.805.961-.768.471-1.258.617c-.484.141-1.026.211-1.625.211-.526 0-1.044-.073-1.555-.219a4.63 4.63 0 0 1-1.383-.656c-.412-.292-.742-.651-.992-1.078-.245-.432-.367-.932-.367-1.5h1.5c0 .391.075.727.227 1.008a2 2 0 0 0 .617.688 2.88 2.88 0 0 0 .898.406 4.4 4.4 0 0 0 1.055.125c.526 0 .971-.073 1.336-.219s.641-.354.828-.625c.193-.271.289-.591.289-.961zm6.727 3.031c-.589 0-1.122-.099-1.602-.297a3.63 3.63 0 0 1-1.227-.852c-.339-.365-.599-.797-.781-1.297s-.273-1.047-.273-1.641v-.328c0-.687.102-1.299.305-1.836.203-.542.479-1 .828-1.375s.745-.659 1.188-.852a3.41 3.41 0 0 1 1.375-.289c.604 0 1.125.104 1.563.313a2.85 2.85 0 0 1 1.086.875 3.74 3.74 0 0 1 .625 1.313c.135.5.203 1.047.203 1.641v.648h-6.312V37h4.867v-.109c-.021-.375-.099-.74-.234-1.094-.13-.354-.339-.646-.625-.875s-.677-.344-1.172-.344c-.328 0-.63.07-.906.211a1.93 1.93 0 0 0-.711.609c-.198.271-.352.602-.461.992s-.164.841-.164 1.352v.328c0 .401.055.779.164 1.133.114.349.279.656.492.922a2.36 2.36 0 0 0 .789.625c.313.151.667.227 1.063.227.51 0 .943-.104 1.297-.312s.664-.487.93-.836l.875.695c-.182.276-.414.539-.695.789a3.32 3.32 0 0 1-1.039.609c-.406.156-.888.234-1.445.234zm8.484 0c-.589 0-1.122-.099-1.602-.297a3.63 3.63 0 0 1-1.227-.852 3.79 3.79 0 0 1-.781-1.297c-.182-.5-.273-1.047-.273-1.641v-.328c0-.687.102-1.299.305-1.836.203-.542.479-1 .828-1.375s.745-.659 1.188-.852a3.41 3.41 0 0 1 1.375-.289c.604 0 1.125.104 1.563.313a2.85 2.85 0 0 1 1.086.875 3.74 3.74 0 0 1 .625 1.313c.135.5.203 1.047.203 1.641v.648h-6.312V37h4.867v-.109a3.6 3.6 0 0 0-.234-1.094c-.13-.354-.338-.646-.625-.875s-.677-.344-1.172-.344c-.328 0-.63.07-.906.211a1.93 1.93 0 0 0-.711.609 3.07 3.07 0 0 0-.461.992c-.109.391-.164.841-.164 1.352v.328a3.82 3.82 0 0 0 .164 1.133 2.9 2.9 0 0 0 .492.922 2.36 2.36 0 0 0 .789.625c.313.151.667.227 1.063.227.51 0 .943-.104 1.297-.312s.664-.487.93-.836l.875.695c-.182.276-.414.539-.695.789s-.628.453-1.039.609c-.406.156-.888.234-1.445.234zm13.929-1.602v-4.352c0-.333-.067-.622-.203-.867-.13-.25-.328-.443-.594-.578s-.593-.203-.984-.203c-.365 0-.685.063-.961.188s-.484.289-.641.492c-.151.203-.226.422-.226.656h-1.445c0-.302.078-.602.234-.898a2.62 2.62 0 0 1 .672-.805c.297-.245.651-.437 1.062-.578.417-.146.881-.219 1.391-.219.615 0 1.156.104 1.625.313a2.43 2.43 0 0 1 1.109.945c.271.417.407.94.407 1.57v3.937a6.15 6.15 0 0 0 .07.898c.052.318.127.591.226.82V42h-1.507c-.073-.167-.131-.388-.172-.664-.042-.281-.063-.542-.063-.781zm.25-3.68l.016 1.016h-1.461c-.412 0-.779.034-1.102.102-.323.063-.593.159-.812.289s-.386.294-.5.492c-.115.193-.172.419-.172.68 0 .266.06.508.18.727a1.3 1.3 0 0 0 .539.523c.245.125.544.188.898.188.443 0 .834-.094 1.172-.281s.607-.417.805-.687c.203-.271.312-.534.328-.789l.617.695c-.036.219-.135.461-.297.727s-.377.521-.648.766c-.266.24-.584.44-.953.602-.365.156-.776.234-1.235.234-.573 0-1.075-.112-1.508-.336a2.58 2.58 0 0 1-1-.898 2.38 2.38 0 0 1-.351-1.273c0-.453.088-.852.266-1.195a2.31 2.31 0 0 1 .765-.867c.333-.234.735-.411 1.203-.531s.992-.18 1.571-.18h1.679zm4.914-1.523V42h-1.445v-8.453h1.367l.078 1.805zm-.343 2.102l-.602-.023a5.07 5.07 0 0 1 .258-1.602c.166-.495.401-.925.703-1.289s.661-.646 1.078-.844a3.18 3.18 0 0 1 1.398-.305c.417 0 .792.057 1.126.172.333.109.617.286.851.531.24.245.422.562.547.953.125.385.187.857.187 1.414V42h-1.453v-5.555c0-.443-.065-.797-.195-1.062a1.2 1.2 0 0 0-.57-.586c-.25-.125-.558-.187-.922-.187a2.14 2.14 0 0 0-.985.227c-.291.151-.544.359-.757.625s-.373.57-.493.914c-.114.339-.171.698-.171 1.078zm13.07 2.906V30h1.453v12h-1.328l-.125-1.641zm-5.688-2.492v-.164c0-.646.079-1.232.235-1.758.161-.531.388-.987.679-1.367a3.08 3.08 0 0 1 1.055-.875c.412-.208.87-.312 1.375-.312.531 0 .995.094 1.391.281.401.182.739.45 1.015.805.282.349.503.771.664 1.266a7.92 7.92 0 0 1 .336 1.68v.719c-.057.62-.169 1.177-.336 1.672-.161.495-.382.917-.664 1.266-.276.349-.614.617-1.015.805-.401.182-.87.273-1.406.273a2.91 2.91 0 0 1-1.36-.32c-.406-.214-.758-.513-1.055-.898-.291-.385-.518-.839-.679-1.359-.156-.526-.235-1.096-.235-1.711zm1.453-.164v.164c0 .422.042.818.126 1.188s.223.695.406.977.414.503.695.664c.281.156.617.234 1.008.234.479 0 .872-.102 1.18-.305a2.28 2.28 0 0 0 .75-.805 4.66 4.66 0 0 0 .437-1.086v-1.883a4.19 4.19 0 0 0-.273-.828 2.57 2.57 0 0 0-.453-.719c-.183-.214-.409-.383-.68-.508-.266-.125-.581-.187-.946-.187-.395 0-.736.083-1.023.25-.281.161-.513.385-.695.672-.183.281-.318.609-.406.984-.084.37-.126.766-.126 1.188zM134.398 42h-1.445v-9.187c0-.641.125-1.182.375-1.625s.607-.779 1.07-1.008 1.013-.344 1.649-.344c.375 0 .742.047 1.101.141a11.47 11.47 0 0 1 1.11.336l-.242 1.219a7.72 7.72 0 0 0-.836-.266c-.313-.088-.657-.133-1.032-.133-.619 0-1.067.141-1.343.422-.271.276-.407.695-.407 1.258V42zm1.727-8.453v1.109h-4.508v-1.109h4.508zm2.844 0V42h-1.446v-8.453h1.446zM142.914 30v12h-1.453V30h1.453zm5.859 3.547v1.109h-4.57v-1.109h4.57zm-3.023-2.055h1.445v8.414c0 .287.045.503.133.648s.203.242.344.289.292.07.453.07c.12 0 .245-.011.375-.031l.305-.062.007 1.18c-.114.036-.265.07-.453.102-.182.036-.403.055-.664.055a2.25 2.25 0 0 1-.976-.211 1.57 1.57 0 0 1-.711-.703c-.172-.333-.258-.781-.258-1.344v-8.406zm8.227 10.664c-.589 0-1.123-.099-1.602-.297-.474-.203-.883-.487-1.227-.852a3.79 3.79 0 0 1-.781-1.297c-.182-.5-.273-1.047-.273-1.641v-.328c0-.687.101-1.299.304-1.836.204-.542.48-1 .829-1.375s.744-.659 1.187-.852a3.41 3.41 0 0 1 1.375-.289c.604 0 1.125.104 1.563.313a2.86 2.86 0 0 1 1.086.875c.281.37.489.807.624 1.313.136.5.204 1.047.204 1.641v.648h-6.313V37h4.867v-.109a3.62 3.62 0 0 0-.234-1.094c-.13-.354-.339-.646-.625-.875s-.677-.344-1.172-.344c-.328 0-.63.07-.906.211a1.93 1.93 0 0 0-.711.609 3.06 3.06 0 0 0-.461.992c-.109.391-.164.841-.164 1.352v.328a3.83 3.83 0 0 0 .164 1.133c.115.349.279.656.492.922.219.266.482.474.789.625.313.151.667.227 1.063.227.51 0 .942-.104 1.297-.312s.664-.487.929-.836l.875.695a4.04 4.04 0 0 1-.695.789c-.281.25-.628.453-1.039.609s-.888.234-1.445.234zm6.421-7.281V42h-1.445v-8.453h1.406l.039 1.328zm2.641-1.375l-.008 1.344a2.08 2.08 0 0 0-.343-.047c-.105-.01-.224-.016-.36-.016-.333 0-.627.052-.883.156a1.83 1.83 0 0 0-.648.438c-.177.188-.318.411-.422.672-.099.255-.164.536-.195.844l-.407.234a6.65 6.65 0 0 1 .149-1.437c.104-.448.263-.844.476-1.187a2.34 2.34 0 0 1 .813-.812c.333-.198.729-.297 1.187-.297a1.93 1.93 0 0 1 .36.039c.135.021.229.044.281.07zm10.289 7.055v-4.352c0-.333-.068-.622-.203-.867-.13-.25-.328-.443-.594-.578s-.593-.203-.984-.203c-.365 0-.685.063-.961.188s-.484.289-.641.492c-.151.203-.226.422-.226.656h-1.446c0-.302.079-.602.235-.898a2.62 2.62 0 0 1 .672-.805c.297-.245.651-.437 1.062-.578.417-.146.88-.219 1.391-.219.614 0 1.156.104 1.625.313a2.43 2.43 0 0 1 1.109.945c.271.417.406.94.406 1.57v3.937c0 .281.024.581.071.898s.127.591.226.82V42h-1.508c-.072-.167-.13-.388-.171-.664-.042-.281-.063-.542-.063-.781zm.25-3.68l.016 1.016h-1.461c-.412 0-.779.034-1.102.102-.323.063-.593.159-.812.289s-.386.294-.5.492c-.115.193-.172.419-.172.68 0 .266.06.508.18.727a1.3 1.3 0 0 0 .539.523c.244.125.544.188.898.188.443 0 .833-.094 1.172-.281s.607-.417.805-.687c.203-.271.312-.534.328-.789l.617.695c-.037.219-.135.461-.297.727s-.378.521-.648.766c-.266.24-.584.44-.953.602-.365.156-.777.234-1.235.234-.573 0-1.075-.112-1.508-.336a2.58 2.58 0 0 1-1-.898 2.38 2.38 0 0 1-.351-1.273c0-.453.088-.852.265-1.195a2.31 2.31 0 0 1 .766-.867c.333-.234.734-.411 1.203-.531s.992-.18 1.57-.18h1.68zM178.617 30v12h-1.453V30h1.453zm3.891 0v12h-1.453V30h1.453zm7.734 4.875V42h-1.445v-8.453h1.406l.039 1.328zm2.641-1.375l-.008 1.344a2.08 2.08 0 0 0-.344-.047 3.65 3.65 0 0 0-.359-.016c-.333 0-.628.052-.883.156a1.83 1.83 0 0 0-.648.438c-.177.188-.318.411-.422.672-.099.255-.164.536-.196.844l-.406.234a6.65 6.65 0 0 1 .149-1.437c.104-.448.263-.844.476-1.187a2.34 2.34 0 0 1 .813-.812c.333-.198.729-.297 1.187-.297.104 0 .224.013.36.039.135.021.229.044.281.07zm4.687 8.656c-.588 0-1.122-.099-1.601-.297-.474-.203-.883-.487-1.227-.852a3.79 3.79 0 0 1-.781-1.297c-.182-.5-.273-1.047-.273-1.641v-.328c0-.687.101-1.299.304-1.836.203-.542.479-1 .828-1.375s.745-.659 1.188-.852a3.41 3.41 0 0 1 1.375-.289c.604 0 1.125.104 1.562.313.443.208.805.5 1.086.875.281.37.49.807.625 1.313.136.5.203 1.047.203 1.641v.648h-6.312V37h4.867v-.109a3.62 3.62 0 0 0-.234-1.094c-.131-.354-.339-.646-.625-.875s-.677-.344-1.172-.344c-.328 0-.63.07-.906.211a1.93 1.93 0 0 0-.711.609 3.06 3.06 0 0 0-.461.992c-.11.391-.164.841-.164 1.352v.328c0 .401.054.779.164 1.133.114.349.278.656.492.922s.482.474.789.625a2.41 2.41 0 0 0 1.062.227c.511 0 .943-.104 1.297-.312a3.22 3.22 0 0 0 .93-.836l.875.695a4.04 4.04 0 0 1-.695.789c-.282.25-.628.453-1.039.609s-.888.234-1.446.234zm10.297 3.094V35.172l.125-1.625h1.328V45.25h-1.453zm-5.679-7.383v-.164c0-.646.075-1.232.226-1.758.151-.531.372-.987.664-1.367a2.98 2.98 0 0 1 1.055-.875c.416-.208.89-.312 1.422-.312s.997.094 1.398.281c.406.182.75.45 1.031.805.287.349.513.771.68 1.266s.281 1.055.344 1.68v.719c-.057.62-.169 1.177-.336 1.672s-.393.917-.68 1.266a2.81 2.81 0 0 1-1.039.805c-.406.182-.877.273-1.414.273-.521 0-.99-.107-1.406-.32s-.763-.513-1.055-.898c-.286-.385-.508-.839-.664-1.359a6.18 6.18 0 0 1-.226-1.711zm1.453-.164v.164a5.22 5.22 0 0 0 .132 1.195c.089.37.224.698.407.984s.422.513.703.68c.286.161.625.242 1.015.242.48 0 .878-.104 1.196-.313.323-.208.58-.482.773-.82a4.72 4.72 0 0 0 .445-1.102v-1.883c-.057-.286-.148-.565-.273-.836-.12-.271-.276-.513-.469-.727-.192-.219-.427-.391-.703-.516-.271-.13-.588-.195-.953-.195-.396 0-.737.083-1.023.25s-.524.396-.711.688a3.2 3.2 0 0 0-.407.992 5.22 5.22 0 0 0-.132 1.195zm13.171 2.344v-6.5h1.454V42h-1.383l-.071-1.953zm.274-1.781l.602-.016c0 .563-.06 1.083-.18 1.563-.115.474-.302.885-.563 1.234s-.601.622-1.023.82c-.422.193-.935.289-1.539.289-.412 0-.789-.06-1.133-.18a2.26 2.26 0 0 1-.875-.555c-.245-.25-.435-.575-.57-.977s-.196-.883-.196-1.445v-5.453h1.446v5.469c0 .38.041.695.125.945a1.56 1.56 0 0 0 .351.586c.151.141.318.24.5.297a1.97 1.97 0 0 0 .578.086c.615 0 1.102-.117 1.461-.352a2 2 0 0 0 .774-.961 3.64 3.64 0 0 0 .242-1.352zm6.891 3.891c-.589 0-1.123-.099-1.602-.297-.474-.203-.883-.487-1.227-.852a3.79 3.79 0 0 1-.781-1.297c-.182-.5-.273-1.047-.273-1.641v-.328c0-.687.101-1.299.304-1.836.204-.542.48-1 .829-1.375s.744-.659 1.187-.852a3.41 3.41 0 0 1 1.375-.289c.604 0 1.125.104 1.563.313a2.86 2.86 0 0 1 1.086.875c.281.37.489.807.624 1.313.136.5.204 1.047.204 1.641v.648h-6.313V37h4.867v-.109a3.62 3.62 0 0 0-.234-1.094c-.13-.354-.339-.646-.625-.875s-.677-.344-1.172-.344c-.328 0-.63.07-.906.211a1.93 1.93 0 0 0-.711.609 3.06 3.06 0 0 0-.461.992c-.109.391-.164.841-.164 1.352v.328a3.83 3.83 0 0 0 .164 1.133c.115.349.279.656.492.922.219.266.482.474.789.625.313.151.667.227 1.063.227.51 0 .942-.104 1.297-.312s.664-.487.929-.836l.875.695a4.04 4.04 0 0 1-.695.789c-.281.25-.628.453-1.039.609s-.888.234-1.445.234zm9.898-2.398c0-.208-.047-.401-.141-.578-.088-.182-.273-.346-.554-.492-.276-.151-.693-.281-1.25-.391a9.9 9.9 0 0 1-1.274-.352 3.87 3.87 0 0 1-.961-.492 2.06 2.06 0 0 1-.601-.68c-.141-.26-.211-.565-.211-.914 0-.333.073-.648.219-.945s.362-.56.632-.789c.276-.229.607-.409.993-.539s.815-.195 1.289-.195c.677 0 1.255.12 1.734.359s.846.56 1.102.961c.255.396.382.836.382 1.32h-1.445c0-.234-.07-.461-.211-.68-.135-.224-.336-.409-.601-.555s-.581-.219-.961-.219c-.401 0-.727.063-.977.188-.245.12-.424.273-.539.461-.109.188-.164.385-.164.594a1.09 1.09 0 0 0 .078.422c.057.12.156.232.297.336.141.099.338.193.594.281s.58.177.976.266c.693.156 1.263.344 1.711.563s.781.487 1 .805.328.703.328 1.156a2.21 2.21 0 0 1-.234 1.016c-.151.307-.372.573-.664.797-.287.219-.63.391-1.031.516-.396.12-.842.18-1.336.18-.745 0-1.375-.133-1.891-.398s-.906-.609-1.172-1.031-.398-.867-.398-1.336h1.453c.021.396.135.711.344.945a1.75 1.75 0 0 0 .765.492 3.02 3.02 0 0 0 .899.141c.396 0 .726-.052.992-.156.271-.104.476-.247.617-.43s.211-.391.211-.625zm6.883-6.211v1.109h-4.57v-1.109h4.57zm-3.024-2.055h1.446v8.414c0 .287.044.503.132.648a.64.64 0 0 0 .344.289 1.43 1.43 0 0 0 .453.07c.12 0 .245-.011.375-.031l.305-.062.008 1.18a3.41 3.41 0 0 1-.453.102c-.183.036-.404.055-.664.055-.354 0-.68-.07-.977-.211a1.57 1.57 0 0 1-.711-.703c-.172-.333-.258-.781-.258-1.344v-8.406zm9.641 8.266c0-.208-.047-.401-.141-.578-.088-.182-.273-.346-.554-.492-.276-.151-.693-.281-1.25-.391a9.9 9.9 0 0 1-1.274-.352 3.87 3.87 0 0 1-.961-.492 2.06 2.06 0 0 1-.601-.68c-.141-.26-.211-.565-.211-.914 0-.333.073-.648.219-.945s.362-.56.632-.789c.276-.229.607-.409.993-.539s.815-.195 1.289-.195c.677 0 1.255.12 1.734.359s.846.56 1.102.961c.255.396.382.836.382 1.32h-1.445c0-.234-.07-.461-.211-.68-.135-.224-.336-.409-.601-.555s-.581-.219-.961-.219c-.401 0-.727.063-.977.188-.245.12-.424.273-.539.461-.109.188-.164.385-.164.594a1.09 1.09 0 0 0 .078.422c.057.12.156.232.297.336.141.099.338.193.594.281s.58.177.976.266c.693.156 1.263.344 1.711.563s.781.487 1 .805.328.703.328 1.156a2.21 2.21 0 0 1-.234 1.016c-.151.307-.372.573-.664.797-.287.219-.63.391-1.031.516-.396.12-.842.18-1.336.18-.745 0-1.375-.133-1.891-.398s-.906-.609-1.172-1.031-.398-.867-.398-1.336h1.453c.021.396.135.711.344.945a1.75 1.75 0 0 0 .765.492 3.02 3.02 0 0 0 .899.141c.396 0 .726-.052.992-.156.271-.104.476-.247.617-.43s.211-.391.211-.625z"/><circle r="3" transform="matrix(0 -1 -1 0 914 174)"/></g><path d="M913.935 52v120.5" stroke="#2f2f2f"/><g fill="#2f2f2f"><path d="M776.523 30.625h3.766c.854 0 1.576.13 2.164.391.594.26 1.044.646 1.352 1.156.312.505.468 1.128.468 1.867 0 .521-.106.997-.32 1.43-.208.427-.51.792-.906 1.094a4 4 0 0 1-1.406.664l-.422.164h-3.539l-.016-1.227h2.672c.542 0 .992-.094 1.352-.281.359-.193.63-.451.812-.773s.273-.68.273-1.07c0-.437-.085-.82-.257-1.148s-.443-.581-.813-.758c-.364-.182-.836-.273-1.414-.273h-2.258V42h-1.508V30.625zM783.172 42l-2.766-5.156 1.571-.008 2.804 5.07V42h-1.609zm6.5.156c-.589 0-1.123-.099-1.602-.297a3.63 3.63 0 0 1-1.226-.852c-.339-.365-.599-.797-.782-1.297s-.273-1.047-.273-1.641v-.328c0-.687.102-1.299.305-1.836.203-.542.479-1 .828-1.375s.745-.659 1.187-.852a3.41 3.41 0 0 1 1.375-.289c.605 0 1.125.104 1.563.313s.805.5 1.086.875c.281.37.489.807.625 1.313a6.28 6.28 0 0 1 .203 1.641v.648h-6.313V37h4.868v-.109a3.59 3.59 0 0 0-.235-1.094 1.96 1.96 0 0 0-.625-.875c-.286-.229-.677-.344-1.172-.344-.328 0-.63.07-.906.211a1.93 1.93 0 0 0-.711.609 3.08 3.08 0 0 0-.461.992c-.109.391-.164.841-.164 1.352v.328a3.83 3.83 0 0 0 .164 1.133c.115.349.279.656.492.922a2.36 2.36 0 0 0 .79.625c.312.151.666.227 1.062.227.51 0 .943-.104 1.297-.312a3.22 3.22 0 0 0 .93-.836l.875.695c-.183.276-.414.539-.696.789a3.31 3.31 0 0 1-1.039.609c-.406.156-.888.234-1.445.234zm6.414-6.93V42h-1.453v-8.453h1.375l.078 1.68zm-.297 2.227l-.672-.023a5.76 5.76 0 0 1 .227-1.602 3.81 3.81 0 0 1 .648-1.289c.287-.365.643-.646 1.07-.844.428-.203.922-.305 1.485-.305.396 0 .76.057 1.094.172a2.21 2.21 0 0 1 .867.523c.245.24.435.547.57.922s.203.828.203 1.359V42h-1.445v-5.562c0-.443-.076-.797-.227-1.062a1.29 1.29 0 0 0-.625-.578c-.27-.125-.588-.187-.953-.187-.427 0-.784.075-1.07.227s-.516.359-.688.625-.296.57-.375.914c-.072.339-.109.698-.109 1.078zm5.477-.797l-.969.297c.005-.463.081-.909.226-1.336a3.63 3.63 0 0 1 .649-1.141c.286-.333.638-.596 1.055-.789.416-.198.893-.297 1.429-.297.453 0 .854.06 1.203.18.355.12.651.305.891.555.245.245.43.56.555.945s.187.844.187 1.375V42h-1.453v-5.57c0-.474-.075-.841-.227-1.102a1.18 1.18 0 0 0-.624-.555c-.266-.109-.584-.164-.954-.164-.317 0-.599.055-.843.164a1.75 1.75 0 0 0-.618.453 1.98 1.98 0 0 0-.382.648 2.39 2.39 0 0 0-.125.781zm8.984-3.109V42h-1.453v-8.453h1.453zm-1.562-2.242c0-.234.07-.432.21-.594.146-.161.36-.242.641-.242s.487.081.633.242.226.359.226.594c0 .224-.075.417-.226.578-.146.156-.357.234-.633.234s-.495-.078-.641-.234c-.14-.161-.21-.354-.21-.578zm5.328 4.047V42h-1.446v-8.453h1.368l.078 1.805zm-.344 2.102l-.602-.023c.006-.578.091-1.112.258-1.602.167-.495.401-.925.703-1.289s.662-.646 1.078-.844c.422-.203.888-.305 1.399-.305.416 0 .791.057 1.125.172.333.109.617.286.851.531.24.245.422.562.547.953.125.385.188.857.188 1.414V42h-1.453v-5.555c0-.443-.065-.797-.196-1.062a1.2 1.2 0 0 0-.57-.586c-.25-.125-.557-.187-.922-.187a2.14 2.14 0 0 0-.984.227c-.292.151-.545.359-.758.625s-.372.57-.492.914a3.33 3.33 0 0 0-.172 1.078zm13.07 2.906V30h1.453v12h-1.328l-.125-1.641zm-5.687-2.492v-.164c0-.646.078-1.232.234-1.758.162-.531.388-.987.68-1.367s.648-.672 1.054-.875c.412-.208.87-.312 1.375-.312.532 0 .995.094 1.391.281.401.182.74.45 1.016.805.281.349.502.771.664 1.266s.273 1.055.336 1.68v.719c-.058.62-.17 1.177-.336 1.672s-.383.917-.664 1.266a2.78 2.78 0 0 1-1.016.805c-.401.182-.87.273-1.406.273a2.91 2.91 0 0 1-1.36-.32 3.21 3.21 0 0 1-1.054-.898c-.292-.385-.518-.839-.68-1.359-.156-.526-.234-1.096-.234-1.711zm1.453-.164v.164c0 .422.041.818.125 1.188s.224.695.406.977.414.503.695.664c.282.156.618.234 1.008.234.479 0 .873-.102 1.18-.305a2.28 2.28 0 0 0 .75-.805 4.66 4.66 0 0 0 .437-1.086v-1.883c-.062-.286-.153-.562-.273-.828a2.57 2.57 0 0 0-.453-.719c-.182-.214-.409-.383-.68-.508-.265-.125-.581-.187-.945-.187-.396 0-.737.083-1.024.25-.281.161-.513.385-.695.672a3.1 3.1 0 0 0-.406.984c-.084.37-.125.766-.125 1.188zm13.351-2.531V45.25h-1.453V33.547h1.328l.125 1.625zm5.696 2.531v.164c0 .615-.073 1.185-.219 1.711-.146.521-.359.974-.641 1.359-.276.385-.617.685-1.023.898s-.873.32-1.399.32c-.536 0-1.01-.088-1.421-.266s-.761-.435-1.047-.773-.516-.745-.688-1.219c-.166-.474-.281-1.008-.344-1.602v-.875a7.37 7.37 0 0 1 .352-1.68 4.17 4.17 0 0 1 .68-1.266 2.79 2.79 0 0 1 1.039-.805c.406-.187.875-.281 1.406-.281s1.003.104 1.414.313a2.84 2.84 0 0 1 1.039.875c.281.38.492.836.633 1.367.146.526.219 1.112.219 1.758zm-1.453.164v-.164c0-.422-.045-.818-.133-1.187-.089-.375-.227-.703-.414-.984a1.98 1.98 0 0 0-.703-.672c-.287-.167-.628-.25-1.024-.25-.364 0-.682.063-.953.188s-.492.294-.68.508c-.187.208-.341.448-.461.719-.114.266-.2.542-.257.828v2.023a4.53 4.53 0 0 0 .437 1.031c.188.318.438.576.75.773.313.193.706.289 1.18.289.39 0 .726-.081 1.008-.242a2.05 2.05 0 0 0 .703-.68 3.12 3.12 0 0 0 .414-.984 5.22 5.22 0 0 0 .133-1.195zm6.804 4.289c-.588 0-1.122-.099-1.601-.297-.474-.203-.883-.487-1.227-.852a3.79 3.79 0 0 1-.781-1.297c-.182-.5-.274-1.047-.274-1.641v-.328c0-.687.102-1.299.305-1.836.203-.542.479-1 .828-1.375s.745-.659 1.188-.852a3.41 3.41 0 0 1 1.375-.289c.604 0 1.125.104 1.562.313.443.208.805.5 1.086.875.281.37.49.807.625 1.313.136.5.203 1.047.203 1.641v.648h-6.312V37h4.867v-.109a3.62 3.62 0 0 0-.234-1.094c-.131-.354-.339-.646-.625-.875s-.677-.344-1.172-.344c-.328 0-.63.07-.907.211a1.92 1.92 0 0 0-.71.609 3.06 3.06 0 0 0-.461.992c-.11.391-.164.841-.164 1.352v.328c0 .401.054.779.164 1.133.114.349.278.656.492.922s.482.474.789.625a2.41 2.41 0 0 0 1.062.227c.511 0 .943-.104 1.297-.312a3.22 3.22 0 0 0 .93-.836l.875.695a4.04 4.04 0 0 1-.695.789c-.282.25-.628.453-1.039.609s-.888.234-1.446.234zm4.594-4.289v-.18c0-.609.089-1.175.266-1.695a4.03 4.03 0 0 1 .765-1.367 3.42 3.42 0 0 1 1.211-.906c.474-.219 1.005-.328 1.594-.328s1.128.109 1.602.328c.479.213.885.516 1.218.906a3.95 3.95 0 0 1 .774 1.367c.177.521.265 1.086.265 1.695v.18c0 .609-.088 1.175-.265 1.695a4.05 4.05 0 0 1-.774 1.367 3.54 3.54 0 0 1-1.211.906c-.468.214-1 .32-1.593.32s-1.128-.107-1.602-.32a3.63 3.63 0 0 1-1.219-.906c-.333-.391-.588-.846-.765-1.367s-.266-1.086-.266-1.695zm1.445-.18v.18c0 .422.05.82.149 1.195.099.37.247.698.445.984s.456.513.758.68c.302.161.654.242 1.055.242.395 0 .742-.081 1.039-.242.302-.167.552-.393.75-.68s.346-.615.445-.984c.104-.375.156-.773.156-1.195v-.18a4.34 4.34 0 0 0-.156-1.18 3.04 3.04 0 0 0-.453-.992c-.198-.292-.448-.521-.75-.687s-.646-.25-1.047-.25-.745.083-1.047.25-.547.396-.75.688c-.198.287-.346.617-.445.992-.099.37-.149.763-.149 1.18zm9.508-2.516V45.25H861V33.547h1.328l.125 1.625zm5.695 2.531v.164c0 .615-.072 1.185-.218 1.711-.146.521-.36.974-.641 1.359-.276.385-.617.685-1.023.898s-.873.32-1.399.32c-.536 0-1.01-.088-1.422-.266s-.76-.435-1.047-.773-.515-.745-.687-1.219-.281-1.008-.344-1.602v-.875a7.37 7.37 0 0 1 .352-1.68c.172-.495.398-.917.679-1.266a2.79 2.79 0 0 1 1.04-.805c.406-.187.874-.281 1.406-.281s1.002.104 1.414.313c.411.203.758.495 1.039.875s.492.836.633 1.367a6.57 6.57 0 0 1 .218 1.758zm-1.453.164v-.164c0-.422-.044-.818-.133-1.187a2.98 2.98 0 0 0-.414-.984c-.182-.286-.416-.51-.703-.672-.286-.167-.627-.25-1.023-.25-.365 0-.682.063-.953.188s-.492.294-.68.508c-.187.208-.341.448-.461.719-.114.266-.2.542-.258.828v2.023c.104.365.25.708.438 1.031.187.318.437.576.75.773.312.193.706.289 1.18.289.39 0 .726-.081 1.007-.242.287-.167.521-.393.703-.68.188-.287.326-.615.414-.984.089-.375.133-.773.133-1.195zM871.562 30v12h-1.453V30h1.453zm5.829 12.156c-.589 0-1.123-.099-1.602-.297-.474-.203-.883-.487-1.227-.852-.338-.365-.598-.797-.781-1.297s-.273-1.047-.273-1.641v-.328c0-.687.101-1.299.304-1.836.204-.542.48-1 .829-1.375s.744-.659 1.187-.852a3.41 3.41 0 0 1 1.375-.289c.604 0 1.125.104 1.563.313a2.86 2.86 0 0 1 1.086.875c.281.37.489.807.625 1.313a6.28 6.28 0 0 1 .203 1.641v.648h-6.313V37h4.867v-.109a3.59 3.59 0 0 0-.234-1.094c-.13-.354-.339-.646-.625-.875s-.677-.344-1.172-.344c-.328 0-.63.07-.906.211a1.93 1.93 0 0 0-.711.609 3.06 3.06 0 0 0-.461.992c-.109.391-.164.841-.164 1.352v.328a3.83 3.83 0 0 0 .164 1.133c.115.349.279.656.492.922.219.266.482.474.789.625.313.151.667.227 1.063.227.51 0 .942-.104 1.297-.312s.664-.487.929-.836l.875.695a4.04 4.04 0 0 1-.695.789c-.281.25-.628.453-1.039.609s-.888.234-1.445.234zm12.484-8.609v1.109h-4.57v-1.109h4.57zm-3.023-2.055h1.445v8.414c0 .287.044.503.133.648s.203.242.343.289a1.43 1.43 0 0 0 .454.07c.119 0 .244-.011.375-.031l.304-.062.008 1.18a3.41 3.41 0 0 1-.453.102 3.45 3.45 0 0 1-.664.055c-.354 0-.68-.07-.977-.211a1.57 1.57 0 0 1-.711-.703c-.171-.333-.257-.781-.257-1.344v-8.406zm4.179 6.375v-.18c0-.609.089-1.175.266-1.695a4.03 4.03 0 0 1 .765-1.367 3.42 3.42 0 0 1 1.211-.906c.474-.219 1.006-.328 1.594-.328.594 0 1.128.109 1.602.328.479.213.885.516 1.219.906.338.385.596.841.773 1.367.177.521.266 1.086.266 1.695v.18c0 .609-.089 1.175-.266 1.695s-.435.977-.773 1.367a3.55 3.55 0 0 1-1.211.906c-.469.214-1 .32-1.594.32s-1.128-.107-1.602-.32a3.63 3.63 0 0 1-1.219-.906c-.333-.391-.588-.846-.765-1.367s-.266-1.086-.266-1.695zm1.446-.18v.18c0 .422.049.82.148 1.195.099.37.247.698.445.984s.456.513.758.68c.302.161.654.242 1.055.242.396 0 .742-.081 1.039-.242.302-.167.552-.393.75-.68s.346-.615.445-.984c.104-.375.156-.773.156-1.195v-.18a4.34 4.34 0 0 0-.156-1.18 3.04 3.04 0 0 0-.453-.992c-.198-.292-.448-.521-.75-.687s-.646-.25-1.047-.25c-.396 0-.745.083-1.047.25s-.547.396-.75.688c-.198.287-.346.617-.445.992-.099.37-.148.763-.148 1.18zm16.953 2.07c0-.208-.047-.401-.141-.578-.088-.182-.273-.346-.555-.492-.276-.151-.692-.281-1.25-.391a9.93 9.93 0 0 1-1.273-.352 3.87 3.87 0 0 1-.961-.492c-.26-.193-.461-.419-.602-.68s-.21-.565-.21-.914c0-.333.072-.648.218-.945.151-.297.362-.56.633-.789a3.08 3.08 0 0 1 .992-.539c.386-.13.815-.195 1.289-.195.677 0 1.256.12 1.735.359s.846.56 1.101.961c.255.396.383.836.383 1.32h-1.445c0-.234-.071-.461-.211-.68-.136-.224-.336-.409-.602-.555-.26-.146-.58-.219-.961-.219-.401 0-.726.063-.976.188-.245.12-.425.273-.539.461s-.164.385-.164.594a1.09 1.09 0 0 0 .078.422c.057.12.156.232.297.336.14.099.338.193.593.281s.581.177.977.266c.693.156 1.263.344 1.711.563s.781.487 1 .805.328.703.328 1.156a2.21 2.21 0 0 1-.234 1.016c-.151.307-.373.573-.664.797a3.31 3.31 0 0 1-1.032.516c-.396.12-.841.18-1.336.18-.744 0-1.375-.133-1.89-.398s-.907-.609-1.172-1.031-.399-.867-.399-1.336h1.454c.02.396.135.711.343.945a1.76 1.76 0 0 0 .766.492c.302.094.601.141.898.141.396 0 .727-.052.993-.156s.476-.247.617-.43a1 1 0 0 0 .211-.625zm8.515.289v-6.5h1.453V42h-1.382l-.071-1.953zm.274-1.781l.601-.016c0 .563-.06 1.083-.179 1.563-.115.474-.302.885-.563 1.234s-.601.622-1.023.82c-.422.193-.935.289-1.539.289-.412 0-.789-.06-1.133-.18a2.26 2.26 0 0 1-.875-.555c-.245-.25-.435-.575-.57-.977s-.196-.883-.196-1.445v-5.453h1.446v5.469c0 .38.041.695.124.945.089.245.206.44.352.586.151.141.318.24.5.297a1.97 1.97 0 0 0 .578.086c.615 0 1.102-.117 1.461-.352a2.01 2.01 0 0 0 .774-.961 3.64 3.64 0 0 0 .242-1.352zM921.594 30h1.453v10.359L922.922 42h-1.328V30zm7.164 7.703v.164c0 .615-.073 1.185-.219 1.711-.146.521-.359.974-.641 1.359s-.625.685-1.031.898-.872.32-1.398.32c-.537 0-1.008-.091-1.414-.273a2.78 2.78 0 0 1-1.016-.805c-.276-.349-.497-.771-.664-1.266-.161-.495-.273-1.052-.336-1.672v-.719c.063-.625.175-1.185.336-1.68.167-.495.388-.917.664-1.266.276-.354.615-.622 1.016-.805.401-.187.867-.281 1.398-.281s1.003.104 1.414.313c.412.203.755.495 1.031.875.282.38.495.836.641 1.367.146.526.219 1.112.219 1.758zm-1.453.164v-.164c0-.422-.039-.818-.117-1.187-.079-.375-.204-.703-.376-.984a1.86 1.86 0 0 0-.679-.672c-.281-.167-.628-.25-1.039-.25-.365 0-.683.063-.953.188a2.05 2.05 0 0 0-.68.508c-.188.208-.341.448-.461.719-.115.266-.201.542-.258.828v1.883c.084.365.219.716.406 1.055a2.46 2.46 0 0 0 .766.82c.323.213.721.32 1.195.32.391 0 .724-.078 1-.234a1.88 1.88 0 0 0 .68-.664 3.11 3.11 0 0 0 .391-.977c.083-.37.125-.766.125-1.187zm4.718-2.641V42h-1.453v-8.453h1.375l.078 1.68zm-.296 2.227l-.672-.023a5.76 5.76 0 0 1 .226-1.602c.146-.495.362-.925.649-1.289s.643-.646 1.07-.844c.427-.203.922-.305 1.484-.305.396 0 .761.057 1.094.172a2.2 2.2 0 0 1 .867.523c.245.24.435.547.571.922s.203.828.203 1.359V42h-1.446v-5.562c0-.443-.075-.797-.226-1.062s-.354-.458-.625-.578c-.271-.125-.589-.187-.953-.187-.427 0-.784.075-1.071.227a1.81 1.81 0 0 0-.687.625 2.81 2.81 0 0 0-.375.914c-.073.339-.109.698-.109 1.078zm5.476-.797l-.969.297c.006-.463.081-.909.227-1.336a3.63 3.63 0 0 1 .648-1.141 3.07 3.07 0 0 1 1.055-.789c.417-.198.893-.297 1.43-.297.453 0 .854.06 1.203.18a2.18 2.18 0 0 1 .891.555c.244.245.429.56.554.945s.188.844.188 1.375V42h-1.453v-5.57c0-.474-.076-.841-.227-1.102a1.18 1.18 0 0 0-.625-.555c-.266-.109-.583-.164-.953-.164-.318 0-.599.055-.844.164s-.45.261-.617.453a1.98 1.98 0 0 0-.383.648c-.083.245-.125.505-.125.781zm8.985-3.109V42h-1.454v-8.453h1.454zm-1.563-2.242a.87.87 0 0 1 .211-.594c.146-.161.359-.242.641-.242.276 0 .487.081.632.242.151.162.227.359.227.594 0 .224-.076.417-.227.578-.145.156-.356.234-.632.234-.282 0-.495-.078-.641-.234a.85.85 0 0 1-.211-.578zm7.422 2.242v1.109h-4.57v-1.109h4.57zm-3.024-2.055h1.446v8.414c0 .287.044.503.133.648s.203.242.343.289a1.43 1.43 0 0 0 .453.07c.12 0 .245-.011.375-.031l.305-.062.008 1.18a3.41 3.41 0 0 1-.453.102 3.45 3.45 0 0 1-.664.055c-.354 0-.68-.07-.977-.211a1.57 1.57 0 0 1-.711-.703c-.172-.333-.258-.781-.258-1.344v-8.406zm8.305 6.375v-.18c0-.609.089-1.175.266-1.695a4.03 4.03 0 0 1 .765-1.367 3.42 3.42 0 0 1 1.211-.906c.474-.219 1.006-.328 1.594-.328.594 0 1.128.109 1.602.328.479.213.885.516 1.218.906a3.95 3.95 0 0 1 .774 1.367c.177.521.265 1.086.265 1.695v.18c0 .609-.088 1.175-.265 1.695a4.05 4.05 0 0 1-.774 1.367 3.54 3.54 0 0 1-1.211.906c-.468.214-1 .32-1.593.32s-1.128-.107-1.602-.32a3.63 3.63 0 0 1-1.219-.906c-.333-.391-.588-.846-.765-1.367s-.266-1.086-.266-1.695zm1.445-.18v.18c0 .422.05.82.149 1.195.099.37.247.698.445.984.203.286.456.513.758.68.302.161.654.242 1.055.242s.742-.081 1.039-.242c.302-.167.552-.393.75-.68s.346-.615.445-.984c.104-.375.156-.773.156-1.195v-.18a4.34 4.34 0 0 0-.156-1.18 3.04 3.04 0 0 0-.453-.992c-.198-.292-.448-.521-.75-.687s-.646-.25-1.047-.25c-.396 0-.745.083-1.047.25-.297.167-.547.396-.75.688-.198.287-.346.617-.445.992-.099.37-.149.763-.149 1.18zm9.508-2.812V42h-1.445v-8.453h1.406l.039 1.328zm2.641-1.375l-.008 1.344a2.08 2.08 0 0 0-.344-.047 3.65 3.65 0 0 0-.359-.016c-.333 0-.628.052-.883.156a1.83 1.83 0 0 0-.648.438c-.177.188-.318.411-.422.672-.099.255-.164.536-.196.844l-.406.234a6.65 6.65 0 0 1 .149-1.437c.104-.448.263-.844.476-1.187a2.34 2.34 0 0 1 .813-.812c.333-.198.729-.297 1.187-.297.104 0 .224.013.36.039.135.021.229.044.281.07zm10.289 7.055v-4.352c0-.333-.068-.622-.203-.867-.13-.25-.328-.443-.594-.578s-.594-.203-.984-.203c-.365 0-.685.063-.961.188a1.67 1.67 0 0 0-.641.492c-.151.203-.226.422-.226.656h-1.446c0-.302.078-.602.235-.898a2.63 2.63 0 0 1 .671-.805c.297-.245.652-.437 1.063-.578.417-.146.88-.219 1.391-.219.614 0 1.156.104 1.625.313.474.208.843.523 1.109.945.271.417.406.94.406 1.57v3.937c0 .281.024.581.071.898s.127.591.226.82V42h-1.508a2.71 2.71 0 0 1-.172-.664c-.041-.281-.062-.542-.062-.781zm.25-3.68l.016 1.016h-1.461c-.412 0-.779.034-1.102.102-.323.063-.594.159-.812.289s-.386.294-.5.492c-.115.193-.172.419-.172.68 0 .266.06.508.179.727s.3.393.539.523c.245.125.545.188.899.188.443 0 .833-.094 1.172-.281s.607-.417.804-.687c.204-.271.313-.534.329-.789l.617.695c-.037.219-.136.461-.297.727s-.378.521-.649.766c-.265.24-.583.44-.953.602-.364.156-.776.234-1.234.234-.573 0-1.076-.112-1.508-.336a2.58 2.58 0 0 1-1-.898 2.38 2.38 0 0 1-.351-1.273c0-.453.088-.852.265-1.195.177-.349.432-.638.766-.867.333-.234.734-.411 1.203-.531s.992-.18 1.57-.18h1.68zm4.914-1.703V45.25h-1.453V33.547h1.328l.125 1.625zm5.695 2.531v.164a6.42 6.42 0 0 1-.218 1.711c-.146.521-.36.974-.641 1.359s-.617.685-1.023.898-.873.32-1.399.32c-.536 0-1.01-.088-1.422-.266s-.76-.435-1.047-.773-.515-.745-.687-1.219-.281-1.008-.344-1.602v-.875a7.37 7.37 0 0 1 .352-1.68c.171-.495.398-.917.679-1.266.287-.354.633-.622 1.039-.805.407-.187.875-.281 1.407-.281s1.002.104 1.414.313c.411.203.758.495 1.039.875s.492.836.633 1.367a6.61 6.61 0 0 1 .218 1.758zm-1.453.164v-.164c0-.422-.044-.818-.133-1.187a2.98 2.98 0 0 0-.414-.984c-.182-.286-.416-.51-.703-.672-.286-.167-.627-.25-1.023-.25-.365 0-.683.063-.953.188a2.05 2.05 0 0 0-.68.508c-.188.208-.341.448-.461.719-.115.266-.201.542-.258.828v2.023c.104.365.25.708.438 1.031.187.318.437.576.75.773.312.193.705.289 1.179.289.391 0 .727-.081 1.008-.242.287-.167.521-.393.703-.68.188-.287.326-.615.414-.984.089-.375.133-.773.133-1.195zm4.742-2.695V45.25h-1.453V33.547h1.328l.125 1.625zm5.691 2.531v.164c0 .615-.07 1.185-.21 1.711a4.32 4.32 0 0 1-.64 1.359c-.281.385-.622.685-1.028.898s-.873.32-1.399.32c-.536 0-1.01-.088-1.421-.266s-.761-.435-1.047-.773-.516-.745-.688-1.219c-.166-.474-.281-1.008-.344-1.602v-.875a7.37 7.37 0 0 1 .352-1.68 4.17 4.17 0 0 1 .68-1.266 2.79 2.79 0 0 1 1.039-.805c.406-.187.875-.281 1.406-.281s1.003.104 1.414.313c.412.203.758.495 1.036.875a4.01 4.01 0 0 1 .64 1.367c.14.526.21 1.112.21 1.758zm-1.448.164v-.164c0-.422-.045-.818-.133-1.187-.089-.375-.227-.703-.414-.984a1.98 1.98 0 0 0-.703-.672c-.287-.167-.628-.25-1.024-.25-.364 0-.682.063-.953.188s-.492.294-.68.508c-.187.208-.341.448-.461.719-.114.266-.2.542-.257.828v2.023a4.53 4.53 0 0 0 .437 1.031c.188.318.438.576.75.773.313.193.706.289 1.18.289.39 0 .726-.081 1.008-.242a2.05 2.05 0 0 0 .703-.68 3.12 3.12 0 0 0 .414-.984 5.22 5.22 0 0 0 .133-1.195zm4.738-2.992V42h-1.44v-8.453h1.4l.04 1.328zm2.64-1.375v1.344c-.12-.026-.24-.042-.35-.047-.1-.01-.22-.016-.36-.016-.33 0-.62.052-.88.156a1.91 1.91 0 0 0-.65.438c-.17.188-.32.411-.42.672a3.57 3.57 0 0 0-.2.844l-.4.234c0-.51.05-.99.15-1.437a3.89 3.89 0 0 1 .47-1.187c.22-.349.49-.62.82-.812.33-.198.73-.297 1.18-.297a1.84 1.84 0 0 1 .36.039c.14.021.23.044.28.07zm.8 4.367v-.18c0-.609.09-1.175.27-1.695.17-.526.43-.982.76-1.367a3.51 3.51 0 0 1 1.21-.906c.48-.219 1.01-.328 1.6-.328s1.12.109 1.6.328c.48.213.88.516 1.22.906.34.385.59.841.77 1.367.18.521.27 1.086.27 1.695v.18c0 .609-.09 1.175-.27 1.695s-.43.977-.77 1.367c-.34.385-.74.688-1.21.906-.47.214-1 .32-1.6.32-.59 0-1.12-.107-1.6-.32-.47-.219-.88-.521-1.22-.906-.33-.391-.59-.846-.76-1.367-.18-.521-.27-1.086-.27-1.695zm1.45-.18v.18c0 .422.05.82.15 1.195.09.37.24.698.44.984s.46.513.76.68c.3.161.65.242 1.05.242s.75-.081 1.04-.242a2.22 2.22 0 0 0 .75-.68 3.13 3.13 0 0 0 .45-.984c.1-.375.15-.773.15-1.195v-.18c0-.417-.05-.81-.15-1.18-.1-.375-.25-.706-.46-.992-.19-.292-.44-.521-.75-.687-.29-.167-.64-.25-1.04-.25s-.75.083-1.05.25a2.19 2.19 0 0 0-.75.688c-.2.287-.35.617-.44.992-.1.37-.15.763-.15 1.18zm10.5 3.008l2.32-7.148h1.47L1020.48 42h-.96l.21-1.305zm-1.93-7.148l2.39 7.188.16 1.266h-.97l-3.06-8.453h1.48zm10.51 8.609c-.59 0-1.12-.099-1.6-.297a3.75 3.75 0 0 1-1.23-.852c-.33-.365-.59-.797-.78-1.297a4.81 4.81 0 0 1-.27-1.641v-.328c0-.687.1-1.299.3-1.836.21-.542.48-1 .83-1.375s.75-.659 1.19-.852a3.39 3.39 0 0 1 1.37-.289c.61 0 1.13.104 1.57.313a2.84 2.84 0 0 1 1.08.875c.28.37.49.807.63 1.313.13.5.2 1.047.2 1.641v.648h-6.31V37h4.87v-.109c-.02-.375-.1-.74-.24-1.094-.13-.354-.34-.646-.62-.875-.29-.229-.68-.344-1.18-.344-.32 0-.63.07-.9.211-.28.135-.51.339-.71.609s-.35.602-.46.992-.17.841-.17 1.352v.328a3.8 3.8 0 0 0 .17 1.133c.11.349.28.656.49.922a2.35 2.35 0 0 0 .79.625 2.38 2.38 0 0 0 1.06.227c.51 0 .94-.104 1.3-.312.35-.208.66-.487.93-.836l.87.695c-.18.276-.41.539-.69.789s-.63.453-1.04.609-.89.234-1.45.234zm12.49-8.609v1.109h-4.57v-1.109h4.57zm-3.03-2.055h1.45v8.414c0 .287.04.503.13.648a.62.62 0 0 0 .35.289 1.41 1.41 0 0 0 .45.07c.12 0 .24-.011.37-.031l.31-.062.01 1.18a3.63 3.63 0 0 1-.46.102c-.18.036-.4.055-.66.055a2.26 2.26 0 0 1-.98-.211c-.29-.141-.53-.375-.71-.703-.17-.333-.26-.781-.26-1.344v-8.406zm6.29 2.055V42h-1.45v-8.453h1.45zm-1.56-2.242c0-.234.07-.432.21-.594.15-.161.36-.242.64-.242s.49.081.63.242c.16.162.23.359.23.594 0 .224-.07.417-.23.578-.14.156-.35.234-.63.234s-.49-.078-.64-.234c-.14-.161-.21-.354-.21-.578zm5.32 3.922V42h-1.45v-8.453h1.37l.08 1.68zm-.3 2.227l-.67-.023c.01-.578.08-1.112.23-1.602a3.64 3.64 0 0 1 .65-1.289c.28-.365.64-.646 1.07-.844.42-.203.92-.305 1.48-.305.4 0 .76.057 1.1.172a2.17 2.17 0 0 1 .86.523 2.29 2.29 0 0 1 .57.922c.14.375.21.828.21 1.359V42h-1.45v-5.562c0-.443-.08-.797-.23-1.062-.14-.266-.35-.458-.62-.578-.27-.125-.59-.187-.95-.187-.43 0-.79.075-1.07.227-.29.151-.52.359-.69.625s-.3.57-.38.914a5.31 5.31 0 0 0-.11 1.078zm5.48-.797l-.97.297c.01-.463.08-.909.23-1.336a3.45 3.45 0 0 1 .65-1.141 2.96 2.96 0 0 1 1.05-.789c.42-.198.89-.297 1.43-.297.45 0 .85.06 1.2.18a2.14 2.14 0 0 1 .89.555c.25.245.43.56.56.945a4.63 4.63 0 0 1 .19 1.375V42h-1.46v-5.57c0-.474-.07-.841-.22-1.102a1.21 1.21 0 0 0-.63-.555c-.26-.109-.58-.164-.95-.164a2.09 2.09 0 0 0-.85.164 1.7 1.7 0 0 0-.61.453c-.17.188-.3.404-.39.648a2.5 2.5 0 0 0-.12.781zm10.92 5.5c-.59 0-1.12-.099-1.6-.297a3.75 3.75 0 0 1-1.23-.852c-.33-.365-.6-.797-.78-1.297a4.81 4.81 0 0 1-.27-1.641v-.328c0-.687.1-1.299.3-1.836.21-.542.48-1 .83-1.375s.75-.659 1.19-.852a3.39 3.39 0 0 1 1.37-.289c.61 0 1.13.104 1.57.313a2.84 2.84 0 0 1 1.08.875c.28.37.49.807.63 1.313.13.5.2 1.047.2 1.641v.648h-6.31V37h4.87v-.109c-.03-.375-.1-.74-.24-1.094-.13-.354-.34-.646-.62-.875-.29-.229-.68-.344-1.18-.344-.32 0-.63.07-.9.211-.28.135-.51.339-.71.609s-.35.602-.46.992-.17.841-.17 1.352v.328a3.8 3.8 0 0 0 .17 1.133 2.69 2.69 0 0 0 .49.922 2.35 2.35 0 0 0 .79.625 2.38 2.38 0 0 0 1.06.227c.51 0 .94-.104 1.3-.312.35-.208.66-.487.93-.836l.87.695c-.18.276-.41.539-.69.789-.29.25-.63.453-1.04.609s-.89.234-1.45.234z"/><ellipse rx="3" ry="2.981" transform="matrix(0 1 1 0 902.981 483)"/></g><path d="M903 564v-80" stroke="#2f2f2f"/><path d="M787.508 579.953v.719c0 .854-.107 1.62-.32 2.297s-.521 1.252-.922 1.726-.883.836-1.446 1.086c-.557.25-1.182.375-1.875.375-.672 0-1.289-.125-1.851-.375a4.15 4.15 0 0 1-1.453-1.086c-.407-.474-.722-1.049-.946-1.726s-.336-1.443-.336-2.297v-.719c0-.854.11-1.617.329-2.289s.539-1.253.945-1.726a4.04 4.04 0 0 1 1.445-1.094 4.51 4.51 0 0 1 1.852-.375c.692 0 1.317.125 1.875.375s1.044.614 1.445 1.094c.406.473.716 1.049.93 1.726s.328 1.435.328 2.289zm-1.492.719v-.734c0-.678-.071-1.277-.211-1.797s-.336-.959-.602-1.313a2.6 2.6 0 0 0-.976-.805c-.381-.182-.813-.273-1.297-.273-.469 0-.894.091-1.274.273s-.698.451-.968.805-.472.792-.618 1.313-.218 1.119-.218 1.797v.734c0 .682.072 1.286.218 1.812.146.521.354.961.625 1.321.276.354.602.622.977.804s.805.274 1.273.274c.49 0 .925-.091 1.305-.274s.701-.45.961-.804c.266-.36.466-.8.601-1.321.136-.526.204-1.13.204-1.812zm4.976-1.5v10.078h-1.453v-11.703h1.328l.125 1.625zm5.696 2.531v.164c0 .615-.073 1.185-.219 1.711s-.36.974-.641 1.36c-.276.385-.617.684-1.023.898s-.873.32-1.399.32c-.536 0-1.01-.088-1.422-.265s-.76-.435-1.046-.774-.516-.745-.688-1.219-.281-1.007-.344-1.601v-.875c.063-.625.18-1.185.352-1.68s.398-.916.68-1.265a2.77 2.77 0 0 1 1.039-.805c.406-.188.875-.281 1.406-.281s1.002.104 1.414.312.758.495 1.039.875.492.836.633 1.367c.146.526.219 1.112.219 1.758zm-1.454.164v-.164a5.11 5.11 0 0 0-.132-1.187c-.089-.375-.227-.704-.414-.985s-.417-.51-.704-.672-.627-.25-1.023-.25c-.365 0-.682.063-.953.188s-.492.294-.68.508c-.187.208-.341.448-.461.718a4.22 4.22 0 0 0-.258.829v2.023c.105.365.25.708.438 1.031a2.26 2.26 0 0 0 .75.774c.312.192.706.289 1.18.289.39 0 .726-.081 1.007-.242.287-.167.521-.394.704-.68s.325-.615.414-.985a5.21 5.21 0 0 0 .132-1.195zm6.805 4.289c-.588 0-1.122-.099-1.601-.297a3.64 3.64 0 0 1-1.227-.851 3.78 3.78 0 0 1-.781-1.297 4.74 4.74 0 0 1-.274-1.641v-.328c0-.687.102-1.299.305-1.836s.479-1 .828-1.375.745-.659 1.188-.851.901-.289 1.375-.289c.604 0 1.125.104 1.562.312a2.84 2.84 0 0 1 1.086.875c.281.37.49.807.625 1.313a6.28 6.28 0 0 1 .203 1.64v.649h-6.312V581h4.867v-.109c-.021-.375-.099-.74-.235-1.094a1.96 1.96 0 0 0-.625-.875c-.286-.229-.677-.344-1.171-.344-.329 0-.631.07-.907.211-.276.135-.513.339-.711.609s-.351.602-.461.993-.164.841-.164 1.351v.328a3.83 3.83 0 0 0 .164 1.133c.115.349.279.656.493.922a2.34 2.34 0 0 0 .789.625c.312.151.666.227 1.062.227.511 0 .943-.105 1.297-.313s.664-.487.93-.836l.875.695c-.183.276-.414.539-.696.789s-.627.454-1.039.61c-.406.156-.888.234-1.445.234zm6.422-6.804V586h-1.445v-8.453h1.367l.078 1.805zm-.344 2.101l-.601-.023c.005-.578.091-1.112.257-1.602a3.99 3.99 0 0 1 .704-1.289c.302-.365.661-.646 1.078-.844.422-.203.888-.304 1.398-.304a3.46 3.46 0 0 1 1.125.171 2.05 2.05 0 0 1 .852.532c.239.245.422.562.547.953.125.385.187.857.187 1.414V586h-1.453v-5.555c0-.442-.065-.797-.195-1.062-.131-.271-.321-.466-.571-.586s-.557-.188-.922-.188a2.14 2.14 0 0 0-.984.227 2.35 2.35 0 0 0-.758.625 3.16 3.16 0 0 0-.492.914 3.33 3.33 0 0 0-.172 1.078zm13.156-2.578V586h-1.445v-8.453h1.406l.039 1.328zm2.641-1.375l-.008 1.344c-.12-.026-.234-.042-.344-.047-.104-.011-.223-.016-.359-.016-.333 0-.627.052-.883.157a1.83 1.83 0 0 0-.648.437c-.177.187-.318.411-.422.672a3.21 3.21 0 0 0-.195.844l-.407.234c0-.51.05-.99.149-1.437s.263-.844.476-1.188a2.33 2.33 0 0 1 .813-.812c.333-.198.729-.297 1.187-.297.105 0 .224.013.36.039a1.08 1.08 0 0 1 .281.07zm4.688 8.656c-.589 0-1.123-.099-1.602-.297a3.64 3.64 0 0 1-1.227-.851c-.338-.365-.599-.797-.781-1.297s-.273-1.047-.273-1.641v-.328c0-.687.101-1.299.304-1.836s.48-1 .829-1.375a3.53 3.53 0 0 1 1.187-.851c.443-.193.901-.289 1.375-.289.604 0 1.125.104 1.563.312s.804.5 1.085.875.49.807.626 1.313a6.28 6.28 0 0 1 .203 1.64v.649h-6.313V581h4.867v-.109a3.62 3.62 0 0 0-.234-1.094 1.97 1.97 0 0 0-.625-.875c-.287-.229-.677-.344-1.172-.344a1.96 1.96 0 0 0-.906.211c-.276.135-.513.339-.711.609s-.352.602-.461.993-.164.841-.164 1.351v.328a3.83 3.83 0 0 0 .164 1.133c.115.349.279.656.492.922a2.36 2.36 0 0 0 .789.625c.313.151.667.227 1.063.227.51 0 .942-.105 1.297-.313s.664-.487.929-.836l.875.695a4.04 4.04 0 0 1-.695.789c-.281.25-.628.454-1.039.61s-.888.234-1.445.234zm10.296 3.094v-10.078l.125-1.625h1.329v11.703h-1.454zm-5.679-7.383v-.164c0-.646.075-1.232.226-1.758.151-.531.373-.987.664-1.367a2.99 2.99 0 0 1 1.055-.875c.417-.208.891-.312 1.422-.312s.997.093 1.398.281c.407.182.75.45 1.032.805.286.349.513.77.679 1.265a7.61 7.61 0 0 1 .344 1.68v.719a7.32 7.32 0 0 1-.336 1.671c-.167.495-.393.917-.68 1.266-.281.349-.627.617-1.039.805-.406.182-.877.273-1.414.273-.521 0-.989-.107-1.406-.32-.411-.214-.763-.513-1.055-.898-.286-.386-.507-.839-.664-1.36-.151-.526-.226-1.096-.226-1.711zm1.453-.164v.164c0 .422.044.821.133 1.195a3.21 3.21 0 0 0 .406.985 2.14 2.14 0 0 0 .703.68c.287.161.625.242 1.016.242.479 0 .877-.104 1.195-.313a2.33 2.33 0 0 0 .773-.82c.193-.344.342-.711.446-1.102v-1.882c-.058-.287-.149-.566-.274-.836a2.72 2.72 0 0 0-.468-.727c-.193-.219-.428-.391-.704-.516-.27-.13-.588-.195-.953-.195-.396 0-.737.083-1.023.25s-.524.396-.711.688c-.182.286-.318.617-.406.992a5.16 5.16 0 0 0-.133 1.195zm13.172 2.344v-6.5h1.453V586h-1.383l-.07-1.953zm.273-1.781l.602-.016a6.42 6.42 0 0 1-.18 1.562c-.115.474-.302.886-.562 1.235s-.602.622-1.024.82-.935.289-1.539.289c-.411 0-.789-.06-1.133-.179a2.27 2.27 0 0 1-.875-.555c-.245-.25-.435-.576-.57-.977s-.195-.883-.195-1.445v-5.453h1.445v5.469c0 .38.042.695.125.945s.206.44.351.586c.152.141.318.239.5.297.188.057.381.086.579.086.614 0 1.101-.118 1.461-.352a2 2 0 0 0 .773-.961c.161-.406.242-.857.242-1.351zm6.891 3.89c-.589 0-1.123-.099-1.602-.297-.474-.203-.883-.487-1.226-.851s-.599-.797-.782-1.297-.273-1.047-.273-1.641v-.328c0-.687.102-1.299.305-1.836s.479-1 .828-1.375a3.54 3.54 0 0 1 1.187-.851c.443-.193.901-.289 1.375-.289.604 0 1.125.104 1.563.312a2.84 2.84 0 0 1 1.086.875c.281.37.489.807.625 1.313a6.28 6.28 0 0 1 .203 1.64v.649h-6.313V581h4.868v-.109c-.021-.375-.099-.74-.235-1.094a1.96 1.96 0 0 0-.625-.875c-.286-.229-.677-.344-1.172-.344a1.96 1.96 0 0 0-.906.211c-.276.135-.513.339-.711.609s-.351.602-.461.993-.164.841-.164 1.351v.328a3.83 3.83 0 0 0 .164 1.133c.115.349.279.656.492.922a2.36 2.36 0 0 0 .789.625c.313.151.667.227 1.063.227.51 0 .943-.105 1.297-.313s.664-.487.929-.836l.876.695a4.08 4.08 0 0 1-.696.789c-.281.25-.627.454-1.039.61-.406.156-.888.234-1.445.234zm9.898-2.398a1.22 1.22 0 0 0-.14-.578c-.089-.183-.274-.347-.555-.492-.276-.152-.693-.282-1.25-.391-.469-.099-.893-.216-1.273-.352a3.81 3.81 0 0 1-.961-.492c-.261-.193-.461-.419-.602-.68s-.211-.565-.211-.914c0-.333.073-.648.219-.945a2.53 2.53 0 0 1 .633-.789c.276-.229.606-.409.992-.539s.815-.195 1.289-.195c.677 0 1.255.119 1.734.359s.847.56 1.102.961c.255.396.383.836.383 1.32h-1.446c0-.234-.07-.461-.211-.679-.135-.224-.336-.409-.601-.555s-.581-.219-.961-.219c-.401 0-.727.063-.977.188-.244.119-.424.273-.539.461a1.16 1.16 0 0 0-.164.593c0 .157.026.297.078.422a.94.94 0 0 0 .297.336c.141.099.339.193.594.281a9.18 9.18 0 0 0 .976.266c.693.156 1.264.344 1.711.563s.782.486 1 .804.329.703.329 1.156a2.21 2.21 0 0 1-.235 1.016 2.25 2.25 0 0 1-.664.797 3.29 3.29 0 0 1-1.031.516c-.396.119-.841.179-1.336.179-.745 0-1.375-.133-1.891-.398s-.906-.61-1.172-1.031-.398-.868-.398-1.336h1.453c.021.395.136.711.344.945a1.75 1.75 0 0 0 .766.492c.302.094.601.141.898.141.396 0 .726-.052.992-.157.271-.104.477-.247.617-.429s.211-.391.211-.625zm6.883-6.211v1.109h-4.57v-1.109h4.57zm-3.023-2.055h1.445v8.414c0 .287.044.503.133.649s.203.242.344.289.291.07.453.07a2.37 2.37 0 0 0 .375-.031l.304-.063.008 1.18c-.114.036-.266.07-.453.102s-.404.054-.664.054a2.25 2.25 0 0 1-.977-.211c-.296-.14-.533-.375-.711-.703-.171-.333-.257-.781-.257-1.344v-8.406zM879.609 586h-1.445v-9.344c0-.609.109-1.122.328-1.539.224-.422.544-.739.961-.953s.912-.328 1.485-.328c.166 0 .333.01.5.031s.338.052.5.094l-.079 1.18c-.109-.026-.234-.045-.375-.055l-.406-.016c-.307 0-.573.063-.797.188a1.18 1.18 0 0 0-.5.531c-.114.234-.172.523-.172.867V586zm1.797-8.453v1.109h-4.578v-1.109h4.578zm1.227 4.32v-.179a5.24 5.24 0 0 1 .265-1.696c.178-.526.433-.982.766-1.367a3.4 3.4 0 0 1 1.211-.906c.474-.219 1.005-.328 1.594-.328s1.127.109 1.601.328c.479.213.886.515 1.219.906.339.385.596.841.773 1.367s.266 1.086.266 1.696v.179c0 .61-.088 1.175-.266 1.695s-.434.977-.773 1.368c-.333.385-.737.687-1.211.906-.469.213-1 .32-1.594.32s-1.127-.107-1.601-.32c-.474-.219-.88-.521-1.219-.906-.333-.391-.588-.847-.766-1.368s-.265-1.085-.265-1.695zm1.445-.179v.179c0 .422.05.821.149 1.195s.247.698.445.985.456.513.758.68c.302.161.653.242 1.054.242.396 0 .743-.081 1.039-.242.303-.167.553-.394.75-.68s.347-.615.446-.985.156-.773.156-1.195v-.179a4.34 4.34 0 0 0-.156-1.18c-.099-.375-.25-.706-.453-.992-.198-.292-.448-.521-.75-.688-.297-.167-.646-.25-1.047-.25s-.745.083-1.047.25-.547.396-.75.688a3.13 3.13 0 0 0-.445.992c-.099.37-.149.763-.149 1.18zm9.508-2.813V586h-1.445v-8.453h1.406l.039 1.328zm2.641-1.375l-.008 1.344a2.08 2.08 0 0 0-.344-.047 3.47 3.47 0 0 0-.359-.016c-.334 0-.628.052-.883.157s-.472.25-.649.437a2.11 2.11 0 0 0-.422.672 3.25 3.25 0 0 0-.195.844l-.406.234c0-.51.049-.99.148-1.437.105-.448.263-.844.477-1.188a2.32 2.32 0 0 1 .812-.812c.334-.198.73-.297 1.188-.297.104 0 .224.013.359.039a1.09 1.09 0 0 1 .282.07zm10.632 6.859V574h1.453v12h-1.328l-.125-1.641zm-5.687-2.492v-.164c0-.646.078-1.232.234-1.758.162-.531.388-.987.68-1.367a3.07 3.07 0 0 1 1.055-.875 3 3 0 0 1 1.375-.312c.531 0 .994.093 1.39.281.401.182.74.45 1.016.805.281.349.502.77.664 1.265s.273 1.055.336 1.68v.719a7.32 7.32 0 0 1-.336 1.671 3.96 3.96 0 0 1-.664 1.266c-.276.349-.615.617-1.016.805-.401.182-.87.273-1.406.273a2.91 2.91 0 0 1-1.359-.32c-.407-.214-.758-.513-1.055-.898s-.518-.839-.68-1.36c-.156-.526-.234-1.096-.234-1.711zm1.453-.164v.164a5.42 5.42 0 0 0 .125 1.188c.089.369.224.695.406.976s.414.503.696.664.617.235 1.007.235c.48 0 .873-.102 1.18-.305.313-.203.563-.471.75-.805a4.65 4.65 0 0 0 .438-1.086v-1.882c-.063-.287-.154-.563-.274-.829a2.53 2.53 0 0 0-.453-.718 1.95 1.95 0 0 0-.68-.508c-.265-.125-.58-.188-.945-.188-.396 0-.737.084-1.023.25s-.513.386-.696.672-.317.61-.406.985c-.083.369-.125.765-.125 1.187zm11.445 4.453c-.588 0-1.122-.099-1.601-.297a3.64 3.64 0 0 1-1.227-.851c-.338-.365-.599-.797-.781-1.297s-.273-1.047-.273-1.641v-.328c0-.687.101-1.299.304-1.836s.479-1 .828-1.375.745-.659 1.188-.851.901-.289 1.375-.289c.604 0 1.125.104 1.562.312a2.84 2.84 0 0 1 1.086.875c.281.37.49.807.625 1.313.136.5.203 1.047.203 1.64v.649h-6.312V581h4.867v-.109a3.62 3.62 0 0 0-.234-1.094c-.131-.354-.339-.646-.625-.875s-.677-.344-1.172-.344a1.96 1.96 0 0 0-.906.211c-.276.135-.513.339-.711.609s-.352.602-.461.993-.164.841-.164 1.351v.328a3.8 3.8 0 0 0 .164 1.133c.114.349.278.656.492.922a2.36 2.36 0 0 0 .789.625 2.41 2.41 0 0 0 1.062.227c.511 0 .943-.105 1.297-.313s.664-.487.93-.836l.875.695a4.04 4.04 0 0 1-.695.789c-.282.25-.628.454-1.039.61s-.888.234-1.446.234zm8.516-8.609v1.109h-4.57v-1.109h4.57zm-3.024-2.055h1.446v8.414c0 .287.044.503.133.649s.203.242.343.289.292.07.454.07c.119 0 .244-.01.374-.031l.305-.063.008 1.18c-.115.036-.266.07-.453.102s-.404.054-.664.054a2.25 2.25 0 0 1-.977-.211c-.297-.14-.534-.375-.711-.703s-.258-.781-.258-1.344v-8.406zm9.704 9.063v-4.352c0-.333-.068-.622-.204-.867-.13-.25-.328-.443-.593-.578s-.594-.203-.985-.203c-.364 0-.685.062-.961.187-.27.125-.484.289-.64.492s-.227.422-.227.657h-1.445c0-.302.078-.602.234-.899s.381-.565.672-.804c.297-.245.651-.438 1.063-.579s.88-.218 1.39-.218c.615 0 1.157.104 1.625.312a2.44 2.44 0 0 1 1.11.945c.271.417.406.941.406 1.571v3.937c0 .282.023.581.07.899.052.317.128.591.227.82V586H929.5c-.073-.167-.13-.388-.172-.664-.042-.281-.062-.542-.062-.781zm.25-3.68l.015 1.016h-1.461c-.411 0-.778.033-1.101.101s-.594.159-.813.289-.385.295-.5.492-.172.42-.172.68c0 .266.06.508.18.727s.3.393.539.523c.245.125.544.188.899.188.442 0 .833-.094 1.171-.282s.607-.416.805-.687.313-.534.328-.789l.617.695c-.036.219-.135.461-.296.727a3.48 3.48 0 0 1-.649.765c-.266.24-.583.44-.953.602a3.11 3.11 0 0 1-1.234.234c-.573 0-1.076-.112-1.508-.336s-.761-.523-1-.898-.352-.805-.352-1.274c0-.453.089-.851.266-1.195s.432-.638.765-.867.735-.412 1.204-.531a6.33 6.33 0 0 1 1.57-.18h1.68zm5.039-3.328V586h-1.453v-8.453h1.453zm-1.563-2.242a.87.87 0 0 1 .211-.594c.146-.162.359-.242.641-.242.276 0 .487.08.633.242.151.161.226.359.226.594 0 .224-.075.416-.226.578-.146.156-.357.234-.633.234-.282 0-.495-.078-.641-.234a.85.85 0 0 1-.211-.578zm5.453-1.305v12h-1.453v-12h1.453zm5.828 12.156c-.588 0-1.122-.099-1.601-.297a3.64 3.64 0 0 1-1.227-.851c-.338-.365-.599-.797-.781-1.297s-.273-1.047-.273-1.641v-.328c0-.687.101-1.299.304-1.836s.479-1 .828-1.375.745-.659 1.188-.851.901-.289 1.375-.289c.604 0 1.125.104 1.562.312a2.84 2.84 0 0 1 1.086.875 3.72 3.72 0 0 1 .625 1.313c.136.5.203 1.047.203 1.64v.649h-6.312V581h4.867v-.109a3.62 3.62 0 0 0-.234-1.094 1.97 1.97 0 0 0-.625-.875c-.287-.229-.677-.344-1.172-.344a1.96 1.96 0 0 0-.906.211c-.276.135-.513.339-.711.609s-.352.602-.461.993-.164.841-.164 1.351v.328a3.8 3.8 0 0 0 .164 1.133c.114.349.278.656.492.922a2.36 2.36 0 0 0 .789.625c.313.151.667.227 1.063.227.51 0 .942-.105 1.296-.313a3.2 3.2 0 0 0 .93-.836l.875.695a4.04 4.04 0 0 1-.695.789c-.281.25-.628.454-1.039.61s-.888.234-1.446.234zm10.305-1.797V574h1.453v12h-1.328l-.125-1.641zm-5.687-2.492v-.164c0-.646.078-1.232.234-1.758.161-.531.388-.987.68-1.367.297-.38.648-.672 1.054-.875.412-.208.87-.312 1.375-.312.532 0 .995.093 1.391.281.401.182.74.45 1.016.805.281.349.502.77.664 1.265s.273 1.055.336 1.68v.719c-.058.619-.17 1.177-.336 1.671a3.96 3.96 0 0 1-.664 1.266c-.276.349-.615.617-1.016.805-.401.182-.87.273-1.406.273-.495 0-.948-.107-1.36-.32a3.22 3.22 0 0 1-1.054-.898 4.37 4.37 0 0 1-.68-1.36c-.156-.526-.234-1.096-.234-1.711zm1.453-.164v.164a5.36 5.36 0 0 0 .125 1.188c.088.369.224.695.406.976s.414.503.695.664.618.235 1.008.235c.479 0 .873-.102 1.18-.305s.562-.471.75-.805.333-.695.437-1.086v-1.882a4.13 4.13 0 0 0-.273-.829c-.115-.27-.266-.51-.453-.718a1.96 1.96 0 0 0-.68-.508c-.266-.125-.581-.188-.945-.188-.396 0-.737.084-1.024.25a2 2 0 0 0-.695.672c-.182.281-.318.61-.406.985-.084.369-.125.765-.125 1.187zM962.242 574h1.453v10.359L963.57 586h-1.328v-12zm7.164 7.703v.164c0 .615-.073 1.185-.218 1.711s-.36.974-.641 1.36a2.99 2.99 0 0 1-1.031.898c-.407.213-.873.32-1.399.32-.536 0-1.008-.091-1.414-.273-.401-.188-.739-.456-1.015-.805s-.498-.771-.665-1.266c-.161-.494-.273-1.052-.335-1.671v-.719a7.99 7.99 0 0 1 .335-1.68c.167-.495.388-.916.665-1.265.276-.355.614-.623 1.015-.805.401-.188.867-.281 1.399-.281s1.002.104 1.414.312.755.495 1.031.875.495.836.641 1.367a6.61 6.61 0 0 1 .218 1.758zm-1.453.164v-.164c0-.422-.039-.818-.117-1.187a3.07 3.07 0 0 0-.375-.985 1.88 1.88 0 0 0-.68-.672c-.281-.166-.627-.25-1.039-.25-.364 0-.682.063-.953.188s-.492.294-.68.508c-.187.208-.341.448-.461.718a4.15 4.15 0 0 0-.257.829v1.882c.083.365.218.717.406 1.055a2.46 2.46 0 0 0 .765.82c.323.214.722.321 1.196.321.39 0 .724-.078 1-.235a1.89 1.89 0 0 0 .68-.664 3.09 3.09 0 0 0 .39-.976 5.42 5.42 0 0 0 .125-1.188zm4.727-2.992V586h-1.446v-8.453h1.407l.039 1.328zm2.64-1.375l-.008 1.344c-.119-.026-.234-.042-.343-.047-.104-.011-.224-.016-.36-.016-.333 0-.627.052-.882.157s-.472.25-.649.437-.318.411-.422.672a3.21 3.21 0 0 0-.195.844l-.406.234c0-.51.049-.99.148-1.437.104-.448.263-.844.477-1.188a2.32 2.32 0 0 1 .812-.812c.334-.198.729-.297 1.188-.297.104 0 .224.013.359.039a1.08 1.08 0 0 1 .281.07zm4.688 8.656c-.589 0-1.123-.099-1.602-.297-.474-.203-.883-.487-1.226-.851s-.599-.797-.782-1.297-.273-1.047-.273-1.641v-.328c0-.687.102-1.299.305-1.836s.479-1 .828-1.375a3.54 3.54 0 0 1 1.187-.851c.443-.193.901-.289 1.375-.289.604 0 1.125.104 1.563.312a2.84 2.84 0 0 1 1.086.875c.281.37.489.807.625 1.313a6.28 6.28 0 0 1 .203 1.64v.649h-6.313V581h4.868v-.109c-.021-.375-.099-.74-.235-1.094a1.96 1.96 0 0 0-.625-.875c-.286-.229-.677-.344-1.172-.344a1.96 1.96 0 0 0-.906.211c-.276.135-.513.339-.711.609s-.351.602-.461.993-.164.841-.164 1.351v.328a3.83 3.83 0 0 0 .164 1.133c.115.349.279.656.492.922a2.36 2.36 0 0 0 .789.625c.313.151.667.227 1.063.227.51 0 .943-.105 1.297-.313s.664-.487.929-.836l.876.695a4.08 4.08 0 0 1-.696.789c-.281.25-.627.454-1.039.61-.406.156-.888.234-1.445.234zm9.961-1.601v-4.352c0-.333-.068-.622-.203-.867a1.33 1.33 0 0 0-.594-.578c-.266-.136-.594-.203-.984-.203-.365 0-.685.062-.961.187-.271.125-.485.289-.641.492s-.227.422-.227.657h-1.445c0-.302.078-.602.234-.899s.381-.565.672-.804c.297-.245.651-.438 1.063-.579s.88-.218 1.39-.218c.615 0 1.157.104 1.625.312a2.44 2.44 0 0 1 1.11.945c.271.417.406.941.406 1.571v3.937c0 .282.024.581.07.899.052.317.128.591.227.82V586h-1.508c-.073-.167-.13-.388-.172-.664-.041-.281-.062-.542-.062-.781zm.25-3.68l.015 1.016h-1.461c-.411 0-.778.033-1.101.101s-.594.159-.813.289-.385.295-.5.492-.171.42-.171.68c0 .266.059.508.179.727s.3.393.539.523c.245.125.545.188.899.188.442 0 .833-.094 1.172-.282s.606-.416.804-.687c.203-.271.313-.534.328-.789l.618.695c-.037.219-.136.461-.297.727a3.48 3.48 0 0 1-.649.765 3.49 3.49 0 0 1-.953.602c-.364.156-.776.234-1.234.234-.573 0-1.076-.112-1.508-.336a2.58 2.58 0 0 1-1-.898c-.234-.38-.352-.805-.352-1.274 0-.453.089-.851.266-1.195a2.3 2.3 0 0 1 .766-.867c.333-.234.734-.412 1.203-.531s.992-.18 1.57-.18h1.68zm4.922-6.875v12h-1.453v-12h1.453zm5.159 3.547l-3.683 3.945-2.062 2.141-.117-1.539 1.476-1.766 2.625-2.781h1.761zM998.984 586l-3.015-4.031.75-1.289 3.971 5.32h-1.706zm7.986-1.641V574h1.45v12h-1.33l-.12-1.641zm-5.69-2.492v-.164c0-.646.08-1.232.24-1.758.16-.531.38-.987.68-1.367.29-.38.64-.672 1.05-.875s.87-.312 1.37-.312c.54 0 1 .093 1.4.281a2.61 2.61 0 0 1 1.01.805c.28.349.5.77.67 1.265.16.495.27 1.055.33 1.68v.719c-.06.619-.17 1.177-.33 1.671-.17.495-.39.917-.67 1.266-.27.349-.61.617-1.01.805-.41.182-.87.273-1.41.273-.5 0-.95-.107-1.36-.32a3.1 3.1 0 0 1-1.05-.898c-.3-.386-.52-.839-.68-1.36s-.24-1.096-.24-1.711zm1.45-.164v.164a5.6 5.6 0 0 0 .13 1.188c.09.369.22.695.41.976a1.99 1.99 0 0 0 .69.664c.28.157.62.235 1.01.235.48 0 .87-.102 1.18-.305a2.31 2.31 0 0 0 .75-.805c.19-.333.33-.695.44-1.086v-1.882a4.73 4.73 0 0 0-.28-.829c-.11-.27-.26-.51-.45-.718a1.94 1.94 0 0 0-.68-.508 2.22 2.22 0 0 0-.95-.188c-.39 0-.73.084-1.02.25a1.98 1.98 0 0 0-.69.672c-.19.281-.32.61-.41.985-.08.369-.13.765-.13 1.187zm7.56.164v-.179c0-.61.09-1.175.26-1.696a4.14 4.14 0 0 1 .77-1.367c.33-.391.74-.693 1.21-.906.48-.219 1.01-.328 1.59-.328.6 0 1.13.109 1.61.328.48.213.88.515 1.22.906a4.14 4.14 0 0 1 .77 1.367c.18.521.26 1.086.26 1.696v.179c0 .61-.08 1.175-.26 1.695a4.26 4.26 0 0 1-.77 1.368 3.59 3.59 0 0 1-1.22.906c-.46.213-1 .32-1.59.32s-1.13-.107-1.6-.32a3.69 3.69 0 0 1-1.22-.906 4.26 4.26 0 0 1-.77-1.368c-.17-.52-.26-1.085-.26-1.695zm1.44-.179v.179c0 .422.05.821.15 1.195s.25.698.45.985a2.17 2.17 0 0 0 .76.68c.3.161.65.242 1.05.242s.74-.081 1.04-.242a2.23 2.23 0 0 0 .75-.68c.2-.287.35-.615.45-.985s.15-.773.15-1.195v-.179c0-.417-.05-.81-.15-1.18a3.13 3.13 0 0 0-.46-.992 2.19 2.19 0 0 0-.75-.688c-.29-.167-.64-.25-1.05-.25-.39 0-.74.083-1.04.25a2.19 2.19 0 0 0-.75.688c-.2.286-.35.617-.45.992s-.15.763-.15 1.18zm10.21 2.812l2.17-6.953h.95l-.18 1.383-2.22 7.07h-.93l.21-1.5zm-1.46-6.953l1.85 7.031.13 1.422h-.98l-2.45-8.453h1.45zm6.66 6.976l1.77-6.976h1.43l-2.45 8.453h-.97l.22-1.477zm-1.87-6.976l2.13 6.836.24 1.617h-.92l-2.27-7.086-.19-1.367h1.01zm8 1.805V586h-1.44v-8.453h1.37l.07 1.805zm-.34 2.101l-.6-.023c0-.578.09-1.112.26-1.602.16-.495.4-.924.7-1.289s.66-.646 1.08-.844c.42-.203.89-.304 1.4-.304.41 0 .79.057 1.12.171s.62.287.85.532c.24.245.42.562.55.953.12.385.19.857.19 1.414V586h-1.46v-5.555c0-.442-.06-.797-.19-1.062a1.2 1.2 0 0 0-.57-.586c-.25-.125-.56-.188-.92-.188a2.17 2.17 0 0 0-.99.227c-.29.151-.54.359-.76.625-.2.266-.37.57-.49.914a3.47 3.47 0 0 0-.17 1.078z" fill="#2f2f2f"/></svg>