<svg width="1150" height="718" viewBox="0 0 1150 718" fill="none" xmlns="http://www.w3.org/2000/svg">
<circle r="3" transform="matrix(1.85588e-07 -1 -1 -1.87961e-07 285 291)" fill="#2F2F2F"/>
<path d="M284.513 59L284.513 289.5" stroke="#2F2F2F"/>
<path d="M191.328 36.8594H187.672V47H186.18V36.8594H182.531V35.625H191.328V36.8594ZM196.281 39.8438C196.062 39.8073 195.826 39.7891 195.57 39.7891C194.622 39.7891 193.979 40.1927 193.641 41V47H192.195V38.5469H193.602L193.625 39.5234C194.099 38.7682 194.771 38.3906 195.641 38.3906C195.922 38.3906 196.135 38.4271 196.281 38.5V39.8438ZM202.523 47C202.44 46.8333 202.372 46.5365 202.32 46.1094C201.648 46.8073 200.846 47.1562 199.914 47.1562C199.081 47.1562 198.396 46.9219 197.859 46.4531C197.328 45.9792 197.062 45.3802 197.062 44.6562C197.062 43.776 197.396 43.0938 198.062 42.6094C198.734 42.1198 199.677 41.875 200.891 41.875H202.297V41.2109C202.297 40.7057 202.146 40.3047 201.844 40.0078C201.542 39.7057 201.096 39.5547 200.508 39.5547C199.992 39.5547 199.56 39.6849 199.211 39.9453C198.862 40.2057 198.688 40.5208 198.688 40.8906H197.234C197.234 40.4688 197.383 40.0625 197.68 39.6719C197.982 39.276 198.388 38.9635 198.898 38.7344C199.414 38.5052 199.979 38.3906 200.594 38.3906C201.568 38.3906 202.331 38.6354 202.883 39.125C203.435 39.6094 203.721 40.2786 203.742 41.1328V45.0234C203.742 45.7995 203.841 46.4167 204.039 46.875V47H202.523ZM200.125 45.8984C200.578 45.8984 201.008 45.7812 201.414 45.5469C201.82 45.3125 202.115 45.0078 202.297 44.6328V42.8984H201.164C199.393 42.8984 198.508 43.4167 198.508 44.4531C198.508 44.9062 198.659 45.2604 198.961 45.5156C199.263 45.7708 199.651 45.8984 200.125 45.8984ZM209.398 45.9766C209.914 45.9766 210.365 45.8203 210.75 45.5078C211.135 45.1953 211.349 44.8047 211.391 44.3359H212.758C212.732 44.8203 212.565 45.2812 212.258 45.7188C211.951 46.1562 211.539 46.5052 211.023 46.7656C210.513 47.026 209.971 47.1562 209.398 47.1562C208.247 47.1562 207.331 46.7734 206.648 46.0078C205.971 45.237 205.633 44.1849 205.633 42.8516V42.6094C205.633 41.7865 205.784 41.0547 206.086 40.4141C206.388 39.7734 206.82 39.276 207.383 38.9219C207.951 38.5677 208.62 38.3906 209.391 38.3906C210.339 38.3906 211.125 38.6745 211.75 39.2422C212.38 39.8099 212.716 40.5469 212.758 41.4531H211.391C211.349 40.9062 211.141 40.4583 210.766 40.1094C210.396 39.7552 209.938 39.5781 209.391 39.5781C208.656 39.5781 208.086 39.8438 207.68 40.375C207.279 40.901 207.078 41.6641 207.078 42.6641V42.9375C207.078 43.9115 207.279 44.6615 207.68 45.1875C208.081 45.7135 208.654 45.9766 209.398 45.9766ZM216.742 43.0859L215.836 44.0312V47H214.391V35H215.836V42.2578L216.609 41.3281L219.242 38.5469H221L217.711 42.0781L221.383 47H219.688L216.742 43.0859ZM229.969 47.1562C228.823 47.1562 227.891 46.7812 227.172 46.0312C226.453 45.276 226.094 44.2682 226.094 43.0078V42.7422C226.094 41.9036 226.253 41.1562 226.57 40.5C226.893 39.8385 227.341 39.3229 227.914 38.9531C228.492 38.5781 229.117 38.3906 229.789 38.3906C230.888 38.3906 231.742 38.7526 232.352 39.4766C232.961 40.2005 233.266 41.237 233.266 42.5859V43.1875H227.539C227.56 44.0208 227.802 44.6953 228.266 45.2109C228.734 45.7214 229.328 45.9766 230.047 45.9766C230.557 45.9766 230.99 45.8724 231.344 45.6641C231.698 45.4557 232.008 45.1797 232.273 44.8359L233.156 45.5234C232.448 46.612 231.385 47.1562 229.969 47.1562ZM229.789 39.5781C229.206 39.5781 228.716 39.7917 228.32 40.2188C227.924 40.6406 227.68 41.2344 227.586 42H231.82V41.8906C231.779 41.1562 231.581 40.5885 231.227 40.1875C230.872 39.7812 230.393 39.5781 229.789 39.5781ZM237.781 41.6328L239.656 38.5469H241.344L238.578 42.7266L241.43 47H239.758L237.805 43.8359L235.852 47H234.172L237.023 42.7266L234.258 38.5469H235.93L237.781 41.6328ZM250.023 42.8672C250.023 44.1536 249.729 45.1901 249.141 45.9766C248.552 46.763 247.755 47.1562 246.75 47.1562C245.724 47.1562 244.917 46.8307 244.328 46.1797V50.25H242.883V38.5469H244.203L244.273 39.4844C244.862 38.7552 245.68 38.3906 246.727 38.3906C247.742 38.3906 248.544 38.7734 249.133 39.5391C249.727 40.3047 250.023 41.3698 250.023 42.7344V42.8672ZM248.578 42.7031C248.578 41.75 248.375 40.9974 247.969 40.4453C247.562 39.8932 247.005 39.6172 246.297 39.6172C245.422 39.6172 244.766 40.0052 244.328 40.7812V44.8203C244.76 45.5911 245.422 45.9766 246.312 45.9766C247.005 45.9766 247.555 45.7031 247.961 45.1562C248.372 44.6042 248.578 43.7865 248.578 42.7031ZM255.375 47.1562C254.229 47.1562 253.297 46.7812 252.578 46.0312C251.859 45.276 251.5 44.2682 251.5 43.0078V42.7422C251.5 41.9036 251.659 41.1562 251.977 40.5C252.299 39.8385 252.747 39.3229 253.32 38.9531C253.898 38.5781 254.523 38.3906 255.195 38.3906C256.294 38.3906 257.148 38.7526 257.758 39.4766C258.367 40.2005 258.672 41.237 258.672 42.5859V43.1875H252.945C252.966 44.0208 253.208 44.6953 253.672 45.2109C254.141 45.7214 254.734 45.9766 255.453 45.9766C255.964 45.9766 256.396 45.8724 256.75 45.6641C257.104 45.4557 257.414 45.1797 257.68 44.8359L258.562 45.5234C257.854 46.612 256.792 47.1562 255.375 47.1562ZM255.195 39.5781C254.612 39.5781 254.122 39.7917 253.727 40.2188C253.331 40.6406 253.086 41.2344 252.992 42H257.227V41.8906C257.185 41.1562 256.987 40.5885 256.633 40.1875C256.279 39.7812 255.799 39.5781 255.195 39.5781ZM261.719 38.5469L261.766 39.6094C262.411 38.7969 263.255 38.3906 264.297 38.3906C266.083 38.3906 266.984 39.3984 267 41.4141V47H265.555V41.4062C265.549 40.7969 265.409 40.3464 265.133 40.0547C264.862 39.763 264.438 39.6172 263.859 39.6172C263.391 39.6172 262.979 39.7422 262.625 39.9922C262.271 40.2422 261.995 40.5703 261.797 40.9766V47H260.352V38.5469H261.719ZM274.102 44.7578C274.102 44.3672 273.953 44.0651 273.656 43.8516C273.365 43.6328 272.852 43.4453 272.117 43.2891C271.388 43.1328 270.807 42.9453 270.375 42.7266C269.948 42.5078 269.63 42.2474 269.422 41.9453C269.219 41.6432 269.117 41.2839 269.117 40.8672C269.117 40.1745 269.409 39.5885 269.992 39.1094C270.581 38.6302 271.331 38.3906 272.242 38.3906C273.201 38.3906 273.977 38.638 274.57 39.1328C275.169 39.6276 275.469 40.2604 275.469 41.0312H274.016C274.016 40.6354 273.846 40.2943 273.508 40.0078C273.174 39.7214 272.753 39.5781 272.242 39.5781C271.716 39.5781 271.305 39.6927 271.008 39.9219C270.711 40.151 270.562 40.4505 270.562 40.8203C270.562 41.1693 270.701 41.4323 270.977 41.6094C271.253 41.7865 271.75 41.9557 272.469 42.1172C273.193 42.2786 273.779 42.4714 274.227 42.6953C274.674 42.9193 275.005 43.1901 275.219 43.5078C275.438 43.8203 275.547 44.2031 275.547 44.6562C275.547 45.4115 275.245 46.0182 274.641 46.4766C274.036 46.9297 273.253 47.1562 272.289 47.1562C271.612 47.1562 271.013 47.0365 270.492 46.7969C269.971 46.5573 269.562 46.224 269.266 45.7969C268.974 45.3646 268.828 44.8984 268.828 44.3984H270.273C270.299 44.8828 270.492 45.2682 270.852 45.5547C271.216 45.8359 271.695 45.9766 272.289 45.9766C272.836 45.9766 273.273 45.8672 273.602 45.6484C273.935 45.4245 274.102 45.1276 274.102 44.7578ZM280.938 47.1562C279.792 47.1562 278.859 46.7812 278.141 46.0312C277.422 45.276 277.062 44.2682 277.062 43.0078V42.7422C277.062 41.9036 277.221 41.1562 277.539 40.5C277.862 39.8385 278.31 39.3229 278.883 38.9531C279.461 38.5781 280.086 38.3906 280.758 38.3906C281.857 38.3906 282.711 38.7526 283.32 39.4766C283.93 40.2005 284.234 41.237 284.234 42.5859V43.1875H278.508C278.529 44.0208 278.771 44.6953 279.234 45.2109C279.703 45.7214 280.297 45.9766 281.016 45.9766C281.526 45.9766 281.958 45.8724 282.312 45.6641C282.667 45.4557 282.977 45.1797 283.242 44.8359L284.125 45.5234C283.417 46.612 282.354 47.1562 280.938 47.1562ZM280.758 39.5781C280.174 39.5781 279.685 39.7917 279.289 40.2188C278.893 40.6406 278.648 41.2344 278.555 42H282.789V41.8906C282.747 41.1562 282.549 40.5885 282.195 40.1875C281.841 39.7812 281.362 39.5781 280.758 39.5781ZM290.836 44.7578C290.836 44.3672 290.688 44.0651 290.391 43.8516C290.099 43.6328 289.586 43.4453 288.852 43.2891C288.122 43.1328 287.542 42.9453 287.109 42.7266C286.682 42.5078 286.365 42.2474 286.156 41.9453C285.953 41.6432 285.852 41.2839 285.852 40.8672C285.852 40.1745 286.143 39.5885 286.727 39.1094C287.315 38.6302 288.065 38.3906 288.977 38.3906C289.935 38.3906 290.711 38.638 291.305 39.1328C291.904 39.6276 292.203 40.2604 292.203 41.0312H290.75C290.75 40.6354 290.581 40.2943 290.242 40.0078C289.909 39.7214 289.487 39.5781 288.977 39.5781C288.451 39.5781 288.039 39.6927 287.742 39.9219C287.445 40.151 287.297 40.4505 287.297 40.8203C287.297 41.1693 287.435 41.4323 287.711 41.6094C287.987 41.7865 288.484 41.9557 289.203 42.1172C289.927 42.2786 290.513 42.4714 290.961 42.6953C291.409 42.9193 291.74 43.1901 291.953 43.5078C292.172 43.8203 292.281 44.2031 292.281 44.6562C292.281 45.4115 291.979 46.0182 291.375 46.4766C290.771 46.9297 289.987 47.1562 289.023 47.1562C288.346 47.1562 287.747 47.0365 287.227 46.7969C286.706 46.5573 286.297 46.224 286 45.7969C285.708 45.3646 285.562 44.8984 285.562 44.3984H287.008C287.034 44.8828 287.227 45.2682 287.586 45.5547C287.951 45.8359 288.43 45.9766 289.023 45.9766C289.57 45.9766 290.008 45.8672 290.336 45.6484C290.669 45.4245 290.836 45.1276 290.836 44.7578ZM305.289 42.8672C305.289 44.1589 304.992 45.1979 304.398 45.9844C303.805 46.7656 303.008 47.1562 302.008 47.1562C300.94 47.1562 300.115 46.7786 299.531 46.0234L299.461 47H298.133V35H299.578V39.4766C300.161 38.7526 300.966 38.3906 301.992 38.3906C303.018 38.3906 303.823 38.7786 304.406 39.5547C304.995 40.3307 305.289 41.3932 305.289 42.7422V42.8672ZM303.844 42.7031C303.844 41.7188 303.654 40.9583 303.273 40.4219C302.893 39.8854 302.346 39.6172 301.633 39.6172C300.68 39.6172 299.995 40.0599 299.578 40.9453V44.6016C300.021 45.487 300.711 45.9297 301.648 45.9297C302.341 45.9297 302.88 45.6615 303.266 45.125C303.651 44.5885 303.844 43.7812 303.844 42.7031ZM309.789 44.8828L311.758 38.5469H313.305L309.906 48.3047C309.38 49.7109 308.544 50.4141 307.398 50.4141L307.125 50.3906L306.586 50.2891V49.1172L306.977 49.1484C307.466 49.1484 307.846 49.0495 308.117 48.8516C308.393 48.6536 308.62 48.2917 308.797 47.7656L309.117 46.9062L306.102 38.5469H307.68L309.789 44.8828ZM323.789 46.1641C323.227 46.8255 322.401 47.1562 321.312 47.1562C320.411 47.1562 319.724 46.8958 319.25 46.375C318.781 45.849 318.544 45.0729 318.539 44.0469V38.5469H319.984V44.0078C319.984 45.2891 320.505 45.9297 321.547 45.9297C322.651 45.9297 323.385 45.5182 323.75 44.6953V38.5469H325.195V47H323.82L323.789 46.1641ZM328.766 38.5469L328.812 39.6094C329.458 38.7969 330.302 38.3906 331.344 38.3906C333.13 38.3906 334.031 39.3984 334.047 41.4141V47H332.602V41.4062C332.596 40.7969 332.456 40.3464 332.18 40.0547C331.909 39.763 331.484 39.6172 330.906 39.6172C330.438 39.6172 330.026 39.7422 329.672 39.9922C329.318 40.2422 329.042 40.5703 328.844 40.9766V47H327.398V38.5469H328.766ZM337.797 47H336.352V38.5469H337.797V47ZM336.234 36.3047C336.234 36.0703 336.305 35.8724 336.445 35.7109C336.591 35.5495 336.805 35.4688 337.086 35.4688C337.367 35.4688 337.581 35.5495 337.727 35.7109C337.872 35.8724 337.945 36.0703 337.945 36.3047C337.945 36.5391 337.872 36.7344 337.727 36.8906C337.581 37.0469 337.367 37.125 337.086 37.125C336.805 37.125 336.591 37.0469 336.445 36.8906C336.305 36.7344 336.234 36.5391 336.234 36.3047ZM342.078 36.5V38.5469H343.656V39.6641H342.078V44.9062C342.078 45.2448 342.148 45.5 342.289 45.6719C342.43 45.8385 342.669 45.9219 343.008 45.9219C343.174 45.9219 343.404 45.8906 343.695 45.8281V47C343.315 47.1042 342.945 47.1562 342.586 47.1562C341.94 47.1562 341.453 46.9609 341.125 46.5703C340.797 46.1797 340.633 45.625 340.633 44.9062V39.6641H339.094V38.5469H340.633V36.5H342.078ZM348.938 42.6953C348.938 41.8672 349.099 41.1224 349.422 40.4609C349.75 39.7995 350.203 39.2891 350.781 38.9297C351.365 38.5703 352.029 38.3906 352.773 38.3906C353.924 38.3906 354.854 38.7891 355.562 39.5859C356.276 40.3828 356.633 41.4427 356.633 42.7656V42.8672C356.633 43.6901 356.474 44.4297 356.156 45.0859C355.844 45.737 355.393 46.2448 354.805 46.6094C354.221 46.974 353.549 47.1562 352.789 47.1562C351.643 47.1562 350.714 46.7578 350 45.9609C349.292 45.1641 348.938 44.1094 348.938 42.7969V42.6953ZM350.391 42.8672C350.391 43.8047 350.607 44.5573 351.039 45.125C351.477 45.6927 352.06 45.9766 352.789 45.9766C353.523 45.9766 354.107 45.6901 354.539 45.1172C354.971 44.5391 355.188 43.7318 355.188 42.6953C355.188 41.7682 354.966 41.0182 354.523 40.4453C354.086 39.8672 353.503 39.5781 352.773 39.5781C352.06 39.5781 351.484 39.862 351.047 40.4297C350.609 40.9974 350.391 41.8099 350.391 42.8672ZM362.531 39.8438C362.312 39.8073 362.076 39.7891 361.82 39.7891C360.872 39.7891 360.229 40.1927 359.891 41V47H358.445V38.5469H359.852L359.875 39.5234C360.349 38.7682 361.021 38.3906 361.891 38.3906C362.172 38.3906 362.385 38.4271 362.531 38.5V39.8438ZM372.758 44.7578C372.758 44.3672 372.609 44.0651 372.312 43.8516C372.021 43.6328 371.508 43.4453 370.773 43.2891C370.044 43.1328 369.464 42.9453 369.031 42.7266C368.604 42.5078 368.286 42.2474 368.078 41.9453C367.875 41.6432 367.773 41.2839 367.773 40.8672C367.773 40.1745 368.065 39.5885 368.648 39.1094C369.237 38.6302 369.987 38.3906 370.898 38.3906C371.857 38.3906 372.633 38.638 373.227 39.1328C373.826 39.6276 374.125 40.2604 374.125 41.0312H372.672C372.672 40.6354 372.503 40.2943 372.164 40.0078C371.831 39.7214 371.409 39.5781 370.898 39.5781C370.372 39.5781 369.961 39.6927 369.664 39.9219C369.367 40.151 369.219 40.4505 369.219 40.8203C369.219 41.1693 369.357 41.4323 369.633 41.6094C369.909 41.7865 370.406 41.9557 371.125 42.1172C371.849 42.2786 372.435 42.4714 372.883 42.6953C373.331 42.9193 373.661 43.1901 373.875 43.5078C374.094 43.8203 374.203 44.2031 374.203 44.6562C374.203 45.4115 373.901 46.0182 373.297 46.4766C372.693 46.9297 371.909 47.1562 370.945 47.1562C370.268 47.1562 369.669 47.0365 369.148 46.7969C368.628 46.5573 368.219 46.224 367.922 45.7969C367.63 45.3646 367.484 44.8984 367.484 44.3984H368.93C368.956 44.8828 369.148 45.2682 369.508 45.5547C369.872 45.8359 370.352 45.9766 370.945 45.9766C371.492 45.9766 371.93 45.8672 372.258 45.6484C372.591 45.4245 372.758 45.1276 372.758 44.7578ZM381.305 46.1641C380.742 46.8255 379.917 47.1562 378.828 47.1562C377.927 47.1562 377.24 46.8958 376.766 46.375C376.297 45.849 376.06 45.0729 376.055 44.0469V38.5469H377.5V44.0078C377.5 45.2891 378.021 45.9297 379.062 45.9297C380.167 45.9297 380.901 45.5182 381.266 44.6953V38.5469H382.711V47H381.336L381.305 46.1641ZM386.273 38.5469L386.312 39.4844C386.932 38.7552 387.768 38.3906 388.82 38.3906C390.003 38.3906 390.807 38.8438 391.234 39.75C391.516 39.3438 391.88 39.0156 392.328 38.7656C392.781 38.5156 393.315 38.3906 393.93 38.3906C395.784 38.3906 396.727 39.3724 396.758 41.3359V47H395.312V41.4219C395.312 40.8177 395.174 40.3672 394.898 40.0703C394.622 39.7682 394.159 39.6172 393.508 39.6172C392.971 39.6172 392.526 39.7786 392.172 40.1016C391.818 40.4193 391.612 40.849 391.555 41.3906V47H390.102V41.4609C390.102 40.2318 389.5 39.6172 388.297 39.6172C387.349 39.6172 386.701 40.0208 386.352 40.8281V47H384.906V38.5469H386.273Z" fill="#2F2F2F"/>
<circle r="3" transform="matrix(1.85588e-07 -1 -1 -1.87961e-07 905 123)" fill="#2F2F2F"/>
<path d="M905.258 59L905.258 122.5" stroke="#2F2F2F"/>
<path d="M843.781 43V31.625H846.992C847.982 31.625 848.857 31.8438 849.617 32.2812C850.378 32.7188 850.964 33.3411 851.375 34.1484C851.792 34.9557 852.003 35.8828 852.008 36.9297V37.6562C852.008 38.7292 851.799 39.6693 851.383 40.4766C850.971 41.2839 850.38 41.9036 849.609 42.3359C848.844 42.7682 847.951 42.9896 846.93 43H843.781ZM845.281 32.8594V41.7734H846.859C848.016 41.7734 848.914 41.4141 849.555 40.6953C850.201 39.9766 850.523 38.9531 850.523 37.625V36.9609C850.523 35.6693 850.219 34.6667 849.609 33.9531C849.005 33.2344 848.146 32.8698 847.031 32.8594H845.281ZM857.562 43.1562C856.417 43.1562 855.484 42.7812 854.766 42.0312C854.047 41.276 853.688 40.2682 853.688 39.0078V38.7422C853.688 37.9036 853.846 37.1562 854.164 36.5C854.487 35.8385 854.935 35.3229 855.508 34.9531C856.086 34.5781 856.711 34.3906 857.383 34.3906C858.482 34.3906 859.336 34.7526 859.945 35.4766C860.555 36.2005 860.859 37.237 860.859 38.5859V39.1875H855.133C855.154 40.0208 855.396 40.6953 855.859 41.2109C856.328 41.7214 856.922 41.9766 857.641 41.9766C858.151 41.9766 858.583 41.8724 858.938 41.6641C859.292 41.4557 859.602 41.1797 859.867 40.8359L860.75 41.5234C860.042 42.612 858.979 43.1562 857.562 43.1562ZM857.383 35.5781C856.799 35.5781 856.31 35.7917 855.914 36.2188C855.518 36.6406 855.273 37.2344 855.18 38H859.414V37.8906C859.372 37.1562 859.174 36.5885 858.82 36.1875C858.466 35.7812 857.987 35.5781 857.383 35.5781ZM863.023 43V35.6641H861.688V34.5469H863.023V33.8281C863.023 32.8854 863.292 32.151 863.828 31.625C864.37 31.099 865.133 30.8359 866.117 30.8359C866.701 30.8359 867.438 30.9948 868.328 31.3125L868.086 32.5312C867.435 32.2708 866.815 32.1406 866.227 32.1406C865.607 32.1406 865.159 32.2812 864.883 32.5625C864.612 32.8385 864.477 33.2552 864.477 33.8125V34.5469H866.203V35.6641H864.477V43H863.023ZM869.047 43H867.594V34.5469H869.047V43ZM872.766 34.5469L872.812 35.6094C873.458 34.7969 874.302 34.3906 875.344 34.3906C877.13 34.3906 878.031 35.3984 878.047 37.4141V43H876.602V37.4062C876.596 36.7969 876.456 36.3464 876.18 36.0547C875.909 35.763 875.484 35.6172 874.906 35.6172C874.438 35.6172 874.026 35.7422 873.672 35.9922C873.318 36.2422 873.042 36.5703 872.844 36.9766V43H871.398V34.5469H872.766ZM883.734 43.1562C882.589 43.1562 881.656 42.7812 880.938 42.0312C880.219 41.276 879.859 40.2682 879.859 39.0078V38.7422C879.859 37.9036 880.018 37.1562 880.336 36.5C880.659 35.8385 881.107 35.3229 881.68 34.9531C882.258 34.5781 882.883 34.3906 883.555 34.3906C884.654 34.3906 885.508 34.7526 886.117 35.4766C886.727 36.2005 887.031 37.237 887.031 38.5859V39.1875H881.305C881.326 40.0208 881.568 40.6953 882.031 41.2109C882.5 41.7214 883.094 41.9766 883.812 41.9766C884.323 41.9766 884.755 41.8724 885.109 41.6641C885.464 41.4557 885.773 41.1797 886.039 40.8359L886.922 41.5234C886.214 42.612 885.151 43.1562 883.734 43.1562ZM883.555 35.5781C882.971 35.5781 882.482 35.7917 882.086 36.2188C881.69 36.6406 881.445 37.2344 881.352 38H885.586V37.8906C885.544 37.1562 885.346 36.5885 884.992 36.1875C884.638 35.7812 884.159 35.5781 883.555 35.5781ZM896.188 43.1562C895.042 43.1562 894.109 42.7812 893.391 42.0312C892.672 41.276 892.312 40.2682 892.312 39.0078V38.7422C892.312 37.9036 892.471 37.1562 892.789 36.5C893.112 35.8385 893.56 35.3229 894.133 34.9531C894.711 34.5781 895.336 34.3906 896.008 34.3906C897.107 34.3906 897.961 34.7526 898.57 35.4766C899.18 36.2005 899.484 37.237 899.484 38.5859V39.1875H893.758C893.779 40.0208 894.021 40.6953 894.484 41.2109C894.953 41.7214 895.547 41.9766 896.266 41.9766C896.776 41.9766 897.208 41.8724 897.562 41.6641C897.917 41.4557 898.227 41.1797 898.492 40.8359L899.375 41.5234C898.667 42.612 897.604 43.1562 896.188 43.1562ZM896.008 35.5781C895.424 35.5781 894.935 35.7917 894.539 36.2188C894.143 36.6406 893.898 37.2344 893.805 38H898.039V37.8906C897.997 37.1562 897.799 36.5885 897.445 36.1875C897.091 35.7812 896.612 35.5781 896.008 35.5781ZM904 37.6328L905.875 34.5469H907.562L904.797 38.7266L907.648 43H905.977L904.023 39.8359L902.07 43H900.391L903.242 38.7266L900.477 34.5469H902.148L904 37.6328ZM916.242 38.8672C916.242 40.1536 915.948 41.1901 915.359 41.9766C914.771 42.763 913.974 43.1562 912.969 43.1562C911.943 43.1562 911.135 42.8307 910.547 42.1797V46.25H909.102V34.5469H910.422L910.492 35.4844C911.081 34.7552 911.898 34.3906 912.945 34.3906C913.961 34.3906 914.763 34.7734 915.352 35.5391C915.945 36.3047 916.242 37.3698 916.242 38.7344V38.8672ZM914.797 38.7031C914.797 37.75 914.594 36.9974 914.188 36.4453C913.781 35.8932 913.224 35.6172 912.516 35.6172C911.641 35.6172 910.984 36.0052 910.547 36.7812V40.8203C910.979 41.5911 911.641 41.9766 912.531 41.9766C913.224 41.9766 913.773 41.7031 914.18 41.1562C914.591 40.6042 914.797 39.7865 914.797 38.7031ZM921.594 43.1562C920.448 43.1562 919.516 42.7812 918.797 42.0312C918.078 41.276 917.719 40.2682 917.719 39.0078V38.7422C917.719 37.9036 917.878 37.1562 918.195 36.5C918.518 35.8385 918.966 35.3229 919.539 34.9531C920.117 34.5781 920.742 34.3906 921.414 34.3906C922.513 34.3906 923.367 34.7526 923.977 35.4766C924.586 36.2005 924.891 37.237 924.891 38.5859V39.1875H919.164C919.185 40.0208 919.427 40.6953 919.891 41.2109C920.359 41.7214 920.953 41.9766 921.672 41.9766C922.182 41.9766 922.615 41.8724 922.969 41.6641C923.323 41.4557 923.633 41.1797 923.898 40.8359L924.781 41.5234C924.073 42.612 923.01 43.1562 921.594 43.1562ZM921.414 35.5781C920.831 35.5781 920.341 35.7917 919.945 36.2188C919.549 36.6406 919.305 37.2344 919.211 38H923.445V37.8906C923.404 37.1562 923.206 36.5885 922.852 36.1875C922.497 35.7812 922.018 35.5781 921.414 35.5781ZM927.938 34.5469L927.984 35.6094C928.63 34.7969 929.474 34.3906 930.516 34.3906C932.302 34.3906 933.203 35.3984 933.219 37.4141V43H931.773V37.4062C931.768 36.7969 931.628 36.3464 931.352 36.0547C931.081 35.763 930.656 35.6172 930.078 35.6172C929.609 35.6172 929.198 35.7422 928.844 35.9922C928.49 36.2422 928.214 36.5703 928.016 36.9766V43H926.57V34.5469H927.938ZM940.32 40.7578C940.32 40.3672 940.172 40.0651 939.875 39.8516C939.583 39.6328 939.07 39.4453 938.336 39.2891C937.607 39.1328 937.026 38.9453 936.594 38.7266C936.167 38.5078 935.849 38.2474 935.641 37.9453C935.438 37.6432 935.336 37.2839 935.336 36.8672C935.336 36.1745 935.628 35.5885 936.211 35.1094C936.799 34.6302 937.549 34.3906 938.461 34.3906C939.419 34.3906 940.195 34.638 940.789 35.1328C941.388 35.6276 941.688 36.2604 941.688 37.0312H940.234C940.234 36.6354 940.065 36.2943 939.727 36.0078C939.393 35.7214 938.971 35.5781 938.461 35.5781C937.935 35.5781 937.523 35.6927 937.227 35.9219C936.93 36.151 936.781 36.4505 936.781 36.8203C936.781 37.1693 936.919 37.4323 937.195 37.6094C937.471 37.7865 937.969 37.9557 938.688 38.1172C939.411 38.2786 939.997 38.4714 940.445 38.6953C940.893 38.9193 941.224 39.1901 941.438 39.5078C941.656 39.8203 941.766 40.2031 941.766 40.6562C941.766 41.4115 941.464 42.0182 940.859 42.4766C940.255 42.9297 939.471 43.1562 938.508 43.1562C937.831 43.1562 937.232 43.0365 936.711 42.7969C936.19 42.5573 935.781 42.224 935.484 41.7969C935.193 41.3646 935.047 40.8984 935.047 40.3984H936.492C936.518 40.8828 936.711 41.2682 937.07 41.5547C937.435 41.8359 937.914 41.9766 938.508 41.9766C939.055 41.9766 939.492 41.8672 939.82 41.6484C940.154 41.4245 940.32 41.1276 940.32 40.7578ZM947.156 43.1562C946.01 43.1562 945.078 42.7812 944.359 42.0312C943.641 41.276 943.281 40.2682 943.281 39.0078V38.7422C943.281 37.9036 943.44 37.1562 943.758 36.5C944.081 35.8385 944.529 35.3229 945.102 34.9531C945.68 34.5781 946.305 34.3906 946.977 34.3906C948.076 34.3906 948.93 34.7526 949.539 35.4766C950.148 36.2005 950.453 37.237 950.453 38.5859V39.1875H944.727C944.747 40.0208 944.99 40.6953 945.453 41.2109C945.922 41.7214 946.516 41.9766 947.234 41.9766C947.745 41.9766 948.177 41.8724 948.531 41.6641C948.885 41.4557 949.195 41.1797 949.461 40.8359L950.344 41.5234C949.635 42.612 948.573 43.1562 947.156 43.1562ZM946.977 35.5781C946.393 35.5781 945.904 35.7917 945.508 36.2188C945.112 36.6406 944.867 37.2344 944.773 38H949.008V37.8906C948.966 37.1562 948.768 36.5885 948.414 36.1875C948.06 35.7812 947.581 35.5781 946.977 35.5781ZM958.062 32.5V34.5469H959.641V35.6641H958.062V40.9062C958.062 41.2448 958.133 41.5 958.273 41.6719C958.414 41.8385 958.654 41.9219 958.992 41.9219C959.159 41.9219 959.388 41.8906 959.68 41.8281V43C959.299 43.1042 958.93 43.1562 958.57 43.1562C957.924 43.1562 957.438 42.9609 957.109 42.5703C956.781 42.1797 956.617 41.625 956.617 40.9062V35.6641H955.078V34.5469H956.617V32.5H958.062ZM964.102 40.8828L966.07 34.5469H967.617L964.219 44.3047C963.693 45.7109 962.857 46.4141 961.711 46.4141L961.438 46.3906L960.898 46.2891V45.1172L961.289 45.1484C961.779 45.1484 962.159 45.0495 962.43 44.8516C962.706 44.6536 962.932 44.2917 963.109 43.7656L963.43 42.9062L960.414 34.5469H961.992L964.102 40.8828ZM976.055 38.8672C976.055 40.1536 975.76 41.1901 975.172 41.9766C974.583 42.763 973.786 43.1562 972.781 43.1562C971.755 43.1562 970.948 42.8307 970.359 42.1797V46.25H968.914V34.5469H970.234L970.305 35.4844C970.893 34.7552 971.711 34.3906 972.758 34.3906C973.773 34.3906 974.576 34.7734 975.164 35.5391C975.758 36.3047 976.055 37.3698 976.055 38.7344V38.8672ZM974.609 38.7031C974.609 37.75 974.406 36.9974 974 36.4453C973.594 35.8932 973.036 35.6172 972.328 35.6172C971.453 35.6172 970.797 36.0052 970.359 36.7812V40.8203C970.792 41.5911 971.453 41.9766 972.344 41.9766C973.036 41.9766 973.586 41.7031 973.992 41.1562C974.404 40.6042 974.609 39.7865 974.609 38.7031ZM981.406 43.1562C980.26 43.1562 979.328 42.7812 978.609 42.0312C977.891 41.276 977.531 40.2682 977.531 39.0078V38.7422C977.531 37.9036 977.69 37.1562 978.008 36.5C978.331 35.8385 978.779 35.3229 979.352 34.9531C979.93 34.5781 980.555 34.3906 981.227 34.3906C982.326 34.3906 983.18 34.7526 983.789 35.4766C984.398 36.2005 984.703 37.237 984.703 38.5859V39.1875H978.977C978.997 40.0208 979.24 40.6953 979.703 41.2109C980.172 41.7214 980.766 41.9766 981.484 41.9766C981.995 41.9766 982.427 41.8724 982.781 41.6641C983.135 41.4557 983.445 41.1797 983.711 40.8359L984.594 41.5234C983.885 42.612 982.823 43.1562 981.406 43.1562ZM981.227 35.5781C980.643 35.5781 980.154 35.7917 979.758 36.2188C979.362 36.6406 979.117 37.2344 979.023 38H983.258V37.8906C983.216 37.1562 983.018 36.5885 982.664 36.1875C982.31 35.7812 981.831 35.5781 981.227 35.5781ZM991.305 40.7578C991.305 40.3672 991.156 40.0651 990.859 39.8516C990.568 39.6328 990.055 39.4453 989.32 39.2891C988.591 39.1328 988.01 38.9453 987.578 38.7266C987.151 38.5078 986.833 38.2474 986.625 37.9453C986.422 37.6432 986.32 37.2839 986.32 36.8672C986.32 36.1745 986.612 35.5885 987.195 35.1094C987.784 34.6302 988.534 34.3906 989.445 34.3906C990.404 34.3906 991.18 34.638 991.773 35.1328C992.372 35.6276 992.672 36.2604 992.672 37.0312H991.219C991.219 36.6354 991.049 36.2943 990.711 36.0078C990.378 35.7214 989.956 35.5781 989.445 35.5781C988.919 35.5781 988.508 35.6927 988.211 35.9219C987.914 36.151 987.766 36.4505 987.766 36.8203C987.766 37.1693 987.904 37.4323 988.18 37.6094C988.456 37.7865 988.953 37.9557 989.672 38.1172C990.396 38.2786 990.982 38.4714 991.43 38.6953C991.878 38.9193 992.208 39.1901 992.422 39.5078C992.641 39.8203 992.75 40.2031 992.75 40.6562C992.75 41.4115 992.448 42.0182 991.844 42.4766C991.24 42.9297 990.456 43.1562 989.492 43.1562C988.815 43.1562 988.216 43.0365 987.695 42.7969C987.174 42.5573 986.766 42.224 986.469 41.7969C986.177 41.3646 986.031 40.8984 986.031 40.3984H987.477C987.503 40.8828 987.695 41.2682 988.055 41.5547C988.419 41.8359 988.898 41.9766 989.492 41.9766C990.039 41.9766 990.477 41.8672 990.805 41.6484C991.138 41.4245 991.305 41.1276 991.305 40.7578Z" fill="#2F2F2F"/>
<circle r="3" transform="matrix(-9.87185e-08 1 1 9.99809e-08 705 587)" fill="#2F2F2F"/>
<ellipse rx="3" ry="2.981" transform="matrix(-9.87199e-08 1 1 9.99795e-08 830.981 603)" fill="#2F2F2F"/>
<path d="M650 661L650 589C650 587.895 650.895 587 652 587L703 587" stroke="#2F2F2F"/>
<path d="M831 668L831 606" stroke="#2F2F2F"/>
<path d="M595.25 690H593.75V678.625H595.25V690ZM599.141 681.547L599.188 682.609C599.833 681.797 600.677 681.391 601.719 681.391C603.505 681.391 604.406 682.398 604.422 684.414V690H602.977V684.406C602.971 683.797 602.831 683.346 602.555 683.055C602.284 682.763 601.859 682.617 601.281 682.617C600.812 682.617 600.401 682.742 600.047 682.992C599.693 683.242 599.417 683.57 599.219 683.977V690H597.773V681.547H599.141ZM609.391 688.039L611.484 681.547H612.961L609.93 690H608.828L605.766 681.547H607.242L609.391 688.039ZM613.844 685.695C613.844 684.867 614.005 684.122 614.328 683.461C614.656 682.799 615.109 682.289 615.688 681.93C616.271 681.57 616.935 681.391 617.68 681.391C618.831 681.391 619.76 681.789 620.469 682.586C621.182 683.383 621.539 684.443 621.539 685.766V685.867C621.539 686.69 621.38 687.43 621.062 688.086C620.75 688.737 620.299 689.245 619.711 689.609C619.128 689.974 618.456 690.156 617.695 690.156C616.549 690.156 615.62 689.758 614.906 688.961C614.198 688.164 613.844 687.109 613.844 685.797V685.695ZM615.297 685.867C615.297 686.805 615.513 687.557 615.945 688.125C616.383 688.693 616.966 688.977 617.695 688.977C618.43 688.977 619.013 688.69 619.445 688.117C619.878 687.539 620.094 686.732 620.094 685.695C620.094 684.768 619.872 684.018 619.43 683.445C618.992 682.867 618.409 682.578 617.68 682.578C616.966 682.578 616.391 682.862 615.953 683.43C615.516 683.997 615.297 684.81 615.297 685.867ZM624.922 690H623.477V681.547H624.922V690ZM623.359 679.305C623.359 679.07 623.43 678.872 623.57 678.711C623.716 678.549 623.93 678.469 624.211 678.469C624.492 678.469 624.706 678.549 624.852 678.711C624.997 678.872 625.07 679.07 625.07 679.305C625.07 679.539 624.997 679.734 624.852 679.891C624.706 680.047 624.492 680.125 624.211 680.125C623.93 680.125 623.716 680.047 623.57 679.891C623.43 679.734 623.359 679.539 623.359 679.305ZM630.633 688.977C631.148 688.977 631.599 688.82 631.984 688.508C632.37 688.195 632.583 687.805 632.625 687.336H633.992C633.966 687.82 633.799 688.281 633.492 688.719C633.185 689.156 632.773 689.505 632.258 689.766C631.747 690.026 631.206 690.156 630.633 690.156C629.482 690.156 628.565 689.773 627.883 689.008C627.206 688.237 626.867 687.185 626.867 685.852V685.609C626.867 684.786 627.018 684.055 627.32 683.414C627.622 682.773 628.055 682.276 628.617 681.922C629.185 681.568 629.854 681.391 630.625 681.391C631.573 681.391 632.359 681.674 632.984 682.242C633.615 682.81 633.951 683.547 633.992 684.453H632.625C632.583 683.906 632.375 683.458 632 683.109C631.63 682.755 631.172 682.578 630.625 682.578C629.891 682.578 629.32 682.844 628.914 683.375C628.513 683.901 628.312 684.664 628.312 685.664V685.938C628.312 686.911 628.513 687.661 628.914 688.188C629.315 688.714 629.888 688.977 630.633 688.977ZM639.125 690.156C637.979 690.156 637.047 689.781 636.328 689.031C635.609 688.276 635.25 687.268 635.25 686.008V685.742C635.25 684.904 635.409 684.156 635.727 683.5C636.049 682.839 636.497 682.323 637.07 681.953C637.648 681.578 638.273 681.391 638.945 681.391C640.044 681.391 640.898 681.753 641.508 682.477C642.117 683.201 642.422 684.237 642.422 685.586V686.188H636.695C636.716 687.021 636.958 687.695 637.422 688.211C637.891 688.721 638.484 688.977 639.203 688.977C639.714 688.977 640.146 688.872 640.5 688.664C640.854 688.456 641.164 688.18 641.43 687.836L642.312 688.523C641.604 689.612 640.542 690.156 639.125 690.156ZM638.945 682.578C638.362 682.578 637.872 682.792 637.477 683.219C637.081 683.641 636.836 684.234 636.742 685H640.977V684.891C640.935 684.156 640.737 683.589 640.383 683.188C640.029 682.781 639.549 682.578 638.945 682.578ZM651.578 690.156C650.432 690.156 649.5 689.781 648.781 689.031C648.062 688.276 647.703 687.268 647.703 686.008V685.742C647.703 684.904 647.862 684.156 648.18 683.5C648.503 682.839 648.951 682.323 649.523 681.953C650.102 681.578 650.727 681.391 651.398 681.391C652.497 681.391 653.352 681.753 653.961 682.477C654.57 683.201 654.875 684.237 654.875 685.586V686.188H649.148C649.169 687.021 649.411 687.695 649.875 688.211C650.344 688.721 650.938 688.977 651.656 688.977C652.167 688.977 652.599 688.872 652.953 688.664C653.307 688.456 653.617 688.18 653.883 687.836L654.766 688.523C654.057 689.612 652.995 690.156 651.578 690.156ZM651.398 682.578C650.815 682.578 650.326 682.792 649.93 683.219C649.534 683.641 649.289 684.234 649.195 685H653.43V684.891C653.388 684.156 653.19 683.589 652.836 683.188C652.482 682.781 652.003 682.578 651.398 682.578ZM659.391 684.633L661.266 681.547H662.953L660.188 685.727L663.039 690H661.367L659.414 686.836L657.461 690H655.781L658.633 685.727L655.867 681.547H657.539L659.391 684.633ZM671.633 685.867C671.633 687.154 671.339 688.19 670.75 688.977C670.161 689.763 669.365 690.156 668.359 690.156C667.333 690.156 666.526 689.831 665.938 689.18V693.25H664.492V681.547H665.812L665.883 682.484C666.471 681.755 667.289 681.391 668.336 681.391C669.352 681.391 670.154 681.773 670.742 682.539C671.336 683.305 671.633 684.37 671.633 685.734V685.867ZM670.188 685.703C670.188 684.75 669.984 683.997 669.578 683.445C669.172 682.893 668.615 682.617 667.906 682.617C667.031 682.617 666.375 683.005 665.938 683.781V687.82C666.37 688.591 667.031 688.977 667.922 688.977C668.615 688.977 669.164 688.703 669.57 688.156C669.982 687.604 670.188 686.786 670.188 685.703ZM676.984 690.156C675.839 690.156 674.906 689.781 674.188 689.031C673.469 688.276 673.109 687.268 673.109 686.008V685.742C673.109 684.904 673.268 684.156 673.586 683.5C673.909 682.839 674.357 682.323 674.93 681.953C675.508 681.578 676.133 681.391 676.805 681.391C677.904 681.391 678.758 681.753 679.367 682.477C679.977 683.201 680.281 684.237 680.281 685.586V686.188H674.555C674.576 687.021 674.818 687.695 675.281 688.211C675.75 688.721 676.344 688.977 677.062 688.977C677.573 688.977 678.005 688.872 678.359 688.664C678.714 688.456 679.023 688.18 679.289 687.836L680.172 688.523C679.464 689.612 678.401 690.156 676.984 690.156ZM676.805 682.578C676.221 682.578 675.732 682.792 675.336 683.219C674.94 683.641 674.695 684.234 674.602 685H678.836V684.891C678.794 684.156 678.596 683.589 678.242 683.188C677.888 682.781 677.409 682.578 676.805 682.578ZM683.328 681.547L683.375 682.609C684.021 681.797 684.865 681.391 685.906 681.391C687.693 681.391 688.594 682.398 688.609 684.414V690H687.164V684.406C687.159 683.797 687.018 683.346 686.742 683.055C686.471 682.763 686.047 682.617 685.469 682.617C685 682.617 684.589 682.742 684.234 682.992C683.88 683.242 683.604 683.57 683.406 683.977V690H681.961V681.547H683.328ZM695.711 687.758C695.711 687.367 695.562 687.065 695.266 686.852C694.974 686.633 694.461 686.445 693.727 686.289C692.997 686.133 692.417 685.945 691.984 685.727C691.557 685.508 691.24 685.247 691.031 684.945C690.828 684.643 690.727 684.284 690.727 683.867C690.727 683.174 691.018 682.589 691.602 682.109C692.19 681.63 692.94 681.391 693.852 681.391C694.81 681.391 695.586 681.638 696.18 682.133C696.779 682.628 697.078 683.26 697.078 684.031H695.625C695.625 683.635 695.456 683.294 695.117 683.008C694.784 682.721 694.362 682.578 693.852 682.578C693.326 682.578 692.914 682.693 692.617 682.922C692.32 683.151 692.172 683.451 692.172 683.82C692.172 684.169 692.31 684.432 692.586 684.609C692.862 684.786 693.359 684.956 694.078 685.117C694.802 685.279 695.388 685.471 695.836 685.695C696.284 685.919 696.615 686.19 696.828 686.508C697.047 686.82 697.156 687.203 697.156 687.656C697.156 688.411 696.854 689.018 696.25 689.477C695.646 689.93 694.862 690.156 693.898 690.156C693.221 690.156 692.622 690.036 692.102 689.797C691.581 689.557 691.172 689.224 690.875 688.797C690.583 688.365 690.438 687.898 690.438 687.398H691.883C691.909 687.883 692.102 688.268 692.461 688.555C692.826 688.836 693.305 688.977 693.898 688.977C694.445 688.977 694.883 688.867 695.211 688.648C695.544 688.424 695.711 688.128 695.711 687.758ZM702.547 690.156C701.401 690.156 700.469 689.781 699.75 689.031C699.031 688.276 698.672 687.268 698.672 686.008V685.742C698.672 684.904 698.831 684.156 699.148 683.5C699.471 682.839 699.919 682.323 700.492 681.953C701.07 681.578 701.695 681.391 702.367 681.391C703.466 681.391 704.32 681.753 704.93 682.477C705.539 683.201 705.844 684.237 705.844 685.586V686.188H700.117C700.138 687.021 700.38 687.695 700.844 688.211C701.312 688.721 701.906 688.977 702.625 688.977C703.135 688.977 703.568 688.872 703.922 688.664C704.276 688.456 704.586 688.18 704.852 687.836L705.734 688.523C705.026 689.612 703.964 690.156 702.547 690.156ZM702.367 682.578C701.784 682.578 701.294 682.792 700.898 683.219C700.503 683.641 700.258 684.234 700.164 685H704.398V684.891C704.357 684.156 704.159 683.589 703.805 683.188C703.451 682.781 702.971 682.578 702.367 682.578ZM712.445 687.758C712.445 687.367 712.297 687.065 712 686.852C711.708 686.633 711.195 686.445 710.461 686.289C709.732 686.133 709.151 685.945 708.719 685.727C708.292 685.508 707.974 685.247 707.766 684.945C707.562 684.643 707.461 684.284 707.461 683.867C707.461 683.174 707.753 682.589 708.336 682.109C708.924 681.63 709.674 681.391 710.586 681.391C711.544 681.391 712.32 681.638 712.914 682.133C713.513 682.628 713.812 683.26 713.812 684.031H712.359C712.359 683.635 712.19 683.294 711.852 683.008C711.518 682.721 711.096 682.578 710.586 682.578C710.06 682.578 709.648 682.693 709.352 682.922C709.055 683.151 708.906 683.451 708.906 683.82C708.906 684.169 709.044 684.432 709.32 684.609C709.596 684.786 710.094 684.956 710.812 685.117C711.536 685.279 712.122 685.471 712.57 685.695C713.018 685.919 713.349 686.19 713.562 686.508C713.781 686.82 713.891 687.203 713.891 687.656C713.891 688.411 713.589 689.018 712.984 689.477C712.38 689.93 711.596 690.156 710.633 690.156C709.956 690.156 709.357 690.036 708.836 689.797C708.315 689.557 707.906 689.224 707.609 688.797C707.318 688.365 707.172 687.898 707.172 687.398H708.617C708.643 687.883 708.836 688.268 709.195 688.555C709.56 688.836 710.039 688.977 710.633 688.977C711.18 688.977 711.617 688.867 711.945 688.648C712.279 688.424 712.445 688.128 712.445 687.758Z" fill="#2F2F2F"/>
<path d="M789.805 687.031H785.039L783.969 690H782.422L786.766 678.625H788.078L792.43 690H790.891L789.805 687.031ZM785.492 685.797H789.359L787.422 680.477L785.492 685.797ZM795.555 679.5V681.547H797.133V682.664H795.555V687.906C795.555 688.245 795.625 688.5 795.766 688.672C795.906 688.839 796.146 688.922 796.484 688.922C796.651 688.922 796.88 688.891 797.172 688.828V690C796.792 690.104 796.422 690.156 796.062 690.156C795.417 690.156 794.93 689.961 794.602 689.57C794.273 689.18 794.109 688.625 794.109 687.906V682.664H792.57V681.547H794.109V679.5H795.555ZM800.789 679.5V681.547H802.367V682.664H800.789V687.906C800.789 688.245 800.859 688.5 801 688.672C801.141 688.839 801.38 688.922 801.719 688.922C801.885 688.922 802.115 688.891 802.406 688.828V690C802.026 690.104 801.656 690.156 801.297 690.156C800.651 690.156 800.164 689.961 799.836 689.57C799.508 689.18 799.344 688.625 799.344 687.906V682.664H797.805V681.547H799.344V679.5H800.789ZM809.281 690C809.198 689.833 809.13 689.536 809.078 689.109C808.406 689.807 807.604 690.156 806.672 690.156C805.839 690.156 805.154 689.922 804.617 689.453C804.086 688.979 803.82 688.38 803.82 687.656C803.82 686.776 804.154 686.094 804.82 685.609C805.492 685.12 806.435 684.875 807.648 684.875H809.055V684.211C809.055 683.706 808.904 683.305 808.602 683.008C808.299 682.706 807.854 682.555 807.266 682.555C806.75 682.555 806.318 682.685 805.969 682.945C805.62 683.206 805.445 683.521 805.445 683.891H803.992C803.992 683.469 804.141 683.062 804.438 682.672C804.74 682.276 805.146 681.964 805.656 681.734C806.172 681.505 806.737 681.391 807.352 681.391C808.326 681.391 809.089 681.635 809.641 682.125C810.193 682.609 810.479 683.279 810.5 684.133V688.023C810.5 688.799 810.599 689.417 810.797 689.875V690H809.281ZM806.883 688.898C807.336 688.898 807.766 688.781 808.172 688.547C808.578 688.312 808.872 688.008 809.055 687.633V685.898H807.922C806.151 685.898 805.266 686.417 805.266 687.453C805.266 687.906 805.417 688.26 805.719 688.516C806.021 688.771 806.409 688.898 806.883 688.898ZM816.156 688.977C816.672 688.977 817.122 688.82 817.508 688.508C817.893 688.195 818.107 687.805 818.148 687.336H819.516C819.49 687.82 819.323 688.281 819.016 688.719C818.708 689.156 818.297 689.505 817.781 689.766C817.271 690.026 816.729 690.156 816.156 690.156C815.005 690.156 814.089 689.773 813.406 689.008C812.729 688.237 812.391 687.185 812.391 685.852V685.609C812.391 684.786 812.542 684.055 812.844 683.414C813.146 682.773 813.578 682.276 814.141 681.922C814.708 681.568 815.378 681.391 816.148 681.391C817.096 681.391 817.883 681.674 818.508 682.242C819.138 682.81 819.474 683.547 819.516 684.453H818.148C818.107 683.906 817.898 683.458 817.523 683.109C817.154 682.755 816.695 682.578 816.148 682.578C815.414 682.578 814.844 682.844 814.438 683.375C814.036 683.901 813.836 684.664 813.836 685.664V685.938C813.836 686.911 814.036 687.661 814.438 688.188C814.839 688.714 815.411 688.977 816.156 688.977ZM822.586 682.57C823.227 681.784 824.06 681.391 825.086 681.391C826.872 681.391 827.773 682.398 827.789 684.414V690H826.344V684.406C826.339 683.797 826.198 683.346 825.922 683.055C825.651 682.763 825.227 682.617 824.648 682.617C824.18 682.617 823.768 682.742 823.414 682.992C823.06 683.242 822.784 683.57 822.586 683.977V690H821.141V678H822.586V682.57ZM838.008 682.844C837.789 682.807 837.552 682.789 837.297 682.789C836.349 682.789 835.706 683.193 835.367 684V690H833.922V681.547H835.328L835.352 682.523C835.826 681.768 836.497 681.391 837.367 681.391C837.648 681.391 837.862 681.427 838.008 681.5V682.844ZM842.695 690.156C841.549 690.156 840.617 689.781 839.898 689.031C839.18 688.276 838.82 687.268 838.82 686.008V685.742C838.82 684.904 838.979 684.156 839.297 683.5C839.62 682.839 840.068 682.323 840.641 681.953C841.219 681.578 841.844 681.391 842.516 681.391C843.615 681.391 844.469 681.753 845.078 682.477C845.688 683.201 845.992 684.237 845.992 685.586V686.188H840.266C840.286 687.021 840.529 687.695 840.992 688.211C841.461 688.721 842.055 688.977 842.773 688.977C843.284 688.977 843.716 688.872 844.07 688.664C844.424 688.456 844.734 688.18 845 687.836L845.883 688.523C845.174 689.612 844.112 690.156 842.695 690.156ZM842.516 682.578C841.932 682.578 841.443 682.792 841.047 683.219C840.651 683.641 840.406 684.234 840.312 685H844.547V684.891C844.505 684.156 844.307 683.589 843.953 683.188C843.599 682.781 843.12 682.578 842.516 682.578ZM851.062 688.977C851.578 688.977 852.029 688.82 852.414 688.508C852.799 688.195 853.013 687.805 853.055 687.336H854.422C854.396 687.82 854.229 688.281 853.922 688.719C853.615 689.156 853.203 689.505 852.688 689.766C852.177 690.026 851.635 690.156 851.062 690.156C849.911 690.156 848.995 689.773 848.312 689.008C847.635 688.237 847.297 687.185 847.297 685.852V685.609C847.297 684.786 847.448 684.055 847.75 683.414C848.052 682.773 848.484 682.276 849.047 681.922C849.615 681.568 850.284 681.391 851.055 681.391C852.003 681.391 852.789 681.674 853.414 682.242C854.044 682.81 854.38 683.547 854.422 684.453H853.055C853.013 683.906 852.805 683.458 852.43 683.109C852.06 682.755 851.602 682.578 851.055 682.578C850.32 682.578 849.75 682.844 849.344 683.375C848.943 683.901 848.742 684.664 848.742 685.664V685.938C848.742 686.911 848.943 687.661 849.344 688.188C849.745 688.714 850.318 688.977 851.062 688.977ZM859.555 690.156C858.409 690.156 857.477 689.781 856.758 689.031C856.039 688.276 855.68 687.268 855.68 686.008V685.742C855.68 684.904 855.839 684.156 856.156 683.5C856.479 682.839 856.927 682.323 857.5 681.953C858.078 681.578 858.703 681.391 859.375 681.391C860.474 681.391 861.328 681.753 861.938 682.477C862.547 683.201 862.852 684.237 862.852 685.586V686.188H857.125C857.146 687.021 857.388 687.695 857.852 688.211C858.32 688.721 858.914 688.977 859.633 688.977C860.143 688.977 860.576 688.872 860.93 688.664C861.284 688.456 861.594 688.18 861.859 687.836L862.742 688.523C862.034 689.612 860.971 690.156 859.555 690.156ZM859.375 682.578C858.792 682.578 858.302 682.792 857.906 683.219C857.51 683.641 857.266 684.234 857.172 685H861.406V684.891C861.365 684.156 861.167 683.589 860.812 683.188C860.458 682.781 859.979 682.578 859.375 682.578ZM866.102 690H864.656V681.547H866.102V690ZM864.539 679.305C864.539 679.07 864.609 678.872 864.75 678.711C864.896 678.549 865.109 678.469 865.391 678.469C865.672 678.469 865.885 678.549 866.031 678.711C866.177 678.872 866.25 679.07 866.25 679.305C866.25 679.539 866.177 679.734 866.031 679.891C865.885 680.047 865.672 680.125 865.391 680.125C865.109 680.125 864.896 680.047 864.75 679.891C864.609 679.734 864.539 679.539 864.539 679.305ZM875.562 685.867C875.562 687.154 875.268 688.19 874.68 688.977C874.091 689.763 873.294 690.156 872.289 690.156C871.263 690.156 870.456 689.831 869.867 689.18V693.25H868.422V681.547H869.742L869.812 682.484C870.401 681.755 871.219 681.391 872.266 681.391C873.281 681.391 874.083 681.773 874.672 682.539C875.266 683.305 875.562 684.37 875.562 685.734V685.867ZM874.117 685.703C874.117 684.75 873.914 683.997 873.508 683.445C873.102 682.893 872.544 682.617 871.836 682.617C870.961 682.617 870.305 683.005 869.867 683.781V687.82C870.299 688.591 870.961 688.977 871.852 688.977C872.544 688.977 873.094 688.703 873.5 688.156C873.911 687.604 874.117 686.786 874.117 685.703ZM879.367 679.5V681.547H880.945V682.664H879.367V687.906C879.367 688.245 879.438 688.5 879.578 688.672C879.719 688.839 879.958 688.922 880.297 688.922C880.464 688.922 880.693 688.891 880.984 688.828V690C880.604 690.104 880.234 690.156 879.875 690.156C879.229 690.156 878.742 689.961 878.414 689.57C878.086 689.18 877.922 688.625 877.922 687.906V682.664H876.383V681.547H877.922V679.5H879.367ZM887.562 687.758C887.562 687.367 887.414 687.065 887.117 686.852C886.826 686.633 886.312 686.445 885.578 686.289C884.849 686.133 884.268 685.945 883.836 685.727C883.409 685.508 883.091 685.247 882.883 684.945C882.68 684.643 882.578 684.284 882.578 683.867C882.578 683.174 882.87 682.589 883.453 682.109C884.042 681.63 884.792 681.391 885.703 681.391C886.661 681.391 887.438 681.638 888.031 682.133C888.63 682.628 888.93 683.26 888.93 684.031H887.477C887.477 683.635 887.307 683.294 886.969 683.008C886.635 682.721 886.214 682.578 885.703 682.578C885.177 682.578 884.766 682.693 884.469 682.922C884.172 683.151 884.023 683.451 884.023 683.82C884.023 684.169 884.161 684.432 884.438 684.609C884.714 684.786 885.211 684.956 885.93 685.117C886.654 685.279 887.24 685.471 887.688 685.695C888.135 685.919 888.466 686.19 888.68 686.508C888.898 686.82 889.008 687.203 889.008 687.656C889.008 688.411 888.706 689.018 888.102 689.477C887.497 689.93 886.714 690.156 885.75 690.156C885.073 690.156 884.474 690.036 883.953 689.797C883.432 689.557 883.023 689.224 882.727 688.797C882.435 688.365 882.289 687.898 882.289 687.398H883.734C883.76 687.883 883.953 688.268 884.312 688.555C884.677 688.836 885.156 688.977 885.75 688.977C886.297 688.977 886.734 688.867 887.062 688.648C887.396 688.424 887.562 688.128 887.562 687.758Z" fill="#2F2F2F"/>
</svg>
