<svg xmlns="http://www.w3.org/2000/svg" width="1150" height="896" fill="none" xmlns:v="https://vecta.io/nano"><g fill="#2f2f2f"><circle r="3" transform="matrix(0 1 1 0 102 645)"/><circle r="3" transform="matrix(0 1 1 0 642 590)"/></g><path d="M87 844V648a3 3 0 0 1 3-3h12m540 199V589" stroke="#2f2f2f"/><g fill="#2f2f2f"><path d="M40.25 863h-1.5v-11.375h1.5V863zm3.891-8.453l.047 1.062c.646-.812 1.49-1.218 2.531-1.218 1.786 0 2.687 1.007 2.703 3.023V863h-1.445v-5.594c-.005-.609-.146-1.06-.422-1.351-.271-.292-.695-.438-1.273-.438-.469 0-.88.125-1.234.375s-.63.578-.828.985V863h-1.445v-8.453h1.367zm10.25 6.492l2.094-6.492h1.477L54.93 863h-1.102l-3.062-8.453h1.477l2.148 6.492zm4.453-2.344c0-.828.161-1.573.484-2.234.328-.662.781-1.172 1.359-1.531.583-.36 1.247-.539 1.992-.539 1.151 0 2.081.398 2.789 1.195.713.797 1.07 1.857 1.07 3.18v.101c0 .823-.159 1.563-.477 2.219-.312.651-.763 1.159-1.352 1.523-.583.365-1.255.547-2.016.547-1.146 0-2.076-.398-2.789-1.195-.708-.797-1.062-1.852-1.062-3.164v-.102zm1.453.172c0 .938.216 1.69.648 2.258.438.568 1.021.852 1.75.852.734 0 1.318-.287 1.75-.86s.648-1.385.648-2.422c0-.927-.221-1.677-.664-2.25-.437-.578-1.021-.867-1.75-.867-.714 0-1.289.284-1.727.852s-.656 1.38-.656 2.437zM69.922 863h-1.445v-8.453h1.445V863zm-1.562-10.695a.87.87 0 0 1 .211-.594c.146-.162.359-.242.641-.242s.495.08.641.242.219.359.219.594-.073.429-.219.586-.359.234-.641.234-.495-.078-.641-.234c-.141-.157-.211-.352-.211-.586zm7.273 9.672c.516 0 .966-.157 1.352-.469s.599-.703.641-1.172h1.367c-.026.484-.193.945-.5 1.383s-.719.786-1.234 1.047a3.53 3.53 0 0 1-1.625.39c-1.151 0-2.068-.383-2.75-1.148-.677-.771-1.016-1.823-1.016-3.156v-.243c0-.823.151-1.554.453-2.195s.734-1.138 1.297-1.492c.568-.354 1.237-.531 2.008-.531.948 0 1.734.283 2.359.851.63.568.966 1.305 1.008 2.211h-1.367c-.042-.547-.25-.995-.625-1.344a1.91 1.91 0 0 0-1.375-.531c-.734 0-1.305.266-1.711.797-.401.526-.602 1.289-.602 2.289v.274c0 .973.201 1.723.602 2.25s.974.789 1.719.789zm8.492 1.179c-1.146 0-2.078-.375-2.797-1.125s-1.078-1.763-1.078-3.023v-.266c0-.838.159-1.586.477-2.242.323-.661.771-1.177 1.344-1.547a3.38 3.38 0 0 1 1.875-.562c1.099 0 1.953.362 2.563 1.086s.914 1.76.914 3.109v.602h-5.727c.021.833.263 1.507.727 2.023.469.51 1.063.766 1.781.766.51 0 .943-.105 1.297-.313a3.25 3.25 0 0 0 .93-.828l.883.687c-.708 1.089-1.771 1.633-3.187 1.633zm-.18-7.578a1.92 1.92 0 0 0-1.469.641c-.396.422-.641 1.015-.734 1.781h4.234v-.109c-.042-.735-.24-1.302-.594-1.703-.354-.407-.833-.61-1.437-.61zm11.086-3.078v2.047h1.578v1.117h-1.578v5.242c0 .339.07.594.211.766s.38.25.719.25c.167 0 .396-.031.688-.094V863c-.38.104-.75.156-1.109.156-.646 0-1.133-.195-1.461-.586s-.492-.945-.492-1.664v-5.242h-1.539v-1.117h1.539V852.5h1.445zm7.36 3.344c-.219-.037-.456-.055-.711-.055-.948 0-1.591.404-1.93 1.211v6h-1.445v-8.453h1.406l.023.976c.474-.755 1.146-1.132 2.016-1.132.281 0 .495.036.641.109v1.344zm6.242 7.156c-.084-.167-.151-.464-.203-.891-.672.698-1.474 1.047-2.407 1.047-.833 0-1.518-.234-2.054-.703-.531-.474-.797-1.073-.797-1.797 0-.88.333-1.562 1-2.047s1.614-.734 2.828-.734h1.406v-.664c0-.505-.151-.906-.453-1.203-.302-.302-.747-.453-1.336-.453-.515 0-.948.13-1.297.39s-.523.576-.523.946h-1.453c0-.422.148-.829.445-1.219a3.09 3.09 0 0 1 1.219-.938c.515-.229 1.081-.343 1.695-.343.974 0 1.737.244 2.289.734.552.484.839 1.154.86 2.008v3.89c0 .776.099 1.394.296 1.852V863h-1.515zm-2.399-1.102a2.54 2.54 0 0 0 1.289-.351c.407-.235.701-.539.883-.914v-1.735h-1.133c-1.77 0-2.656.519-2.656 1.555 0 .453.151.807.453 1.063s.69.382 1.164.382zm9.274.079c.515 0 .966-.157 1.351-.469s.599-.703.641-1.172h1.367c-.026.484-.193.945-.5 1.383s-.719.786-1.234 1.047-1.052.39-1.625.39c-1.151 0-2.068-.383-2.75-1.148-.677-.771-1.016-1.823-1.016-3.156v-.243c0-.823.151-1.554.453-2.195s.735-1.138 1.297-1.492c.568-.354 1.237-.531 2.008-.531.948 0 1.734.283 2.359.851.631.568.967 1.305 1.008 2.211H117.5c-.042-.547-.25-.995-.625-1.344a1.91 1.91 0 0 0-1.375-.531c-.734 0-1.305.266-1.711.797s-.601 1.289-.601 2.289v.274c0 .973.2 1.723.601 2.25s.974.789 1.719.789zm7.344-2.891l-.907.945V863H120.5v-12h1.445v7.258l.774-.93 2.633-2.781h1.757l-3.289 3.531 3.672 4.922h-1.695l-2.945-3.914zm9.101 4.07c-1.146 0-2.078-.375-2.797-1.125s-1.078-1.763-1.078-3.023v-.266c0-.838.159-1.586.477-2.242s.771-1.177 1.343-1.547c.579-.375 1.204-.562 1.875-.562 1.099 0 1.954.362 2.563 1.086s.914 1.76.914 3.109v.602h-5.727c.021.833.263 1.507.727 2.023.469.51 1.062.766 1.781.766.511 0 .943-.105 1.297-.313s.664-.484.93-.828l.883.687c-.709 1.089-1.771 1.633-3.188 1.633zm-.18-7.578a1.92 1.92 0 0 0-1.468.641c-.396.422-.641 1.015-.735 1.781h4.235v-.109c-.042-.735-.24-1.302-.594-1.703-.354-.407-.833-.61-1.438-.61zm4.805 3.125c0-1.297.307-2.338.922-3.125s1.419-1.187 2.414-1.187 1.774.338 2.352 1.015V851h1.445v12h-1.328l-.071-.906c-.578.708-1.382 1.062-2.414 1.062-.979 0-1.778-.401-2.398-1.203s-.922-1.849-.922-3.141v-.109zm1.445.164c0 .959.198 1.709.594 2.25s.943.813 1.641.813c.916 0 1.586-.412 2.008-1.235v-3.883c-.433-.796-1.097-1.195-1.993-1.195-.708 0-1.26.274-1.656.821s-.594 1.356-.594 2.429zm13.868-6.367v2.047h1.578v1.117h-1.578v5.242c0 .339.07.594.211.766s.38.25.718.25c.167 0 .396-.031.688-.094V863c-.38.104-.75.156-1.11.156-.645 0-1.132-.195-1.46-.586s-.493-.945-.493-1.664v-5.242h-1.539v-1.117h1.539V852.5h1.446zm4.843 10.5h-1.445v-8.453h1.445V863zm-1.562-10.695a.87.87 0 0 1 .211-.594c.146-.162.359-.242.64-.242s.495.08.641.242a.85.85 0 0 1 .219.594c0 .234-.073.429-.219.586s-.359.234-.641.234-.494-.078-.64-.234-.211-.352-.211-.586zm5.242 2.242l.039.937c.62-.729 1.456-1.093 2.508-1.093 1.182 0 1.987.453 2.414 1.359.281-.406.646-.734 1.094-.984s.987-.375 1.601-.375c1.854 0 2.797.981 2.828 2.945V863h-1.445v-5.578c0-.604-.138-1.055-.414-1.352-.276-.302-.74-.453-1.391-.453-.536 0-.981.162-1.336.485-.354.317-.559.747-.617 1.289V863h-1.453v-5.539c0-1.229-.601-1.844-1.804-1.844-.948 0-1.597.404-1.946 1.211V863h-1.445v-8.453h1.367zm16.18 8.609c-1.146 0-2.078-.375-2.797-1.125s-1.078-1.763-1.078-3.023v-.266c0-.838.159-1.586.476-2.242.323-.661.771-1.177 1.344-1.547a3.38 3.38 0 0 1 1.875-.562c1.099 0 1.953.362 2.563 1.086s.914 1.76.914 3.109v.602h-5.727c.021.833.263 1.507.727 2.023.468.51 1.062.766 1.781.766.51 0 .943-.105 1.297-.313a3.24 3.24 0 0 0 .929-.828l.883.687c-.708 1.089-1.771 1.633-3.187 1.633zm-.18-7.578c-.583 0-1.073.214-1.469.641-.396.422-.64 1.015-.734 1.781h4.234v-.109c-.041-.735-.239-1.302-.593-1.703-.355-.407-.834-.61-1.438-.61zM190.758 863c-.084-.167-.151-.464-.203-.891-.672.698-1.474 1.047-2.407 1.047-.833 0-1.518-.234-2.054-.703a2.3 2.3 0 0 1-.797-1.797c0-.88.333-1.562 1-2.047s1.614-.734 2.828-.734h1.406v-.664c0-.505-.151-.906-.453-1.203-.302-.302-.747-.453-1.336-.453-.515 0-.948.13-1.297.39s-.523.576-.523.946h-1.453c0-.422.148-.829.445-1.219a3.09 3.09 0 0 1 1.219-.938c.515-.229 1.081-.343 1.695-.343.974 0 1.737.244 2.289.734.552.484.839 1.154.86 2.008v3.89c0 .776.099 1.394.296 1.852V863h-1.515zm-2.399-1.102c.453 0 .883-.117 1.289-.351s.701-.539.883-.914v-1.735h-1.133c-1.77 0-2.656.519-2.656 1.555 0 .453.151.807.453 1.063s.69.382 1.164.382zm7.25-7.351l.047 1.062a3.08 3.08 0 0 1 2.532-1.218c1.786 0 2.687 1.007 2.703 3.023V863h-1.446v-5.594c-.005-.609-.146-1.06-.422-1.351-.27-.292-.695-.438-1.273-.438-.469 0-.88.125-1.234.375s-.631.578-.828.985V863h-1.446v-8.453h1.367zm7.11 4.156c0-1.297.307-2.338.922-3.125s1.419-1.187 2.414-1.187c.989 0 1.773.338 2.351 1.015V851h1.446v12h-1.329l-.07-.906c-.578.708-1.383 1.062-2.414 1.062-.979 0-1.779-.401-2.398-1.203s-.922-1.849-.922-3.141v-.109zm1.445.164c0 .959.198 1.709.594 2.25s.943.813 1.64.813c.917 0 1.586-.412 2.008-1.235v-3.883c-.432-.796-1.096-1.195-1.992-1.195-.708 0-1.26.274-1.656.821s-.594 1.356-.594 2.429zm15.414 4.289c-1.146 0-2.078-.375-2.797-1.125s-1.078-1.763-1.078-3.023v-.266c0-.838.159-1.586.477-2.242s.771-1.177 1.343-1.547c.579-.375 1.204-.562 1.875-.562 1.099 0 1.954.362 2.563 1.086s.914 1.76.914 3.109v.602h-5.727c.021.833.263 1.507.727 2.023.469.51 1.063.766 1.781.766.511 0 .943-.105 1.297-.313s.664-.484.93-.828l.883.687c-.709 1.089-1.771 1.633-3.188 1.633zm-.18-7.578a1.92 1.92 0 0 0-1.468.641c-.396.422-.641 1.015-.735 1.781h4.235v-.109c-.042-.735-.24-1.302-.594-1.703-.354-.407-.833-.61-1.438-.61zm7.993 2.055l1.875-3.086h1.687l-2.765 4.18 2.851 4.273h-1.672l-1.953-3.164-1.953 3.164h-1.68l2.852-4.273-2.766-4.18h1.672l1.852 3.086zm12.242 1.234c0 1.287-.294 2.323-.883 3.11s-1.385 1.179-2.391 1.179c-1.026 0-1.833-.325-2.421-.976v4.07h-1.446v-11.703h1.32l.071.937c.588-.729 1.406-1.093 2.453-1.093 1.016 0 1.818.382 2.406 1.148.594.766.891 1.831.891 3.195v.133zm-1.445-.164c0-.953-.204-1.706-.61-2.258a1.96 1.96 0 0 0-1.672-.828c-.875 0-1.531.388-1.968 1.164v4.039c.432.771 1.093 1.157 1.984 1.157.693 0 1.242-.274 1.648-.821.412-.552.618-1.37.618-2.453zm6.796 4.453c-1.145 0-2.078-.375-2.796-1.125s-1.079-1.763-1.079-3.023v-.266c0-.838.159-1.586.477-2.242s.771-1.177 1.344-1.547a3.38 3.38 0 0 1 1.875-.562c1.099 0 1.953.362 2.562 1.086s.914 1.76.914 3.109v.602h-5.726c.021.833.263 1.507.726 2.023.469.51 1.063.766 1.781.766.511 0 .943-.105 1.297-.313s.664-.484.93-.828l.883.687c-.708 1.089-1.771 1.633-3.188 1.633zm-.179-7.578a1.92 1.92 0 0 0-1.469.641c-.396.422-.641 1.015-.734 1.781h4.234v-.109c-.042-.735-.24-1.302-.594-1.703-.354-.407-.833-.61-1.437-.61zm6.523-1.031l.047 1.062a3.08 3.08 0 0 1 2.531-1.218c1.787 0 2.688 1.007 2.703 3.023V863h-1.445v-5.594c-.005-.609-.146-1.06-.422-1.351-.271-.292-.695-.438-1.273-.438-.469 0-.88.125-1.235.375s-.63.578-.828.985V863h-1.445v-8.453h1.367zm12.383 6.211a1.05 1.05 0 0 0-.445-.906c-.292-.219-.805-.407-1.539-.563s-1.31-.344-1.743-.562c-.427-.219-.744-.48-.953-.782-.203-.302-.304-.661-.304-1.078 0-.693.291-1.278.875-1.758s1.338-.718 2.25-.718c.958 0 1.734.247 2.328.742a2.35 2.35 0 0 1 .898 1.898h-1.453c0-.396-.169-.737-.508-1.023-.333-.287-.755-.43-1.265-.43-.526 0-.938.115-1.235.344a1.08 1.08 0 0 0-.445.898c0 .349.138.612.414.789s.773.347 1.492.508c.724.162 1.31.354 1.758.578s.779.495.992.813c.219.312.328.695.328 1.148 0 .755-.302 1.362-.906 1.821-.604.453-1.388.679-2.352.679-.677 0-1.276-.12-1.796-.359s-.93-.573-1.227-1a2.45 2.45 0 0 1-.437-1.399h1.445c.026.485.219.87.578 1.157.365.281.844.422 1.437.422.547 0 .985-.11 1.313-.329.333-.224.5-.52.5-.89zm6.836 2.398c-1.146 0-2.078-.375-2.797-1.125s-1.078-1.763-1.078-3.023v-.266c0-.838.159-1.586.476-2.242.323-.661.771-1.177 1.344-1.547a3.38 3.38 0 0 1 1.875-.562c1.099 0 1.953.362 2.563 1.086s.914 1.76.914 3.109v.602h-5.727c.021.833.263 1.507.727 2.023.468.51 1.062.766 1.781.766.51 0 .943-.105 1.297-.313s.664-.484.93-.828l.882.687c-.708 1.089-1.77 1.633-3.187 1.633zm-.18-7.578c-.583 0-1.073.214-1.469.641-.395.422-.64 1.015-.734 1.781h4.234v-.109c-.041-.735-.239-1.302-.593-1.703-.354-.407-.834-.61-1.438-.61zm10.078 5.18c0-.391-.148-.693-.445-.906-.292-.219-.805-.407-1.539-.563s-1.31-.344-1.742-.562-.745-.48-.953-.782-.305-.661-.305-1.078c0-.693.292-1.278.875-1.758s1.338-.718 2.25-.718c.958 0 1.734.247 2.328.742a2.35 2.35 0 0 1 .898 1.898h-1.453c0-.396-.169-.737-.507-1.023s-.756-.43-1.266-.43c-.526 0-.938.115-1.234.344a1.08 1.08 0 0 0-.446.898c0 .349.138.612.414.789s.774.347 1.492.508c.724.162 1.31.354 1.758.578s.779.495.992.813c.219.312.329.695.329 1.148a2.17 2.17 0 0 1-.907 1.821c-.604.453-1.388.679-2.351.679-.677 0-1.276-.12-1.797-.359s-.93-.573-1.227-1c-.291-.432-.437-.899-.437-1.399h1.445c.026.485.219.87.578 1.157.365.281.844.422 1.438.422.547 0 .984-.11 1.312-.329.334-.224.5-.52.5-.89z"/><path d="M560.086 857.742h-4.93v4.031h5.727V863h-7.227v-11.375h7.149v1.234h-5.649v3.657h4.93v1.226zm1.93.961c0-1.297.307-2.338.922-3.125s1.419-1.187 2.414-1.187c.989 0 1.773.338 2.351 1.015V851h1.445v12h-1.328l-.07-.906c-.578.708-1.383 1.062-2.414 1.062-.979 0-1.779-.401-2.398-1.203s-.922-1.849-.922-3.141v-.109zm1.445.164c0 .959.198 1.709.594 2.25s.942.813 1.64.813c.917 0 1.586-.412 2.008-1.235v-3.883c-.432-.796-1.096-1.195-1.992-1.195-.708 0-1.26.274-1.656.821s-.594 1.356-.594 2.429zm9.508 4.133h-1.446v-8.453h1.446V863zm-1.563-10.695c0-.235.071-.433.211-.594.146-.162.36-.242.641-.242s.495.08.64.242a.85.85 0 0 1 .219.594c0 .234-.073.429-.219.586s-.359.234-.64.234-.495-.078-.641-.234c-.14-.157-.211-.352-.211-.586zm5.844.195v2.047h1.578v1.117h-1.578v5.242c0 .339.07.594.211.766s.38.25.719.25c.166 0 .396-.031.687-.094V863c-.38.104-.75.156-1.109.156-.646 0-1.133-.195-1.461-.586s-.492-.945-.492-1.664v-5.242h-1.539v-1.117h1.539V852.5h1.445zm12.461 10.5c-.083-.167-.151-.464-.203-.891-.672.698-1.474 1.047-2.406 1.047-.834 0-1.519-.234-2.055-.703s-.797-1.073-.797-1.797c0-.88.333-1.562 1-2.047s1.615-.734 2.828-.734h1.406v-.664c0-.505-.151-.906-.453-1.203-.302-.302-.747-.453-1.336-.453-.515 0-.948.13-1.297.39s-.523.576-.523.946h-1.453c0-.422.148-.829.445-1.219.302-.396.709-.708 1.219-.938.516-.229 1.081-.343 1.695-.343.974 0 1.737.244 2.289.734.552.484.839 1.154.86 2.008v3.89c0 .776.099 1.394.297 1.852V863h-1.516zm-2.399-1.102c.454 0 .883-.117 1.29-.351s.7-.539.882-.914v-1.735h-1.132c-1.771 0-2.657.519-2.657 1.555 0 .453.151.807.453 1.063s.691.382 1.164.382zm7.25-7.351l.047 1.062a3.08 3.08 0 0 1 2.532-1.218c1.786 0 2.687 1.007 2.703 3.023V863h-1.446v-5.594c-.005-.609-.145-1.06-.421-1.351-.271-.292-.696-.438-1.274-.438-.469 0-.88.125-1.234.375s-.63.578-.828.985V863h-1.446v-8.453h1.367zm7.11 4.156c0-1.297.307-2.338.922-3.125s1.419-1.187 2.414-1.187c.989 0 1.773.338 2.351 1.015V851h1.446v12h-1.328l-.071-.906c-.578.708-1.383 1.062-2.414 1.062-.979 0-1.778-.401-2.398-1.203s-.922-1.849-.922-3.141v-.109zm1.445.164c0 .959.198 1.709.594 2.25s.943.813 1.641.813c.916 0 1.586-.412 2.007-1.235v-3.883c-.432-.796-1.096-1.195-1.992-1.195-.708 0-1.26.274-1.656.821s-.594 1.356-.594 2.429zm15.297 3.11c.516 0 .966-.157 1.352-.469s.599-.703.64-1.172h1.367c-.026.484-.192.945-.5 1.383a3.29 3.29 0 0 1-1.234 1.047 3.53 3.53 0 0 1-1.625.39c-1.151 0-2.068-.383-2.75-1.148-.677-.771-1.016-1.823-1.016-3.156v-.243c0-.823.151-1.554.454-2.195s.734-1.138 1.296-1.492c.568-.354 1.237-.531 2.008-.531.948 0 1.735.283 2.36.851s.966 1.305 1.007 2.211h-1.367c-.041-.547-.25-.995-.625-1.344a1.91 1.91 0 0 0-1.375-.531c-.734 0-1.304.266-1.711.797-.401.526-.601 1.289-.601 2.289v.274c0 .973.2 1.723.601 2.25s.974.789 1.719.789zm10.203.187c-.562.662-1.388.992-2.476.992-.901 0-1.589-.26-2.063-.781-.469-.526-.706-1.302-.711-2.328v-5.5h1.445v5.461c0 1.281.521 1.922 1.563 1.922 1.104 0 1.839-.412 2.203-1.235v-6.148h1.445V863h-1.375l-.031-.836zm8.531-1.406c0-.391-.148-.693-.445-.906-.292-.219-.805-.407-1.539-.563s-1.31-.344-1.742-.562-.745-.48-.953-.782-.305-.661-.305-1.078c0-.693.292-1.278.875-1.758.589-.479 1.339-.718 2.25-.718.958 0 1.734.247 2.328.742a2.35 2.35 0 0 1 .899 1.898h-1.454c0-.396-.169-.737-.507-1.023s-.756-.43-1.266-.43c-.526 0-.937.115-1.234.344a1.08 1.08 0 0 0-.446.898c0 .349.138.612.414.789s.774.347 1.493.508c.724.162 1.31.354 1.757.578s.779.495.993.813c.218.312.328.695.328 1.148 0 .755-.302 1.362-.906 1.821-.605.453-1.389.679-2.352.679-.677 0-1.276-.12-1.797-.359s-.93-.573-1.227-1c-.291-.432-.437-.899-.437-1.399h1.445c.026.485.219.87.578 1.157.365.281.844.422 1.438.422.547 0 .984-.11 1.312-.329.334-.224.5-.52.5-.89zm5.29-8.258v2.047h1.578v1.117h-1.578v5.242c0 .339.07.594.21.766s.381.25.719.25c.167 0 .396-.031.688-.094V863a4.2 4.2 0 0 1-1.11.156c-.646 0-1.133-.195-1.461-.586s-.492-.945-.492-1.664v-5.242h-1.539v-1.117h1.539V852.5h1.446zm2.734 6.195c0-.828.161-1.573.484-2.234.328-.662.782-1.172 1.36-1.531.583-.36 1.247-.539 1.992-.539 1.151 0 2.081.398 2.789 1.195s1.07 1.857 1.07 3.18v.101c0 .823-.159 1.563-.476 2.219-.313.651-.763 1.159-1.352 1.523-.583.365-1.255.547-2.016.547-1.145 0-2.075-.398-2.789-1.195-.708-.797-1.062-1.852-1.062-3.164v-.102zm1.453.172c0 .938.216 1.69.648 2.258.438.568 1.021.852 1.75.852.735 0 1.318-.287 1.75-.86s.649-1.385.649-2.422c0-.927-.221-1.677-.664-2.25-.438-.578-1.021-.867-1.75-.867-.714 0-1.289.284-1.727.852s-.656 1.38-.656 2.437zm9.414-4.32l.039.937c.62-.729 1.456-1.093 2.508-1.093 1.182 0 1.987.453 2.414 1.359.281-.406.646-.734 1.094-.984s.987-.375 1.601-.375c1.854 0 2.797.981 2.828 2.945V863h-1.445v-5.578c0-.604-.138-1.055-.414-1.352-.276-.302-.74-.453-1.391-.453-.536 0-.981.162-1.335.485-.355.317-.56.747-.618 1.289V863h-1.453v-5.539c0-1.229-.601-1.844-1.805-1.844-.947 0-1.596.404-1.945 1.211V863h-1.445v-8.453h1.367zM670.281 863h-1.445v-8.453h1.445V863zm-1.562-10.695a.87.87 0 0 1 .211-.594c.146-.162.359-.242.64-.242s.495.08.641.242a.85.85 0 0 1 .219.594c0 .234-.073.429-.219.586s-.359.234-.641.234-.494-.078-.64-.234c-.141-.157-.211-.352-.211-.586zm5.242 9.515h4.945V863h-6.711v-1.062l4.664-6.196h-4.593v-1.195h6.406v1.023l-4.711 6.25zm9.961 1.336c-1.146 0-2.078-.375-2.797-1.125s-1.078-1.763-1.078-3.023v-.266c0-.838.159-1.586.476-2.242.323-.661.771-1.177 1.344-1.547a3.38 3.38 0 0 1 1.875-.562c1.099 0 1.953.362 2.563 1.086s.914 1.76.914 3.109v.602h-5.727c.021.833.263 1.507.727 2.023.469.51 1.062.766 1.781.766.51 0 .943-.105 1.297-.313s.664-.484.93-.828l.882.687c-.708 1.089-1.77 1.633-3.187 1.633zm-.18-7.578c-.583 0-1.073.214-1.469.641-.395.422-.64 1.015-.734 1.781h4.234v-.109c-.041-.735-.239-1.302-.593-1.703-.354-.407-.834-.61-1.438-.61zM694.438 863h-1.446v-8.453h1.446V863zm-1.563-10.695a.87.87 0 0 1 .211-.594c.146-.162.359-.242.641-.242s.494.08.64.242a.85.85 0 0 1 .219.594c0 .234-.073.429-.219.586s-.359.234-.64.234-.495-.078-.641-.234-.211-.352-.211-.586zm5.844.195v2.047h1.578v1.117h-1.578v5.242c0 .339.07.594.211.766s.38.25.718.25c.167 0 .396-.031.688-.094V863c-.38.104-.75.156-1.109.156-.646 0-1.133-.195-1.461-.586s-.493-.945-.493-1.664v-5.242h-1.539v-1.117h1.539V852.5h1.446zm6.781 10.656c-1.146 0-2.078-.375-2.797-1.125s-1.078-1.763-1.078-3.023v-.266c0-.838.159-1.586.477-2.242s.77-1.177 1.343-1.547a3.38 3.38 0 0 1 1.875-.562c1.099 0 1.953.362 2.563 1.086s.914 1.76.914 3.109v.602h-5.727c.021.833.263 1.507.727 2.023.469.51 1.062.766 1.781.766.511 0 .943-.105 1.297-.313s.664-.484.93-.828l.883.687c-.709 1.089-1.771 1.633-3.188 1.633zm-.18-7.578a1.92 1.92 0 0 0-1.468.641c-.396.422-.641 1.015-.735 1.781h4.235v-.109c-.042-.735-.24-1.302-.594-1.703-.354-.407-.834-.61-1.438-.61zm6.516-1.031l.039.937c.62-.729 1.456-1.093 2.508-1.093 1.182 0 1.987.453 2.414 1.359.281-.406.646-.734 1.094-.984.453-.25.987-.375 1.601-.375 1.854 0 2.797.981 2.828 2.945V863h-1.445v-5.578c0-.604-.138-1.055-.414-1.352-.276-.302-.74-.453-1.391-.453-.536 0-.981.162-1.336.485-.354.317-.56.747-.617 1.289V863h-1.453v-5.539c0-1.229-.602-1.844-1.805-1.844-.948 0-1.596.404-1.945 1.211V863h-1.445v-8.453h1.367zm17.594 6.211c0-.391-.149-.693-.446-.906-.291-.219-.804-.407-1.539-.563-.729-.156-1.31-.344-1.742-.562s-.745-.48-.953-.782-.305-.661-.305-1.078c0-.693.292-1.278.875-1.758.589-.479 1.339-.718 2.25-.718.959 0 1.735.247 2.328.742a2.35 2.35 0 0 1 .899 1.898h-1.453c0-.396-.17-.737-.508-1.023s-.755-.43-1.266-.43c-.526 0-.937.115-1.234.344a1.08 1.08 0 0 0-.445.898c0 .349.138.612.414.789s.773.347 1.492.508 1.31.354 1.758.578.778.495.992.813c.219.312.328.695.328 1.148 0 .755-.302 1.362-.906 1.821-.604.453-1.388.679-2.352.679-.677 0-1.276-.12-1.797-.359s-.929-.573-1.226-1a2.45 2.45 0 0 1-.438-1.399h1.446a1.51 1.51 0 0 0 .578 1.157c.364.281.843.422 1.437.422.547 0 .985-.11 1.313-.329.333-.224.5-.52.5-.89z"/><circle r="3" transform="matrix(0 -1 -1 0 640 243)"/></g><path d="M640.513 52v191" stroke="#2f2f2f"/><g fill="#2f2f2f"><path d="M558.078 42h-1.5V30.625h1.5V42zm7.445-2.242c0-.391-.148-.693-.445-.906-.292-.219-.805-.406-1.539-.562s-1.31-.344-1.742-.562-.745-.479-.953-.781-.305-.661-.305-1.078c0-.693.292-1.279.875-1.758.589-.479 1.339-.719 2.25-.719.958 0 1.734.247 2.328.742a2.35 2.35 0 0 1 .899 1.898h-1.453c0-.396-.17-.737-.508-1.023s-.756-.43-1.266-.43c-.526 0-.937.115-1.234.344a1.08 1.08 0 0 0-.446.898c0 .349.138.612.414.789s.774.346 1.493.508c.724.161 1.31.354 1.757.578s.779.495.993.813c.218.313.328.695.328 1.148a2.17 2.17 0 0 1-.907 1.82c-.604.453-1.388.68-2.351.68-.677 0-1.276-.12-1.797-.359s-.93-.573-1.226-1a2.45 2.45 0 0 1-.438-1.398h1.445c.026.484.219.87.578 1.156.365.281.844.422 1.438.422.547 0 .984-.109 1.312-.328.334-.224.5-.521.5-.891zm8.25 0c0-.391-.148-.693-.445-.906-.292-.219-.805-.406-1.539-.562s-1.31-.344-1.742-.562-.745-.479-.953-.781-.305-.661-.305-1.078c0-.693.292-1.279.875-1.758.589-.479 1.339-.719 2.25-.719.958 0 1.734.247 2.328.742a2.35 2.35 0 0 1 .899 1.898h-1.453c0-.396-.17-.737-.508-1.023s-.756-.43-1.266-.43c-.526 0-.937.115-1.234.344a1.08 1.08 0 0 0-.446.898c0 .349.138.612.414.789s.774.346 1.493.508c.724.161 1.31.354 1.757.578s.779.495.993.813c.218.313.328.695.328 1.148a2.17 2.17 0 0 1-.907 1.82c-.604.453-1.388.68-2.351.68-.677 0-1.276-.12-1.797-.359s-.93-.573-1.226-1a2.45 2.45 0 0 1-.438-1.398h1.445c.026.484.219.87.578 1.156.365.281.844.422 1.438.422.547 0 .984-.109 1.312-.328.334-.224.5-.521.5-.891zm8.547 1.406c-.562.661-1.388.992-2.476.992-.901 0-1.589-.26-2.063-.781-.469-.526-.705-1.302-.711-2.328v-5.5h1.446v5.461c0 1.281.52 1.922 1.562 1.922 1.104 0 1.839-.411 2.203-1.234v-6.148h1.446V42h-1.375l-.032-.836zm7.118.992c-1.146 0-2.079-.375-2.797-1.125-.719-.755-1.079-1.763-1.079-3.023v-.266c0-.839.159-1.586.477-2.242.323-.661.771-1.177 1.344-1.547a3.38 3.38 0 0 1 1.875-.562c1.099 0 1.953.362 2.562 1.086s.914 1.76.914 3.109v.602h-5.726c.021.833.263 1.508.726 2.023.469.511 1.063.766 1.782.766.51 0 .942-.104 1.296-.312a3.24 3.24 0 0 0 .93-.828l.883.688c-.708 1.089-1.771 1.633-3.187 1.633zm-.18-7.578a1.92 1.92 0 0 0-1.469.641c-.396.422-.641 1.016-.734 1.781h4.234v-.109c-.042-.734-.24-1.302-.594-1.703-.354-.406-.833-.609-1.437-.609zM603.602 42c-.084-.167-.151-.464-.204-.891-.671.698-1.474 1.047-2.406 1.047-.833 0-1.518-.234-2.054-.703a2.3 2.3 0 0 1-.797-1.797c0-.88.333-1.562 1-2.047.671-.49 1.614-.734 2.828-.734h1.406v-.664c0-.505-.151-.906-.453-1.203-.302-.302-.748-.453-1.336-.453-.516 0-.948.13-1.297.391s-.523.575-.523.945h-1.454c0-.422.149-.828.446-1.219.302-.396.708-.708 1.219-.937s1.08-.344 1.695-.344c.974 0 1.737.245 2.289.734.552.484.838 1.154.859 2.008v3.891c0 .776.099 1.393.297 1.852V42h-1.515zm-2.399-1.102a2.54 2.54 0 0 0 1.289-.352c.406-.234.701-.539.883-.914v-1.734h-1.133c-1.771 0-2.656.518-2.656 1.555 0 .453.151.807.453 1.063s.69.383 1.164.383zm7.25-7.352l.047 1.063c.646-.812 1.49-1.219 2.531-1.219 1.787 0 2.688 1.008 2.703 3.023V42h-1.445v-5.594c-.005-.609-.146-1.06-.422-1.352-.271-.292-.695-.437-1.273-.437-.469 0-.88.125-1.235.375s-.63.578-.828.984V42h-1.445v-8.453h1.367zm7.109 4.156c0-1.297.308-2.338.922-3.125a2.91 2.91 0 0 1 2.414-1.187c.99 0 1.774.339 2.352 1.016V30h1.445v12h-1.328l-.07-.906c-.578.708-1.383 1.062-2.414 1.062-.979 0-1.779-.401-2.399-1.203-.614-.802-.922-1.849-.922-3.141v-.109zm1.446.164c0 .958.198 1.708.594 2.25s.942.813 1.64.813c.917 0 1.586-.411 2.008-1.234v-3.883a2.12 2.12 0 0 0-1.992-1.195c-.709 0-1.261.273-1.656.82s-.594 1.357-.594 2.43zm16.828 1.891c0-.391-.148-.693-.445-.906-.292-.219-.805-.406-1.539-.562s-1.31-.344-1.743-.562c-.427-.219-.744-.479-.953-.781-.203-.302-.304-.661-.304-1.078 0-.693.291-1.279.875-1.758s1.338-.719 2.25-.719c.958 0 1.734.247 2.328.742a2.35 2.35 0 0 1 .898 1.898h-1.453c0-.396-.169-.737-.508-1.023-.333-.286-.755-.43-1.265-.43-.526 0-.938.115-1.235.344a1.08 1.08 0 0 0-.445.898c0 .349.138.612.414.789s.773.346 1.492.508c.724.161 1.31.354 1.758.578s.779.495.992.813c.219.313.328.695.328 1.148a2.17 2.17 0 0 1-.906 1.82c-.604.453-1.388.68-2.352.68-.677 0-1.276-.12-1.796-.359s-.93-.573-1.227-1a2.45 2.45 0 0 1-.438-1.398h1.446c.026.484.219.87.578 1.156.365.281.844.422 1.437.422.547 0 .985-.109 1.313-.328.333-.224.5-.521.5-.891zm6.836 2.398c-1.146 0-2.078-.375-2.797-1.125-.719-.755-1.078-1.763-1.078-3.023v-.266c0-.839.159-1.586.476-2.242.323-.661.771-1.177 1.344-1.547a3.38 3.38 0 0 1 1.875-.562c1.099 0 1.953.362 2.563 1.086s.914 1.76.914 3.109v.602h-5.727c.021.833.263 1.508.727 2.023.469.511 1.062.766 1.781.766.51 0 .943-.104 1.297-.312s.664-.484.93-.828l.882.688c-.708 1.089-1.77 1.633-3.187 1.633zm-.18-7.578a1.92 1.92 0 0 0-1.469.641c-.395.422-.64 1.016-.734 1.781h4.234v-.109c-.041-.734-.239-1.302-.593-1.703-.354-.406-.834-.609-1.438-.609zm6.524-1.031l.046 1.063a3.08 3.08 0 0 1 2.532-1.219c1.786 0 2.687 1.008 2.703 3.023V42h-1.445v-5.594c-.006-.609-.146-1.06-.422-1.352-.271-.292-.696-.437-1.274-.437-.468 0-.88.125-1.234.375s-.63.578-.828.984V42h-1.446v-8.453h1.368zm7.109 4.156c0-1.297.307-2.338.922-3.125.614-.792 1.419-1.187 2.414-1.187s1.773.339 2.351 1.016V30h1.446v12h-1.328l-.071-.906c-.578.708-1.382 1.062-2.414 1.062-.979 0-1.778-.401-2.398-1.203s-.922-1.849-.922-3.141v-.109zm1.445.164c0 .958.198 1.708.594 2.25s.943.813 1.641.813c.916 0 1.586-.411 2.007-1.234v-3.883a2.12 2.12 0 0 0-1.992-1.195c-.708 0-1.26.273-1.656.82s-.594 1.357-.594 2.43zM669.047 42h-1.445v-8.453h1.445V42zm-1.563-10.695c0-.234.071-.432.211-.594.146-.161.36-.242.641-.242s.495.081.641.242.218.359.218.594-.073.43-.218.586-.36.234-.641.234-.495-.078-.641-.234c-.14-.156-.211-.351-.211-.586zm5.25 2.242l.047 1.063c.646-.812 1.49-1.219 2.531-1.219 1.787 0 2.688 1.008 2.704 3.023V42h-1.446v-5.594c-.005-.609-.146-1.06-.422-1.352-.27-.292-.695-.437-1.273-.437-.469 0-.88.125-1.234.375a2.54 2.54 0 0 0-.829.984V42h-1.445v-8.453h1.367zm10.25 6.492l2.094-6.492h1.477L683.523 42h-1.101l-3.063-8.453h1.477l2.148 6.492zm4.454-2.344c0-.828.161-1.573.484-2.234s.781-1.172 1.359-1.531c.584-.359 1.248-.539 1.992-.539 1.151 0 2.081.398 2.789 1.195.714.797 1.071 1.857 1.071 3.18v.102c0 .823-.159 1.563-.477 2.219-.312.651-.763 1.159-1.351 1.523s-1.256.547-2.016.547c-1.146 0-2.075-.398-2.789-1.195-.708-.797-1.062-1.852-1.062-3.164v-.102zm1.453.172c0 .938.216 1.69.648 2.258.438.568 1.021.852 1.75.852s1.318-.286 1.75-.859c.432-.578.649-1.385.649-2.422 0-.927-.222-1.677-.665-2.25a2.08 2.08 0 0 0-1.75-.867 2.07 2.07 0 0 0-1.726.852c-.438.568-.656 1.38-.656 2.438zM698.516 42h-1.446v-8.453h1.446V42zm-1.563-10.695a.87.87 0 0 1 .211-.594c.146-.161.359-.242.641-.242s.494.081.64.242.219.359.219.594-.073.43-.219.586-.359.234-.64.234-.495-.078-.641-.234a.84.84 0 0 1-.211-.586zm7.274 9.672a2.08 2.08 0 0 0 1.351-.469c.386-.312.599-.703.641-1.172h1.367c-.026.484-.193.945-.5 1.383s-.719.786-1.234 1.047a3.53 3.53 0 0 1-1.625.391c-1.151 0-2.068-.383-2.75-1.148-.678-.771-1.016-1.823-1.016-3.156v-.242c0-.823.151-1.555.453-2.195s.734-1.138 1.297-1.492 1.237-.531 2.008-.531c.948 0 1.734.284 2.359.852s.966 1.305 1.008 2.211h-1.367a1.97 1.97 0 0 0-.625-1.344 1.91 1.91 0 0 0-1.375-.531c-.735 0-1.305.266-1.711.797-.401.526-.602 1.289-.602 2.289v.273c0 .974.201 1.724.602 2.25s.974.789 1.719.789zm8.492 1.18c-1.146 0-2.078-.375-2.797-1.125-.719-.755-1.078-1.763-1.078-3.023v-.266c0-.839.159-1.586.476-2.242.323-.661.771-1.177 1.344-1.547a3.38 3.38 0 0 1 1.875-.562c1.099 0 1.953.362 2.563 1.086s.914 1.76.914 3.109v.602h-5.727c.021.833.263 1.508.727 2.023a2.31 2.31 0 0 0 1.781.766c.51 0 .943-.104 1.297-.312a3.25 3.25 0 0 0 .929-.828l.883.688c-.708 1.089-1.771 1.633-3.187 1.633zm-.18-7.578a1.92 1.92 0 0 0-1.469.641c-.396.422-.64 1.016-.734 1.781h4.234v-.109c-.041-.734-.239-1.302-.593-1.703-.355-.406-.834-.609-1.438-.609zm10.078 5.18c0-.391-.148-.693-.445-.906-.292-.219-.805-.406-1.539-.562s-1.31-.344-1.742-.562c-.427-.219-.745-.479-.953-.781s-.305-.661-.305-1.078c0-.693.291-1.279.875-1.758s1.338-.719 2.25-.719c.958 0 1.734.247 2.328.742a2.35 2.35 0 0 1 .898 1.898h-1.453c0-.396-.169-.737-.508-1.023-.333-.286-.755-.43-1.265-.43-.526 0-.938.115-1.235.344s-.445.529-.445.898c0 .349.138.612.414.789s.774.346 1.492.508c.724.161 1.31.354 1.758.578s.779.495.992.813c.219.313.328.695.328 1.148a2.17 2.17 0 0 1-.906 1.82c-.604.453-1.388.68-2.351.68-.677 0-1.276-.12-1.797-.359s-.93-.573-1.227-1c-.291-.432-.437-.898-.437-1.398h1.445c.026.484.219.87.578 1.156.365.281.844.422 1.438.422.547 0 .984-.109 1.312-.328.334-.224.5-.521.5-.891z"/><circle r="3" transform="matrix(0 -1 -1 0 1003 132)"/></g><path d="M1003 52v78.5" stroke="#2f2f2f"/><path d="M924.594 30.625l3.718 9.281 3.719-9.281h1.946V42h-1.5v-4.43l.14-4.781L928.883 42h-1.149l-3.726-9.187.148 4.758V42h-1.5V30.625h1.938zM941.617 42c-.083-.167-.151-.464-.203-.891-.672.698-1.474 1.047-2.406 1.047-.834 0-1.518-.234-2.055-.703-.531-.474-.797-1.073-.797-1.797 0-.88.334-1.562 1-2.047.672-.49 1.615-.734 2.828-.734h1.407v-.664c0-.505-.151-.906-.453-1.203-.303-.302-.748-.453-1.336-.453-.516 0-.948.13-1.297.391s-.524.575-.524.945h-1.453c0-.422.149-.828.445-1.219.303-.396.709-.708 1.219-.937a4.13 4.13 0 0 1 1.696-.344c.973 0 1.736.245 2.289.734.552.484.838 1.154.859 2.008v3.891c0 .776.099 1.393.297 1.852V42h-1.516zm-2.398-1.102a2.54 2.54 0 0 0 1.289-.352c.406-.234.7-.539.883-.914v-1.734h-1.133c-1.771 0-2.656.518-2.656 1.555 0 .453.151.807.453 1.063s.69.383 1.164.383zm7.25-7.352l.047 1.063c.645-.812 1.489-1.219 2.531-1.219 1.786 0 2.687 1.008 2.703 3.023V42h-1.445v-5.594c-.006-.609-.146-1.06-.422-1.352s-.695-.437-1.274-.437c-.468 0-.88.125-1.234.375s-.63.578-.828.984V42h-1.445v-8.453h1.367zM959.148 42c-.083-.167-.151-.464-.203-.891-.672.698-1.474 1.047-2.406 1.047-.833 0-1.518-.234-2.055-.703-.531-.474-.796-1.073-.796-1.797 0-.88.333-1.562 1-2.047.671-.49 1.614-.734 2.828-.734h1.406v-.664c0-.505-.151-.906-.453-1.203-.302-.302-.748-.453-1.336-.453-.516 0-.948.13-1.297.391s-.524.575-.524.945h-1.453c0-.422.149-.828.446-1.219.302-.396.708-.708 1.218-.937a4.13 4.13 0 0 1 1.696-.344c.974 0 1.737.245 2.289.734.552.484.838 1.154.859 2.008v3.891c0 .776.099 1.393.297 1.852V42h-1.516zm-2.398-1.102a2.54 2.54 0 0 0 1.289-.352c.406-.234.701-.539.883-.914v-1.734h-1.133c-1.771 0-2.656.518-2.656 1.555 0 .453.151.807.453 1.063s.69.383 1.164.383zm5.539-3.195c0-1.318.305-2.365.914-3.141.609-.781 1.417-1.172 2.422-1.172 1.031 0 1.836.365 2.414 1.094l.07-.937h1.321v8.25c0 1.094-.326 1.956-.977 2.586-.646.63-1.515.945-2.609.945-.61 0-1.206-.13-1.789-.391s-1.029-.617-1.336-1.07l.75-.867c.62.766 1.377 1.148 2.273 1.148.703 0 1.25-.198 1.641-.594s.594-.953.594-1.672v-.727c-.579.667-1.368 1-2.368 1-.989 0-1.791-.398-2.406-1.195-.609-.797-.914-1.883-.914-3.258zm1.453.164c0 .953.196 1.703.586 2.25.391.542.938.813 1.641.813.911 0 1.58-.414 2.008-1.242v-3.859c-.443-.807-1.107-1.211-1.993-1.211-.703 0-1.252.273-1.648.82s-.594 1.357-.594 2.43zm11.383 4.289c-1.146 0-2.078-.375-2.797-1.125-.719-.755-1.078-1.763-1.078-3.023v-.266c0-.839.159-1.586.477-2.242.322-.661.77-1.177 1.343-1.547a3.38 3.38 0 0 1 1.875-.562c1.099 0 1.953.362 2.563 1.086s.914 1.76.914 3.109v.602h-5.727c.021.833.263 1.508.727 2.023.469.511 1.062.766 1.781.766.511 0 .943-.104 1.297-.312s.664-.484.93-.828l.882.688c-.708 1.089-1.77 1.633-3.187 1.633zm-.18-7.578a1.92 1.92 0 0 0-1.468.641c-.396.422-.641 1.016-.735 1.781h4.235v-.109c-.042-.734-.24-1.302-.594-1.703-.354-.406-.834-.609-1.438-.609zM985.641 42h-1.446v-8.453h1.446V42zm-1.563-10.695a.87.87 0 0 1 .211-.594c.146-.161.359-.242.641-.242s.494.081.64.242.219.359.219.594-.073.43-.219.586-.359.234-.64.234-.495-.078-.641-.234a.84.84 0 0 1-.211-.586zm5.25 2.242l.047 1.063c.646-.812 1.49-1.219 2.531-1.219 1.787 0 2.688 1.008 2.703 3.023V42h-1.445v-5.594c-.005-.609-.146-1.06-.422-1.352-.271-.292-.695-.437-1.273-.437-.469 0-.88.125-1.235.375s-.63.578-.828.984V42h-1.445v-8.453h1.367zm10.25 6.492l2.092-6.492h1.48L1000.12 42h-1.104l-3.063-8.453h1.477l2.148 6.492zm4.452-2.344c0-.828.16-1.573.49-2.234.32-.661.78-1.172 1.36-1.531s1.24-.539 1.99-.539c1.15 0 2.08.398 2.79 1.195s1.07 1.857 1.07 3.18v.102c0 .823-.16 1.563-.48 2.219a3.53 3.53 0 0 1-1.35 1.523c-.58.365-1.26.547-2.02.547-1.14 0-2.07-.398-2.79-1.195-.7-.797-1.06-1.852-1.06-3.164v-.102zm1.45.172c0 .938.22 1.69.65 2.258.44.568 1.02.852 1.75.852.74 0 1.32-.286 1.75-.859.44-.578.65-1.385.65-2.422 0-.927-.22-1.677-.66-2.25-.44-.578-1.02-.867-1.75-.867-.72 0-1.29.284-1.73.852s-.66 1.38-.66 2.438zm9.63 4.133h-1.45v-8.453h1.45V42zm-1.56-10.695c0-.234.07-.432.21-.594s.36-.242.64-.242.49.081.64.242a.88.88 0 0 1 .22.594c0 .234-.08.43-.22.586-.15.156-.36.234-.64.234s-.5-.078-.64-.234-.21-.351-.21-.586zm7.27 9.672c.52 0 .97-.156 1.35-.469.39-.312.6-.703.64-1.172h1.37c-.03.484-.19.945-.5 1.383s-.72.786-1.23 1.047c-.52.26-1.06.391-1.63.391-1.15 0-2.07-.383-2.75-1.148-.68-.771-1.02-1.823-1.02-3.156v-.242c0-.823.16-1.555.46-2.195s.73-1.138 1.29-1.492c.57-.354 1.24-.531 2.01-.531.95 0 1.74.284 2.36.852.63.568.97 1.305 1.01 2.211h-1.37c-.04-.547-.25-.995-.62-1.344-.37-.354-.83-.531-1.38-.531-.73 0-1.3.266-1.71.797-.4.526-.6 1.289-.6 2.289v.273c0 .974.2 1.724.6 2.25s.98.789 1.72.789zm8.49 1.18c-1.14 0-2.08-.375-2.79-1.125-.72-.755-1.08-1.763-1.08-3.023v-.266c0-.839.16-1.586.47-2.242.33-.661.77-1.177 1.35-1.547.58-.375 1.2-.562 1.87-.562 1.1 0 1.96.362 2.57 1.086.6.724.91 1.76.91 3.109v.602h-5.73c.02.833.27 1.508.73 2.023.47.511 1.06.766 1.78.766.51 0 .94-.104 1.3-.312.35-.208.66-.484.93-.828l.88.688c-.71 1.089-1.77 1.633-3.19 1.633zm-.18-7.578c-.58 0-1.07.214-1.47.641-.39.422-.64 1.016-.73 1.781h4.23v-.109c-.04-.734-.24-1.302-.59-1.703-.35-.406-.83-.609-1.44-.609zm14.05 5.18c0-.391-.15-.693-.45-.906-.29-.219-.8-.406-1.53-.562s-1.31-.344-1.75-.562c-.42-.219-.74-.479-.95-.781-.2-.302-.3-.661-.3-1.078 0-.693.29-1.279.87-1.758.59-.479 1.34-.719 2.25-.719.96 0 1.73.247 2.33.742a2.35 2.35 0 0 1 .9 1.898h-1.46c0-.396-.17-.737-.5-1.023-.34-.286-.76-.43-1.27-.43-.53 0-.94.115-1.23.344-.3.229-.45.529-.45.898 0 .349.14.612.41.789.28.177.78.346 1.5.508s1.31.354 1.75.578c.45.224.78.495 1 .813.22.313.32.695.32 1.148 0 .755-.3 1.362-.9 1.82-.61.453-1.39.68-2.35.68-.68 0-1.28-.12-1.8-.359s-.93-.573-1.23-1c-.29-.432-.43-.898-.43-1.398h1.44c.03.484.22.87.58 1.156.36.281.84.422 1.44.422.54 0 .98-.109 1.31-.328.33-.224.5-.521.5-.891zm5.29-8.258v2.047h1.58v1.117h-1.58v5.242c0 .339.07.594.21.766.14.167.38.25.72.25.17 0 .39-.031.69-.094V42a4.19 4.19 0 0 1-1.11.156c-.65 0-1.14-.195-1.46-.586-.33-.391-.5-.945-.5-1.664v-5.242h-1.54v-1.117h1.54V31.5h1.45zm8.49 10.5c-.08-.167-.15-.464-.2-.891-.67.698-1.48 1.047-2.41 1.047-.83 0-1.52-.234-2.05-.703a2.31 2.31 0 0 1-.8-1.797c0-.88.33-1.562 1-2.047.67-.49 1.61-.734 2.83-.734h1.4v-.664c0-.505-.15-.906-.45-1.203-.3-.302-.75-.453-1.33-.453-.52 0-.95.13-1.3.391s-.53.575-.53.945h-1.45c0-.422.15-.828.45-1.219.3-.396.71-.708 1.22-.937s1.08-.344 1.69-.344c.98 0 1.74.245 2.29.734.55.484.84 1.154.86 2.008v3.891c0 .776.1 1.393.3 1.852V42h-1.52zm-2.4-1.102a2.51 2.51 0 0 0 1.29-.352c.41-.234.7-.539.88-.914v-1.734h-1.13c-1.77 0-2.65.518-2.65 1.555 0 .453.15.807.45 1.063s.69.383 1.16.383zm7.85-9.398v2.047h1.57v1.117h-1.57v5.242c0 .339.07.594.21.766.14.167.38.25.72.25.16 0 .39-.031.68-.094V42a4.19 4.19 0 0 1-1.11.156c-.64 0-1.13-.195-1.46-.586s-.49-.945-.49-1.664v-5.242h-1.54v-1.117h1.54V31.5h1.45zm8.49 9.664c-.56.661-1.39.992-2.48.992-.9 0-1.59-.26-2.06-.781-.47-.526-.71-1.302-.71-2.328v-5.5h1.44v5.461c0 1.281.52 1.922 1.57 1.922 1.1 0 1.83-.411 2.2-1.234v-6.148h1.44V42h-1.37l-.03-.836zm8.53-1.406c0-.391-.15-.693-.45-.906-.29-.219-.8-.406-1.53-.562s-1.31-.344-1.75-.562c-.42-.219-.74-.479-.95-.781-.2-.302-.3-.661-.3-1.078 0-.693.29-1.279.87-1.758.59-.479 1.34-.719 2.25-.719.96 0 1.73.247 2.33.742a2.35 2.35 0 0 1 .9 1.898h-1.46c0-.396-.17-.737-.5-1.023-.34-.286-.76-.43-1.27-.43-.53 0-.94.115-1.23.344-.3.229-.45.529-.45.898 0 .349.14.612.41.789.28.177.78.346 1.5.508s1.31.354 1.75.578c.45.224.78.495 1 .813.22.313.33.695.33 1.148 0 .755-.31 1.362-.91 1.82-.61.453-1.39.68-2.35.68-.68 0-1.28-.12-1.8-.359s-.93-.573-1.23-1c-.29-.432-.43-.898-.43-1.398h1.44c.03.484.22.87.58 1.156.36.281.84.422 1.44.422.54 0 .98-.109 1.31-.328.33-.224.5-.521.5-.891z" fill="#2f2f2f"/></svg>