<svg xmlns="http://www.w3.org/2000/svg" width="1150" height="867" fill="none" xmlns:v="https://vecta.io/nano"><style><![CDATA[.B{fill:#2f2f2f}.C{stroke:#2f2f2f}.D{stroke-width:.635}]]></style><ellipse rx="3.019" ry="3" transform="matrix(0 -1 -1 0 988 129.981)" class="B"/><path d="M988 61v69.675" class="C D"/><g class="B"><path d="M918.148 47.242c0-.25.073-.458.219-.625.151-.167.375-.25.672-.25s.521.083.672.25.234.375.234.625a.83.83 0 0 1-.234.602c-.151.161-.375.242-.672.242s-.521-.081-.672-.242c-.146-.162-.219-.362-.219-.602zm4.219 0c0-.25.073-.458.219-.625s.375-.25.672-.25.521.083.672.25c.156.167.234.375.234.625a.83.83 0 0 1-.234.602c-.151.161-.375.242-.672.242s-.521-.081-.672-.242-.219-.362-.219-.602zm4.219 0c0-.25.073-.458.219-.625.151-.167.375-.25.672-.25s.52.083.671.25c.157.167.235.375.235.625 0 .24-.078.44-.235.602-.151.161-.375.242-.671.242s-.521-.081-.672-.242c-.146-.162-.219-.362-.219-.602zm9.406.758c-.083-.167-.151-.464-.203-.891-.672.698-1.474 1.047-2.406 1.047-.834 0-1.518-.234-2.055-.703-.531-.474-.797-1.073-.797-1.797 0-.88.334-1.562 1-2.047.672-.49 1.615-.734 2.828-.734h1.407v-.664c0-.505-.151-.906-.454-1.203-.302-.302-.747-.453-1.335-.453-.516 0-.948.13-1.297.391s-.524.575-.524.945h-1.453c0-.422.149-.828.445-1.219.303-.396.709-.708 1.219-.937.516-.229 1.081-.344 1.695-.344.974 0 1.737.245 2.29.734.552.484.838 1.154.859 2.008v3.891c0 .776.099 1.393.297 1.852V48h-1.516zm-2.398-1.102a2.54 2.54 0 0 0 1.289-.352c.406-.234.7-.539.883-.914v-1.734h-1.133c-1.771 0-2.656.518-2.656 1.555 0 .453.151.807.453 1.063s.69.383 1.164.383zm7.25-7.352l.047 1.063c.645-.812 1.489-1.219 2.531-1.219 1.786 0 2.687 1.008 2.703 3.023V48h-1.445v-5.594c-.006-.609-.146-1.06-.422-1.352s-.696-.437-1.274-.437c-.468 0-.88.125-1.234.375s-.63.578-.828.984V48h-1.445v-8.453h1.367zm7.109 4.156c0-1.297.307-2.338.922-3.125a2.91 2.91 0 0 1 2.414-1.187c.99 0 1.773.339 2.352 1.016V36h1.445v12h-1.328l-.07-.906c-.579.708-1.383 1.062-2.415 1.062-.979 0-1.778-.401-2.398-1.203s-.922-1.849-.922-3.141v-.109zm1.445.164c0 .958.198 1.708.594 2.25s.943.813 1.641.813c.916 0 1.586-.411 2.008-1.234v-3.883c-.433-.797-1.097-1.195-1.993-1.195-.708 0-1.26.273-1.656.82s-.594 1.357-.594 2.43zm16.829 1.891c0-.391-.149-.693-.446-.906-.291-.219-.804-.406-1.539-.562-.729-.156-1.31-.344-1.742-.562s-.745-.479-.953-.781-.305-.661-.305-1.078c0-.693.292-1.279.875-1.758.589-.479 1.339-.719 2.25-.719.959 0 1.735.247 2.328.742a2.35 2.35 0 0 1 .899 1.898h-1.453c0-.396-.17-.737-.508-1.023s-.755-.43-1.266-.43c-.526 0-.937.115-1.234.344a1.08 1.08 0 0 0-.445.898c0 .349.138.612.414.789s.773.346 1.492.508 1.31.354 1.758.578.778.495.992.813c.218.313.328.695.328 1.148a2.17 2.17 0 0 1-.906 1.82c-.605.453-1.388.68-2.352.68-.677 0-1.276-.12-1.797-.359a2.96 2.96 0 0 1-1.226-1 2.45 2.45 0 0 1-.438-1.398h1.445a1.51 1.51 0 0 0 .579 1.156c.364.281.843.422 1.437.422.547 0 .984-.109 1.313-.328.333-.224.5-.521.5-.891zm5.289-8.258v2.047h1.578v1.117h-1.578v5.242c0 .339.07.594.211.766.14.167.38.25.718.25.167 0 .396-.031.688-.094V48a4.19 4.19 0 0 1-1.11.156c-.645 0-1.132-.195-1.461-.586s-.492-.945-.492-1.664v-5.242h-1.539v-1.117h1.539V37.5h1.446zm8.492 10.5c-.084-.167-.151-.464-.203-.891-.672.698-1.474 1.047-2.407 1.047-.833 0-1.518-.234-2.054-.703a2.3 2.3 0 0 1-.797-1.797c0-.88.333-1.562 1-2.047.672-.49 1.614-.734 2.828-.734h1.406v-.664c0-.505-.151-.906-.453-1.203-.302-.302-.747-.453-1.336-.453-.515 0-.948.13-1.297.391s-.523.575-.523.945h-1.453c0-.422.148-.828.445-1.219.302-.396.708-.708 1.219-.937s1.081-.344 1.695-.344c.974 0 1.737.245 2.289.734.552.484.839 1.154.86 2.008v3.891c0 .776.099 1.393.296 1.852V48h-1.515zm-2.399-1.102a2.54 2.54 0 0 0 1.289-.352c.407-.234.701-.539.883-.914v-1.734h-1.133c-1.77 0-2.656.518-2.656 1.555 0 .453.151.807.453 1.063s.69.383 1.164.383zm9.969-6.055a4.33 4.33 0 0 0-.711-.055c-.948 0-1.591.404-1.929 1.211v6h-1.446v-8.453h1.406l.024.977c.474-.755 1.146-1.133 2.016-1.133.281 0 .494.037.64.109v1.344zm3.688-3.344v2.047h1.578v1.117h-1.578v5.242c0 .339.07.594.211.766.14.167.38.25.718.25.167 0 .396-.031.688-.094V48a4.19 4.19 0 0 1-1.11.156c-.645 0-1.132-.195-1.461-.586s-.492-.945-.492-1.664v-5.242h-1.539v-1.117h1.539V37.5h1.446zm9.204 0v2.047h1.58v1.117h-1.58v5.242c0 .339.07.594.21.766.14.167.38.25.72.25.17 0 .39-.031.69-.094V48a4.19 4.19 0 0 1-1.11.156c-.65 0-1.136-.195-1.464-.586s-.493-.945-.493-1.664v-5.242h-1.539v-1.117h1.539V37.5h1.447zm4.72 3.07c.64-.786 1.47-1.18 2.5-1.18 1.78 0 2.69 1.008 2.7 3.023V48h-1.44v-5.594c-.01-.609-.15-1.06-.43-1.352-.27-.292-.69-.437-1.27-.437a2.06 2.06 0 0 0-1.23.375c-.36.25-.63.578-.83.984V48h-1.45V36h1.45v4.57zm10.87 7.586c-1.14 0-2.08-.375-2.79-1.125-.72-.755-1.08-1.763-1.08-3.023v-.266c0-.839.16-1.586.47-2.242.33-.661.77-1.177 1.35-1.547.58-.375 1.2-.562 1.87-.562 1.1 0 1.96.362 2.57 1.086.6.724.91 1.76.91 3.109v.602h-5.73c.02.833.27 1.508.73 2.023.47.511 1.06.766 1.78.766.51 0 .94-.104 1.3-.312.35-.208.66-.484.93-.828l.88.688c-.71 1.089-1.77 1.633-3.19 1.633zm-.18-7.578c-.58 0-1.07.214-1.47.641-.39.422-.64 1.016-.73 1.781h4.23v-.109c-.04-.734-.24-1.302-.59-1.703-.35-.406-.83-.609-1.44-.609zm11.09-3.078v2.047h1.58v1.117h-1.58v5.242c0 .339.07.594.21.766.14.167.38.25.72.25.17 0 .39-.031.69-.094V48a4.19 4.19 0 0 1-1.11.156c-.65 0-1.14-.195-1.46-.586-.33-.391-.5-.945-.5-1.664v-5.242h-1.54v-1.117h1.54V37.5h1.45zm4.84 10.5h-1.44v-8.453h1.44V48zm-1.56-10.695c0-.234.07-.432.21-.594.15-.161.36-.242.64-.242s.5.081.64.242c.15.161.22.359.22.594s-.07.43-.22.586c-.14.156-.36.234-.64.234s-.49-.078-.64-.234c-.14-.156-.21-.352-.21-.586zm5.24 2.242l.04.938c.62-.729 1.46-1.094 2.51-1.094 1.18 0 1.99.453 2.41 1.359.28-.406.65-.734 1.1-.984s.98-.375 1.6-.375c1.85 0 2.8.982 2.83 2.945V48h-1.45v-5.578c0-.604-.14-1.055-.41-1.352-.28-.302-.74-.453-1.39-.453-.54 0-.99.161-1.34.484-.35.318-.56.747-.62 1.289V48h-1.45v-5.539c0-1.229-.6-1.844-1.8-1.844-.95 0-1.6.404-1.95 1.211V48h-1.45v-8.453h1.37zm16.18 8.609c-1.14 0-2.08-.375-2.79-1.125-.72-.755-1.08-1.763-1.08-3.023v-.266c0-.839.16-1.586.47-2.242.33-.661.77-1.177 1.35-1.547.58-.375 1.2-.562 1.87-.562 1.1 0 1.96.362 2.56 1.086.61.724.92 1.76.92 3.109v.602h-5.73c.02.833.27 1.508.73 2.023.47.511 1.06.766 1.78.766.51 0 .94-.104 1.3-.312.35-.208.66-.484.93-.828l.88.688c-.71 1.089-1.77 1.633-3.19 1.633zm-.18-7.578c-.58 0-1.07.214-1.47.641-.39.422-.64 1.016-.73 1.781h4.23v-.109c-.04-.734-.24-1.302-.59-1.703-.35-.406-.83-.609-1.44-.609zm9.24.266a4.2 4.2 0 0 0-.71-.055c-.94 0-1.59.404-1.93 1.211v6h-1.44v-8.453h1.4l.03.977c.47-.755 1.14-1.133 2.01-1.133.29 0 .5.037.64.109v1.344z"/><ellipse rx="3" ry="2.981" transform="matrix(0 -1 -1 0 295.019 129)"/></g><path d="M295 65v65.5" class="C D"/><g class="B"><path d="M187.656 37.859H184V48h-1.492V37.859h-3.649v-1.234h8.797v1.234zm3.664 8.023l1.969-6.336h1.547l-3.398 9.758c-.527 1.406-1.362 2.109-2.508 2.109l-.274-.023-.539-.102v-1.172l.391.031c.489 0 .87-.099 1.14-.297.276-.198.503-.56.68-1.086l.32-.859-3.015-8.359h1.578l2.109 6.336zm11.953-2.016c0 1.286-.294 2.323-.882 3.109s-1.386 1.18-2.391 1.18c-1.026 0-1.833-.325-2.422-.977v4.07h-1.445V39.547h1.32l.07.938c.589-.729 1.407-1.094 2.454-1.094 1.015 0 1.817.383 2.406 1.148s.89 1.831.89 3.195v.133zm-1.445-.164c0-.953-.203-1.706-.609-2.258s-.964-.828-1.672-.828c-.875 0-1.531.388-1.969 1.164v4.039c.432.771 1.094 1.156 1.984 1.156.693 0 1.243-.273 1.649-.82.411-.552.617-1.37.617-2.453zm6.797 4.453c-1.146 0-2.078-.375-2.797-1.125-.719-.755-1.078-1.763-1.078-3.023v-.266c0-.839.159-1.586.477-2.242.322-.661.77-1.177 1.343-1.547a3.38 3.38 0 0 1 1.875-.562c1.099 0 1.953.362 2.563 1.086s.914 1.76.914 3.109v.602h-5.727c.021.833.263 1.508.727 2.023.469.511 1.062.766 1.781.766.511 0 .943-.104 1.297-.312s.664-.484.93-.828l.882.688c-.708 1.089-1.77 1.633-3.187 1.633zm-.18-7.578a1.92 1.92 0 0 0-1.468.641c-.396.422-.641 1.016-.735 1.781h4.235v-.109c-.042-.734-.24-1.302-.594-1.703-.354-.406-.834-.609-1.438-.609zm16.61 5.43l1.625-6.461h1.445L225.664 48h-1.172l-2.054-6.406-2 6.406h-1.172l-2.454-8.453h1.438l1.664 6.328 1.969-6.328h1.164l2.008 6.461zm5.992-5.437a3.07 3.07 0 0 1 2.5-1.18c1.786 0 2.687 1.008 2.703 3.023V48h-1.445v-5.594c-.006-.609-.146-1.06-.422-1.352s-.695-.437-1.274-.437c-.468 0-.88.125-1.234.375s-.63.578-.828.984V48h-1.445V36h1.445v4.57zM243.633 48c-.084-.167-.151-.464-.203-.891-.672.698-1.474 1.047-2.407 1.047-.833 0-1.518-.234-2.054-.703-.531-.474-.797-1.073-.797-1.797 0-.88.333-1.562 1-2.047.672-.49 1.614-.734 2.828-.734h1.406v-.664c0-.505-.151-.906-.453-1.203-.302-.302-.747-.453-1.336-.453-.515 0-.948.13-1.297.391s-.523.575-.523.945h-1.453c0-.422.148-.828.445-1.219.302-.396.708-.708 1.219-.937s1.081-.344 1.695-.344c.974 0 1.737.245 2.289.734.552.484.839 1.154.86 2.008v3.891c0 .776.099 1.393.296 1.852V48h-1.515zm-2.399-1.102c.454 0 .883-.117 1.289-.352s.701-.539.883-.914v-1.734h-1.133c-1.77 0-2.656.518-2.656 1.555 0 .453.151.807.453 1.063s.69.383 1.164.383zm7.844-9.398v2.047h1.578v1.117h-1.578v5.242c0 .339.07.594.211.766.141.167.38.25.719.25.166 0 .396-.031.687-.094V48c-.38.104-.75.156-1.109.156-.646 0-1.133-.195-1.461-.586s-.492-.945-.492-1.664v-5.242h-1.539v-1.117h1.539V37.5h1.445zm10.008 8.383l1.969-6.336h1.547l-3.399 9.758c-.526 1.406-1.362 2.109-2.508 2.109l-.273-.023-.539-.102v-1.172l.39.031c.49 0 .87-.099 1.141-.297s.503-.56.68-1.086l.32-.859-3.016-8.359h1.579l2.109 6.336zm4.305-2.187c0-.828.161-1.573.484-2.234s.781-1.172 1.359-1.531c.584-.359 1.248-.539 1.993-.539 1.151 0 2.08.398 2.789 1.195s1.07 1.857 1.07 3.18v.102c0 .823-.159 1.563-.477 2.219-.312.651-.763 1.159-1.351 1.523s-1.255.547-2.016.547c-1.146 0-2.075-.398-2.789-1.195-.708-.797-1.062-1.852-1.062-3.164v-.102zm1.453.172c0 .938.216 1.69.648 2.258.438.568 1.021.852 1.75.852.735 0 1.318-.286 1.75-.859.432-.578.649-1.385.649-2.422 0-.927-.222-1.677-.664-2.25-.438-.578-1.021-.867-1.75-.867-.714 0-1.289.284-1.727.852s-.656 1.38-.656 2.438zm13.273 3.297c-.562.661-1.388.992-2.476.992-.901 0-1.589-.26-2.063-.781-.469-.526-.706-1.302-.711-2.328v-5.5h1.445v5.461c0 1.281.521 1.922 1.563 1.922 1.104 0 1.839-.411 2.203-1.234v-6.148h1.445V48h-1.375l-.031-.836zm3.711-7.336l-.82-.562c.484-.677.734-1.391.75-2.141V36h1.43v1.016c-.006.521-.136 1.042-.391 1.563-.25.516-.573.932-.969 1.25zm7.188 1.016a4.33 4.33 0 0 0-.711-.055c-.948 0-1.591.404-1.93 1.211v6h-1.445v-8.453h1.406l.023.977c.474-.755 1.146-1.133 2.016-1.133.281 0 .495.037.641.109v1.344zm4.687 7.312c-1.146 0-2.078-.375-2.797-1.125-.718-.755-1.078-1.763-1.078-3.023v-.266c0-.839.159-1.586.477-2.242.323-.661.771-1.177 1.343-1.547.579-.375 1.204-.562 1.875-.562 1.099 0 1.954.362 2.563 1.086s.914 1.76.914 3.109v.602h-5.727c.021.833.263 1.508.727 2.023.469.511 1.062.766 1.781.766.511 0 .943-.104 1.297-.312s.664-.484.93-.828l.883.688c-.709 1.089-1.771 1.633-3.188 1.633zm-.18-7.578a1.92 1.92 0 0 0-1.468.641c-.396.422-.641 1.016-.735 1.781h4.235v-.109c-.042-.734-.24-1.302-.594-1.703-.354-.406-.833-.609-1.438-.609zm16.61 5.43l1.625-6.461h1.445L310.742 48h-1.172l-2.054-6.406-2 6.406h-1.172l-2.453-8.453h1.437l1.664 6.328 1.969-6.328h1.164l2.008 6.461zm4.164-2.312c0-.828.161-1.573.484-2.234s.781-1.172 1.36-1.531 1.247-.539 1.992-.539c1.151 0 2.081.398 2.789 1.195s1.07 1.857 1.07 3.18v.102c0 .823-.159 1.563-.476 2.219a3.56 3.56 0 0 1-1.352 1.523c-.583.365-1.255.547-2.016.547-1.145 0-2.075-.398-2.789-1.195-.708-.797-1.062-1.852-1.062-3.164v-.102zm1.453.172c0 .938.216 1.69.648 2.258.438.568 1.021.852 1.75.852.735 0 1.318-.286 1.75-.859.433-.578.649-1.385.649-2.422 0-.927-.221-1.677-.664-2.25-.438-.578-1.021-.867-1.75-.867-.714 0-1.289.284-1.727.852s-.656 1.38-.656 2.438zm12.141-3.023a4.33 4.33 0 0 0-.711-.055c-.948 0-1.591.404-1.93 1.211v6h-1.445v-8.453h1.406l.023.977c.474-.755 1.146-1.133 2.016-1.133.281 0 .495.037.641.109v1.344zm3.695 3.242l-.906.945V48h-1.446V36h1.446v7.258l.773-.93 2.633-2.781h1.758l-3.289 3.531L336.227 48h-1.696l-2.945-3.914zm7.32 3.914h-1.445v-8.453h1.445V48zm-1.562-10.695a.87.87 0 0 1 .211-.594c.146-.161.359-.242.64-.242s.495.081.641.242.219.359.219.594-.073.43-.219.586-.359.234-.641.234-.494-.078-.64-.234a.84.84 0 0 1-.211-.586zm5.25 2.242l.047 1.063c.645-.812 1.489-1.219 2.531-1.219 1.786 0 2.687 1.008 2.703 3.023V48h-1.445v-5.594c-.006-.609-.146-1.06-.422-1.352-.271-.292-.696-.437-1.274-.437-.468 0-.88.125-1.234.375s-.63.578-.828.984V48h-1.445v-8.453h1.367zm7.117 4.156c0-1.318.305-2.365.914-3.141.609-.781 1.417-1.172 2.422-1.172 1.031 0 1.836.365 2.414 1.094l.07-.937h1.321v8.25c0 1.094-.326 1.956-.977 2.586s-1.516.945-2.609.945c-.61 0-1.206-.13-1.789-.391s-1.029-.617-1.336-1.07l.75-.867c.619.766 1.377 1.148 2.273 1.148.703 0 1.25-.198 1.641-.594s.593-.953.593-1.672v-.727c-.578.667-1.367 1-2.367 1-.989 0-1.791-.398-2.406-1.195-.609-.797-.914-1.883-.914-3.258zm1.453.164c0 .953.195 1.703.586 2.25.391.542.938.813 1.641.813.911 0 1.58-.414 2.007-1.242v-3.859c-.442-.807-1.106-1.211-1.992-1.211-.703 0-1.252.273-1.648.82s-.594 1.357-.594 2.43zm11.461-.172c0-.828.161-1.573.484-2.234.329-.661.782-1.172 1.36-1.531.583-.359 1.247-.539 1.992-.539 1.151 0 2.081.398 2.789 1.195.714.797 1.07 1.857 1.07 3.18v.102c0 .823-.159 1.563-.476 2.219a3.56 3.56 0 0 1-1.352 1.523c-.583.365-1.255.547-2.015.547-1.146 0-2.076-.398-2.789-1.195s-1.063-1.852-1.063-3.164v-.102zm1.453.172c0 .938.216 1.69.649 2.258s1.02.852 1.75.852 1.317-.286 1.75-.859c.432-.578.648-1.385.648-2.422 0-.927-.221-1.677-.664-2.25-.438-.578-1.021-.867-1.75-.867-.714 0-1.289.284-1.727.852s-.656 1.38-.656 2.438zm9.422-4.32l.047 1.063c.646-.812 1.489-1.219 2.531-1.219 1.787 0 2.688 1.008 2.703 3.023V48h-1.445v-5.594c-.005-.609-.146-1.06-.422-1.352s-.695-.437-1.273-.437c-.469 0-.881.125-1.235.375s-.63.578-.828.984V48h-1.445v-8.453h1.367zm7.492 7.695c0-.25.073-.458.219-.625s.375-.25.672-.25.521.083.672.25.234.375.234.625a.83.83 0 0 1-.234.602c-.151.161-.375.242-.672.242s-.521-.081-.672-.242-.219-.362-.219-.602zm4.219 0c0-.25.073-.458.219-.625s.375-.25.672-.25.52.083.671.25c.157.167.235.375.235.625 0 .24-.078.44-.235.602-.151.161-.375.242-.671.242s-.521-.081-.672-.242-.219-.362-.219-.602zm4.219 0c0-.25.073-.458.218-.625.151-.167.375-.25.672-.25s.521.083.672.25a.88.88 0 0 1 .235.625c0 .24-.079.44-.235.602s-.375.242-.672.242-.521-.081-.672-.242c-.145-.162-.218-.362-.218-.602z"/><circle r="3" transform="matrix(0 1 1 0 758 750)"/></g><path d="M758 805v-54.64" class="C D"/><g class="B"><path d="M688.547 816.625l3.719 9.281 3.718-9.281h1.946V828h-1.5v-4.43l.14-4.781-3.734 9.211h-1.148l-3.727-9.188.148 4.758V828h-1.5v-11.375h1.938zM705.57 828c-.083-.167-.151-.464-.203-.891-.672.698-1.474 1.047-2.406 1.047-.833 0-1.518-.234-2.055-.703-.531-.474-.797-1.073-.797-1.797 0-.88.334-1.562 1-2.047.672-.489 1.615-.734 2.829-.734h1.406v-.664c0-.505-.151-.906-.453-1.203-.302-.302-.748-.453-1.336-.453-.516 0-.948.13-1.297.39s-.524.576-.524.946h-1.453c0-.422.149-.829.446-1.219.302-.396.708-.708 1.218-.938.516-.229 1.081-.343 1.696-.343.974 0 1.737.244 2.289.734.552.484.838 1.154.859 2.008v3.89c0 .776.099 1.394.297 1.852V828h-1.516zm-2.398-1.102c.453 0 .883-.117 1.289-.351s.7-.539.883-.914v-1.735h-1.133c-1.771 0-2.656.519-2.656 1.555 0 .453.151.807.453 1.063s.69.382 1.164.382zm9.969-6.054c-.219-.037-.456-.055-.711-.055-.948 0-1.591.404-1.93 1.211v6h-1.445v-8.453h1.406l.023.976c.474-.755 1.146-1.132 2.016-1.132.281 0 .495.036.641.109v1.344zm3.695 3.242l-.906.945V828h-1.446v-12h1.446v7.258l.773-.93 2.633-2.781h1.758l-3.289 3.531 3.672 4.922h-1.696l-2.945-3.914zm11.68-6.586v2.047h1.578v1.117h-1.578v5.242c0 .339.07.594.211.766s.38.25.718.25c.167 0 .396-.031.688-.094V828c-.38.104-.75.156-1.11.156-.645 0-1.132-.195-1.461-.586s-.492-.945-.492-1.664v-5.242h-1.539v-1.117h1.539V817.5h1.446zm4.843 10.5h-1.445v-8.453h1.445V828zm-1.562-10.695a.87.87 0 0 1 .211-.594c.146-.162.359-.242.64-.242s.495.08.641.242a.85.85 0 0 1 .219.594c0 .234-.073.429-.219.586s-.359.234-.641.234-.494-.078-.64-.234-.211-.352-.211-.586zm5.242 2.242l.039.937c.62-.729 1.456-1.093 2.508-1.093 1.182 0 1.987.453 2.414 1.359.281-.406.646-.734 1.094-.984s.987-.375 1.601-.375c1.854 0 2.797.981 2.828 2.945V828h-1.445v-5.578c0-.604-.138-1.055-.414-1.352-.276-.302-.74-.453-1.391-.453-.536 0-.981.162-1.335.485-.355.317-.56.747-.618 1.289V828h-1.453v-5.539c0-1.229-.601-1.844-1.805-1.844-.947 0-1.596.404-1.945 1.211V828h-1.445v-8.453h1.367zm16.18 8.609c-1.146 0-2.078-.375-2.797-1.125s-1.078-1.763-1.078-3.023v-.266c0-.838.159-1.586.476-2.242.323-.661.771-1.177 1.344-1.547a3.38 3.38 0 0 1 1.875-.562c1.099 0 1.953.362 2.563 1.086s.914 1.76.914 3.109v.602h-5.727c.021.833.263 1.507.727 2.023.468.51 1.062.766 1.781.766.51 0 .943-.105 1.297-.313a3.24 3.24 0 0 0 .929-.828l.883.687c-.708 1.089-1.771 1.633-3.187 1.633zm-.18-7.578c-.583 0-1.073.214-1.469.641-.396.422-.64 1.015-.734 1.781h4.234v-.109c-.041-.735-.239-1.302-.593-1.703-.355-.407-.834-.61-1.438-.61zM767.383 828c-.084-.167-.151-.464-.203-.891-.672.698-1.474 1.047-2.407 1.047-.833 0-1.518-.234-2.054-.703s-.797-1.073-.797-1.797c0-.88.333-1.562 1-2.047s1.614-.734 2.828-.734h1.406v-.664c0-.505-.151-.906-.453-1.203-.302-.302-.747-.453-1.336-.453-.515 0-.948.13-1.297.39s-.523.576-.523.946h-1.453c0-.422.148-.829.445-1.219a3.09 3.09 0 0 1 1.219-.938c.515-.229 1.081-.343 1.695-.343.974 0 1.737.244 2.289.734.552.484.839 1.154.86 2.008v3.89c0 .776.099 1.394.296 1.852V828h-1.515zm-2.399-1.102a2.54 2.54 0 0 0 1.289-.351c.407-.235.701-.539.883-.914v-1.735h-1.133c-1.77 0-2.656.519-2.656 1.555 0 .453.151.807.453 1.063s.69.382 1.164.382zm10.805-1.14c0-.391-.148-.693-.445-.906-.292-.219-.805-.407-1.539-.563-.729-.156-1.31-.344-1.743-.562-.427-.219-.744-.48-.953-.782-.203-.302-.304-.661-.304-1.078 0-.693.291-1.278.875-1.758s1.338-.718 2.25-.718c.958 0 1.734.247 2.328.742a2.35 2.35 0 0 1 .898 1.898h-1.453c0-.396-.169-.737-.508-1.023-.333-.287-.755-.43-1.265-.43-.526 0-.938.115-1.235.344a1.08 1.08 0 0 0-.445.898c0 .349.138.612.414.789s.774.347 1.492.508c.724.162 1.31.354 1.758.578s.779.495.992.813c.219.312.328.695.328 1.148 0 .755-.302 1.362-.906 1.821-.604.453-1.388.679-2.351.679-.678 0-1.276-.12-1.797-.359s-.93-.573-1.227-1a2.45 2.45 0 0 1-.437-1.399h1.445c.026.485.219.87.578 1.157.365.281.844.422 1.438.422.546 0 .984-.11 1.312-.329.333-.224.5-.52.5-.89zm14.453-1.891c0 1.292-.297 2.331-.89 3.117s-1.391 1.172-2.391 1.172c-1.068 0-1.893-.377-2.477-1.133l-.07.977h-1.328v-12h1.445v4.477c.584-.724 1.388-1.086 2.414-1.086s1.831.388 2.414 1.164c.589.776.883 1.838.883 3.187v.125zm-1.445-.164c0-.984-.19-1.745-.57-2.281s-.928-.805-1.641-.805c-.953 0-1.638.443-2.055 1.328v3.657c.443.885 1.133 1.328 2.071 1.328.692 0 1.231-.269 1.617-.805s.578-1.344.578-2.422zm4.844 4.297h-1.446v-8.453h1.446V828zm-1.563-10.695a.87.87 0 0 1 .211-.594c.146-.162.359-.242.641-.242s.494.08.64.242a.85.85 0 0 1 .219.594c0 .234-.073.429-.219.586s-.359.234-.64.234-.495-.078-.641-.234-.211-.352-.211-.586zM797.531 828h-1.445v-12h1.445v12zm3.891 0h-1.445v-12h1.445v12zm7.539 0c-.083-.167-.151-.464-.203-.891-.672.698-1.474 1.047-2.406 1.047-.834 0-1.519-.234-2.055-.703s-.797-1.073-.797-1.797c0-.88.333-1.562 1-2.047s1.615-.734 2.828-.734h1.406v-.664c0-.505-.151-.906-.453-1.203-.302-.302-.747-.453-1.336-.453-.515 0-.948.13-1.297.39s-.523.576-.523.946h-1.453c0-.422.148-.829.445-1.219.302-.396.709-.708 1.219-.938.516-.229 1.081-.343 1.695-.343.974 0 1.737.244 2.289.734.552.484.839 1.154.86 2.008v3.89c0 .776.099 1.394.297 1.852V828h-1.516zm-2.399-1.102c.454 0 .883-.117 1.29-.351s.7-.539.882-.914v-1.735h-1.132c-1.771 0-2.657.519-2.657 1.555 0 .453.151.807.453 1.063s.691.382 1.164.382zm13.04-3.031c0 1.292-.297 2.331-.891 3.117s-1.391 1.172-2.391 1.172c-1.067 0-1.893-.377-2.476-1.133l-.071.977h-1.328v-12h1.446v4.477c.583-.724 1.388-1.086 2.414-1.086s1.83.388 2.414 1.164.883 1.838.883 3.187v.125zm-1.446-.164c0-.984-.19-1.745-.57-2.281s-.927-.805-1.641-.805c-.953 0-1.638.443-2.054 1.328v3.657c.442.885 1.132 1.328 2.07 1.328.693 0 1.232-.269 1.617-.805s.578-1.344.578-2.422zM823 828h-1.445v-12H823v12zm5.828.156c-1.146 0-2.078-.375-2.797-1.125s-1.078-1.763-1.078-3.023v-.266c0-.838.159-1.586.477-2.242.323-.661.771-1.177 1.343-1.547.579-.375 1.204-.562 1.875-.562 1.099 0 1.954.362 2.563 1.086s.914 1.76.914 3.109v.602h-5.727c.021.833.263 1.507.727 2.023.469.51 1.063.766 1.781.766.511 0 .943-.105 1.297-.313s.664-.484.93-.828l.883.687c-.709 1.089-1.771 1.633-3.188 1.633zm-.18-7.578a1.92 1.92 0 0 0-1.468.641c-.396.422-.641 1.015-.735 1.781h4.235v-.109c-.042-.735-.24-1.302-.594-1.703-.354-.407-.833-.61-1.438-.61z"/><circle r="3" transform="matrix(0 1 1 0 1036 749)"/></g><path d="M1036 805v-58.029" class="C D"/><g class="B"><path d="M919.875 824.391c-.141 1.203-.586 2.132-1.336 2.789-.745.651-1.737.976-2.977.976-1.343 0-2.421-.482-3.234-1.445-.807-.964-1.211-2.253-1.211-3.867v-1.094c0-1.057.188-1.987.563-2.789s.916-1.417 1.609-1.844 1.495-.648 2.406-.648c1.209 0 2.177.338 2.907 1.015.729.672 1.153 1.605 1.273 2.797h-1.508c-.13-.906-.414-1.562-.851-1.969s-1.039-.609-1.821-.609c-.958 0-1.711.354-2.257 1.063s-.813 1.716-.813 3.023v1.102c0 1.234.258 2.216.773 2.945s1.237 1.094 2.164 1.094c.834 0 1.472-.188 1.915-.563s.744-1.039.89-1.976h1.508zm1.445-.696c0-.828.162-1.573.485-2.234.328-.662.781-1.172 1.359-1.531s1.247-.539 1.992-.539c1.151 0 2.081.398 2.789 1.195.714.797 1.071 1.857 1.071 3.18v.101c0 .823-.159 1.563-.477 2.219-.312.651-.763 1.159-1.351 1.523s-1.256.547-2.016.547c-1.146 0-2.076-.398-2.789-1.195s-1.063-1.852-1.063-3.164v-.102zm1.453.172c0 .938.217 1.69.649 2.258s1.021.852 1.75.852 1.318-.287 1.75-.86.648-1.385.648-2.422c0-.927-.221-1.677-.664-2.25-.437-.578-1.021-.867-1.75-.867a2.07 2.07 0 0 0-1.726.852c-.438.567-.657 1.38-.657 2.437zm9.422-4.32l.047 1.062a3.08 3.08 0 0 1 2.531-1.218c1.787 0 2.688 1.007 2.704 3.023V828h-1.446v-5.594c-.005-.609-.146-1.06-.422-1.351-.27-.292-.695-.438-1.273-.438-.469 0-.88.125-1.234.375a2.54 2.54 0 0 0-.829.985V828h-1.445v-8.453h1.367zm9.422-2.047v2.047h1.578v1.117h-1.578v5.242c0 .339.071.594.211.766s.38.25.719.25c.167 0 .396-.031.687-.094V828c-.38.104-.75.156-1.109.156-.646 0-1.133-.195-1.461-.586s-.492-.945-.492-1.664v-5.242h-1.539v-1.117h1.539V817.5h1.445zm4.844 10.5h-1.445v-8.453h1.445V828zm-1.563-10.695c0-.235.071-.433.211-.594.146-.162.36-.242.641-.242s.495.08.641.242.218.359.218.594a.83.83 0 0 1-.218.586c-.146.156-.36.234-.641.234s-.495-.078-.641-.234c-.14-.157-.211-.352-.211-.586zm5.25 2.242l.047 1.062a3.08 3.08 0 0 1 2.532-1.218c1.786 0 2.687 1.007 2.703 3.023V828h-1.446v-5.594c-.005-.609-.145-1.06-.422-1.351-.27-.292-.695-.438-1.273-.438-.469 0-.88.125-1.234.375s-.631.578-.828.985V828h-1.446v-8.453h1.367zm12.68 7.617c-.562.662-1.388.992-2.476.992-.901 0-1.589-.26-2.063-.781-.469-.526-.706-1.302-.711-2.328v-5.5h1.445v5.461c0 1.281.521 1.922 1.563 1.922 1.104 0 1.838-.412 2.203-1.235v-6.148h1.445V828h-1.375l-.031-.836zm7.117.992c-1.146 0-2.078-.375-2.797-1.125s-1.078-1.763-1.078-3.023v-.266c0-.838.159-1.586.477-2.242s.771-1.177 1.344-1.547a3.38 3.38 0 0 1 1.875-.562c1.099 0 1.953.362 2.562 1.086s.914 1.76.914 3.109v.602h-5.726c.02.833.263 1.507.726 2.023.469.51 1.063.766 1.781.766.511 0 .943-.105 1.297-.313s.664-.484.93-.828l.883.687c-.709 1.089-1.771 1.633-3.188 1.633zm-.179-7.578a1.92 1.92 0 0 0-1.469.641c-.396.422-.641 1.015-.735 1.781h4.235v-.109c-.042-.735-.24-1.302-.594-1.703-.354-.407-.833-.61-1.437-.61zm11.086-3.078v2.047h1.578v1.117h-1.578v5.242c0 .339.07.594.21.766s.381.25.719.25c.167 0 .396-.031.688-.094V828c-.38.104-.75.156-1.11.156-.645 0-1.132-.195-1.461-.586s-.492-.945-.492-1.664v-5.242h-1.539v-1.117h1.539V817.5h1.446zm4.843 10.5h-1.445v-8.453h1.445V828zm-1.562-10.695a.87.87 0 0 1 .211-.594c.146-.162.359-.242.64-.242s.495.08.641.242a.85.85 0 0 1 .219.594c0 .234-.073.429-.219.586s-.359.234-.641.234-.494-.078-.64-.234-.211-.352-.211-.586zm5.242 2.242l.039.937c.62-.729 1.456-1.093 2.508-1.093 1.182 0 1.987.453 2.414 1.359.281-.406.646-.734 1.094-.984.453-.25.987-.375 1.601-.375 1.854 0 2.797.981 2.828 2.945V828h-1.445v-5.578c0-.604-.138-1.055-.414-1.352-.276-.302-.74-.453-1.391-.453-.536 0-.981.162-1.336.485-.354.317-.559.747-.617 1.289V828h-1.453v-5.539c0-1.229-.601-1.844-1.805-1.844-.947 0-1.596.404-1.945 1.211V828h-1.445v-8.453h1.367zm16.175 8.609c-1.14 0-2.07-.375-2.79-1.125s-1.08-1.763-1.08-3.023v-.266c0-.838.16-1.586.48-2.242s.77-1.177 1.34-1.547a3.38 3.38 0 0 1 1.88-.562c1.09 0 1.95.362 2.56 1.086s.91 1.76.91 3.109v.602h-5.73c.03.833.27 1.507.73 2.023a2.31 2.31 0 0 0 1.78.766c.51 0 .95-.105 1.3-.313s.66-.484.93-.828l.88.687c-.71 1.089-1.77 1.633-3.19 1.633zm-.17-7.578c-.59 0-1.08.214-1.47.641-.4.422-.64 1.015-.74 1.781h4.24v-.109c-.05-.735-.24-1.302-.6-1.703-.35-.407-.83-.61-1.43-.61zm9.24.266c-.22-.037-.46-.055-.71-.055-.95 0-1.59.404-1.93 1.211v6h-1.45v-8.453h1.41l.02.976c.47-.755 1.15-1.132 2.02-1.132.28 0 .49.036.64.109v1.344zm12.79 5.164l1.62-6.461h1.45l-2.46 8.453h-1.18l-2.05-6.406-2 6.406h-1.17l-2.46-8.453h1.44l1.67 6.328 1.96-6.328h1.17l2.01 6.461zm6.11 1.992h-1.44v-8.453h1.44V828zm-1.56-10.695c0-.235.07-.433.21-.594.15-.162.36-.242.64-.242s.5.08.64.242c.15.161.22.359.22.594a.81.81 0 0 1-.22.586c-.14.156-.36.234-.64.234s-.49-.078-.64-.234c-.14-.157-.21-.352-.21-.586zm5.84.195v2.047h1.58v1.117h-1.58v5.242c0 .339.08.594.22.766s.38.25.71.25a3.44 3.44 0 0 0 .69-.094V828c-.38.104-.75.156-1.11.156-.64 0-1.13-.195-1.46-.586s-.49-.945-.49-1.664v-5.242h-1.54v-1.117h1.54V817.5h1.44zm4.72 3.07c.64-.786 1.48-1.179 2.5-1.179 1.79 0 2.69 1.007 2.71 3.023V828h-1.45v-5.594c0-.609-.14-1.06-.42-1.351-.27-.292-.7-.438-1.27-.438-.47 0-.88.125-1.24.375a2.6 2.6 0 0 0-.83.985V828h-1.44v-12h1.44v4.57zm10.96 3.125c0-.828.16-1.573.48-2.234.33-.662.78-1.172 1.36-1.531s1.25-.539 1.99-.539c1.15 0 2.08.398 2.79 1.195.72.797 1.07 1.857 1.07 3.18v.101c0 .823-.16 1.563-.47 2.219-.32.651-.77 1.159-1.36 1.523-.58.365-1.25.547-2.01.547-1.15 0-2.08-.398-2.79-1.195s-1.06-1.852-1.06-3.164v-.102zm1.45.172c0 .938.22 1.69.65 2.258.44.568 1.02.852 1.75.852s1.32-.287 1.75-.86.65-1.385.65-2.422c0-.927-.22-1.677-.67-2.25-.44-.578-1.02-.867-1.75-.867-.71 0-1.29.284-1.72.852-.44.567-.66 1.38-.66 2.437zm9.42-4.32l.05 1.062a3.07 3.07 0 0 1 2.53-1.218c1.79 0 2.69 1.007 2.7 3.023V828h-1.44v-5.594c-.01-.609-.15-1.06-.42-1.351-.28-.292-.7-.438-1.28-.438a2.06 2.06 0 0 0-1.23.375c-.36.25-.63.578-.83.985V828h-1.45v-8.453h1.37zm10.97 8.609c-1.15 0-2.08-.375-2.8-1.125s-1.07-1.763-1.07-3.023v-.266c0-.838.15-1.586.47-2.242a3.7 3.7 0 0 1 1.35-1.547 3.35 3.35 0 0 1 1.87-.562c1.1 0 1.95.362 2.56 1.086s.92 1.76.92 3.109v.602h-5.73c.02.833.26 1.507.73 2.023a2.31 2.31 0 0 0 1.78.766c.51 0 .94-.105 1.3-.313.35-.208.66-.484.92-.828l.89.687c-.71 1.089-1.77 1.633-3.19 1.633zm-.18-7.578c-.58 0-1.07.214-1.47.641-.39.422-.64 1.015-.73 1.781h4.23v-.109c-.04-.735-.24-1.302-.59-1.703-.36-.407-.84-.61-1.44-.61zm12.52 6.399a2.1 2.1 0 0 0 1.35-.469c.38-.313.6-.703.64-1.172h1.37c-.03.484-.2.945-.5 1.383a3.3 3.3 0 0 1-1.24 1.047 3.52 3.52 0 0 1-1.62.39c-1.15 0-2.07-.383-2.75-1.148-.68-.771-1.02-1.823-1.02-3.156v-.243c0-.823.15-1.554.45-2.195.31-.641.74-1.138 1.3-1.492.57-.354 1.24-.531 2.01-.531.95 0 1.73.283 2.36.851s.96 1.305 1.01 2.211h-1.37c-.04-.547-.25-.995-.63-1.344-.37-.354-.82-.531-1.37-.531-.74 0-1.31.266-1.71.797s-.6 1.289-.6 2.289v.274c0 .973.2 1.723.6 2.25s.97.789 1.72.789zm6.55 1.023h-1.44v-12h1.44v12zm3.89 0h-1.44v-8.453h1.44V828zm-1.56-10.695c0-.235.07-.433.21-.594.15-.162.36-.242.64-.242s.5.08.64.242c.15.161.22.359.22.594a.81.81 0 0 1-.22.586c-.14.156-.36.234-.64.234s-.49-.078-.64-.234c-.14-.157-.21-.352-.21-.586zm7.27 9.672c.52 0 .97-.157 1.35-.469.39-.313.6-.703.64-1.172h1.37c-.02.484-.19.945-.5 1.383s-.72.786-1.23 1.047a3.53 3.53 0 0 1-1.63.39c-1.15 0-2.07-.383-2.75-1.148-.67-.771-1.01-1.823-1.01-3.156v-.243c0-.823.15-1.554.45-2.195s.73-1.138 1.3-1.492c.56-.354 1.23-.531 2-.531.95 0 1.74.283 2.36.851.63.568.97 1.305 1.01 2.211h-1.37c-.04-.547-.25-.995-.62-1.344-.37-.354-.83-.531-1.38-.531-.73 0-1.3.266-1.71.797-.4.526-.6 1.289-.6 2.289v.274c0 .973.2 1.723.6 2.25s.98.789 1.72.789zm7.35-2.891l-.91.945V828h-1.45v-12h1.45v7.258l.77-.93 2.64-2.781h1.75l-3.29 3.531 3.68 4.922h-1.7l-2.94-3.914z"/><circle r="3" transform="matrix(0 1 1 0 401 750)"/></g><path d="M401 805v-56" class="C D"/><path d="M349.969 822.742h-4.93v4.031h5.727V828h-7.227v-11.375h7.149v1.234h-5.649v3.657h4.93v1.226zm1.929.961c0-1.297.308-2.338.922-3.125a2.91 2.91 0 0 1 2.414-1.187c.99 0 1.774.338 2.352 1.015V816h1.445v12h-1.328l-.07-.906c-.578.708-1.383 1.062-2.414 1.062-.979 0-1.779-.401-2.399-1.203-.614-.802-.922-1.849-.922-3.141v-.109zm1.446.164c0 .959.198 1.709.594 2.25s.942.813 1.64.813c.917 0 1.586-.412 2.008-1.235v-3.883c-.432-.796-1.096-1.195-1.992-1.195-.709 0-1.261.274-1.656.821s-.594 1.356-.594 2.429zm9.508 4.133h-1.446v-8.453h1.446V828zm-1.563-10.695a.87.87 0 0 1 .211-.594c.146-.162.359-.242.641-.242s.494.08.64.242a.85.85 0 0 1 .219.594c0 .234-.073.429-.219.586s-.359.234-.64.234-.495-.078-.641-.234-.211-.352-.211-.586zm5.844.195v2.047h1.578v1.117h-1.578v5.242c0 .339.07.594.211.766s.38.25.718.25c.167 0 .396-.031.688-.094V828c-.38.104-.75.156-1.109.156-.646 0-1.133-.195-1.461-.586s-.492-.945-.492-1.664v-5.242h-1.54v-1.117h1.54V817.5h1.445zm9.203 0v2.047h1.578v1.117h-1.578v5.242c0 .339.07.594.211.766s.38.25.719.25a3.47 3.47 0 0 0 .687-.094V828c-.38.104-.75.156-1.109.156-.646 0-1.133-.195-1.461-.586s-.492-.945-.492-1.664v-5.242h-1.539v-1.117h1.539V817.5h1.445zm7.359 3.344a4.26 4.26 0 0 0-.711-.055c-.948 0-1.591.404-1.929 1.211v6h-1.446v-8.453h1.407l.023.976c.474-.755 1.146-1.132 2.016-1.132.281 0 .494.036.64.109v1.344zm6.243 7.156c-.084-.167-.152-.464-.204-.891-.672.698-1.474 1.047-2.406 1.047-.833 0-1.518-.234-2.055-.703-.531-.474-.796-1.073-.796-1.797 0-.88.333-1.562 1-2.047s1.614-.734 2.828-.734h1.406v-.664c0-.505-.151-.906-.453-1.203-.302-.302-.748-.453-1.336-.453-.516 0-.948.13-1.297.39s-.523.576-.523.946h-1.454c0-.422.149-.829.446-1.219.302-.396.708-.708 1.218-.938.516-.229 1.081-.343 1.696-.343.974 0 1.737.244 2.289.734.552.484.838 1.154.859 2.008v3.89c0 .776.099 1.394.297 1.852V828h-1.515zm-2.399-1.102c.453 0 .883-.117 1.289-.351s.701-.539.883-.914v-1.735h-1.133c-1.771 0-2.656.519-2.656 1.555 0 .453.151.807.453 1.063s.69.382 1.164.382zm9.273.079c.516 0 .967-.157 1.352-.469s.599-.703.641-1.172h1.367c-.026.484-.193.945-.5 1.383s-.719.786-1.234 1.047-1.053.39-1.626.39c-1.151 0-2.067-.383-2.75-1.148-.677-.771-1.015-1.823-1.015-3.156v-.243c0-.823.151-1.554.453-2.195s.734-1.138 1.297-1.492 1.237-.531 2.008-.531c.948 0 1.734.283 2.359.851s.966 1.305 1.008 2.211h-1.367c-.042-.547-.25-.995-.625-1.344a1.91 1.91 0 0 0-1.375-.531c-.735 0-1.305.266-1.711.797s-.602 1.289-.602 2.289v.274c0 .973.201 1.723.602 2.25s.974.789 1.718.789zm7.344-2.891l-.906.945V828h-1.445v-12h1.445v7.258l.773-.93 2.633-2.781h1.758l-3.289 3.531 3.672 4.922h-1.695l-2.946-3.914zm9.102 4.07c-1.146 0-2.078-.375-2.797-1.125s-1.078-1.763-1.078-3.023v-.266c0-.838.159-1.586.476-2.242.323-.661.771-1.177 1.344-1.547a3.38 3.38 0 0 1 1.875-.562c1.099 0 1.953.362 2.563 1.086s.914 1.76.914 3.109v.602h-5.727c.021.833.263 1.507.727 2.023.468.51 1.062.766 1.781.766.51 0 .943-.105 1.297-.313a3.24 3.24 0 0 0 .929-.828l.883.687c-.708 1.089-1.771 1.633-3.187 1.633zm-.18-7.578c-.583 0-1.073.214-1.469.641-.395.422-.64 1.015-.734 1.781h4.234v-.109c-.041-.735-.239-1.302-.593-1.703-.355-.407-.834-.61-1.438-.61zm4.805 3.125c0-1.297.307-2.338.922-3.125s1.419-1.187 2.414-1.187c.989 0 1.773.338 2.351 1.015V816h1.446v12h-1.328l-.071-.906c-.578.708-1.383 1.062-2.414 1.062-.979 0-1.779-.401-2.398-1.203s-.922-1.849-.922-3.141v-.109zm1.445.164c0 .959.198 1.709.594 2.25s.943.813 1.64.813c.917 0 1.586-.412 2.008-1.235v-3.883c-.432-.796-1.096-1.195-1.992-1.195-.708 0-1.26.274-1.656.821s-.594 1.356-.594 2.429zm13.867-6.367v2.047h1.578v1.117h-1.578v5.242c0 .339.071.594.211.766s.38.25.719.25c.167 0 .396-.031.687-.094V828c-.38.104-.75.156-1.109.156-.646 0-1.133-.195-1.461-.586s-.492-.945-.492-1.664v-5.242h-1.539v-1.117h1.539V817.5h1.445zm4.844 10.5h-1.445v-8.453h1.445V828zm-1.562-10.695a.87.87 0 0 1 .211-.594c.145-.162.359-.242.64-.242s.495.08.641.242a.85.85 0 0 1 .219.594c0 .234-.073.429-.219.586s-.36.234-.641.234-.495-.078-.64-.234-.211-.352-.211-.586zm5.242 2.242l.039.937c.62-.729 1.456-1.093 2.508-1.093 1.182 0 1.987.453 2.414 1.359.281-.406.646-.734 1.093-.984.454-.25.987-.375 1.602-.375 1.854 0 2.797.981 2.828 2.945V828h-1.445v-5.578c0-.604-.138-1.055-.414-1.352-.276-.302-.74-.453-1.391-.453-.536 0-.982.162-1.336.485-.354.317-.56.747-.617 1.289V828h-1.453v-5.539c0-1.229-.602-1.844-1.805-1.844-.948 0-1.596.404-1.945 1.211V828h-1.445v-8.453h1.367zm16.179 8.609c-1.145 0-2.078-.375-2.796-1.125s-1.079-1.763-1.079-3.023v-.266c0-.838.159-1.586.477-2.242s.771-1.177 1.344-1.547a3.38 3.38 0 0 1 1.875-.562c1.099 0 1.953.362 2.562 1.086s.914 1.76.914 3.109v.602h-5.726c.021.833.263 1.507.726 2.023.469.51 1.063.766 1.782.766.51 0 .942-.105 1.296-.313a3.23 3.23 0 0 0 .93-.828l.883.687c-.708 1.089-1.771 1.633-3.188 1.633zm-.179-7.578a1.92 1.92 0 0 0-1.469.641c-.396.422-.641 1.015-.734 1.781h4.234v-.109c-.042-.735-.24-1.302-.594-1.703-.354-.407-.833-.61-1.437-.61z" class="B"/></svg>