<svg xmlns="http://www.w3.org/2000/svg" width="1150" height="828" fill="none" xmlns:v="https://vecta.io/nano"><style><![CDATA[.B{fill:#2f2f2f}.C{stroke:#2f2f2f}.D{stroke-width:.635}]]></style><g class="B"><path d="M138.97 49.93c-1.287-.37-2.224-.823-2.813-1.36a2.62 2.62 0 0 1-.875-2 2.74 2.74 0 0 1 1.071-2.219c.718-.59 1.65-.883 2.796-.883.782 0 1.477.15 2.086.453.615.302 1.09.72 1.422 1.25.34.53.508 1.112.508 1.742h-1.508c0-.687-.218-1.227-.656-1.617-.438-.396-1.055-.594-1.852-.594-.74 0-1.317.164-1.734.492-.41.323-.617.773-.617 1.352 0 .463.195.857.586 1.18.396.318 1.065.61 2.008.875.948.266 1.687.56 2.218.883.537.318.933.7 1.188 1.117s.39.93.39 1.508c0 .922-.36 1.66-1.08 2.22-.718.552-1.68.828-2.882.828-.782 0-1.51-.148-2.188-.445-.677-.302-1.2-.714-1.57-1.234-.365-.52-.547-1.112-.547-1.773h1.508c0 .688.252 1.232.758 1.633.5.396 1.2.594 2.04.594.79 0 1.398-.16 1.82-.484s.633-.763.633-1.32-.196-.987-.586-1.29c-.39-.307-1.1-.61-2.125-.906zm9.43 5.227c-1.145 0-2.078-.375-2.796-1.125-.72-.755-1.08-1.763-1.08-3.023v-.266c0-.84.16-1.586.477-2.242.323-.66.77-1.177 1.344-1.547a3.38 3.38 0 0 1 1.875-.562c1.1 0 1.953.362 2.562 1.086s.914 1.76.914 3.11v.602h-5.726c.02.833.263 1.508.726 2.023.47.51 1.063.766 1.782.766.5 0 .942-.104 1.296-.312a3.24 3.24 0 0 0 .93-.828l.883.688c-.708 1.09-1.77 1.633-3.188 1.633zm-.18-7.578a1.92 1.92 0 0 0-1.469.641c-.396.422-.64 1.016-.734 1.78h4.234v-.11c-.042-.734-.24-1.302-.594-1.703-.354-.406-.833-.61-1.437-.61zM154.945 55H153.5V43h1.445v12zm5.828.156c-1.145 0-2.078-.375-2.796-1.125-.72-.755-1.08-1.763-1.08-3.023v-.266c0-.84.16-1.586.477-2.242.323-.66.77-1.177 1.344-1.547a3.38 3.38 0 0 1 1.875-.562c1.1 0 1.953.362 2.562 1.086s.914 1.76.914 3.11v.602h-5.726c.02.833.263 1.508.726 2.023.47.51 1.063.766 1.782.766.5 0 .942-.104 1.296-.312s.664-.484.93-.828l.883.688c-.708 1.09-1.77 1.633-3.188 1.633zm-.18-7.578a1.92 1.92 0 0 0-1.469.641c-.396.422-.64 1.016-.734 1.78h4.234v-.11c-.042-.734-.24-1.302-.594-1.703-.354-.406-.833-.61-1.437-.61zm8.547 6.398a2.08 2.08 0 0 0 1.351-.469c.386-.312.6-.703.64-1.172h1.367c-.026.484-.193.945-.5 1.383s-.72.786-1.234 1.047a3.53 3.53 0 0 1-1.625.391c-1.15 0-2.068-.383-2.75-1.148-.677-.77-1.016-1.823-1.016-3.156v-.242c0-.823.15-1.555.453-2.195s.734-1.138 1.297-1.492c.568-.354 1.237-.53 2.008-.53.948 0 1.734.284 2.36.852.63.568.966 1.305 1.008 2.21h-1.367a1.97 1.97 0 0 0-.625-1.344 1.91 1.91 0 0 0-1.375-.531c-.735 0-1.305.266-1.71.797-.4.526-.602 1.29-.602 2.29v.273c0 .974.2 1.724.602 2.25s.974.79 1.72.79zm6.945-9.477v2.047h1.578v1.117h-1.578v5.242c0 .34.07.594.21.766.14.167.38.25.72.25.166 0 .395-.03.687-.094V55c-.38.104-.75.156-1.11.156-.646 0-1.133-.195-1.46-.586s-.492-.945-.492-1.664v-5.242h-1.54v-1.117h1.54V44.5h1.445zm12.46 10.5c-.083-.167-.15-.464-.203-.89-.672.698-1.474 1.047-2.406 1.047-.834 0-1.52-.234-2.055-.703-.53-.474-.797-1.073-.797-1.797 0-.88.333-1.562 1-2.047.672-.5 1.615-.734 2.828-.734h1.406v-.664c0-.505-.15-.906-.453-1.203-.302-.302-.747-.453-1.336-.453-.515 0-.948.13-1.297.39s-.523.575-.523.945h-1.453c0-.422.148-.828.445-1.22.302-.396.708-.708 1.22-.937s1.08-.344 1.695-.344c.974 0 1.737.245 2.29.734.552.484.84 1.154.86 2.008v3.89c0 .776.1 1.393.296 1.852V55h-1.515zm-2.4-1.102c.454 0 .883-.117 1.3-.352s.7-.54.882-.914v-1.734h-1.132c-1.77 0-2.657.518-2.657 1.555 0 .453.15.807.453 1.063s.7.383 1.164.383zm9.274.078c.516 0 .966-.156 1.35-.47s.6-.703.64-1.172h1.367c-.026.484-.192.945-.5 1.383s-.72.786-1.234 1.047a3.53 3.53 0 0 1-1.625.391c-1.15 0-2.068-.383-2.75-1.148-.677-.77-1.016-1.823-1.016-3.156v-.242c0-.823.15-1.555.453-2.195s.735-1.138 1.297-1.492c.568-.354 1.237-.53 2.008-.53.948 0 1.734.284 2.36.852.63.568.967 1.305 1.008 2.21h-1.367a1.97 1.97 0 0 0-.625-1.344 1.91 1.91 0 0 0-1.375-.531c-.734 0-1.305.266-1.71.797-.4.526-.6 1.29-.6 2.29v.273c0 .974.2 1.724.6 2.25s.974.79 1.72.79zm6.945-9.477v2.047h1.578v1.117h-1.578v5.242c0 .34.07.594.21.766.14.167.38.25.72.25.167 0 .396-.03.687-.094V55c-.38.104-.75.156-1.11.156-.646 0-1.133-.195-1.46-.586s-.492-.945-.492-1.664v-5.242h-1.54v-1.117h1.54V44.5h1.445zM207.21 55h-1.445v-8.453h1.445V55zm-1.563-10.695c0-.234.07-.432.21-.594.146-.16.36-.242.64-.242s.495.08.64.242.218.36.218.594-.073.43-.218.586-.36.234-.64.234-.495-.078-.64-.234c-.14-.156-.21-.352-.21-.586zm6.672 8.734l2.094-6.492h1.477L212.86 55h-1.1l-3.063-8.453h1.477l2.148 6.492zm6.532 1.96h-1.446v-8.453h1.446V55zm-1.563-10.695a.87.87 0 0 1 .211-.594c.146-.16.36-.242.64-.242s.494.08.64.242.22.36.22.594-.073.43-.22.586-.36.234-.64.234-.495-.078-.64-.234a.84.84 0 0 1-.211-.586zm5.844.195v2.047h1.578v1.117h-1.578v5.242c0 .34.07.594.21.766.14.167.38.25.718.25.167 0 .396-.03.688-.094V55c-.38.104-.75.156-1.11.156-.646 0-1.133-.195-1.46-.586s-.492-.945-.492-1.664v-5.242h-1.54v-1.117h1.54V44.5h1.445zm6.04 8.383l1.97-6.336h1.547l-3.4 9.758c-.526 1.406-1.362 2.11-2.508 2.11l-.273-.023-.54-.102v-1.172l.4.03c.5 0 .87-.1 1.14-.297.276-.198.503-.56.68-1.086l.32-.86-3.016-8.36h1.578l2.1 6.336zm4 1.36c0-.25.073-.458.22-.625.15-.167.375-.25.67-.25s.52.083.672.25c.157.167.235.375.235.625 0 .24-.078.44-.235.602-.15.16-.375.242-.672.242s-.52-.08-.67-.242c-.146-.162-.22-.362-.22-.602zm4.22 0c0-.25.073-.458.218-.625.15-.167.375-.25.672-.25s.52.083.672.25a.88.88 0 0 1 .235.625c0 .24-.08.44-.235.602s-.375.242-.672.242-.52-.08-.672-.242c-.145-.162-.218-.362-.218-.602zm4.218 0c0-.25.073-.458.22-.625s.375-.25.672-.25.52.083.672.25.234.375.234.625a.83.83 0 0 1-.234.602c-.15.16-.375.242-.672.242s-.52-.08-.672-.242-.22-.362-.22-.602z"/><circle r="3" transform="matrix(0 -1 -1 0 186 286)"/></g><path d="M186 64v223" class="C D"/><circle r="3" transform="matrix(0 1 1 0 225 705)" class="B"/><path d="M225 760v-54" class="C D"/><circle r="3" transform="matrix(0 1 1 0 885 643)" class="B"/><path d="M885 760V644" class="C D"/><circle r="3" transform="matrix(0 -1 -1 0 429 288)" class="B"/><path d="M429 64v223" class="C D"/><circle r="3" transform="matrix(0 -1 -1 0 993 162)" class="B"/><path d="M993 64v99" class="C D"/><g class="B"><path d="M316.125 54.242c0-.25.073-.458.22-.625s.375-.25.672-.25.52.083.672.25.234.375.234.625a.83.83 0 0 1-.234.602c-.152.16-.376.242-.672.242s-.52-.08-.672-.242-.22-.362-.22-.602zm4.22 0c0-.25.073-.458.218-.625.152-.167.376-.25.672-.25s.52.083.672.25a.88.88 0 0 1 .235.625c0 .24-.08.44-.235.602s-.375.242-.672.242-.52-.08-.672-.242c-.145-.162-.218-.362-.218-.602zm4.218 0c0-.25.073-.458.22-.625s.375-.25.672-.25.52.083.672.25.234.375.234.625a.83.83 0 0 1-.234.602c-.15.16-.375.242-.672.242s-.52-.08-.672-.242-.22-.362-.22-.602zm13.376.758c-.084-.167-.152-.464-.204-.89-.672.698-1.474 1.047-2.406 1.047-.833 0-1.518-.234-2.055-.703-.53-.474-.796-1.073-.796-1.797 0-.88.333-1.562 1-2.047.67-.5 1.614-.734 2.828-.734h1.406v-.664c0-.505-.15-.906-.453-1.203-.302-.302-.748-.453-1.336-.453-.516 0-.948.13-1.297.39s-.523.575-.523.945h-1.454c0-.422.15-.828.446-1.22.302-.396.708-.708 1.218-.937a4.13 4.13 0 0 1 1.696-.344c.974 0 1.737.245 2.29.734.552.484.838 1.154.86 2.008v3.89c0 .776.1 1.393.297 1.852V55h-1.515zm-2.4-1.102a2.54 2.54 0 0 0 1.289-.352c.406-.234.7-.54.883-.914v-1.734h-1.133c-1.77 0-2.656.518-2.656 1.555 0 .453.15.807.453 1.063s.7.383 1.164.383zm7.25-7.352l.047 1.063c.646-.812 1.5-1.22 2.53-1.22 1.787 0 2.688 1.008 2.703 3.023V55h-1.445v-5.594c-.005-.61-.146-1.06-.422-1.352-.27-.292-.695-.437-1.273-.437-.47 0-.88.125-1.235.375s-.63.578-.828.984V55h-1.445v-8.453h1.367zm7.11 4.156c0-1.297.308-2.338.922-3.125a2.91 2.91 0 0 1 2.414-1.187c1 0 1.774.34 2.352 1.016V43h1.445v12h-1.328l-.07-.906c-.578.708-1.383 1.062-2.414 1.062-.98 0-1.78-.4-2.4-1.203-.614-.802-.922-1.85-.922-3.14v-.11zm1.446.164c0 .958.198 1.708.594 2.25s.942.813 1.64.813c.917 0 1.586-.41 2.008-1.234v-3.883a2.12 2.12 0 0 0-1.992-1.195c-.71 0-1.26.273-1.656.82s-.594 1.357-.594 2.43zm15.414 4.29c-1.146 0-2.078-.375-2.797-1.125-.72-.755-1.078-1.763-1.078-3.023v-.266c0-.84.16-1.586.476-2.242.323-.66.77-1.177 1.344-1.547a3.38 3.38 0 0 1 1.875-.562c1.1 0 1.953.362 2.563 1.086s.914 1.76.914 3.11v.602h-5.727c.02.833.263 1.508.727 2.023a2.31 2.31 0 0 0 1.781.766c.5 0 .943-.104 1.297-.312a3.25 3.25 0 0 0 .929-.828l.883.688c-.708 1.09-1.77 1.633-3.187 1.633zm-.18-7.578a1.92 1.92 0 0 0-1.469.641c-.395.422-.64 1.016-.734 1.78h4.234v-.11c-.04-.734-.24-1.302-.593-1.703-.355-.406-.834-.61-1.438-.61zm6.524-1.03l.046 1.063a3.08 3.08 0 0 1 2.532-1.219c1.786 0 2.687 1.008 2.703 3.023V55h-1.445v-5.594c-.006-.61-.146-1.06-.422-1.352s-.696-.437-1.274-.437c-.47 0-.88.125-1.234.375s-.63.578-.828.984V55h-1.446v-8.453h1.368zm9.42-2.047v2.047h1.58v1.117h-1.58v5.242c0 .34.07.594.21.766.14.167.38.25.72.25.167 0 .396-.03.688-.094V55c-.38.104-.75.156-1.1.156-.646 0-1.133-.195-1.46-.586s-.492-.945-.492-1.664v-5.242h-1.54v-1.117h1.54V44.5h1.445zm6.782 10.656c-1.146 0-2.078-.375-2.797-1.125-.72-.755-1.078-1.763-1.078-3.023v-.266c0-.84.16-1.586.476-2.242.323-.66.77-1.177 1.344-1.547a3.38 3.38 0 0 1 1.875-.562c1.1 0 1.953.362 2.563 1.086s.914 1.76.914 3.11v.602h-5.727c.02.833.263 1.508.727 2.023a2.31 2.31 0 0 0 1.781.766c.5 0 .943-.104 1.297-.312a3.25 3.25 0 0 0 .929-.828l.883.688c-.708 1.09-1.77 1.633-3.187 1.633zm-.18-7.578a1.92 1.92 0 0 0-1.469.641c-.396.422-.64 1.016-.734 1.78h4.234v-.11c-.04-.734-.24-1.302-.594-1.703-.354-.406-.833-.61-1.437-.61zm9.242.266a4.33 4.33 0 0 0-.711-.055c-.948 0-1.59.404-1.93 1.21v6h-1.446v-8.453h1.407l.023.977c.474-.755 1.146-1.133 2.016-1.133.28 0 .494.037.64.11v1.344zm12.79 5.164l1.625-6.46h1.446L411.766 55h-1.172l-2.055-6.406-2 6.406h-1.172l-2.453-8.453h1.438l1.664 6.328 1.968-6.328h1.164l2.008 6.46zm4.164-2.312c0-.828.162-1.573.485-2.234s.78-1.172 1.36-1.53c.583-.36 1.247-.54 1.992-.54 1.15 0 2.08.398 2.79 1.195.714.797 1.07 1.857 1.07 3.18v.102c0 .823-.16 1.563-.477 2.22-.312.65-.763 1.16-1.35 1.523s-1.256.547-2.016.547c-1.146 0-2.076-.398-2.79-1.195s-1.063-1.852-1.063-3.164v-.102zm1.453.172c0 .938.217 1.7.65 2.258s1.02.852 1.75.852 1.318-.286 1.75-.86c.432-.578.648-1.385.648-2.422 0-.927-.22-1.677-.664-2.25a2.08 2.08 0 0 0-1.75-.867 2.07 2.07 0 0 0-1.726.852c-.438.568-.657 1.38-.657 2.438zm12.14-3.023a4.33 4.33 0 0 0-.711-.055c-.948 0-1.59.404-1.93 1.21v6h-1.445v-8.453h1.406l.024.977c.474-.755 1.146-1.133 2.015-1.133.282 0 .495.037.64.11v1.344zm3.695 3.242l-.906.945V55h-1.445V43h1.445v7.258l.774-.93 2.632-2.78h1.758l-3.29 3.53L437.25 55h-1.695l-2.946-3.914zm11.164-3.516a3.07 3.07 0 0 1 2.5-1.18c1.787 0 2.688 1.008 2.704 3.023V55h-1.446v-5.594c-.005-.61-.146-1.06-.422-1.352-.27-.292-.695-.437-1.273-.437-.47 0-.88.125-1.234.375a2.54 2.54 0 0 0-.829.984V55h-1.445V43h1.445v4.57zm6.985 3.125c0-.828.16-1.573.484-2.234s.78-1.172 1.36-1.53 1.247-.54 1.992-.54c1.15 0 2.08.398 2.79 1.195s1.07 1.857 1.07 3.18v.102c0 .823-.16 1.563-.476 2.22a3.56 3.56 0 0 1-1.352 1.523c-.583.365-1.255.547-2.016.547-1.145 0-2.075-.398-2.79-1.195-.708-.797-1.062-1.852-1.062-3.164v-.102zm1.453.172c0 .938.216 1.7.648 2.258.438.568 1.02.852 1.75.852.735 0 1.318-.286 1.75-.86.433-.578.65-1.385.65-2.422 0-.927-.222-1.677-.664-2.25-.438-.578-1.02-.867-1.75-.867-.714 0-1.29.284-1.727.852s-.656 1.38-.656 2.438zm13.273 3.297c-.562.66-1.388.992-2.476.992-.9 0-1.59-.26-2.063-.78-.468-.526-.705-1.302-.71-2.328v-5.5h1.446v5.46c0 1.28.52 1.922 1.562 1.922 1.104 0 1.84-.41 2.203-1.234v-6.148h1.446V55h-1.375l-.032-.836zm7.696-6.32a4.33 4.33 0 0 0-.711-.055c-.948 0-1.59.404-1.93 1.21v6h-1.445v-8.453h1.406l.023.977c.474-.755 1.146-1.133 2.016-1.133.28 0 .495.037.64.11v1.344zm6.258 4.914c0-.39-.15-.693-.446-.906-.29-.22-.804-.406-1.54-.562-.73-.156-1.3-.344-1.742-.562s-.745-.48-.953-.78c-.203-.302-.305-.66-.305-1.078 0-.693.292-1.28.875-1.758.59-.48 1.34-.72 2.25-.72.958 0 1.734.247 2.328.742a2.35 2.35 0 0 1 .899 1.898h-1.453c0-.396-.17-.737-.508-1.023s-.755-.43-1.266-.43c-.526 0-.937.115-1.234.344a1.08 1.08 0 0 0-.446.898c0 .35.138.612.414.79s.774.346 1.493.508 1.3.354 1.757.578.78.495.993.813c.218.313.328.695.328 1.148a2.17 2.17 0 0 1-.906 1.82c-.605.453-1.388.68-2.352.68-.677 0-1.276-.12-1.797-.36s-.93-.573-1.226-1a2.45 2.45 0 0 1-.438-1.398h1.445a1.51 1.51 0 0 0 .579 1.156c.364.28.843.422 1.437.422.547 0 .984-.11 1.313-.328.333-.224.5-.52.5-.89zm7.242-2.375a12.19 12.19 0 0 1 .468-3.391c.318-1.083.8-2.068 1.414-2.953s1.274-1.51 1.946-1.875l.297.953c-.76.583-1.386 1.474-1.875 2.672s-.75 2.54-.797 4.023l-.008.664c0 2 .367 3.755 1.102 5.234.442.886.968 1.578 1.578 2.078l-.297.883c-.693-.385-1.354-1.03-1.985-1.937-1.23-1.77-1.843-3.888-1.843-6.352zm9.03 4.773c-1.146 0-2.078-.375-2.797-1.125-.72-.755-1.078-1.763-1.078-3.023v-.266c0-.84.16-1.586.476-2.242.323-.66.77-1.177 1.344-1.547a3.38 3.38 0 0 1 1.875-.562c1.1 0 1.953.362 2.563 1.086s.914 1.76.914 3.11v.602h-5.727c.02.833.263 1.508.727 2.023.47.51 1.062.766 1.78.766.5 0 .943-.104 1.297-.312s.664-.484.93-.828l.882.688c-.708 1.09-1.77 1.633-3.187 1.633zm-.18-7.578a1.92 1.92 0 0 0-1.469.641c-.395.422-.64 1.016-.734 1.78h4.234v-.11c-.04-.734-.24-1.302-.593-1.703-.354-.406-.834-.61-1.438-.61zm4.813 3.125c0-1.318.304-2.365.914-3.14.61-.78 1.416-1.172 2.422-1.172 1.03 0 1.836.365 2.414 1.094l.07-.937h1.32v8.25c0 1.094-.325 1.956-.976 2.586-.646.63-1.516.945-2.6.945a4.35 4.35 0 0 1-1.789-.391c-.583-.26-1.028-.617-1.336-1.07l.75-.867c.62.766 1.378 1.148 2.274 1.148.703 0 1.25-.198 1.64-.594s.593-.953.593-1.672v-.727c-.578.667-1.367 1-2.367 1-1 0-1.792-.398-2.406-1.195s-.914-1.883-.914-3.258zm1.453.164c0 .953.195 1.703.586 2.25.4.542.937.813 1.64.813.912 0 1.58-.414 2.008-1.242v-3.86c-.442-.807-1.107-1.21-1.992-1.21-.703 0-1.253.273-1.648.82s-.594 1.357-.594 2.43zm7.906 3.375c0-.25.073-.458.22-.625s.375-.25.672-.25.52.083.672.25.234.375.234.625a.83.83 0 0 1-.234.602c-.15.16-.375.242-.672.242s-.52-.08-.672-.242-.22-.362-.22-.602zM522.46 55h-1.453v-9.633l-2.914 1.07v-1.312l4.14-1.555h.227V55zm4.414-.758c0-.25.073-.458.22-.625s.375-.25.672-.25.52.083.672.25.234.375.234.625a.83.83 0 0 1-.234.602c-.152.16-.376.242-.672.242s-.52-.08-.672-.242-.22-.362-.22-.602zm4.703-4.945l.578-5.672h5.828v1.336h-4.6l-.344 3.102c.557-.328 1.2-.492 1.9-.492 1.036 0 1.86.344 2.468 1.03.6.682.914 1.607.914 2.773 0 1.172-.317 2.096-.953 2.773-.63.672-1.513 1.008-2.648 1.008-1.005 0-1.826-.28-2.46-.836s-.998-1.328-1.086-2.312h1.367c.09.65.32 1.143.695 1.477.375.328.87.492 1.485.492.672 0 1.198-.23 1.578-.687s.578-1.09.578-1.898c0-.76-.208-1.37-.625-1.828-.41-.464-.96-.695-1.648-.695-.63 0-1.125.138-1.485.414l-.383.313-1.156-.297zm11.805 1.164a12.04 12.04 0 0 1-.461 3.344 9.74 9.74 0 0 1-1.399 2.945c-.625.9-1.28 1.542-1.968 1.922l-.305-.883c.802-.615 1.445-1.568 1.93-2.86.49-1.297.74-2.734.75-4.312v-.25a12.82 12.82 0 0 0-.344-3.047c-.23-.943-.55-1.786-.96-2.53s-.865-1.326-1.375-1.742l.305-.883c.687.38 1.34 1.016 1.96 1.906s1.09 1.872 1.398 2.945c.313 1.073.47 2.22.47 3.445z"/><path d="M917.484 58h-1.507l-5.727-8.766V58h-1.508V46.625h1.508l5.742 8.805v-8.805h1.492V58zm7.657 0c-.084-.167-.15-.464-.203-.89-.672.698-1.474 1.047-2.407 1.047-.833 0-1.518-.234-2.054-.703a2.3 2.3 0 0 1-.797-1.797c0-.88.333-1.562 1-2.047.672-.5 1.614-.734 2.828-.734h1.406v-.664c0-.505-.15-.906-.453-1.203-.302-.302-.747-.453-1.336-.453-.516 0-.948.13-1.297.39s-.523.575-.523.945h-1.453c0-.422.148-.828.445-1.22.302-.396.708-.708 1.22-.937s1.08-.344 1.695-.344c.974 0 1.737.245 2.29.734.552.484.84 1.154.86 2.008v3.89c0 .776.1 1.393.297 1.852V58h-1.515zm-2.4-1.102a2.54 2.54 0 0 0 1.289-.352c.407-.234.7-.54.883-.914v-1.734h-1.133c-1.77 0-2.656.518-2.656 1.555 0 .453.15.807.453 1.063s.7.383 1.164.383zm8.547-.86l2.094-6.492h1.476L931.828 58h-1.1l-3.063-8.453h1.477l2.148 6.492zm6.53 1.96h-1.445v-8.453h1.445V58zm-1.562-10.695a.87.87 0 0 1 .211-.594c.146-.16.36-.242.64-.242s.495.08.64.242.22.36.22.594-.073.43-.22.586-.36.234-.64.234-.494-.078-.64-.234a.84.84 0 0 1-.211-.586zm3.54 6.398c0-1.318.305-2.365.914-3.14.61-.78 1.417-1.172 2.422-1.172 1.03 0 1.836.365 2.414 1.094l.07-.937h1.32v8.25c0 1.094-.326 1.956-.977 2.586s-1.516.945-2.61.945c-.6 0-1.206-.13-1.8-.39s-1.028-.617-1.335-1.07l.75-.867c.62.766 1.377 1.148 2.273 1.148.703 0 1.25-.198 1.64-.594s.593-.953.593-1.672v-.727c-.578.667-1.367 1-2.367 1-.99 0-1.79-.398-2.406-1.195-.61-.797-.914-1.883-.914-3.258zm1.453.164c0 .953.195 1.703.586 2.25.39.542.937.813 1.64.813.91 0 1.58-.414 2.007-1.242v-3.86c-.442-.807-1.106-1.21-1.992-1.21-.703 0-1.252.273-1.648.82s-.594 1.357-.594 2.43zM954.344 58c-.084-.167-.15-.464-.203-.89-.672.698-1.474 1.047-2.407 1.047-.833 0-1.518-.234-2.054-.703a2.3 2.3 0 0 1-.797-1.797c0-.88.333-1.562 1-2.047.672-.5 1.614-.734 2.828-.734h1.406v-.664c0-.505-.15-.906-.453-1.203-.302-.302-.747-.453-1.336-.453-.516 0-.948.13-1.297.39s-.523.575-.523.945h-1.453c0-.422.148-.828.445-1.22.302-.396.708-.708 1.22-.937s1.08-.344 1.695-.344c.974 0 1.737.245 2.29.734.552.484.84 1.154.86 2.008v3.89c0 .776.1 1.393.297 1.852V58h-1.515zm-2.4-1.102a2.54 2.54 0 0 0 1.289-.352c.407-.234.7-.54.883-.914v-1.734h-1.133c-1.77 0-2.656.518-2.656 1.555 0 .453.15.807.453 1.063s.7.383 1.164.383zm7.844-9.398v2.047h1.578v1.117h-1.578v5.242c0 .34.07.594.21.766.14.167.38.25.72.25.166 0 .396-.03.687-.094V58c-.38.104-.75.156-1.11.156-.646 0-1.133-.195-1.46-.586s-.492-.945-.492-1.664v-5.242h-1.54v-1.117h1.54V47.5h1.445zm6.78 10.656c-1.146 0-2.078-.375-2.797-1.125-.718-.755-1.078-1.763-1.078-3.023v-.266c0-.84.16-1.586.477-2.242.323-.66.77-1.177 1.344-1.547a3.38 3.38 0 0 1 1.875-.562c1.1 0 1.953.362 2.562 1.086s.914 1.76.914 3.11v.602h-5.726c.02.833.263 1.508.726 2.023.47.51 1.063.766 1.78.766.51 0 .943-.104 1.297-.312s.664-.484.93-.828l.883.688c-.71 1.09-1.77 1.633-3.188 1.633zm-.18-7.578a1.92 1.92 0 0 0-1.469.641c-.396.422-.64 1.016-.734 1.78h4.234v-.11c-.042-.734-.24-1.302-.594-1.703-.354-.406-.833-.61-1.437-.61zm11.086-3.078v2.047h1.578v1.117h-1.578v5.242c0 .34.07.594.21.766.14.167.38.25.718.25.167 0 .396-.03.688-.094V58a4.19 4.19 0 0 1-1.11.156c-.645 0-1.132-.195-1.46-.586s-.492-.945-.492-1.664v-5.242h-1.54v-1.117h1.54V47.5h1.446zm2.734 6.195c0-.828.16-1.573.484-2.234s.782-1.172 1.36-1.53c.583-.36 1.247-.54 1.992-.54 1.15 0 2.08.398 2.79 1.195s1.07 1.857 1.07 3.18v.102c0 .823-.16 1.563-.476 2.22a3.56 3.56 0 0 1-1.352 1.523c-.583.365-1.255.547-2.016.547-1.145 0-2.075-.398-2.79-1.195-.708-.797-1.062-1.852-1.062-3.164v-.102zm1.453.172c0 .938.216 1.7.648 2.258.438.568 1.02.852 1.75.852.735 0 1.318-.286 1.75-.86.433-.578.65-1.385.65-2.422 0-.927-.22-1.677-.664-2.25-.438-.578-1.02-.867-1.75-.867-.714 0-1.29.284-1.727.852s-.656 1.38-.656 2.438zm11.64-.172c0-.828.16-1.573.484-2.234s.78-1.172 1.36-1.53c.584-.36 1.248-.54 1.993-.54 1.15 0 2.08.398 2.79 1.195s1.07 1.857 1.07 3.18v.102c0 .823-.16 1.563-.48 2.22a3.54 3.54 0 0 1-1.348 1.523c-.583.365-1.255.547-2.016.547-1.146 0-2.075-.398-2.79-1.195-.708-.797-1.062-1.852-1.062-3.164v-.102zm1.453.172c0 .938.216 1.7.648 2.258.438.568 1.02.852 1.75.852.735 0 1.318-.286 1.75-.86.433-.578.65-1.385.65-2.422 0-.927-.222-1.677-.664-2.25-.438-.578-1.02-.867-1.75-.867-.714 0-1.29.284-1.727.852s-.656 1.38-.656 2.438zm10.012-6.367v2.047h1.58v1.117h-1.58v5.242c0 .34.07.594.2.766.14.167.38.25.72.25.17 0 .4-.03.7-.094V58a4.19 4.19 0 0 1-1.11.156c-.64 0-1.13-.195-1.46-.586s-.5-.945-.5-1.664v-5.242h-1.54v-1.117h1.54V47.5h1.44zm4.72 3.07c.64-.786 1.48-1.18 2.5-1.18 1.8 0 2.7 1.008 2.7 3.023V58h-1.45v-5.594c-.01-.61-.15-1.06-.42-1.352s-.7-.437-1.28-.437c-.46 0-.88.125-1.23.375s-.63.578-.83.984V58h-1.44V46h1.44v4.57zm10.88 7.586c-1.15 0-2.08-.375-2.8-1.125-.72-.755-1.08-1.763-1.08-3.023v-.266c0-.84.16-1.586.48-2.242.32-.66.77-1.177 1.34-1.547.58-.375 1.2-.562 1.88-.562 1.1 0 1.95.362 2.56 1.086s.9 1.76.9 3.11v.602h-5.72c.02.833.26 1.508.72 2.023a2.33 2.33 0 0 0 1.79.766c.5 0 .94-.104 1.3-.312.36-.208.67-.484.93-.828l.88.688c-.7 1.09-1.77 1.633-3.18 1.633zm-.18-7.578c-.6 0-1.08.214-1.47.64-.4.422-.64 1.016-.74 1.78h4.24v-.11c-.04-.734-.24-1.302-.6-1.703-.35-.406-.83-.61-1.43-.61zm9.24.266a4.37 4.37 0 0 0-.71-.055c-.95 0-1.6.404-1.93 1.21v6h-1.45v-8.453h1.4l.02.977c.48-.755 1.15-1.133 2.02-1.133.28 0 .5.037.64.11v1.344zm12.8 5.164l1.62-6.46h1.45L1042.83 58h-1.17l-2.06-6.406-2 6.406h-1.17l-2.45-8.453h1.43l1.67 6.328 1.97-6.328h1.16l2 6.46zm8.05 2.148c-1.14 0-2.07-.375-2.8-1.125-.72-.755-1.08-1.763-1.08-3.023v-.266c0-.84.16-1.586.48-2.242.32-.66.77-1.177 1.34-1.547.58-.375 1.2-.562 1.87-.562 1.1 0 1.96.362 2.57 1.086s.9 1.76.9 3.11v.602h-5.73c.02.833.27 1.508.73 2.023.47.51 1.06.766 1.78.766.5 0 .94-.104 1.3-.312.35-.208.66-.484.93-.828l.88.688c-.7 1.09-1.77 1.633-3.2 1.633zm-.18-7.578c-.58 0-1.07.214-1.47.64-.4.422-.64 1.016-.73 1.78h4.23v-.11c-.04-.734-.23-1.302-.6-1.703-.35-.406-.83-.61-1.44-.61zm8.67 7.578c-1.15 0-2.08-.375-2.8-1.125-.72-.755-1.08-1.763-1.08-3.023v-.266c0-.84.16-1.586.48-2.242.32-.66.77-1.177 1.34-1.547.58-.375 1.2-.562 1.88-.562 1.1 0 1.95.362 2.56 1.086s.9 1.76.9 3.11v.602h-5.72c.02.833.26 1.508.72 2.023a2.33 2.33 0 0 0 1.79.766c.5 0 .94-.104 1.3-.312.36-.208.67-.484.93-.828l.9.688c-.7 1.09-1.78 1.633-3.2 1.633zm-.18-7.578a1.92 1.92 0 0 0-1.47.641c-.4.422-.64 1.016-.73 1.78h4.23v-.11c-.04-.734-.24-1.302-.6-1.703-.36-.406-.84-.61-1.44-.61zm7.5 3.508l-.9.945V58h-1.45V46h1.45v7.258l.77-.93 2.63-2.78h1.76l-3.3 3.53 3.67 4.922h-1.7l-2.95-3.914zm10.68 1.672c0-.39-.15-.693-.45-.906-.3-.22-.8-.406-1.54-.562-.73-.156-1.3-.344-1.74-.562s-.75-.48-.95-.78c-.2-.302-.3-.66-.3-1.078 0-.693.3-1.28.88-1.758.58-.48 1.33-.72 2.25-.72.95 0 1.73.247 2.32.742a2.35 2.35 0 0 1 .9 1.898h-1.45c0-.396-.17-.737-.5-1.023-.33-.286-.75-.43-1.26-.43-.53 0-.94.115-1.24.344-.3.23-.44.53-.44.898 0 .35.13.612.4.79s.77.346 1.5.508c.73.16 1.3.354 1.76.578s.78.495 1 .813c.22.313.33.695.33 1.148a2.16 2.16 0 0 1-.91 1.82c-.6.453-1.38.68-2.35.68-.67 0-1.27-.12-1.8-.36s-.93-.573-1.23-1c-.3-.432-.44-.898-.44-1.398h1.45c.02.484.22.87.58 1.156.36.28.84.422 1.43.422.55 0 1-.11 1.32-.328.33-.224.5-.52.5-.89z"/><path d="M130.28 780.773h5.39V782h-6.9v-11.375h1.508v10.148zm6.492-3.078c0-.828.162-1.573.485-2.234s.78-1.172 1.36-1.53c.584-.36 1.248-.54 1.992-.54 1.15 0 2.08.398 2.79 1.195.714.797 1.07 1.857 1.07 3.18v.1c0 .823-.16 1.563-.477 2.22-.312.65-.763 1.16-1.35 1.523s-1.256.547-2.016.547c-1.146 0-2.076-.398-2.79-1.195s-1.063-1.852-1.063-3.164v-.102zm1.454.172c0 .938.216 1.7.648 2.258.437.568 1.02.852 1.75.852s1.318-.287 1.75-.86.648-1.385.648-2.422c0-.927-.22-1.677-.664-2.25a2.08 2.08 0 0 0-1.75-.867 2.07 2.07 0 0 0-1.726.852c-.438.567-.656 1.38-.656 2.437zM151.5 782c-.083-.167-.15-.464-.203-.89-.672.698-1.474 1.047-2.406 1.047-.834 0-1.52-.234-2.055-.703s-.797-1.073-.797-1.797c0-.88.333-1.562 1-2.047.672-.49 1.615-.734 2.828-.734h1.406v-.664c0-.505-.15-.906-.453-1.203-.302-.302-.747-.453-1.336-.453-.515 0-.948.13-1.296.4s-.524.576-.524.946h-1.453c0-.422.148-.83.445-1.22.302-.396.71-.708 1.22-.938.516-.23 1.08-.343 1.695-.343.974 0 1.737.244 2.29.734.552.484.84 1.154.86 2.008v3.9c0 .776.1 1.394.297 1.852V782H151.5zm-2.398-1.102c.453 0 .882-.117 1.29-.35s.7-.54.882-.914v-1.735h-1.132c-1.77 0-2.657.52-2.657 1.555 0 .453.15.807.454 1.063s.7.382 1.164.382zm5.53-3.195c0-1.297.307-2.338.922-3.125s1.42-1.187 2.414-1.187c.99 0 1.773.338 2.35 1.015V770h1.446v12h-1.328l-.07-.906c-.578.708-1.383 1.062-2.414 1.062-.98 0-1.78-.4-2.398-1.203s-.922-1.85-.922-3.14v-.11zm1.445.164c0 .96.198 1.71.594 2.25s.943.813 1.64.813c.917 0 1.586-.412 2.008-1.235v-3.883c-.432-.796-1.096-1.195-1.992-1.195-.708 0-1.26.274-1.656.82s-.594 1.356-.594 2.43zM173.203 782c-.083-.167-.15-.464-.203-.89-.672.698-1.474 1.047-2.406 1.047-.834 0-1.518-.234-2.055-.703-.53-.474-.797-1.073-.797-1.797 0-.88.334-1.562 1-2.047.672-.49 1.615-.734 2.828-.734h1.407v-.664c0-.505-.15-.906-.454-1.203-.302-.302-.747-.453-1.335-.453-.516 0-.948.13-1.297.4s-.524.576-.524.946h-1.453c0-.422.148-.83.445-1.22.302-.396.71-.708 1.22-.938.516-.23 1.08-.343 1.695-.343.974 0 1.737.244 2.29.734.553.484.84 1.154.86 2.008v3.9c0 .776.1 1.394.297 1.852V782h-1.516zm-2.398-1.102c.453 0 .883-.117 1.29-.35s.7-.54.883-.914v-1.735h-1.133c-1.77 0-2.656.52-2.656 1.555 0 .453.15.807.453 1.063s.7.382 1.164.382zm9.273.08c.516 0 .966-.157 1.352-.47s.6-.703.64-1.172h1.368c-.027.484-.193.945-.5 1.383a3.3 3.3 0 0 1-1.235 1.047 3.53 3.53 0 0 1-1.625.39c-1.15 0-2.068-.383-2.75-1.148-.677-.77-1.016-1.823-1.016-3.156v-.243c0-.823.152-1.554.454-2.195s.734-1.138 1.296-1.492c.568-.354 1.237-.53 2.008-.53.948 0 1.735.283 2.36.85s.966 1.305 1.008 2.21h-1.368c-.04-.547-.25-.995-.625-1.344-.37-.354-.828-.53-1.375-.53-.734 0-1.304.266-1.71.797-.4.526-.6 1.29-.6 2.29v.274c0 .973.2 1.723.6 2.25s.974.79 1.72.79zm6.945-9.477v2.047h1.58v1.117h-1.58v5.242c0 .34.07.594.21.766s.38.25.72.25c.167 0 .396-.03.688-.094V782a4.2 4.2 0 0 1-1.11.156c-.646 0-1.133-.195-1.46-.586s-.492-.945-.492-1.664v-5.242h-1.54v-1.117h1.54V771.5h1.445zm4.844 10.5h-1.445v-8.453h1.445V782zm-1.562-10.695a.87.87 0 0 1 .211-.594c.145-.162.36-.242.64-.242s.495.08.64.242a.85.85 0 0 1 .219.594c0 .234-.073.43-.22.586s-.36.234-.64.234-.495-.078-.64-.234-.21-.352-.21-.586zm6.672 8.734l2.093-6.492h1.477l-3.03 8.453h-1.102l-3.062-8.453h1.476l2.15 6.492zm6.53 1.96h-1.446v-8.453h1.446V782zm-1.563-10.695c0-.235.07-.433.21-.594.146-.162.36-.242.64-.242s.495.08.64.242.218.36.218.594a.83.83 0 0 1-.218.586c-.146.156-.36.234-.64.234s-.495-.078-.64-.234c-.14-.157-.21-.352-.21-.586zm5.844.195v2.047h1.578v1.117h-1.578v5.242c0 .34.07.594.21.766s.38.25.72.25c.166 0 .396-.03.687-.094V782c-.38.104-.75.156-1.11.156-.646 0-1.133-.195-1.46-.586s-.492-.945-.492-1.664v-5.242h-1.54v-1.117h1.54V771.5h1.445zm4.844 10.5h-1.445v-8.453h1.445V782zm-1.563-10.695c0-.235.07-.433.21-.594.146-.162.36-.242.64-.242s.495.08.64.242a.85.85 0 0 1 .219.594c0 .234-.073.43-.22.586s-.36.234-.64.234-.495-.078-.64-.234c-.14-.157-.21-.352-.21-.586zm7.39 10.85c-1.146 0-2.078-.375-2.797-1.125s-1.078-1.763-1.078-3.023v-.266c0-.838.16-1.586.476-2.242.323-.66.77-1.177 1.344-1.547a3.38 3.38 0 0 1 1.875-.562c1.1 0 1.953.362 2.563 1.086s.914 1.76.914 3.11v.602h-5.727c.02.833.263 1.507.727 2.023.47.5 1.062.766 1.78.766.5 0 .943-.105 1.297-.313s.664-.484.93-.828l.882.687c-.708 1.09-1.77 1.633-3.187 1.633zm-.18-7.578c-.583 0-1.073.214-1.47.64-.395.422-.64 1.015-.734 1.78h4.234v-.11c-.04-.735-.24-1.302-.593-1.703-.354-.407-.834-.6-1.438-.6zm10.078 5.18c0-.39-.148-.693-.445-.906-.292-.22-.805-.407-1.54-.563s-1.3-.344-1.742-.562-.745-.48-.953-.782-.305-.66-.305-1.078c0-.693.292-1.278.875-1.758.59-.48 1.34-.718 2.25-.718.958 0 1.734.247 2.328.742a2.35 2.35 0 0 1 .899 1.898h-1.454c0-.396-.17-.737-.507-1.023s-.756-.43-1.266-.43c-.526 0-.938.115-1.234.344a1.08 1.08 0 0 0-.446.898c0 .35.138.612.414.79s.774.347 1.493.508 1.31.354 1.757.578.78.495.993.813c.218.312.328.695.328 1.148a2.17 2.17 0 0 1-.907 1.821c-.604.453-1.388.68-2.35.68-.677 0-1.276-.12-1.797-.36s-.93-.573-1.227-1c-.29-.432-.437-.9-.437-1.4h1.445c.026.485.22.87.578 1.157.365.28.844.422 1.438.422.547 0 .984-.1 1.312-.33.334-.224.5-.52.5-.9zm14.782.25l1.625-6.46h1.445L243.75 782h-1.172l-2.055-6.406-2 6.406h-1.17l-2.454-8.453h1.438l1.664 6.328 1.97-6.328h1.164l2.008 6.46zm6.117 1.992h-1.446v-8.453h1.446V782zm-1.563-10.695c0-.235.07-.433.21-.594.146-.162.36-.242.64-.242s.495.08.64.242.218.36.218.594a.83.83 0 0 1-.218.586c-.146.156-.36.234-.64.234s-.495-.078-.64-.234c-.14-.157-.21-.352-.21-.586zm5.844.195v2.047h1.578v1.117h-1.578v5.242c0 .34.07.594.21.766s.38.25.72.25c.166 0 .396-.03.687-.094V782c-.38.104-.75.156-1.11.156-.646 0-1.133-.195-1.46-.586s-.492-.945-.492-1.664v-5.242h-1.54v-1.117h1.54V771.5h1.445zm4.72 3.07a3.07 3.07 0 0 1 2.5-1.179c1.786 0 2.687 1.007 2.703 3.023V782h-1.445v-5.594c-.006-.61-.146-1.06-.422-1.35s-.696-.438-1.274-.438c-.468 0-.88.125-1.234.375s-.63.578-.828.985V782h-1.446v-12h1.446v4.57zm10.953 3.125c0-.828.16-1.573.484-2.234.328-.662.782-1.172 1.36-1.53s1.247-.54 1.992-.54c1.15 0 2.08.398 2.79 1.195s1.07 1.857 1.07 3.18v.1c0 .823-.16 1.563-.476 2.22-.313.65-.763 1.16-1.352 1.523-.583.365-1.255.547-2.016.547-1.145 0-2.075-.398-2.79-1.195-.708-.797-1.062-1.852-1.062-3.164v-.102zm1.453.172c0 .938.216 1.7.648 2.258.438.568 1.02.852 1.75.852.735 0 1.318-.287 1.75-.86s.65-1.385.65-2.422c0-.927-.22-1.677-.664-2.25-.438-.578-1.02-.867-1.75-.867-.714 0-1.29.284-1.727.852s-.656 1.38-.656 2.437zm9.422-4.32l.047 1.062c.646-.812 1.49-1.218 2.53-1.218 1.787 0 2.688 1.007 2.703 3.023V782h-1.445v-5.594c-.005-.61-.146-1.06-.422-1.35s-.695-.438-1.273-.438c-.47 0-.88.125-1.235.375s-.63.578-.828.985V782h-1.445v-8.453h1.367zm10.97 8.61c-1.146 0-2.078-.375-2.797-1.125s-1.078-1.763-1.078-3.023v-.266c0-.838.16-1.586.476-2.242.323-.66.77-1.177 1.344-1.547a3.38 3.38 0 0 1 1.875-.562c1.1 0 1.953.362 2.563 1.086s.914 1.76.914 3.11v.602h-5.727c.02.833.263 1.507.727 2.023.468.5 1.062.766 1.78.766.5 0 .943-.105 1.297-.313a3.24 3.24 0 0 0 .929-.828l.883.687c-.708 1.09-1.77 1.633-3.187 1.633zm-.18-7.578c-.583 0-1.073.214-1.47.64-.396.422-.64 1.015-.734 1.78h4.234v-.11c-.04-.735-.24-1.302-.594-1.703-.354-.407-.833-.6-1.437-.6zm12.516 6.4c.515 0 .966-.157 1.35-.47s.6-.703.64-1.172h1.367c-.026.484-.193.945-.5 1.383s-.72.786-1.234 1.047-1.052.4-1.625.4c-1.15 0-2.068-.383-2.75-1.148-.677-.77-1.016-1.823-1.016-3.156v-.243c0-.823.15-1.554.453-2.195s.734-1.138 1.297-1.492 1.237-.53 2.008-.53c.948 0 1.734.283 2.36.85s.966 1.305 1.008 2.21h-1.367c-.042-.547-.25-.995-.625-1.344a1.91 1.91 0 0 0-1.375-.531c-.735 0-1.305.266-1.71.797s-.602 1.29-.602 2.29v.274c0 .973.2 1.723.602 2.25s.974.79 1.72.79zm6.554 1.023H308.5v-12h1.445v12zm3.89 0h-1.445v-8.453h1.445V782zm-1.563-10.695c0-.235.07-.433.21-.594.146-.162.36-.242.64-.242s.495.08.64.242.218.36.218.594a.83.83 0 0 1-.218.586c-.146.156-.36.234-.64.234s-.495-.078-.64-.234c-.14-.157-.21-.352-.21-.586zm7.274 9.672c.515 0 .966-.157 1.35-.47s.6-.703.64-1.172h1.367c-.026.484-.192.945-.5 1.383a3.29 3.29 0 0 1-1.234 1.047c-.51.26-1.052.4-1.625.4-1.15 0-2.068-.383-2.75-1.148-.677-.77-1.016-1.823-1.016-3.156v-.243c0-.823.15-1.554.453-2.195s.735-1.138 1.297-1.492c.568-.354 1.237-.53 2.008-.53.948 0 1.734.283 2.36.85.63.568.967 1.305 1.008 2.21h-1.367c-.042-.547-.25-.995-.625-1.344a1.91 1.91 0 0 0-1.375-.531c-.734 0-1.305.266-1.71.797-.4.526-.6 1.29-.6 2.29v.274c0 .973.2 1.723.6 2.25s.974.79 1.72.79zm7.344-2.89l-.907.945V782h-1.445v-12h1.445v7.258l.774-.93 2.633-2.78h1.757l-3.29 3.53L331.53 782h-1.695l-2.945-3.914z"/><path d="M769.07 776.93c-1.286-.37-2.224-.823-2.812-1.36s-.875-1.208-.875-2a2.74 2.74 0 0 1 1.07-2.218c.72-.59 1.65-.883 2.797-.883.78 0 1.477.15 2.086.453.615.302 1.088.72 1.422 1.25a3.18 3.18 0 0 1 .508 1.742h-1.508c0-.687-.22-1.226-.656-1.617-.438-.396-1.055-.594-1.852-.594-.74 0-1.318.164-1.734.492-.412.323-.618.774-.618 1.352 0 .463.196.857.586 1.18.396.317 1.065.61 2.008.875.948.265 1.688.56 2.22.882.536.318.932.7 1.187 1.118.26.427.39.93.39 1.507 0 .922-.36 1.662-1.078 2.22s-1.68.828-2.883.828c-.78 0-1.5-.148-2.187-.445s-1.2-.714-1.57-1.234c-.364-.52-.547-1.112-.547-1.774h1.508c0 .688.253 1.232.758 1.633.5.396 1.2.594 2.04.594.792 0 1.4-.162 1.82-.485s.633-.763.633-1.32-.195-.987-.586-1.29-1.1-.61-2.125-.906zm9.43 5.226c-1.146 0-2.078-.375-2.797-1.125s-1.078-1.763-1.078-3.023v-.266c0-.838.16-1.586.477-2.242s.77-1.177 1.343-1.547a3.38 3.38 0 0 1 1.875-.562c1.1 0 1.953.362 2.563 1.086s.914 1.76.914 3.11v.602h-5.727c.02.833.263 1.507.727 2.023.47.5 1.062.766 1.78.766.51 0 .943-.105 1.297-.313s.664-.484.93-.828l.883.687c-.71 1.09-1.77 1.633-3.188 1.633zm-.18-7.578a1.92 1.92 0 0 0-1.468.641c-.396.422-.64 1.015-.735 1.78h4.235v-.11c-.042-.735-.24-1.302-.594-1.703-.354-.407-.834-.6-1.438-.6zm8.664 7.578c-1.145 0-2.078-.375-2.796-1.125s-1.08-1.763-1.08-3.023v-.266c0-.838.16-1.586.477-2.242s.77-1.177 1.344-1.547a3.38 3.38 0 0 1 1.875-.562c1.1 0 1.953.362 2.562 1.086s.914 1.76.914 3.11v.602h-5.726c.02.833.263 1.507.726 2.023.47.5 1.063.766 1.78.766.51 0 .943-.105 1.297-.313s.664-.484.93-.828l.883.687c-.708 1.09-1.77 1.633-3.188 1.633zm-.18-7.578a1.92 1.92 0 0 0-1.469.641c-.396.422-.64 1.015-.734 1.78h4.234v-.11c-.042-.735-.24-1.302-.594-1.703-.354-.407-.833-.6-1.437-.6zm10.57-.008a3.07 3.07 0 0 1 2.5-1.179c1.786 0 2.687 1.007 2.703 3.023V782h-1.445v-5.594c-.005-.61-.146-1.06-.422-1.35s-.695-.438-1.273-.438c-.47 0-.88.125-1.235.375s-.63.578-.828.985V782h-1.445v-12h1.445v4.57zm6.984 3.125c0-.828.162-1.573.485-2.234s.78-1.172 1.36-1.53 1.248-.54 1.992-.54c1.15 0 2.08.398 2.79 1.195.714.797 1.07 1.857 1.07 3.18v.1c0 .823-.16 1.563-.477 2.22-.312.65-.763 1.16-1.35 1.523s-1.256.547-2.016.547c-1.146 0-2.076-.398-2.79-1.195s-1.063-1.852-1.063-3.164v-.102zm1.453.172c0 .938.217 1.7.65 2.258s1.02.852 1.75.852 1.318-.287 1.75-.86.648-1.385.648-2.422c0-.927-.22-1.677-.664-2.25-.437-.578-1.02-.867-1.75-.867a2.07 2.07 0 0 0-1.726.852c-.438.567-.657 1.38-.657 2.437zm15.54 2.14l1.625-6.46h1.445L821.96 782h-1.172l-2.055-6.406-2 6.406h-1.172l-2.453-8.453h1.438l1.664 6.328 1.97-6.328h1.164l2.008 6.46zm9.875-6.46l.04.937c.62-.73 1.455-1.093 2.507-1.093 1.183 0 1.987.453 2.415 1.36a3.21 3.21 0 0 1 1.093-.984c.453-.25.987-.375 1.602-.375 1.854 0 2.797.98 2.828 2.945V782h-1.445v-5.578c0-.604-.138-1.055-.414-1.352-.276-.302-.74-.453-1.39-.453-.537 0-.982.162-1.336.485-.354.317-.56.747-.617 1.29V782h-1.453v-5.54c0-1.23-.602-1.844-1.805-1.844-.948 0-1.596.404-1.945 1.21V782h-1.446v-8.453h1.368zm17.9 7.617c-.562.662-1.388.992-2.476.992-.9 0-1.59-.26-2.063-.78-.47-.526-.706-1.302-.71-2.328v-5.5h1.445v5.46c0 1.28.52 1.922 1.563 1.922 1.104 0 1.84-.412 2.203-1.235v-6.148h1.445V782h-1.375l-.03-.836zm7-.187c.516 0 .966-.157 1.352-.47s.6-.703.64-1.172h1.368c-.026.484-.193.945-.5 1.383a3.3 3.3 0 0 1-1.235 1.047 3.53 3.53 0 0 1-1.625.39c-1.15 0-2.068-.383-2.75-1.148-.677-.77-1.015-1.823-1.015-3.156v-.243c0-.823.15-1.554.453-2.195s.734-1.138 1.297-1.492 1.237-.53 2.007-.53c.948 0 1.735.283 2.36.85s.966 1.305 1.008 2.21h-1.368c-.04-.547-.25-.995-.625-1.344-.37-.354-.828-.53-1.375-.53-.734 0-1.304.266-1.71.797-.4.526-.6 1.29-.6 2.29v.274c0 .973.2 1.723.6 2.25s.974.79 1.72.79zm6.43-6.407a3.07 3.07 0 0 1 2.5-1.179c1.786 0 2.687 1.007 2.703 3.023V782h-1.445v-5.594c-.006-.61-.146-1.06-.422-1.35s-.695-.438-1.274-.438c-.468 0-.88.125-1.234.375s-.63.578-.828.985V782h-1.445v-12h1.445v4.57zm13.297-3.07v2.047h1.578v1.117h-1.578v5.242c0 .34.07.594.21.766s.38.25.718.25c.167 0 .396-.03.688-.094V782c-.38.104-.75.156-1.11.156-.646 0-1.133-.195-1.46-.586s-.493-.945-.493-1.664v-5.242h-1.54v-1.117h1.54V771.5h1.446zm4.844 10.5h-1.446v-8.453h1.446V782zm-1.563-10.695a.87.87 0 0 1 .211-.594c.146-.162.36-.242.64-.242s.494.08.64.242a.85.85 0 0 1 .219.594c0 .234-.073.43-.22.586s-.36.234-.64.234-.495-.078-.64-.234-.21-.352-.21-.586zm5.242 2.242l.04.937c.62-.73 1.456-1.093 2.508-1.093 1.182 0 1.987.453 2.414 1.36.28-.406.646-.734 1.094-.984s.987-.375 1.6-.375c1.855 0 2.797.98 2.83 2.945V782h-1.446v-5.578c0-.604-.138-1.055-.414-1.352-.276-.302-.74-.453-1.4-.453-.537 0-.982.162-1.336.485-.355.317-.56.747-.618 1.29V782h-1.453v-5.54c0-1.23-.6-1.844-1.804-1.844-.948 0-1.597.404-1.946 1.21V782H883v-8.453h1.367zm16.18 8.61c-1.146 0-2.078-.375-2.797-1.125s-1.078-1.763-1.078-3.023v-.266c0-.838.16-1.586.476-2.242.323-.66.77-1.177 1.344-1.547a3.38 3.38 0 0 1 1.875-.562c1.1 0 1.953.362 2.563 1.086s.914 1.76.914 3.11v.602h-5.727c.02.833.263 1.507.727 2.023.468.5 1.062.766 1.78.766.5 0 .943-.105 1.297-.313s.664-.484.93-.828l.882.687c-.708 1.09-1.77 1.633-3.187 1.633zm-.18-7.578c-.583 0-1.073.214-1.47.64-.395.422-.64 1.015-.734 1.78h4.234v-.11c-.04-.735-.24-1.302-.593-1.703-.354-.407-.834-.6-1.438-.6zm11.89 5.305l1.97-6.336h1.546l-3.398 9.758c-.526 1.406-1.362 2.11-2.508 2.11l-.273-.023-.54-.102v-1.172l.4.03c.5 0 .87-.1 1.14-.296s.503-.56.68-1.086l.32-.86-3.016-8.36h1.578l2.1 6.336zm4.304-2.188c0-.828.162-1.573.485-2.234s.78-1.172 1.36-1.53c.584-.36 1.248-.54 1.992-.54 1.15 0 2.08.398 2.8 1.195s1.07 1.857 1.07 3.18v.1c0 .823-.16 1.563-.477 2.22-.312.65-.763 1.16-1.35 1.523s-1.256.547-2.016.547c-1.146 0-2.075-.398-2.79-1.195-.708-.797-1.063-1.852-1.063-3.164v-.102zm1.454.172c0 .938.216 1.7.648 2.258.438.568 1.02.852 1.75.852s1.318-.287 1.75-.86.648-1.385.648-2.422c0-.927-.22-1.677-.664-2.25a2.08 2.08 0 0 0-1.75-.867 2.07 2.07 0 0 0-1.726.852c-.438.567-.656 1.38-.656 2.437zm13.273 3.297c-.562.662-1.388.992-2.477.992-.9 0-1.588-.26-2.062-.78s-.706-1.302-.71-2.328v-5.5h1.445v5.46c0 1.28.52 1.922 1.563 1.922 1.104 0 1.838-.412 2.203-1.235v-6.148h1.445V782h-1.375l-.03-.836zm3.71-7.336l-.82-.562c.484-.677.734-1.39.75-2.14V770h1.43v1.016c-.005.52-.135 1.04-.4 1.562s-.573.932-.97 1.25zm5.89 6.21l2.093-6.492h1.477L941.43 782h-1.102l-3.062-8.453h1.476l2.15 6.492zm8.36 2.117c-1.146 0-2.078-.375-2.797-1.125s-1.078-1.763-1.078-3.023v-.266c0-.838.16-1.586.477-2.242s.77-1.177 1.343-1.547a3.38 3.38 0 0 1 1.875-.562c1.1 0 1.953.362 2.563 1.086s.914 1.76.914 3.11v.602h-5.727c.02.833.263 1.507.727 2.023.47.5 1.062.766 1.78.766.51 0 .943-.105 1.297-.313s.664-.484.93-.828l.883.687c-.71 1.09-1.77 1.633-3.188 1.633zm-.18-7.578a1.92 1.92 0 0 0-1.468.641c-.396.422-.64 1.015-.735 1.78h4.235v-.11c-.042-.735-.24-1.302-.594-1.703-.354-.407-.834-.6-1.438-.6zM959.766 782h-1.446v-12h1.446v12zm1.937-4.305c0-.828.162-1.573.485-2.234s.78-1.172 1.36-1.53 1.247-.54 1.992-.54c1.15 0 2.08.398 2.79 1.195.714.797 1.07 1.857 1.07 3.18v.1c0 .823-.158 1.563-.476 2.22-.313.65-.763 1.16-1.352 1.523-.583.365-1.255.547-2.015.547-1.146 0-2.076-.398-2.79-1.195s-1.063-1.852-1.063-3.164v-.102zm1.453.172c0 .938.216 1.7.65 2.258s1.02.852 1.75.852c.734 0 1.317-.287 1.75-.86s.648-1.385.648-2.422c0-.927-.22-1.677-.664-2.25-.437-.578-1.02-.867-1.75-.867-.713 0-1.29.284-1.727.852s-.656 1.38-.656 2.437zm7.71-.164c0-1.318.305-2.364.914-3.14s1.417-1.17 2.422-1.17c1.03 0 1.836.364 2.414 1.093l.07-.937h1.32v8.25c0 1.094-.326 1.956-.977 2.586-.646.63-1.515.945-2.61.945a4.35 4.35 0 0 1-1.789-.39c-.584-.26-1.03-.618-1.336-1.07l.75-.867c.62.766 1.377 1.148 2.273 1.148.703 0 1.25-.197 1.64-.593s.594-.953.594-1.672v-.727c-.578.667-1.367 1-2.367 1-1 0-1.792-.398-2.407-1.195-.61-.797-.914-1.883-.914-3.258zm1.453.164c0 .953.196 1.703.586 2.25s.938.813 1.64.813c.91 0 1.58-.414 2.008-1.242v-3.86c-.443-.807-1.107-1.21-1.993-1.21-.703 0-1.252.274-1.648.82s-.594 1.356-.594 2.43zm7.532-.164c0-1.318.304-2.364.914-3.14s1.416-1.17 2.422-1.17c1.03 0 1.835.364 2.414 1.093l.07-.937h1.32v8.25c0 1.094-.325 1.956-.976 2.586-.646.63-1.516.945-2.6.945-.61 0-1.205-.13-1.79-.4s-1.028-.618-1.336-1.07l.75-.867c.62.766 1.378 1.148 2.274 1.148.703 0 1.25-.197 1.64-.593.396-.396.594-.953.594-1.672v-.727c-.578.667-1.367 1-2.367 1-1 0-1.792-.398-2.406-1.195s-.914-1.883-.914-3.258zm1.453.164c0 .953.195 1.703.586 2.25s.937.813 1.64.813c.912 0 1.58-.414 2.008-1.242v-3.86c-.443-.807-1.107-1.21-1.992-1.21a1.92 1.92 0 0 0-1.649.821c-.395.546-.593 1.356-.593 2.43zm11.383 4.29c-1.146 0-2.08-.375-2.797-1.125s-1.08-1.763-1.08-3.023v-.266c0-.838.16-1.586.477-2.242s.77-1.177 1.344-1.547a3.38 3.38 0 0 1 1.875-.562c1.1 0 1.953.362 2.562 1.086s.914 1.76.914 3.11v.602h-5.726c.02.833.263 1.507.726 2.023.47.5 1.063.766 1.782.766.5 0 .942-.105 1.296-.313a3.23 3.23 0 0 0 .93-.828l.883.687c-.708 1.09-1.77 1.633-3.187 1.633zm-.18-7.578a1.92 1.92 0 0 0-1.469.641c-.396.422-.64 1.015-.734 1.78h4.234v-.11c-.042-.735-.24-1.302-.594-1.703-.354-.407-.833-.6-1.437-.6zm4.804 3.125c0-1.297.308-2.338.922-3.125a2.91 2.91 0 0 1 2.416-1.187c1 0 1.77.338 2.35 1.015V770h1.45v12h-1.33l-.07-.906c-.58.708-1.4 1.062-2.42 1.062-.976 0-1.776-.4-2.396-1.203-.614-.802-.922-1.85-.922-3.14v-.11zm1.446.164c0 .96.198 1.71.594 2.25s.938.813 1.638.813c.92 0 1.6-.412 2-1.235v-3.883c-.43-.796-1.1-1.195-2-1.195-.7 0-1.263.274-1.658.82s-.594 1.356-.594 2.43z"/></g></svg>