<svg xmlns="http://www.w3.org/2000/svg" width="1150" height="828" fill="none" xmlns:v="https://vecta.io/nano"><g fill="#2f2f2f"><circle r="3" transform="matrix(0 1 1 0 924 659)"/><circle r="3" transform="matrix(0 1 1 0 499 523)"/></g><path d="M924 760V657.5M499 761V521.5" stroke="#2f2f2f" stroke-width=".635"/><circle r="3" transform="matrix(0 -1 -1 0 202 324)" fill="#2f2f2f"/><path d="M202 64v260" stroke="#2f2f2f" stroke-width=".635"/><circle r="3" transform="matrix(0 -1 -1 0 739 141)" fill="#2f2f2f"/><path d="M739 64v75" stroke="#2f2f2f" stroke-width=".635"/><g fill="#2f2f2f"><path d="M85.086 53.008l3.25-9.383h1.641L85.758 55H84.43l-4.211-11.375h1.633l3.234 9.383zM92.852 55h-1.445v-8.453h1.445V55zm-1.562-10.695c0-.234.07-.432.211-.594.146-.161.359-.242.641-.242s.495.081.641.242.219.359.219.594-.073.43-.219.586-.359.234-.641.234-.495-.078-.641-.234c-.141-.156-.211-.352-.211-.586zm8.805 8.453c0-.391-.149-.693-.446-.906-.292-.219-.805-.406-1.539-.562-.729-.156-1.31-.344-1.742-.562-.427-.219-.745-.479-.953-.781-.203-.302-.305-.661-.305-1.078 0-.693.292-1.279.875-1.758.589-.479 1.339-.719 2.25-.719.958 0 1.734.247 2.328.742a2.35 2.35 0 0 1 .899 1.898h-1.453c0-.396-.169-.737-.508-1.023-.333-.286-.755-.43-1.266-.43-.526 0-.937.115-1.234.344a1.08 1.08 0 0 0-.445.898c0 .349.138.612.414.789s.773.346 1.492.508c.724.161 1.31.354 1.758.578s.778.495.992.813c.219.313.328.695.328 1.148a2.17 2.17 0 0 1-.906 1.82c-.604.453-1.388.68-2.352.68-.677 0-1.276-.12-1.797-.359s-.93-.573-1.227-1c-.292-.432-.437-.898-.437-1.398h1.445c.026.484.219.87.578 1.156.364.281.844.422 1.437.422.547 0 .984-.109 1.313-.328.333-.224.5-.521.5-.891zm8.547 1.406c-.563.661-1.388.992-2.477.992-.901 0-1.588-.26-2.062-.781-.469-.526-.706-1.302-.711-2.328v-5.5h1.445v5.461c0 1.281.521 1.922 1.562 1.922 1.105 0 1.839-.411 2.204-1.234v-6.148h1.445V55h-1.375l-.031-.836zm8.828.836c-.084-.167-.151-.464-.203-.891-.672.698-1.474 1.047-2.407 1.047-.833 0-1.518-.234-2.054-.703a2.3 2.3 0 0 1-.797-1.797c0-.88.333-1.562 1-2.047.672-.49 1.614-.734 2.828-.734h1.406v-.664c0-.505-.151-.906-.453-1.203-.302-.302-.747-.453-1.336-.453-.515 0-.948.13-1.297.391s-.523.575-.523.945h-1.453c0-.422.148-.828.445-1.219.302-.396.708-.708 1.219-.937s1.08-.344 1.695-.344c.974 0 1.737.245 2.289.734.552.484.839 1.154.86 2.008v3.891c0 .776.098 1.393.296 1.852V55h-1.515zm-2.399-1.102a2.54 2.54 0 0 0 1.289-.352c.407-.234.701-.539.883-.914v-1.734h-1.133c-1.77 0-2.656.518-2.656 1.555 0 .453.151.807.453 1.063s.69.383 1.164.383zM122.523 55h-1.445V43h1.445v12zm3.891 0h-1.445v-8.453h1.445V55zm-1.562-10.695c0-.234.07-.432.21-.594.146-.161.36-.242.641-.242s.495.081.641.242.218.359.218.594-.072.43-.218.586-.36.234-.641.234-.495-.078-.641-.234c-.14-.156-.21-.352-.21-.586zm5.242 9.516h4.945V55h-6.711v-1.062l4.664-6.195h-4.594v-1.195h6.407v1.023l-4.711 6.25zm9.961 1.336c-1.146 0-2.078-.375-2.797-1.125-.719-.755-1.078-1.763-1.078-3.023v-.266c0-.839.159-1.586.476-2.242.323-.661.771-1.177 1.344-1.547a3.38 3.38 0 0 1 1.875-.562c1.099 0 1.953.362 2.563 1.086s.914 1.76.914 3.109v.602h-5.727c.021.833.263 1.508.727 2.023a2.31 2.31 0 0 0 1.781.766c.51 0 .943-.104 1.297-.312a3.25 3.25 0 0 0 .929-.828l.883.688c-.708 1.089-1.771 1.633-3.187 1.633zm-.18-7.578a1.92 1.92 0 0 0-1.469.641c-.396.422-.64 1.016-.734 1.781h4.234v-.109c-.041-.734-.239-1.302-.594-1.703-.354-.406-.833-.609-1.437-.609zM154.219 55c-.084-.167-.151-.464-.203-.891-.672.698-1.474 1.047-2.407 1.047-.833 0-1.518-.234-2.054-.703a2.3 2.3 0 0 1-.797-1.797c0-.88.333-1.562 1-2.047.672-.49 1.614-.734 2.828-.734h1.406v-.664c0-.505-.151-.906-.453-1.203-.302-.302-.747-.453-1.336-.453-.515 0-.948.13-1.297.391s-.523.575-.523.945h-1.453c0-.422.148-.828.445-1.219.302-.396.708-.708 1.219-.937s1.08-.344 1.695-.344c.974 0 1.737.245 2.289.734.552.484.839 1.154.86 2.008v3.891c0 .776.098 1.393.296 1.852V55h-1.515zm-2.399-1.102a2.54 2.54 0 0 0 1.289-.352c.407-.234.701-.539.883-.914v-1.734h-1.133c-1.77 0-2.656.518-2.656 1.555 0 .453.151.807.453 1.063s.69.383 1.164.383zm7.25-7.352l.047 1.063c.646-.812 1.49-1.219 2.531-1.219 1.787 0 2.688 1.008 2.704 3.023V55h-1.446v-5.594c-.005-.609-.146-1.06-.422-1.352-.27-.292-.695-.437-1.273-.437-.469 0-.88.125-1.234.375a2.54 2.54 0 0 0-.829.984V55h-1.445v-8.453h1.367zm7.11 4.156c0-1.297.307-2.338.922-3.125.614-.792 1.419-1.187 2.414-1.187.989 0 1.773.339 2.351 1.016V43h1.445v12h-1.328l-.07-.906c-.578.708-1.383 1.062-2.414 1.062-.979 0-1.779-.401-2.398-1.203s-.922-1.849-.922-3.141v-.109zm1.445.164c0 .958.198 1.708.594 2.25s.942.813 1.64.813c.917 0 1.586-.411 2.008-1.234v-3.883a2.12 2.12 0 0 0-1.992-1.195c-.708 0-1.26.273-1.656.82s-.594 1.357-.594 2.43zm15.414 4.289c-1.146 0-2.078-.375-2.797-1.125-.719-.755-1.078-1.763-1.078-3.023v-.266c0-.839.159-1.586.477-2.242a3.75 3.75 0 0 1 1.343-1.547 3.38 3.38 0 0 1 1.875-.562c1.099 0 1.953.362 2.563 1.086s.914 1.76.914 3.109v.602h-5.727c.021.833.263 1.508.727 2.023.469.511 1.062.766 1.781.766.511 0 .943-.104 1.297-.312s.664-.484.93-.828l.883.688c-.709 1.089-1.771 1.633-3.188 1.633zm-.18-7.578a1.92 1.92 0 0 0-1.468.641c-.396.422-.641 1.016-.735 1.781h4.235v-.109c-.042-.734-.24-1.302-.594-1.703-.354-.406-.833-.609-1.438-.609zm4.805 3.125c0-1.297.307-2.338.922-3.125A2.91 2.91 0 0 1 191 46.391c.99 0 1.773.339 2.352 1.016V43h1.445v12h-1.328l-.071-.906c-.578.708-1.382 1.062-2.414 1.062-.979 0-1.778-.401-2.398-1.203s-.922-1.849-.922-3.141v-.109zm1.445.164c0 .958.198 1.708.594 2.25s.943.813 1.641.813c.916 0 1.586-.411 2.008-1.234v-3.883c-.433-.797-1.097-1.195-1.993-1.195-.708 0-1.26.273-1.656.82s-.594 1.357-.594 2.43zM198.617 55h-1.445v-8.453h1.445V55zm-1.562-10.695a.87.87 0 0 1 .211-.594c.145-.161.359-.242.64-.242s.495.081.641.242.219.359.219.594-.073.43-.219.586-.359.234-.641.234-.495-.078-.64-.234a.84.84 0 0 1-.211-.586zm5.843.195v2.047h1.579v1.117h-1.579v5.242c0 .339.071.594.211.766.141.167.381.25.719.25.167 0 .396-.031.688-.094V55c-.381.104-.75.156-1.11.156-.646 0-1.133-.195-1.461-.586s-.492-.945-.492-1.664v-5.242h-1.539v-1.117h1.539V44.5h1.445zm10.008 8.383l1.969-6.336h1.547l-3.399 9.758c-.526 1.406-1.362 2.109-2.507 2.109l-.274-.023-.539-.102v-1.172l.391.031c.489 0 .87-.099 1.14-.297.276-.198.503-.56.68-1.086l.32-.859-3.015-8.359h1.578l2.109 6.336zm4.305-2.187c0-.828.161-1.573.484-2.234.328-.661.782-1.172 1.36-1.531s1.247-.539 1.992-.539c1.151 0 2.081.398 2.789 1.195s1.07 1.857 1.07 3.18v.102c0 .823-.159 1.563-.476 2.219a3.56 3.56 0 0 1-1.352 1.523c-.583.365-1.255.547-2.016.547-1.145 0-2.075-.398-2.789-1.195-.708-.797-1.062-1.852-1.062-3.164v-.102zm1.453.172c0 .938.216 1.69.648 2.258.438.568 1.021.852 1.75.852.735 0 1.318-.286 1.75-.859.433-.578.649-1.385.649-2.422 0-.927-.221-1.677-.664-2.25-.438-.578-1.021-.867-1.75-.867-.714 0-1.289.284-1.727.852s-.656 1.38-.656 2.438zm13.274 3.297c-.563.661-1.389.992-2.477.992-.901 0-1.589-.26-2.063-.781-.468-.526-.705-1.302-.71-2.328v-5.5h1.445v5.461c0 1.281.521 1.922 1.562 1.922 1.104 0 1.839-.411 2.203-1.234v-6.148h1.446V55h-1.375l-.031-.836zm7.695-6.32a4.33 4.33 0 0 0-.711-.055c-.948 0-1.591.404-1.93 1.211v6h-1.445v-8.453h1.406l.024.977c.474-.755 1.145-1.133 2.015-1.133.281 0 .495.037.641.109v1.344zm7.265-3.344v2.047h1.579v1.117h-1.579v5.242c0 .339.071.594.211.766.141.167.381.25.719.25.167 0 .396-.031.688-.094V55c-.381.104-.75.156-1.11.156-.646 0-1.133-.195-1.461-.586s-.492-.945-.492-1.664v-5.242h-1.539v-1.117h1.539V44.5h1.445zm7.36 3.344a4.33 4.33 0 0 0-.711-.055c-.948 0-1.591.404-1.93 1.211v6h-1.445v-8.453h1.406l.024.977c.474-.755 1.145-1.133 2.015-1.133.281 0 .495.037.641.109v1.344zM260.5 55c-.083-.167-.151-.464-.203-.891-.672.698-1.474 1.047-2.406 1.047-.834 0-1.519-.234-2.055-.703-.531-.474-.797-1.073-.797-1.797 0-.88.333-1.562 1-2.047.672-.49 1.615-.734 2.828-.734h1.406v-.664c0-.505-.151-.906-.453-1.203-.302-.302-.747-.453-1.336-.453-.515 0-.948.13-1.296.391s-.524.575-.524.945h-1.453c0-.422.148-.828.445-1.219.302-.396.709-.708 1.219-.937.516-.229 1.081-.344 1.695-.344.974 0 1.737.245 2.289.734.552.484.839 1.154.86 2.008v3.891c0 .776.099 1.393.297 1.852V55H260.5zm-2.398-1.102c.453 0 .882-.117 1.289-.352s.7-.539.882-.914v-1.734h-1.132c-1.771 0-2.657.518-2.657 1.555 0 .453.151.807.454 1.063s.69.383 1.164.383zm9.273.078c.516 0 .966-.156 1.352-.469s.599-.703.64-1.172h1.367c-.026.484-.192.945-.5 1.383A3.28 3.28 0 0 1 269 54.766c-.51.26-1.052.391-1.625.391-1.151 0-2.068-.383-2.75-1.148-.677-.771-1.016-1.823-1.016-3.156v-.242c0-.823.151-1.555.453-2.195s.735-1.138 1.297-1.492c.568-.354 1.237-.531 2.008-.531.948 0 1.735.284 2.36.852.63.568.966 1.305 1.007 2.211h-1.367c-.041-.547-.25-.995-.625-1.344a1.91 1.91 0 0 0-1.375-.531c-.734 0-1.305.266-1.711.797-.401.526-.601 1.289-.601 2.289v.273c0 .974.2 1.724.601 2.25s.974.789 1.719.789zm7.344-2.891l-.907.945V55h-1.445V43h1.445v7.258l.774-.93 2.633-2.781h1.758l-3.289 3.531L279.359 55h-1.695l-2.945-3.914zm9.101 4.07c-1.146 0-2.078-.375-2.797-1.125-.718-.755-1.078-1.763-1.078-3.023v-.266c0-.839.159-1.586.477-2.242.323-.661.771-1.177 1.344-1.547a3.38 3.38 0 0 1 1.875-.562c1.099 0 1.953.362 2.562 1.086s.914 1.76.914 3.109v.602h-5.726c.02.833.263 1.508.726 2.023.469.511 1.063.766 1.781.766.511 0 .943-.104 1.297-.312s.664-.484.93-.828l.883.688c-.709 1.089-1.771 1.633-3.188 1.633zm-.179-7.578a1.92 1.92 0 0 0-1.469.641c-.396.422-.641 1.016-.734 1.781h4.234v-.109c-.042-.734-.24-1.302-.594-1.703-.354-.406-.833-.609-1.437-.609zm4.804 3.125c0-1.297.308-2.338.922-3.125a2.91 2.91 0 0 1 2.414-1.187c.99 0 1.774.339 2.352 1.016V43h1.445v12h-1.328l-.07-.906c-.578.708-1.383 1.062-2.414 1.062-.98 0-1.779-.401-2.399-1.203-.614-.802-.922-1.849-.922-3.141v-.109zm1.446.164c0 .958.198 1.708.593 2.25s.943.813 1.641.813c.917 0 1.586-.411 2.008-1.234v-3.883a2.12 2.12 0 0 0-1.992-1.195c-.709 0-1.261.273-1.657.82s-.593 1.357-.593 2.43zm13.867-6.367v2.047h1.578v1.117h-1.578v5.242c0 .339.07.594.211.766.14.167.38.25.719.25.166 0 .395-.031.687-.094V55c-.38.104-.75.156-1.109.156-.646 0-1.133-.195-1.461-.586s-.493-.945-.493-1.664v-5.242h-1.539v-1.117h1.539V44.5h1.446zm4.844 10.5h-1.446v-8.453h1.446V55zm-1.563-10.695a.87.87 0 0 1 .211-.594c.146-.161.359-.242.641-.242s.494.081.64.242.219.359.219.594-.073.43-.219.586-.359.234-.64.234-.495-.078-.641-.234a.84.84 0 0 1-.211-.586zm5.242 2.242l.039.938c.62-.729 1.456-1.094 2.508-1.094 1.182 0 1.987.453 2.414 1.359a3.21 3.21 0 0 1 1.094-.984c.453-.25.987-.375 1.602-.375 1.854 0 2.796.982 2.828 2.945V55h-1.446v-5.578c0-.604-.138-1.055-.414-1.352-.276-.302-.739-.453-1.39-.453-.537 0-.982.161-1.336.484-.354.318-.56.747-.618 1.289V55h-1.453v-5.539c0-1.229-.601-1.844-1.804-1.844-.948 0-1.597.404-1.946 1.211V55h-1.445v-8.453h1.367zm16.18 8.609c-1.146 0-2.078-.375-2.797-1.125-.719-.755-1.078-1.763-1.078-3.023v-.266c0-.839.159-1.586.476-2.242.323-.661.771-1.177 1.344-1.547a3.38 3.38 0 0 1 1.875-.562c1.099 0 1.953.362 2.563 1.086s.914 1.76.914 3.109v.602h-5.727c.021.833.263 1.508.727 2.023.469.511 1.062.766 1.781.766.51 0 .943-.104 1.297-.312s.664-.484.93-.828l.882.688c-.708 1.089-1.77 1.633-3.187 1.633zm-.18-7.578a1.92 1.92 0 0 0-1.469.641c-.395.422-.64 1.016-.734 1.781h4.234v-.109c-.041-.734-.239-1.302-.593-1.703-.354-.406-.834-.609-1.438-.609z"/><path d="M610.484 54.391c-.14 1.203-.586 2.133-1.336 2.789-.744.651-1.737.977-2.976.977-1.344 0-2.422-.482-3.234-1.445s-1.211-2.253-1.211-3.867V51.75c0-1.057.187-1.987.562-2.789s.917-1.417 1.609-1.844c.693-.432 1.495-.648 2.407-.648 1.208 0 2.177.338 2.906 1.016.729.672 1.154 1.604 1.273 2.797h-1.507c-.131-.906-.415-1.562-.852-1.969s-1.039-.609-1.82-.609c-.959 0-1.711.354-2.258 1.063s-.813 1.716-.813 3.023v1.102c0 1.234.258 2.216.774 2.945s1.237 1.094 2.164 1.094c.833 0 1.471-.187 1.914-.562.448-.38.745-1.039.891-1.977h1.507zm1.446-.695c0-.828.161-1.573.484-2.234s.781-1.172 1.359-1.531c.584-.359 1.248-.539 1.993-.539 1.151 0 2.08.398 2.789 1.195s1.07 1.857 1.07 3.18v.102c0 .823-.159 1.563-.477 2.219-.312.651-.763 1.159-1.351 1.523s-1.255.547-2.016.547c-1.146 0-2.075-.398-2.789-1.195-.708-.797-1.062-1.852-1.062-3.164v-.102zm1.453.172c0 .938.216 1.69.648 2.258.438.568 1.021.852 1.75.852.735 0 1.318-.286 1.75-.859.433-.578.649-1.385.649-2.422 0-.927-.222-1.677-.664-2.25-.438-.578-1.021-.867-1.75-.867-.714 0-1.289.284-1.727.852s-.656 1.38-.656 2.438zm9.422-4.32l.047 1.063c.645-.812 1.489-1.219 2.531-1.219 1.786 0 2.687 1.008 2.703 3.023V58h-1.445v-5.594c-.006-.609-.146-1.06-.422-1.352s-.696-.437-1.274-.437c-.468 0-.88.125-1.234.375s-.63.578-.828.984V58h-1.445v-8.453h1.367zm8.828 0l.047 1.063c.646-.812 1.489-1.219 2.531-1.219 1.786 0 2.687 1.008 2.703 3.023V58h-1.445v-5.594c-.005-.609-.146-1.06-.422-1.352s-.695-.437-1.274-.437c-.468 0-.88.125-1.234.375s-.63.578-.828.984V58h-1.445v-8.453h1.367zm10.969 8.609c-1.146 0-2.079-.375-2.797-1.125-.719-.755-1.078-1.763-1.078-3.023v-.266c0-.839.158-1.586.476-2.242.323-.661.771-1.177 1.344-1.547a3.38 3.38 0 0 1 1.875-.562c1.099 0 1.953.362 2.562 1.086s.914 1.76.914 3.109v.602h-5.726c.021.833.263 1.508.726 2.023.469.511 1.063.766 1.782.766.51 0 .942-.104 1.297-.312a3.25 3.25 0 0 0 .929-.828l.883.688c-.708 1.089-1.771 1.633-3.187 1.633zm-.18-7.578a1.92 1.92 0 0 0-1.469.641c-.396.422-.641 1.016-.734 1.781h4.234v-.109c-.042-.734-.239-1.302-.594-1.703-.354-.406-.833-.609-1.437-.609zm8.547 6.398a2.08 2.08 0 0 0 1.351-.469c.386-.312.599-.703.641-1.172h1.367c-.026.484-.193.945-.5 1.383s-.719.786-1.234 1.047a3.53 3.53 0 0 1-1.625.391c-1.151 0-2.068-.383-2.75-1.148-.677-.771-1.016-1.823-1.016-3.156v-.242c0-.823.151-1.555.453-2.195s.735-1.138 1.297-1.492c.568-.354 1.237-.531 2.008-.531.948 0 1.734.284 2.359.852.631.568.966 1.305 1.008 2.211h-1.367a1.97 1.97 0 0 0-.625-1.344 1.91 1.91 0 0 0-1.375-.531c-.734 0-1.305.266-1.711.797-.401.526-.602 1.289-.602 2.289v.273c0 .974.201 1.724.602 2.25s.974.789 1.719.789zm6.945-9.477v2.047h1.578v1.117h-1.578v5.242c0 .339.07.594.211.766.141.167.38.25.719.25.166 0 .396-.031.687-.094V58c-.38.104-.75.156-1.109.156-.646 0-1.133-.195-1.461-.586s-.492-.945-.492-1.664v-5.242h-1.539v-1.117h1.539V47.5h1.445zm9.203 0v2.047h1.578v1.117h-1.578v5.242c0 .339.071.594.211.766.141.167.38.25.719.25.167 0 .396-.031.687-.094V58c-.38.104-.75.156-1.109.156-.646 0-1.133-.195-1.461-.586s-.492-.945-.492-1.664v-5.242h-1.539v-1.117h1.539V47.5h1.445zm2.735 6.195c0-.828.161-1.573.484-2.234s.781-1.172 1.359-1.531c.584-.359 1.248-.539 1.993-.539 1.151 0 2.08.398 2.789 1.195s1.07 1.857 1.07 3.18v.102c0 .823-.159 1.563-.477 2.219-.312.651-.763 1.159-1.351 1.523s-1.255.547-2.016.547c-1.146 0-2.075-.398-2.789-1.195-.708-.797-1.062-1.852-1.062-3.164v-.102zm1.453.172c0 .938.216 1.69.648 2.258.438.568 1.021.852 1.75.852.735 0 1.318-.286 1.75-.859.432-.578.649-1.385.649-2.422 0-.927-.222-1.677-.664-2.25-.438-.578-1.021-.867-1.75-.867-.714 0-1.29.284-1.727.852s-.656 1.38-.656 2.438zm20.648 2.641c-.385.552-.924.966-1.617 1.242-.688.271-1.49.406-2.406.406-.927 0-1.75-.216-2.469-.648-.719-.437-1.276-1.057-1.672-1.859s-.591-1.732-.601-2.789v-.992c0-1.714.398-3.042 1.195-3.984s1.927-1.414 3.375-1.414c1.187 0 2.143.305 2.867.914.724.604 1.167 1.464 1.328 2.578h-1.5c-.281-1.505-1.177-2.258-2.687-2.258-1.006 0-1.769.354-2.289 1.063-.516.703-.776 1.724-.782 3.063v.93c0 1.276.292 2.292.875 3.047.584.75 1.373 1.125 2.368 1.125.562 0 1.054-.062 1.476-.187s.771-.336 1.047-.633v-2.555h-2.633v-1.219h4.125v4.172zm1.899-2.812c0-.828.161-1.573.484-2.234s.781-1.172 1.359-1.531c.584-.359 1.248-.539 1.993-.539 1.151 0 2.08.398 2.789 1.195s1.07 1.857 1.07 3.18v.102c0 .823-.159 1.563-.477 2.219-.312.651-.763 1.159-1.351 1.523s-1.255.547-2.016.547c-1.146 0-2.075-.398-2.789-1.195-.708-.797-1.062-1.852-1.062-3.164v-.102zm1.453.172c0 .938.216 1.69.648 2.258.438.568 1.021.852 1.75.852.735 0 1.318-.286 1.75-.859.432-.578.649-1.385.649-2.422 0-.927-.222-1.677-.664-2.25-.438-.578-1.021-.867-1.75-.867-.714 0-1.29.284-1.727.852s-.656 1.38-.656 2.438zm7.672-.172c0-.828.161-1.573.484-2.234s.781-1.172 1.359-1.531c.584-.359 1.248-.539 1.992-.539 1.152 0 2.081.398 2.79 1.195s1.07 1.857 1.07 3.18v.102c0 .823-.159 1.563-.477 2.219-.312.651-.763 1.159-1.351 1.523s-1.255.547-2.016.547c-1.146 0-2.075-.398-2.789-1.195-.708-.797-1.062-1.852-1.062-3.164v-.102zm1.453.172c0 .938.216 1.69.648 2.258.438.568 1.021.852 1.75.852.734 0 1.318-.286 1.75-.859.432-.578.649-1.385.649-2.422 0-.927-.222-1.677-.665-2.25a2.08 2.08 0 0 0-1.75-.867 2.07 2.07 0 0 0-1.726.852c-.438.568-.656 1.38-.656 2.438zm7.711-.164c0-1.318.304-2.365.914-3.141.609-.781 1.416-1.172 2.422-1.172 1.031 0 1.835.365 2.414 1.094l.07-.937h1.32v8.25c0 1.094-.325 1.956-.976 2.586-.646.63-1.516.945-2.61.945a4.35 4.35 0 0 1-1.789-.391c-.583-.26-1.028-.617-1.336-1.07l.75-.867c.62.766 1.378 1.148 2.274 1.148.703 0 1.25-.198 1.64-.594.396-.396.594-.953.594-1.672v-.727c-.578.667-1.367 1-2.367 1-.99 0-1.792-.398-2.406-1.195s-.914-1.883-.914-3.258zm1.453.164c0 .953.195 1.703.586 2.25.39.542.937.813 1.64.813.912 0 1.581-.414 2.008-1.242v-3.859c-.443-.807-1.107-1.211-1.992-1.211-.703 0-1.253.273-1.648.82s-.594 1.357-.594 2.43zM723.039 58h-1.445V46h1.445v12zm5.828.156c-1.146 0-2.078-.375-2.797-1.125-.718-.755-1.078-1.763-1.078-3.023v-.266c0-.839.159-1.586.477-2.242.323-.661.771-1.177 1.343-1.547.579-.375 1.204-.562 1.876-.562 1.098 0 1.953.362 2.562 1.086s.914 1.76.914 3.109v.602h-5.726c.02.833.263 1.508.726 2.023.469.511 1.063.766 1.781.766.511 0 .943-.104 1.297-.312s.664-.484.93-.828l.883.688c-.709 1.089-1.771 1.633-3.188 1.633zm-.179-7.578a1.92 1.92 0 0 0-1.469.641c-.396.422-.641 1.016-.735 1.781h4.235v-.109c-.042-.734-.24-1.302-.594-1.703-.354-.406-.833-.609-1.437-.609zm17.718 3.813c-.14 1.203-.586 2.133-1.336 2.789-.744.651-1.737.977-2.976.977-1.344 0-2.422-.482-3.235-1.445-.807-.964-1.211-2.253-1.211-3.867V51.75c0-1.057.188-1.987.563-2.789s.917-1.417 1.609-1.844c.693-.432 1.495-.648 2.407-.648 1.208 0 2.177.338 2.906 1.016.729.672 1.153 1.604 1.273 2.797h-1.508c-.13-.906-.414-1.562-.851-1.969s-1.039-.609-1.82-.609c-.959 0-1.711.354-2.258 1.063s-.813 1.716-.813 3.023v1.102c0 1.234.258 2.216.774 2.945s1.237 1.094 2.164 1.094c.833 0 1.471-.187 1.914-.562.448-.38.745-1.039.89-1.977h1.508zM753.453 58c-.083-.167-.151-.464-.203-.891-.672.698-1.474 1.047-2.406 1.047-.834 0-1.518-.234-2.055-.703-.531-.474-.797-1.073-.797-1.797 0-.88.334-1.562 1-2.047.672-.49 1.615-.734 2.828-.734h1.407v-.664c0-.505-.151-.906-.454-1.203-.302-.302-.747-.453-1.335-.453-.516 0-.948.13-1.297.391s-.524.575-.524.945h-1.453c0-.422.148-.828.445-1.219.302-.396.709-.708 1.219-.937.516-.229 1.081-.344 1.695-.344.974 0 1.737.245 2.289.734.553.484.839 1.154.86 2.008v3.891c0 .776.099 1.393.297 1.852V58h-1.516zm-2.398-1.102a2.54 2.54 0 0 0 1.289-.352c.406-.234.7-.539.883-.914v-1.734h-1.133c-1.771 0-2.656.518-2.656 1.555 0 .453.151.807.453 1.063s.69.383 1.164.383zM758.508 58h-1.446V46h1.446v12zm5.828.156c-1.146 0-2.078-.375-2.797-1.125-.719-.755-1.078-1.763-1.078-3.023v-.266c0-.839.159-1.586.477-2.242.322-.661.77-1.177 1.343-1.547a3.38 3.38 0 0 1 1.875-.562c1.099 0 1.953.362 2.563 1.086s.914 1.76.914 3.109v.602h-5.727c.021.833.263 1.508.727 2.023.469.511 1.062.766 1.781.766.51 0 .943-.104 1.297-.312s.664-.484.93-.828l.882.688c-.708 1.089-1.77 1.633-3.187 1.633zm-.18-7.578a1.92 1.92 0 0 0-1.468.641c-.396.422-.641 1.016-.735 1.781h4.235v-.109c-.042-.734-.24-1.302-.594-1.703-.354-.406-.834-.609-1.438-.609zm6.524-1.031l.047 1.063c.645-.812 1.489-1.219 2.531-1.219 1.786 0 2.687 1.008 2.703 3.023V58h-1.445v-5.594c-.006-.609-.146-1.06-.422-1.352s-.696-.437-1.274-.437c-.468 0-.88.125-1.234.375s-.63.578-.828.984V58h-1.446v-8.453h1.368zm7.109 4.156c0-1.297.307-2.338.922-3.125a2.91 2.91 0 0 1 2.414-1.187c.99 0 1.773.339 2.352 1.016V46h1.445v12h-1.328l-.071-.906c-.578.708-1.382 1.062-2.414 1.062-.979 0-1.778-.401-2.398-1.203s-.922-1.849-.922-3.141v-.109zm1.445.164c0 .958.198 1.708.594 2.25s.943.813 1.641.813c.916 0 1.586-.411 2.008-1.234v-3.883c-.433-.797-1.097-1.195-1.993-1.195-.708 0-1.26.273-1.656.82s-.594 1.357-.594 2.43zM792.391 58c-.084-.167-.151-.464-.203-.891-.672.698-1.474 1.047-2.407 1.047-.833 0-1.518-.234-2.054-.703a2.3 2.3 0 0 1-.797-1.797c0-.88.333-1.562 1-2.047.672-.49 1.614-.734 2.828-.734h1.406v-.664c0-.505-.151-.906-.453-1.203-.302-.302-.747-.453-1.336-.453-.516 0-.948.13-1.297.391s-.523.575-.523.945h-1.453c0-.422.148-.828.445-1.219.302-.396.708-.708 1.219-.937s1.08-.344 1.695-.344c.974 0 1.737.245 2.289.734.552.484.839 1.154.859 2.008v3.891c0 .776.099 1.393.297 1.852V58h-1.515zm-2.399-1.102a2.54 2.54 0 0 0 1.289-.352c.407-.234.701-.539.883-.914v-1.734h-1.133c-1.771 0-2.656.518-2.656 1.555 0 .453.151.807.453 1.063s.69.383 1.164.383zm9.969-6.055a4.33 4.33 0 0 0-.711-.055c-.948 0-1.591.404-1.93 1.211v6h-1.445v-8.453h1.406l.024.977c.474-.755 1.146-1.133 2.015-1.133.282 0 .495.037.641.109v1.344zm4.922 2.852c0-.828.161-1.573.484-2.234.328-.661.781-1.172 1.36-1.531s1.247-.539 1.992-.539c1.151 0 2.08.398 2.789 1.195s1.07 1.857 1.07 3.18v.102c0 .823-.159 1.563-.476 2.219a3.56 3.56 0 0 1-1.352 1.523c-.583.365-1.255.547-2.016.547-1.145 0-2.075-.398-2.789-1.195-.708-.797-1.062-1.852-1.062-3.164v-.102zm1.453.172c0 .938.216 1.69.648 2.258.438.568 1.021.852 1.75.852.735 0 1.318-.286 1.75-.859.433-.578.649-1.385.649-2.422 0-.927-.222-1.677-.664-2.25-.438-.578-1.021-.867-1.75-.867-.714 0-1.289.284-1.727.852s-.656 1.38-.656 2.438zm12.141-3.023a4.33 4.33 0 0 0-.711-.055c-.948 0-1.592.404-1.93 1.211v6h-1.445v-8.453h1.406l.023.977c.474-.755 1.146-1.133 2.016-1.133.281 0 .495.037.641.109v1.344zm14.281 1.836c0 1.115-.188 2.089-.563 2.922-.375.828-.906 1.461-1.593 1.898s-1.49.656-2.407.656c-.896 0-1.69-.219-2.383-.656-.692-.443-1.231-1.07-1.617-1.883-.38-.818-.575-1.763-.586-2.836v-.82c0-1.094.19-2.06.571-2.898s.916-1.479 1.609-1.922c.698-.448 1.495-.672 2.391-.672.911 0 1.713.221 2.406.664.698.438 1.234 1.075 1.609 1.914.375.833.563 1.805.563 2.914v.719zm-1.492-.734c0-1.349-.271-2.383-.813-3.102-.542-.724-1.299-1.086-2.273-1.086-.948 0-1.696.362-2.242 1.086-.542.719-.821 1.719-.836 3v.836c0 1.307.273 2.336.82 3.086.552.745 1.31 1.117 2.273 1.117.969 0 1.719-.352 2.25-1.055.532-.708.805-1.721.821-3.039v-.844zM840 57.164c-.562.661-1.388.992-2.477.992-.901 0-1.588-.26-2.062-.781-.469-.526-.706-1.302-.711-2.328v-5.5h1.445v5.461c0 1.281.521 1.922 1.563 1.922 1.104 0 1.838-.411 2.203-1.234v-6.148h1.445V58h-1.375l-.031-.836zm5.57-9.664v2.047h1.578v1.117h-1.578v5.242c0 .339.071.594.211.766.141.167.38.25.719.25.167 0 .396-.031.688-.094V58c-.381.104-.75.156-1.11.156-.646 0-1.133-.195-1.461-.586s-.492-.945-.492-1.664v-5.242h-1.539v-1.117h1.539V47.5h1.445zm4.844 10.5h-1.445V46h1.445v12zm1.938-4.305c0-.828.161-1.573.484-2.234s.781-1.172 1.359-1.531c.584-.359 1.248-.539 1.993-.539 1.151 0 2.08.398 2.789 1.195s1.07 1.857 1.07 3.18v.102c0 .823-.159 1.563-.477 2.219-.312.651-.763 1.159-1.351 1.523s-1.255.547-2.016.547c-1.146 0-2.075-.398-2.789-1.195-.708-.797-1.062-1.852-1.062-3.164v-.102zm1.453.172c0 .938.216 1.69.648 2.258.438.568 1.021.852 1.75.852.735 0 1.318-.286 1.75-.859.432-.578.649-1.385.649-2.422 0-.927-.222-1.677-.664-2.25-.438-.578-1.021-.867-1.75-.867-.714 0-1.29.284-1.727.852s-.656 1.38-.656 2.438zm7.672-.172c0-.828.161-1.573.484-2.234s.781-1.172 1.359-1.531c.584-.359 1.248-.539 1.992-.539 1.152 0 2.081.398 2.79 1.195s1.07 1.857 1.07 3.18v.102c0 .823-.159 1.563-.477 2.219-.312.651-.763 1.159-1.351 1.523s-1.255.547-2.016.547c-1.146 0-2.075-.398-2.789-1.195-.708-.797-1.062-1.852-1.062-3.164v-.102zm1.453.172c0 .938.216 1.69.648 2.258.438.568 1.021.852 1.75.852.734 0 1.318-.286 1.75-.859.432-.578.649-1.385.649-2.422 0-.927-.222-1.677-.665-2.25a2.08 2.08 0 0 0-1.75-.867 2.07 2.07 0 0 0-1.726.852c-.438.568-.656 1.38-.656 2.438zm10.414.219l-.906.945V58h-1.446V46h1.446v7.258l.773-.93 2.633-2.781h1.758l-3.29 3.531L877.984 58h-1.695l-2.945-3.914z"/><path d="M798.328 771.859h-3.656V782h-1.492v-10.141h-3.649v-1.234h8.797v1.234zm4.953 2.985c-.219-.037-.455-.055-.711-.055-.948 0-1.591.404-1.929 1.211v6h-1.446v-8.453h1.407l.023.976c.474-.755 1.146-1.132 2.016-1.132.281 0 .494.036.64.109v1.344zm6.242 7.156c-.083-.167-.151-.464-.203-.891-.672.698-1.474 1.047-2.406 1.047-.833 0-1.518-.234-2.055-.703-.531-.474-.797-1.073-.797-1.797 0-.88.334-1.562 1-2.047.672-.489 1.615-.734 2.829-.734h1.406v-.664c0-.505-.151-.906-.453-1.203-.302-.302-.748-.453-1.336-.453-.516 0-.948.13-1.297.39s-.523.576-.523.946h-1.454c0-.422.149-.829.446-1.219.302-.396.708-.708 1.218-.938.516-.229 1.081-.343 1.696-.343.974 0 1.737.244 2.289.734.552.484.838 1.154.859 2.008v3.89c0 .776.099 1.394.297 1.852V782h-1.516zm-2.398-1.102c.453 0 .883-.117 1.289-.351s.701-.539.883-.914v-1.735h-1.133c-1.771 0-2.656.519-2.656 1.555 0 .453.151.807.453 1.063s.69.382 1.164.382zm9.273.079c.516 0 .967-.157 1.352-.469s.599-.703.641-1.172h1.367c-.026.484-.193.945-.5 1.383s-.719.786-1.235 1.047a3.53 3.53 0 0 1-1.625.39c-1.151 0-2.067-.383-2.75-1.148-.677-.771-1.015-1.823-1.015-3.156v-.243c0-.823.151-1.554.453-2.195s.734-1.138 1.297-1.492 1.237-.531 2.008-.531c.948 0 1.734.283 2.359.851s.966 1.305 1.008 2.211h-1.367c-.042-.547-.25-.995-.625-1.344a1.91 1.91 0 0 0-1.375-.531c-.735 0-1.305.266-1.711.797-.401.526-.602 1.289-.602 2.289v.274c0 .973.201 1.723.602 2.25s.974.789 1.718.789zm7.344-2.891l-.906.945V782h-1.445v-12h1.445v7.258l.773-.93 2.633-2.781H828l-3.289 3.531 3.672 4.922h-1.695l-2.946-3.914zm11.68-6.586v2.047H837v1.117h-1.578v5.242c0 .339.07.594.211.766s.38.25.719.25a3.47 3.47 0 0 0 .687-.094V782c-.38.104-.75.156-1.109.156-.646 0-1.133-.195-1.461-.586s-.492-.945-.492-1.664v-5.242h-1.539v-1.117h1.539V771.5h1.445zm4.844 10.5h-1.446v-8.453h1.446V782zm-1.563-10.695a.87.87 0 0 1 .211-.594c.146-.162.359-.242.641-.242s.494.08.64.242a.85.85 0 0 1 .219.594c0 .234-.073.429-.219.586s-.359.234-.64.234-.495-.078-.641-.234-.211-.352-.211-.586zm5.242 2.242l.039.937c.62-.729 1.456-1.093 2.508-1.093 1.182 0 1.987.453 2.414 1.359a3.22 3.22 0 0 1 1.094-.984c.453-.25.987-.375 1.602-.375 1.854 0 2.796.981 2.828 2.945V782h-1.446v-5.578c0-.604-.138-1.055-.414-1.352-.276-.302-.739-.453-1.39-.453-.537 0-.982.162-1.336.485-.354.317-.56.747-.617 1.289V782h-1.454v-5.539c0-1.229-.601-1.844-1.804-1.844-.948 0-1.597.404-1.946 1.211V782h-1.445v-8.453h1.367zm16.18 8.609c-1.146 0-2.078-.375-2.797-1.125s-1.078-1.763-1.078-3.023v-.266c0-.838.159-1.586.477-2.242s.77-1.177 1.343-1.547a3.38 3.38 0 0 1 1.875-.562c1.099 0 1.953.362 2.563 1.086s.914 1.76.914 3.109v.602h-5.727c.021.833.263 1.507.727 2.023.469.51 1.062.766 1.781.766.511 0 .943-.105 1.297-.313s.664-.484.93-.828l.882.687c-.708 1.089-1.77 1.633-3.187 1.633zm-.18-7.578a1.92 1.92 0 0 0-1.468.641c-.396.422-.641 1.015-.735 1.781h4.235v-.109c-.042-.735-.24-1.302-.594-1.703-.354-.407-.834-.61-1.438-.61zm9.836 7.422v-7.336h-1.336v-1.117h1.336v-.867c0-.907.242-1.607.727-2.102s1.169-.742 2.054-.742c.334 0 .665.044.993.133l-.078 1.172a4.15 4.15 0 0 0-.782-.071c-.468 0-.83.138-1.086.414-.255.271-.382.662-.382 1.172v.891h1.804v1.117h-1.804V782h-1.446zm4.469-4.305c0-.828.161-1.573.484-2.234s.782-1.172 1.36-1.531 1.247-.539 1.992-.539c1.151 0 2.081.398 2.789 1.195.714.797 1.07 1.857 1.07 3.18v.101c0 .823-.159 1.563-.476 2.219-.313.651-.763 1.159-1.352 1.523-.583.365-1.255.547-2.015.547-1.146 0-2.076-.398-2.79-1.195-.708-.797-1.062-1.852-1.062-3.164v-.102zm1.453.172c0 .938.216 1.69.649 2.258s1.02.852 1.75.852 1.317-.287 1.75-.86.648-1.385.648-2.422c0-.927-.221-1.677-.664-2.25-.438-.578-1.021-.867-1.75-.867-.714 0-1.289.284-1.727.852s-.656 1.38-.656 2.437zm12.141-3.023c-.219-.037-.456-.055-.711-.055-.948 0-1.591.404-1.93 1.211v6h-1.445v-8.453h1.406l.024.976c.473-.755 1.145-1.132 2.015-1.132.281 0 .495.036.641.109v1.344zm8.812 7.312c-1.146 0-2.078-.375-2.797-1.125s-1.078-1.763-1.078-3.023v-.266c0-.838.159-1.586.477-2.242s.771-1.177 1.344-1.547a3.38 3.38 0 0 1 1.875-.562c1.099 0 1.953.362 2.562 1.086s.914 1.76.914 3.109v.602h-5.726c.02.833.263 1.507.726 2.023.469.51 1.063.766 1.781.766.511 0 .943-.105 1.297-.313s.664-.484.93-.828l.883.687c-.709 1.089-1.771 1.633-3.188 1.633zm-.179-7.578a1.92 1.92 0 0 0-1.469.641c-.396.422-.641 1.015-.735 1.781h4.235v-.109c-.042-.735-.24-1.302-.594-1.703-.354-.407-.833-.61-1.437-.61zm7.835 5.461l2.094-6.492h1.477L904.852 782h-1.102l-3.062-8.453h1.476l2.148 6.492zm8.36 2.117c-1.146 0-2.078-.375-2.797-1.125s-1.078-1.763-1.078-3.023v-.266c0-.838.159-1.586.476-2.242.323-.661.771-1.177 1.344-1.547a3.38 3.38 0 0 1 1.875-.562c1.099 0 1.953.362 2.563 1.086s.914 1.76.914 3.109v.602h-5.727c.021.833.263 1.507.727 2.023.469.51 1.062.766 1.781.766.51 0 .943-.105 1.297-.313s.664-.484.93-.828l.882.687c-.708 1.089-1.77 1.633-3.187 1.633zm-.18-7.578c-.583 0-1.073.214-1.469.641-.395.422-.64 1.015-.734 1.781h4.234v-.109c-.041-.735-.239-1.302-.593-1.703-.354-.407-.834-.61-1.438-.61zm6.524-1.031l.046 1.062a3.08 3.08 0 0 1 2.532-1.218c1.786 0 2.687 1.007 2.703 3.023V782h-1.445v-5.594c-.006-.609-.146-1.06-.422-1.351-.271-.292-.696-.438-1.274-.438-.468 0-.88.125-1.234.375s-.63.578-.828.985V782h-1.446v-8.453h1.368zm9.422-2.047v2.047h1.578v1.117h-1.578v5.242c0 .339.07.594.21.766s.381.25.719.25c.167 0 .396-.031.688-.094V782a4.2 4.2 0 0 1-1.11.156c-.646 0-1.133-.195-1.461-.586s-.492-.945-.492-1.664v-5.242h-1.539v-1.117h1.539V771.5h1.446zm8.195 8.258a1.05 1.05 0 0 0-.445-.906c-.292-.219-.805-.407-1.54-.563-.729-.156-1.309-.344-1.742-.562-.427-.219-.745-.48-.953-.782s-.305-.661-.305-1.078c0-.693.292-1.278.875-1.758.589-.479 1.339-.718 2.25-.718.959 0 1.735.247 2.329.742a2.35 2.35 0 0 1 .898 1.898h-1.453c0-.396-.169-.737-.508-1.023-.333-.287-.755-.43-1.266-.43-.526 0-.937.115-1.234.344a1.08 1.08 0 0 0-.445.898c0 .349.138.612.414.789s.773.347 1.492.508 1.31.354 1.758.578.778.495.992.813c.219.312.328.695.328 1.148 0 .755-.302 1.362-.906 1.821-.604.453-1.388.679-2.352.679-.677 0-1.276-.12-1.797-.359a2.97 2.97 0 0 1-1.226-1 2.45 2.45 0 0 1-.438-1.399h1.446a1.51 1.51 0 0 0 .578 1.157c.364.281.844.422 1.437.422.547 0 .985-.11 1.313-.329.333-.224.5-.52.5-.89zM949.148 782c-.083-.167-.151-.464-.203-.891-.672.698-1.474 1.047-2.406 1.047-.833 0-1.518-.234-2.055-.703-.531-.474-.796-1.073-.796-1.797 0-.88.333-1.562 1-2.047s1.614-.734 2.828-.734h1.406v-.664c0-.505-.151-.906-.453-1.203-.302-.302-.748-.453-1.336-.453-.516 0-.948.13-1.297.39s-.524.576-.524.946h-1.453c0-.422.149-.829.446-1.219.302-.396.708-.708 1.218-.938.516-.229 1.081-.343 1.696-.343.974 0 1.737.244 2.289.734.552.484.838 1.154.859 2.008v3.89c0 .776.099 1.394.297 1.852V782h-1.516zm-2.398-1.102c.453 0 .883-.117 1.289-.351s.701-.539.883-.914v-1.735h-1.133c-1.771 0-2.656.519-2.656 1.555 0 .453.151.807.453 1.063s.69.382 1.164.382zm7.25-7.351l.047 1.062c.646-.812 1.489-1.218 2.531-1.218 1.787 0 2.688 1.007 2.703 3.023V782h-1.445v-5.594c-.005-.609-.146-1.06-.422-1.351-.271-.292-.695-.438-1.273-.438-.469 0-.881.125-1.235.375s-.63.578-.828.985V782h-1.445v-8.453H954zm7.109 4.156c0-1.297.308-2.338.922-3.125a2.91 2.91 0 0 1 2.414-1.187c.99 0 1.774.338 2.352 1.015V770h1.445v12h-1.328l-.07-.906c-.578.708-1.383 1.062-2.414 1.062-.979 0-1.779-.401-2.399-1.203-.614-.802-.922-1.849-.922-3.141v-.109zm1.446.164c0 .959.198 1.709.593 2.25s.943.813 1.641.813c.917 0 1.586-.412 2.008-1.235v-3.883c-.432-.796-1.096-1.195-1.992-1.195-.709 0-1.261.274-1.657.821s-.593 1.356-.593 2.429zM979.68 782c-.084-.167-.151-.464-.203-.891-.672.698-1.474 1.047-2.407 1.047-.833 0-1.518-.234-2.054-.703a2.3 2.3 0 0 1-.797-1.797c0-.88.333-1.562 1-2.047s1.614-.734 2.828-.734h1.406v-.664c0-.505-.151-.906-.453-1.203-.302-.302-.747-.453-1.336-.453-.516 0-.948.13-1.297.39s-.523.576-.523.946h-1.453c0-.422.148-.829.445-1.219a3.09 3.09 0 0 1 1.219-.938c.515-.229 1.08-.343 1.695-.343.974 0 1.737.244 2.289.734.552.484.839 1.154.859 2.008v3.89c0 .776.099 1.394.297 1.852V782h-1.515zm-2.399-1.102c.453 0 .883-.117 1.289-.351s.701-.539.883-.914v-1.735h-1.133c-1.771 0-2.656.519-2.656 1.555 0 .453.151.807.453 1.063s.69.382 1.164.382zm10.805-1.14c0-.391-.148-.693-.445-.906-.292-.219-.805-.407-1.539-.563s-1.31-.344-1.743-.562c-.427-.219-.744-.48-.953-.782-.203-.302-.304-.661-.304-1.078 0-.693.291-1.278.875-1.758s1.338-.718 2.25-.718c.958 0 1.734.247 2.328.742a2.35 2.35 0 0 1 .898 1.898H988c0-.396-.169-.737-.508-1.023-.333-.287-.755-.43-1.265-.43-.526 0-.938.115-1.235.344a1.08 1.08 0 0 0-.445.898c0 .349.138.612.414.789s.773.347 1.492.508c.724.162 1.31.354 1.758.578s.779.495.992.813c.219.312.328.695.328 1.148 0 .755-.302 1.362-.906 1.821-.604.453-1.388.679-2.352.679-.677 0-1.276-.12-1.796-.359s-.93-.573-1.227-1a2.45 2.45 0 0 1-.438-1.399h1.446c.026.485.219.87.578 1.157.365.281.844.422 1.437.422.547 0 .985-.11 1.313-.329.333-.224.5-.52.5-.89zm8.25 0c0-.391-.148-.693-.445-.906-.292-.219-.805-.407-1.539-.563s-1.31-.344-1.743-.562c-.427-.219-.744-.48-.953-.782-.203-.302-.304-.661-.304-1.078 0-.693.291-1.278.875-1.758s1.338-.718 2.25-.718c.958 0 1.734.247 2.328.742a2.35 2.35 0 0 1 .898 1.898h-1.453c0-.396-.169-.737-.508-1.023-.333-.287-.755-.43-1.265-.43-.526 0-.938.115-1.235.344a1.08 1.08 0 0 0-.445.898c0 .349.138.612.414.789s.773.347 1.492.508c.724.162 1.31.354 1.758.578s.779.495.992.813c.219.312.328.695.328 1.148 0 .755-.302 1.362-.906 1.821-.604.453-1.388.679-2.352.679-.677 0-1.276-.12-1.796-.359s-.93-.573-1.227-1a2.45 2.45 0 0 1-.438-1.399h1.446c.026.485.219.87.578 1.157.365.281.844.422 1.437.422.547 0 .985-.11 1.313-.329.333-.224.5-.52.5-.89zm4.894 2.242h-1.441v-8.453h1.441V782zm-1.558-10.695a.87.87 0 0 1 .211-.594c.147-.162.357-.242.637-.242s.5.08.64.242c.15.161.22.359.22.594a.81.81 0 0 1-.22.586c-.14.156-.36.234-.64.234s-.49-.078-.637-.234c-.141-.157-.211-.352-.211-.586zm3.538 6.398c0-1.318.31-2.364.91-3.141.61-.781 1.42-1.171 2.43-1.171 1.03 0 1.83.364 2.41 1.093l.07-.937h1.32v8.25c0 1.094-.32 1.956-.97 2.586s-1.52.945-2.61.945c-.61 0-1.21-.13-1.79-.39-.59-.261-1.03-.618-1.34-1.071l.75-.867c.62.766 1.38 1.148 2.27 1.148.71 0 1.25-.197 1.64-.593.4-.396.6-.953.6-1.672v-.727c-.58.667-1.37 1-2.37 1-.99 0-1.79-.398-2.41-1.195-.6-.797-.91-1.883-.91-3.258zm1.45.164c0 .953.2 1.703.59 2.25s.94.813 1.64.813c.91 0 1.58-.414 2.01-1.242v-3.86c-.44-.807-1.11-1.211-1.99-1.211-.71 0-1.26.274-1.65.821-.4.546-.6 1.356-.6 2.429zm9.25-4.32l.04 1.062c.65-.812 1.49-1.218 2.53-1.218 1.79 0 2.69 1.007 2.71 3.023V782h-1.45v-5.594c0-.609-.14-1.06-.42-1.351-.27-.292-.7-.438-1.27-.438-.47 0-.88.125-1.24.375a2.6 2.6 0 0 0-.83.985V782h-1.44v-8.453h1.37zm8.82 0l.04.937c.62-.729 1.45-1.093 2.5-1.093 1.19 0 1.99.453 2.42 1.359a3.17 3.17 0 0 1 1.09-.984c.45-.25.99-.375 1.6-.375 1.86 0 2.8.981 2.83 2.945V782h-1.44v-5.578c0-.604-.14-1.055-.42-1.352-.27-.302-.74-.453-1.39-.453-.54 0-.98.162-1.34.485-.35.317-.55.747-.61 1.289V782h-1.46v-5.539c0-1.229-.6-1.844-1.8-1.844-.95 0-1.6.404-1.95 1.211V782h-1.44v-8.453h1.37zm16.18 8.609c-1.15 0-2.08-.375-2.8-1.125s-1.08-1.763-1.08-3.023v-.266c0-.838.16-1.586.48-2.242s.77-1.177 1.34-1.547a3.38 3.38 0 0 1 1.88-.562c1.1 0 1.95.362 2.56 1.086s.91 1.76.91 3.109v.602h-5.72c.02.833.26 1.507.72 2.023.47.51 1.07.766 1.78.766.51 0 .95-.105 1.3-.313.36-.208.67-.484.93-.828l.88.687c-.7 1.089-1.77 1.633-3.18 1.633zm-.18-7.578c-.59 0-1.08.214-1.47.641-.4.422-.64 1.015-.74 1.781h4.24v-.109c-.04-.735-.24-1.302-.6-1.703-.35-.407-.83-.61-1.43-.61zm6.52-1.031l.05 1.062a3.07 3.07 0 0 1 2.53-1.218c1.78 0 2.69 1.007 2.7 3.023V782h-1.44v-5.594c-.01-.609-.15-1.06-.43-1.351-.27-.292-.69-.438-1.27-.438a2.06 2.06 0 0 0-1.23.375c-.36.25-.63.578-.83.985V782h-1.45v-8.453h1.37zm9.42-2.047v2.047h1.58v1.117h-1.58v5.242c0 .339.07.594.21.766s.38.25.72.25a3.44 3.44 0 0 0 .69-.094V782c-.38.104-.75.156-1.11.156-.65 0-1.13-.195-1.46-.586s-.49-.945-.49-1.664v-5.242h-1.54v-1.117h1.54V771.5h1.44z"/><path d="M390.102 779.391c-.141 1.203-.586 2.132-1.336 2.789-.745.651-1.737.976-2.977.976-1.344 0-2.422-.482-3.234-1.445s-1.211-2.253-1.211-3.867v-1.094c0-1.057.187-1.987.562-2.789s.917-1.417 1.61-1.844 1.494-.648 2.406-.648c1.208 0 2.177.338 2.906 1.015.729.672 1.154 1.605 1.274 2.797h-1.508c-.13-.906-.414-1.562-.852-1.969-.432-.406-1.039-.609-1.82-.609-.958 0-1.711.354-2.258 1.063-.542.708-.812 1.716-.812 3.023v1.102c0 1.234.257 2.216.773 2.945s1.237 1.094 2.164 1.094c.833 0 1.471-.188 1.914-.563.448-.38.745-1.039.891-1.976h1.508zm1.445-.696c0-.828.161-1.573.484-2.234s.781-1.172 1.36-1.531 1.247-.539 1.992-.539c1.151 0 2.081.398 2.789 1.195s1.07 1.857 1.07 3.18v.101c0 .823-.159 1.563-.476 2.219-.313.651-.763 1.159-1.352 1.523-.583.365-1.255.547-2.016.547-1.145 0-2.075-.398-2.789-1.195-.708-.797-1.062-1.852-1.062-3.164v-.102zm1.453.172c0 .938.216 1.69.648 2.258.438.568 1.021.852 1.75.852.735 0 1.318-.287 1.75-.86s.649-1.385.649-2.422c0-.927-.221-1.677-.664-2.25-.438-.578-1.021-.867-1.75-.867-.714 0-1.289.284-1.727.852s-.656 1.38-.656 2.437zm9.414-4.32l.039.937c.62-.729 1.456-1.093 2.508-1.093 1.182 0 1.987.453 2.414 1.359.281-.406.646-.734 1.094-.984.453-.25.987-.375 1.601-.375 1.854 0 2.797.981 2.828 2.945V783h-1.445v-5.578c0-.604-.138-1.055-.414-1.352-.276-.302-.74-.453-1.391-.453-.536 0-.981.162-1.336.485-.354.317-.559.747-.617 1.289V783h-1.453v-5.539c0-1.229-.601-1.844-1.804-1.844-.948 0-1.597.404-1.946 1.211V783h-1.445v-8.453h1.367zm19.813 4.32c0 1.287-.295 2.323-.883 3.11s-1.386 1.179-2.391 1.179c-1.026 0-1.833-.325-2.422-.976v4.07h-1.445v-11.703h1.32l.071.937c.588-.729 1.406-1.093 2.453-1.093 1.015 0 1.817.382 2.406 1.148s.891 1.831.891 3.195v.133zm-1.446-.164c0-.953-.203-1.706-.609-2.258s-.964-.828-1.672-.828c-.875 0-1.531.388-1.969 1.164v4.039c.433.771 1.094 1.157 1.985 1.157.692 0 1.242-.274 1.648-.821.412-.552.617-1.37.617-2.453zm8.508 4.297c-.083-.167-.151-.464-.203-.891-.672.698-1.474 1.047-2.406 1.047-.834 0-1.519-.234-2.055-.703s-.797-1.073-.797-1.797c0-.88.333-1.562 1-2.047.672-.489 1.615-.734 2.828-.734h1.406v-.664c0-.505-.151-.906-.453-1.203-.302-.302-.747-.453-1.336-.453-.515 0-.947.13-1.296.39s-.524.576-.524.946H424c0-.422.148-.829.445-1.219.302-.396.709-.708 1.219-.938.516-.229 1.081-.343 1.695-.343.974 0 1.737.244 2.289.734.553.484.839 1.154.86 2.008v3.89c0 .776.099 1.394.297 1.852V783h-1.516zm-2.398-1.102c.453 0 .882-.117 1.289-.351s.7-.539.882-.914v-1.735h-1.132c-1.771 0-2.657.519-2.657 1.555 0 .453.151.807.454 1.063s.69.382 1.164.382zm9.968-6.054a4.26 4.26 0 0 0-.711-.055c-.947 0-1.591.404-1.929 1.211v6h-1.446v-8.453h1.407l.023.976c.474-.755 1.146-1.132 2.016-1.132.281 0 .495.036.64.109v1.344zm4.688 7.312c-1.146 0-2.078-.375-2.797-1.125s-1.078-1.763-1.078-3.023v-.266c0-.838.159-1.586.476-2.242.323-.661.771-1.177 1.344-1.547a3.38 3.38 0 0 1 1.875-.562c1.099 0 1.953.362 2.563 1.086s.914 1.76.914 3.109v.602h-5.727c.021.833.263 1.507.727 2.023.468.51 1.062.766 1.781.766.51 0 .943-.105 1.297-.313s.664-.484.93-.828l.882.687c-.708 1.089-1.77 1.633-3.187 1.633zm-.18-7.578c-.583 0-1.073.214-1.469.641-.395.422-.64 1.015-.734 1.781h4.234v-.109c-.041-.735-.239-1.302-.593-1.703-.354-.407-.834-.61-1.438-.61zm16.266 3.289c0 1.287-.294 2.323-.883 3.11s-1.385 1.179-2.391 1.179c-1.026 0-1.833-.325-2.421-.976v4.07h-1.446v-11.703h1.32l.071.937c.588-.729 1.406-1.093 2.453-1.093 1.016 0 1.818.382 2.406 1.148.594.766.891 1.831.891 3.195v.133zm-1.445-.164c0-.953-.204-1.706-.61-2.258a1.96 1.96 0 0 0-1.672-.828c-.875 0-1.531.388-1.968 1.164v4.039c.432.771 1.093 1.157 1.984 1.157.693 0 1.242-.274 1.648-.821.412-.552.618-1.37.618-2.453zm4.859 4.297h-1.445v-12h1.445v12zm7.539 0c-.083-.167-.151-.464-.203-.891-.672.698-1.474 1.047-2.406 1.047-.834 0-1.519-.234-2.055-.703s-.797-1.073-.797-1.797c0-.88.333-1.562 1-2.047.672-.489 1.615-.734 2.828-.734h1.406v-.664c0-.505-.151-.906-.453-1.203-.302-.302-.747-.453-1.336-.453-.515 0-.948.13-1.297.39s-.523.576-.523.946h-1.453c0-.422.148-.829.445-1.219.302-.396.709-.708 1.219-.938.516-.229 1.081-.343 1.695-.343.974 0 1.737.244 2.289.734.552.484.839 1.154.86 2.008v3.89c0 .776.099 1.394.297 1.852V783h-1.516zm-2.398-1.102c.453 0 .882-.117 1.289-.351s.7-.539.882-.914v-1.735h-1.132c-1.771 0-2.657.519-2.657 1.555 0 .453.151.807.453 1.063s.691.382 1.165.382zm7.25-7.351l.046 1.062a3.08 3.08 0 0 1 2.532-1.218c1.786 0 2.687 1.007 2.703 3.023V783h-1.446v-5.594c-.005-.609-.145-1.06-.421-1.351-.271-.292-.696-.438-1.274-.438-.469 0-.88.125-1.234.375s-.63.578-.828.985V783h-1.446v-8.453h1.368zm8.828 0l.046 1.062a3.08 3.08 0 0 1 2.532-1.218c1.786 0 2.687 1.007 2.703 3.023V783h-1.445v-5.594c-.006-.609-.146-1.06-.422-1.351s-.696-.438-1.274-.438c-.468 0-.88.125-1.234.375s-.63.578-.828.985V783h-1.446v-8.453h1.368zm10.968 8.609c-1.145 0-2.078-.375-2.796-1.125s-1.079-1.763-1.079-3.023v-.266c0-.838.159-1.586.477-2.242s.771-1.177 1.344-1.547a3.38 3.38 0 0 1 1.875-.562c1.099 0 1.953.362 2.562 1.086s.914 1.76.914 3.109v.602h-5.726c.021.833.263 1.507.726 2.023.469.51 1.063.766 1.781.766.511 0 .943-.105 1.297-.313s.664-.484.93-.828l.883.687c-.708 1.089-1.771 1.633-3.188 1.633zm-.179-7.578a1.92 1.92 0 0 0-1.469.641c-.396.422-.641 1.015-.734 1.781h4.234v-.109c-.042-.735-.24-1.302-.594-1.703-.354-.407-.833-.61-1.437-.61zm4.804 3.125c0-1.297.308-2.338.922-3.125a2.91 2.91 0 0 1 2.414-1.187c.99 0 1.774.338 2.352 1.015V771h1.445v12h-1.328l-.07-.906c-.578.708-1.383 1.062-2.414 1.062-.979 0-1.779-.401-2.399-1.203-.614-.802-.922-1.849-.922-3.141v-.109zm1.446.164c0 .959.198 1.709.593 2.25s.943.813 1.641.813c.917 0 1.586-.412 2.008-1.235v-3.883c-.432-.796-1.096-1.195-1.992-1.195-.709 0-1.261.274-1.657.821s-.593 1.356-.593 2.429zM514 781.039l2.094-6.492h1.476L514.539 783h-1.101l-3.063-8.453h1.477l2.148 6.492zm9.883-.281a1.05 1.05 0 0 0-.445-.906c-.292-.219-.805-.407-1.54-.563-.729-.156-1.309-.344-1.742-.562-.427-.219-.745-.48-.953-.782s-.305-.661-.305-1.078c0-.693.292-1.278.875-1.758.589-.479 1.339-.718 2.25-.718.959 0 1.735.247 2.329.742a2.35 2.35 0 0 1 .898 1.898h-1.453c0-.396-.169-.737-.508-1.023-.333-.287-.755-.43-1.266-.43-.526 0-.937.115-1.234.344a1.08 1.08 0 0 0-.445.898c0 .349.138.612.414.789s.773.347 1.492.508 1.31.354 1.758.578.778.495.992.813c.219.312.328.695.328 1.148 0 .755-.302 1.362-.906 1.821-.604.453-1.388.679-2.352.679-.677 0-1.276-.12-1.797-.359a2.97 2.97 0 0 1-1.226-1 2.45 2.45 0 0 1-.438-1.399h1.446a1.51 1.51 0 0 0 .578 1.157c.364.281.844.422 1.437.422.547 0 .985-.11 1.313-.329.333-.224.5-.52.5-.89zm9.258-8.258v2.047h1.578v1.117h-1.578v5.242c0 .339.07.594.211.766s.38.25.718.25c.167 0 .396-.031.688-.094V783c-.38.104-.75.156-1.11.156-.645 0-1.132-.195-1.46-.586s-.493-.945-.493-1.664v-5.242h-1.539v-1.117h1.539V772.5h1.446zm7.359 3.344c-.219-.037-.456-.055-.711-.055-.948 0-1.591.404-1.93 1.211v6h-1.445v-8.453h1.406l.024.976c.474-.755 1.146-1.132 2.015-1.132.282 0 .495.036.641.109v1.344zm6.242 7.156c-.083-.167-.151-.464-.203-.891-.672.698-1.474 1.047-2.406 1.047-.834 0-1.518-.234-2.055-.703-.531-.474-.797-1.073-.797-1.797 0-.88.334-1.562 1-2.047.672-.489 1.615-.734 2.828-.734h1.407v-.664c0-.505-.151-.906-.454-1.203-.302-.302-.747-.453-1.335-.453-.516 0-.948.13-1.297.39s-.524.576-.524.946h-1.453c0-.422.149-.829.445-1.219.303-.396.709-.708 1.219-.938.516-.229 1.081-.343 1.695-.343.974 0 1.737.244 2.29.734.552.484.838 1.154.859 2.008v3.89c0 .776.099 1.394.297 1.852V783h-1.516zm-2.398-1.102c.453 0 .883-.117 1.289-.351s.7-.539.883-.914v-1.735h-1.133c-1.771 0-2.656.519-2.656 1.555 0 .453.151.807.453 1.063s.69.382 1.164.382zm9.273.079c.516 0 .966-.157 1.352-.469s.599-.703.64-1.172h1.368c-.026.484-.193.945-.5 1.383a3.3 3.3 0 0 1-1.235 1.047 3.53 3.53 0 0 1-1.625.39c-1.151 0-2.068-.383-2.75-1.148-.677-.771-1.015-1.823-1.015-3.156v-.243c0-.823.151-1.554.453-2.195s.734-1.138 1.297-1.492 1.237-.531 2.007-.531c.948 0 1.735.283 2.36.851s.966 1.305 1.008 2.211h-1.368c-.041-.547-.25-.995-.625-1.344-.369-.354-.828-.531-1.375-.531-.734 0-1.304.266-1.711.797-.401.526-.601 1.289-.601 2.289v.274c0 .973.2 1.723.601 2.25s.974.789 1.719.789zm7.344-2.891l-.906.945V783h-1.446v-12h1.446v7.258l.773-.93 2.633-2.781h1.758l-3.289 3.531 3.672 4.922h-1.696l-2.945-3.914zm9.101 4.07c-1.145 0-2.078-.375-2.796-1.125s-1.078-1.763-1.078-3.023v-.266c0-.838.158-1.586.476-2.242s.771-1.177 1.344-1.547a3.38 3.38 0 0 1 1.875-.562c1.099 0 1.953.362 2.562 1.086s.914 1.76.914 3.109v.602h-5.726c.021.833.263 1.507.726 2.023.469.51 1.063.766 1.782.766.51 0 .942-.105 1.297-.313a3.24 3.24 0 0 0 .929-.828l.883.687c-.708 1.089-1.771 1.633-3.188 1.633zm-.179-7.578a1.92 1.92 0 0 0-1.469.641c-.396.422-.641 1.015-.734 1.781h4.234v-.109c-.042-.735-.24-1.302-.594-1.703-.354-.407-.833-.61-1.437-.61zm4.805 3.125c0-1.297.307-2.338.921-3.125a2.91 2.91 0 0 1 2.414-1.187c.99 0 1.774.338 2.352 1.015V771h1.445v12h-1.328l-.07-.906c-.578.708-1.383 1.062-2.414 1.062-.979 0-1.779-.401-2.399-1.203-.614-.802-.921-1.849-.921-3.141v-.109zm1.445.164c0 .959.198 1.709.594 2.25s.942.813 1.64.813c.917 0 1.586-.412 2.008-1.235v-3.883c-.432-.796-1.096-1.195-1.992-1.195-.709 0-1.261.274-1.656.821s-.594 1.356-.594 2.429zM590 772.5v2.047h1.578v1.117H590v5.242c0 .339.07.594.211.766s.38.25.719.25c.166 0 .396-.031.687-.094V783c-.38.104-.75.156-1.109.156-.646 0-1.133-.195-1.461-.586s-.492-.945-.492-1.664v-5.242h-1.539v-1.117h1.539V772.5H590zm4.844 10.5h-1.446v-8.453h1.446V783zm-1.563-10.695c0-.235.071-.433.211-.594.146-.162.36-.242.641-.242s.495.08.64.242a.85.85 0 0 1 .219.594c0 .234-.073.429-.219.586s-.359.234-.64.234-.495-.078-.641-.234c-.14-.157-.211-.352-.211-.586zm5.242 2.242l.039.937c.62-.729 1.456-1.093 2.508-1.093 1.183 0 1.987.453 2.414 1.359a3.22 3.22 0 0 1 1.094-.984c.453-.25.987-.375 1.602-.375 1.854 0 2.797.981 2.828 2.945V783h-1.446v-5.578c0-.604-.138-1.055-.414-1.352-.276-.302-.739-.453-1.39-.453-.537 0-.982.162-1.336.485-.354.317-.56.747-.617 1.289V783h-1.453v-5.539c0-1.229-.602-1.844-1.805-1.844-.948 0-1.596.404-1.945 1.211V783h-1.446v-8.453h1.367zm16.18 8.609c-1.146 0-2.078-.375-2.797-1.125s-1.078-1.763-1.078-3.023v-.266c0-.838.159-1.586.477-2.242.323-.661.771-1.177 1.343-1.547.579-.375 1.204-.562 1.875-.562 1.099 0 1.954.362 2.563 1.086s.914 1.76.914 3.109v.602h-5.727c.021.833.263 1.507.727 2.023.469.51 1.062.766 1.781.766.511 0 .943-.105 1.297-.313s.664-.484.93-.828l.883.687c-.709 1.089-1.771 1.633-3.188 1.633zm-.18-7.578a1.92 1.92 0 0 0-1.468.641c-.396.422-.641 1.015-.735 1.781h4.235v-.109c-.042-.735-.24-1.302-.594-1.703-.354-.407-.833-.61-1.438-.61z"/></g></svg>