<svg xmlns="http://www.w3.org/2000/svg" width="1150" height="1264" fill="none" xmlns:v="https://vecta.io/nano"><ellipse rx="3" ry="2.981" transform="matrix(0 1 1 0 811.981 1139)" fill="#2f2f2f"/><path d="M812 1203v-64.5" stroke="#2f2f2f" stroke-width=".635"/><g fill="#2f2f2f"><path d="M697.102 1221.93c-1.287-.37-2.224-.82-2.813-1.36a2.62 2.62 0 0 1-.875-2c0-.9.357-1.64 1.07-2.22.72-.6 1.65-.88 2.797-.88.78 0 1.477.15 2.086.45.615.3 1.09.72 1.422 1.25.34.53.508 1.1.508 1.74h-1.508c0-.68-.22-1.22-.656-1.6-.438-.4-1.055-.6-1.852-.6-.74 0-1.317.17-1.734.5-.412.32-.617.77-.617 1.35 0 .46.195.85.586 1.18.395.3 1.065.6 2.007.87.948.27 1.688.56 2.22.88.537.32.932.7 1.188 1.12s.4.93.4 1.5c0 .92-.36 1.66-1.078 2.22-.72.55-1.68.83-2.883.83-.78 0-1.5-.15-2.187-.45s-1.2-.7-1.57-1.23-.547-1.12-.547-1.78h1.507c0 .7.253 1.23.758 1.64.51.4 1.2.6 2.04.6.792 0 1.4-.16 1.82-.48.422-.33.632-.77.632-1.33 0-.55-.195-.98-.585-1.28-.39-.3-1.1-.6-2.125-.9zm9.43 5.23c-1.146 0-2.078-.38-2.797-1.13s-1.078-1.76-1.078-3.02v-.27c0-.84.16-1.58.477-2.24s.77-1.18 1.344-1.55 1.203-.56 1.875-.56c1.1 0 1.953.36 2.562 1.1.61.72.914 1.76.914 3.1v.6h-5.726c.02.83.263 1.5.726 2.02.47.5 1.063.77 1.78.77.51 0 .943-.1 1.297-.32a3.17 3.17 0 0 0 .93-.82l.883.68c-.71 1.1-1.77 1.64-3.188 1.64zm-.18-7.58a1.91 1.91 0 0 0-1.469.64c-.396.42-.64 1-.735 1.78h4.235v-.1c-.042-.73-.24-1.3-.594-1.7-.354-.4-.833-.6-1.437-.6zm8.664 7.58c-1.146 0-2.078-.38-2.797-1.13s-1.078-1.76-1.078-3.02v-.27c0-.84.158-1.58.476-2.24.323-.66.77-1.18 1.344-1.55s1.203-.56 1.875-.56c1.1 0 1.953.36 2.562 1.1.6.72.914 1.76.914 3.1v.6h-5.726c.02.83.263 1.5.726 2.02.47.5 1.063.77 1.782.77.5 0 .942-.1 1.297-.32.354-.2.664-.48.93-.82l.883.68c-.708 1.1-1.77 1.64-3.187 1.64zm-.18-7.58a1.91 1.91 0 0 0-1.469.64c-.396.42-.64 1-.734 1.78h4.234v-.1c-.04-.73-.24-1.3-.594-1.7-.354-.4-.833-.6-1.437-.6zm16.61 5.43l1.625-6.46h1.446l-2.46 8.45h-1.172l-2.055-6.4-2 6.4h-1.172l-2.453-8.45h1.438l1.664 6.33 1.968-6.33h1.165l2.007 6.46zm5.993-5.44c.64-.8 1.473-1.18 2.5-1.18 1.786 0 2.687 1 2.703 3.02v5.6h-1.446v-5.6c-.005-.6-.146-1.06-.422-1.36-.27-.3-.695-.43-1.273-.43a2.08 2.08 0 0 0-1.234.37 2.52 2.52 0 0 0-.828.99v6.02h-1.446v-12h1.446v4.57zm10.874 7.6c-1.145 0-2.078-.38-2.796-1.13s-1.078-1.76-1.078-3.02v-.27c0-.84.158-1.58.476-2.24s.77-1.18 1.344-1.55 1.203-.56 1.875-.56c1.1 0 1.953.36 2.562 1.1.6.72.914 1.76.914 3.1v.6h-5.726c.02.83.263 1.5.726 2.02.47.5 1.063.77 1.782.77.5 0 .942-.1 1.297-.32.354-.2.664-.48.93-.82l.883.68c-.708 1.1-1.77 1.64-3.188 1.64zm-.18-7.58a1.91 1.91 0 0 0-1.469.64c-.396.42-.64 1-.734 1.78h4.234v-.1c-.042-.73-.24-1.3-.594-1.7-.354-.4-.833-.6-1.437-.6zm9.242.26a5.22 5.22 0 0 0-.711-.05c-.948 0-1.59.4-1.93 1.2v6h-1.445v-8.45h1.406l.024.97c.474-.75 1.146-1.13 2.015-1.13.282 0 .495.04.64.1v1.34zm4.687 7.32c-1.145 0-2.078-.38-2.796-1.13s-1.078-1.76-1.078-3.02v-.27c0-.84.158-1.58.476-2.24s.77-1.18 1.344-1.55 1.203-.56 1.875-.56c1.1 0 1.953.36 2.562 1.1.6.72.914 1.76.914 3.1v.6h-5.726c.02.83.263 1.5.726 2.02.47.5 1.063.77 1.782.77.5 0 .942-.1 1.297-.32.354-.2.664-.48.93-.82l.883.68c-.708 1.1-1.77 1.64-3.188 1.64zm-.18-7.58a1.91 1.91 0 0 0-1.469.64c-.396.42-.64 1-.734 1.78h4.234v-.1c-.042-.73-.24-1.3-.594-1.7-.354-.4-.833-.6-1.437-.6zm11.9 5.3l1.97-6.33h1.547l-3.398 9.75c-.526 1.4-1.362 2.1-2.508 2.1h-.274l-.54-.1v-1.17l.39.03c.5 0 .87-.1 1.14-.3.276-.2.502-.56.68-1.08l.32-.86-3.016-8.36h1.578l2.11 6.33zm4.305-2.18c0-.83.162-1.58.484-2.24.33-.66.782-1.17 1.36-1.53s1.247-.54 1.992-.54c1.15 0 2.08.4 2.79 1.2.714.8 1.07 1.85 1.07 3.18v.1c0 .82-.158 1.56-.476 2.22a3.59 3.59 0 0 1-1.352 1.52c-.583.36-1.255.55-2.015.55-1.146 0-2.076-.4-2.79-1.2s-1.063-1.85-1.063-3.16v-.1zm1.453.17c0 .93.216 1.7.65 2.25.437.57 1.02.86 1.75.86.734 0 1.317-.3 1.75-.86.432-.58.648-1.4.648-2.42 0-.93-.22-1.68-.664-2.25a2.08 2.08 0 0 0-1.75-.87c-.713 0-1.29.28-1.726.85s-.657 1.38-.657 2.44zm13.274 3.3c-.563.67-1.388 1-2.477 1-.9 0-1.588-.26-2.062-.78-.47-.53-.706-1.3-.71-2.33v-5.5H789v5.46c0 1.28.52 1.92 1.562 1.92 1.105 0 1.84-.4 2.204-1.23v-6.15h1.445v8.45h-1.375l-.03-.84zm7.695-6.32a5.22 5.22 0 0 0-.711-.05c-.948 0-1.59.4-1.93 1.2v6h-1.445v-8.45h1.406l.024.97c.474-.75 1.146-1.13 2.015-1.13.282 0 .495.04.64.1v1.34zm7.266-3.34v2.05h1.578v1.1h-1.578v5.25c0 .33.07.6.21.76s.38.25.718.25c.167 0 .396-.03.688-.1v1.17c-.38.1-.75.16-1.1.16-.645 0-1.132-.2-1.46-.6s-.492-.95-.492-1.66v-5.25h-1.54v-1.1h1.54v-2.05h1.446zm6.78 10.66c-1.146 0-2.078-.38-2.797-1.13s-1.078-1.76-1.078-3.02v-.27c0-.84.16-1.58.476-2.24.323-.66.77-1.18 1.344-1.55.578-.37 1.203-.56 1.875-.56 1.1 0 1.953.36 2.563 1.1.61.72.914 1.76.914 3.1v.6h-5.727c.02.83.263 1.5.727 2.02s1.062.77 1.78.77c.5 0 .943-.1 1.297-.32a3.17 3.17 0 0 0 .93-.82l.882.68c-.708 1.1-1.77 1.64-3.187 1.64zm-.18-7.58a1.91 1.91 0 0 0-1.469.64c-.395.42-.64 1-.734 1.78h4.234v-.1c-.04-.73-.24-1.3-.593-1.7-.354-.4-.834-.6-1.438-.6zm10.375 7.42c-.083-.17-.15-.46-.203-.9-.672.7-1.474 1.05-2.406 1.05-.834 0-1.518-.24-2.055-.7a2.29 2.29 0 0 1-.797-1.79c0-.88.334-1.57 1-2.05.672-.5 1.615-.73 2.828-.73h1.407v-.67c0-.5-.15-.9-.454-1.2-.302-.3-.747-.46-1.335-.46-.516 0-.948.13-1.297.4-.35.26-.524.57-.524.94h-1.453c0-.42.15-.83.445-1.22.303-.4.71-.7 1.22-.94a4.28 4.28 0 0 1 1.695-.34c.974 0 1.737.25 2.3.73.552.5.838 1.16.86 2v3.9c0 .78.1 1.4.297 1.86v.12h-1.516zm-2.398-1.1c.453 0 .883-.12 1.29-.35.406-.24.7-.54.883-.92v-1.73h-1.133c-1.77 0-2.656.52-2.656 1.55 0 .46.15.8.453 1.07.302.25.7.38 1.164.38zm7.242-7.35l.04.93c.62-.72 1.456-1.1 2.508-1.1 1.182 0 1.987.45 2.414 1.36a3.16 3.16 0 0 1 1.094-.98c.453-.25.987-.38 1.6-.38 1.854 0 2.797.98 2.828 2.95v5.66h-1.445v-5.58c0-.6-.138-1.05-.414-1.35s-.74-.45-1.39-.45c-.536 0-.98.16-1.336.48s-.56.75-.617 1.3v5.6h-1.453v-5.54c0-1.23-.602-1.84-1.805-1.84-.948 0-1.596.4-1.945 1.2v6.17h-1.445v-8.45h1.367zm21.562 6.2c0-.4-.148-.7-.445-.9s-.805-.4-1.54-.56-1.3-.34-1.742-.56-.745-.48-.953-.78c-.203-.3-.305-.67-.305-1.08 0-.7.292-1.28.875-1.76.59-.48 1.34-.72 2.25-.72.958 0 1.734.25 2.328.74.6.5.9 1.13.9 1.9h-1.454c0-.4-.17-.74-.507-1.02-.334-.3-.756-.43-1.266-.43-.526 0-.937.1-1.234.34s-.446.53-.446.9c0 .35.138.6.414.8s.774.35 1.493.5c.724.16 1.3.35 1.757.58.448.22.78.5.993.8.218.3.328.7.328 1.15a2.18 2.18 0 0 1-.906 1.82c-.605.45-1.39.68-2.352.68-.677 0-1.276-.12-1.797-.36s-.93-.58-1.227-1a2.48 2.48 0 0 1-.437-1.4h1.445c.026.48.22.87.578 1.15.365.3.844.43 1.438.43.547 0 .984-.1 1.312-.33.334-.23.5-.52.5-.9zm10.47-1.9c0 1.28-.294 2.32-.883 3.1a2.84 2.84 0 0 1-2.39 1.18c-1.026 0-1.834-.33-2.422-.98v4.07h-1.445v-11.7h1.32l.07.93c.59-.72 1.406-1.1 2.453-1.1 1.016 0 1.818.38 2.407 1.15.593.76.9 1.83.9 3.2v.14zm-1.445-.17c0-.95-.203-1.7-.6-2.25-.406-.56-.963-.83-1.67-.83-.875 0-1.532.4-1.97 1.16v4.04a2.13 2.13 0 0 0 1.984 1.16c.693 0 1.242-.28 1.65-.82.41-.56.617-1.37.617-2.46zm6.797 4.46c-1.146 0-2.078-.38-2.797-1.13s-1.078-1.76-1.078-3.02v-.27c0-.84.16-1.58.476-2.24.323-.66.77-1.18 1.344-1.55s1.203-.56 1.875-.56c1.1 0 1.953.36 2.563 1.1.61.72.914 1.76.914 3.1v.6h-5.727c.02.83.263 1.5.727 2.02s1.062.77 1.78.77c.5 0 .943-.1 1.297-.32.354-.2.664-.48.93-.82l.883.68c-.708 1.1-1.77 1.64-3.187 1.64zm-.18-7.58a1.91 1.91 0 0 0-1.469.64c-.396.42-.64 1-.734 1.78h4.234v-.1c-.04-.73-.24-1.3-.593-1.7-.355-.4-.834-.6-1.438-.6zm6.523-1.03l.047 1.06c.646-.8 1.5-1.22 2.532-1.22 1.786 0 2.687 1 2.703 3.02v5.6h-1.446v-5.6c-.005-.6-.145-1.06-.42-1.36-.27-.3-.696-.43-1.274-.43a2.08 2.08 0 0 0-1.234.37 2.54 2.54 0 0 0-.828.99v6.02h-1.446v-8.45h1.367zm7.1 4.15c0-1.3.307-2.34.922-3.12.614-.8 1.42-1.2 2.414-1.2.99 0 1.773.34 2.35 1.02v-4.4h1.446v12h-1.328l-.07-.9c-.578.7-1.383 1.07-2.414 1.07-.98 0-1.778-.4-2.398-1.2-.615-.8-.922-1.85-.922-3.14v-.1zm1.445.17c0 .96.198 1.7.594 2.25s.943.8 1.64.8c.916 0 1.586-.4 2.007-1.23v-3.9c-.432-.8-1.096-1.2-1.992-1.2-.708 0-1.26.27-1.656.82-.396.54-.594 1.35-.594 2.43zm12.86 1.9c0-.4-.15-.7-.446-.9-.29-.22-.804-.4-1.54-.56-.73-.16-1.3-.34-1.742-.56s-.745-.48-.953-.78c-.203-.3-.305-.67-.305-1.08 0-.7.292-1.28.875-1.76.59-.48 1.34-.72 2.25-.72.96 0 1.735.25 2.328.74.6.5.9 1.13.9 1.9h-1.453c0-.4-.17-.74-.508-1.02-.334-.3-.755-.43-1.266-.43-.526 0-.937.1-1.234.34s-.445.53-.445.9c0 .35.138.6.414.8s.773.35 1.492.5 1.3.35 1.758.58c.447.22.778.5.992.8.218.3.328.7.328 1.15a2.18 2.18 0 0 1-.906 1.82c-.605.45-1.388.68-2.352.68-.677 0-1.276-.12-1.797-.36s-.93-.58-1.226-1c-.292-.44-.438-.9-.438-1.4h1.445c.026.48.22.87.58 1.15.364.3.843.43 1.437.43.547 0 .984-.1 1.313-.33.333-.23.5-.52.5-.9zm9.257-8.26v2.05h1.578v1.1h-1.578v5.25c0 .33.07.6.21.76s.38.25.72.25c.167 0 .396-.03.688-.1v1.17c-.38.1-.75.16-1.1.16-.646 0-1.133-.2-1.46-.6s-.492-.95-.492-1.66v-5.25H901v-1.1h1.54v-2.05h1.445zm4.844 10.5h-1.445v-8.45h1.445v8.45zm-1.562-10.7c0-.23.07-.43.21-.6s.36-.24.64-.24.495.08.64.24a.85.85 0 0 1 .219.59.83.83 0 0 1-.219.59c-.146.16-.36.23-.64.23s-.495-.07-.64-.23-.21-.35-.21-.6zm5.242 2.25l.04.93c.62-.72 1.456-1.1 2.508-1.1 1.182 0 1.987.45 2.414 1.36.28-.4.646-.73 1.093-.98.454-.25.987-.38 1.602-.38 1.854 0 2.797.98 2.828 2.95v5.66h-1.445v-5.58c0-.6-.138-1.05-.414-1.35s-.74-.45-1.39-.45c-.536 0-.982.16-1.336.48s-.56.75-.617 1.3v5.6h-1.453v-5.54c0-1.23-.602-1.84-1.805-1.84-.948 0-1.596.4-1.945 1.2v6.17h-1.445v-8.45h1.367zm16.18 8.6c-1.146 0-2.08-.38-2.797-1.13s-1.08-1.76-1.08-3.02v-.27c0-.84.16-1.58.477-2.24s.77-1.18 1.344-1.55 1.203-.56 1.875-.56c1.1 0 1.953.36 2.562 1.1.6.72.914 1.76.914 3.1v.6h-5.726c.02.83.263 1.5.726 2.02.47.5 1.063.77 1.782.77.5 0 .942-.1 1.296-.32.355-.2.665-.48.93-.82l.883.68c-.708 1.1-1.77 1.64-3.187 1.64zm-.18-7.58a1.91 1.91 0 0 0-1.469.64c-.396.42-.64 1-.734 1.78h4.234v-.1c-.042-.73-.24-1.3-.594-1.7-.354-.4-.833-.6-1.437-.6z"/><ellipse rx="3" ry="2.981" transform="matrix(0 1 1 0 295.981 1140)"/></g><path stroke="#2f2f2f" d="M295.5 1202v-62"/><g fill="#2f2f2f"><path d="M147.102 1221.93c-1.287-.37-2.224-.82-2.813-1.36a2.62 2.62 0 0 1-.875-2c0-.9.357-1.64 1.07-2.22.72-.6 1.65-.88 2.797-.88.78 0 1.477.15 2.086.45.615.3 1.09.72 1.422 1.25.34.53.508 1.1.508 1.74h-1.508c0-.68-.22-1.22-.656-1.6-.438-.4-1.055-.6-1.852-.6-.74 0-1.317.17-1.734.5-.412.32-.617.77-.617 1.35 0 .46.195.85.586 1.18.395.3 1.065.6 2.007.87.948.27 1.688.56 2.22.88.537.32.932.7 1.188 1.12s.4.93.4 1.5c0 .92-.36 1.66-1.078 2.22-.72.55-1.68.83-2.883.83-.78 0-1.5-.15-2.187-.45s-1.2-.7-1.57-1.23-.547-1.12-.547-1.78h1.507c0 .7.253 1.23.758 1.64.51.4 1.2.6 2.04.6.792 0 1.4-.16 1.82-.48.422-.33.632-.77.632-1.33 0-.55-.195-.98-.585-1.28-.39-.3-1.1-.6-2.125-.9zm9.43 5.23c-1.146 0-2.078-.38-2.797-1.13s-1.078-1.76-1.078-3.02v-.27c0-.84.16-1.58.477-2.24s.77-1.18 1.344-1.55 1.203-.56 1.875-.56c1.1 0 1.953.36 2.562 1.1.61.72.914 1.76.914 3.1v.6h-5.726c.02.83.263 1.5.726 2.02.47.5 1.063.77 1.78.77.51 0 .943-.1 1.297-.32a3.17 3.17 0 0 0 .93-.82l.883.68c-.71 1.1-1.77 1.64-3.188 1.64zm-.18-7.58a1.91 1.91 0 0 0-1.469.64c-.396.42-.64 1-.735 1.78h4.235v-.1c-.042-.73-.24-1.3-.594-1.7-.354-.4-.833-.6-1.437-.6zm8.664 7.58c-1.146 0-2.078-.38-2.797-1.13s-1.078-1.76-1.078-3.02v-.27c0-.84.158-1.58.476-2.24.323-.66.77-1.18 1.344-1.55s1.203-.56 1.875-.56c1.1 0 1.953.36 2.562 1.1.6.72.914 1.76.914 3.1v.6h-5.726c.02.83.263 1.5.726 2.02.47.5 1.063.77 1.782.77.5 0 .942-.1 1.297-.32.354-.2.664-.48.93-.82l.883.68c-.708 1.1-1.77 1.64-3.187 1.64zm-.18-7.58a1.91 1.91 0 0 0-1.469.64c-.396.42-.64 1-.734 1.78h4.234v-.1c-.04-.73-.24-1.3-.594-1.7-.354-.4-.833-.6-1.437-.6zm16.61 5.43l1.625-6.46h1.446l-2.46 8.45h-1.172l-2.055-6.4-2 6.4h-1.172l-2.453-8.45h1.438l1.664 6.33 1.968-6.33h1.165l2.007 6.46zm5.993-5.44c.64-.8 1.473-1.18 2.5-1.18 1.786 0 2.687 1 2.703 3.02v5.6h-1.446v-5.6c-.005-.6-.146-1.06-.422-1.36-.27-.3-.695-.43-1.273-.43a2.08 2.08 0 0 0-1.234.37 2.52 2.52 0 0 0-.828.99v6.02h-1.446v-12h1.446v4.57zm12.585 7.43c-.083-.17-.15-.46-.203-.9-.672.7-1.474 1.05-2.406 1.05-.833 0-1.518-.24-2.055-.7a2.29 2.29 0 0 1-.797-1.79c0-.88.334-1.57 1-2.05.672-.5 1.615-.73 2.83-.73h1.406v-.67c0-.5-.15-.9-.453-1.2-.302-.3-.748-.46-1.336-.46-.516 0-.948.13-1.297.4-.35.26-.523.57-.523.94h-1.454c0-.42.15-.83.446-1.22s.708-.7 1.218-.94c.516-.22 1.08-.34 1.696-.34.974 0 1.737.25 2.29.73.552.5.838 1.16.86 2v3.9c0 .78.1 1.4.297 1.86v.12h-1.516zm-2.398-1.1c.453 0 .883-.12 1.29-.35.406-.24.7-.54.883-.92v-1.73h-1.133c-1.77 0-2.656.52-2.656 1.55 0 .46.15.8.453 1.07.302.25.7.38 1.164.38zm7.844-9.4v2.05h1.578v1.1h-1.578v5.25c0 .33.07.6.21.76s.38.25.718.25c.167 0 .396-.03.688-.1v1.17c-.38.1-.75.16-1.11.16-.646 0-1.133-.2-1.46-.6s-.493-.95-.493-1.66v-5.25h-1.54v-1.1h1.54v-2.05h1.446zm10.008 8.38l1.968-6.33h1.547l-3.398 9.75c-.526 1.4-1.362 2.1-2.508 2.1h-.274l-.54-.1v-1.17l.39.03c.5 0 .87-.1 1.14-.3s.502-.56.68-1.08l.32-.86-3.016-8.36h1.578l2.1 6.33zm4.304-2.18c0-.83.162-1.58.485-2.24.328-.66.78-1.17 1.36-1.53s1.247-.54 1.992-.54c1.15 0 2.08.4 2.79 1.2.714.8 1.07 1.85 1.07 3.18v.1c0 .82-.16 1.56-.477 2.22-.312.65-.763 1.15-1.352 1.52-.583.36-1.255.55-2.015.55-1.146 0-2.076-.4-2.79-1.2s-1.063-1.85-1.063-3.16v-.1zm1.453.17c0 .93.217 1.7.65 2.25.437.57 1.02.86 1.75.86s1.318-.3 1.75-.86c.432-.58.648-1.4.648-2.42 0-.93-.22-1.68-.664-2.25a2.08 2.08 0 0 0-1.75-.87c-.713 0-1.29.28-1.726.85s-.657 1.38-.657 2.44zm13.274 3.3c-.563.67-1.388 1-2.477 1-.9 0-1.588-.26-2.062-.78-.47-.53-.706-1.3-.71-2.33v-5.5h1.445v5.46c0 1.28.52 1.92 1.563 1.92 1.104 0 1.838-.4 2.203-1.23v-6.15h1.445v8.45h-1.375l-.03-.84zm7.695-6.32a5.22 5.22 0 0 0-.711-.05c-.948 0-1.59.4-1.93 1.2v6h-1.445v-8.45h1.406l.024.97c.474-.75 1.146-1.13 2.015-1.13.282 0 .495.04.64.1v1.34zm7.266-3.34v2.05h1.578v1.1h-1.578v5.25c0 .33.07.6.21.76s.38.25.718.25c.167 0 .396-.03.688-.1v1.17c-.38.1-.75.16-1.11.16-.646 0-1.133-.2-1.46-.6s-.493-.95-.493-1.66v-5.25h-1.54v-1.1h1.54v-2.05h1.446zm6.78 10.66c-1.146 0-2.078-.38-2.797-1.13s-1.078-1.76-1.078-3.02v-.27c0-.84.16-1.58.477-2.24s.77-1.18 1.343-1.55c.578-.37 1.203-.56 1.875-.56 1.1 0 1.953.36 2.563 1.1.61.72.914 1.76.914 3.1v.6h-5.727c.02.83.263 1.5.727 2.02s1.062.77 1.78.77c.51 0 .943-.1 1.297-.32a3.17 3.17 0 0 0 .93-.82l.883.68c-.71 1.1-1.77 1.64-3.188 1.64zm-.18-7.58a1.91 1.91 0 0 0-1.468.64c-.396.42-.64 1-.735 1.78h4.235v-.1c-.042-.73-.24-1.3-.594-1.7-.354-.4-.834-.6-1.438-.6zm10.375 7.42c-.083-.17-.15-.46-.203-.9-.672.7-1.474 1.05-2.406 1.05-.833 0-1.518-.24-2.055-.7a2.29 2.29 0 0 1-.797-1.79c0-.88.334-1.57 1-2.05.672-.5 1.615-.73 2.828-.73h1.407v-.67c0-.5-.15-.9-.453-1.2-.302-.3-.748-.46-1.336-.46-.516 0-.948.13-1.297.4-.35.26-.524.57-.524.94h-1.453c0-.42.15-.83.446-1.22.302-.4.708-.7 1.218-.94.516-.22 1.08-.34 1.696-.34.974 0 1.737.25 2.29.73.552.5.838 1.16.86 2v3.9c0 .78.1 1.4.297 1.86v.12h-1.516zm-2.398-1.1c.453 0 .883-.12 1.29-.35.406-.24.7-.54.883-.92v-1.73h-1.133c-1.77 0-2.656.52-2.656 1.55 0 .46.15.8.453 1.07.302.25.7.38 1.164.38zm7.242-7.35l.04.93c.62-.72 1.456-1.1 2.508-1.1 1.182 0 1.987.45 2.414 1.36a3.16 3.16 0 0 1 1.094-.98c.453-.25.987-.38 1.6-.38 1.854 0 2.797.98 2.828 2.95v5.66h-1.445v-5.58c0-.6-.138-1.05-.414-1.35s-.74-.45-1.39-.45c-.536 0-.98.16-1.335.48s-.56.75-.618 1.3v5.6h-1.453v-5.54c0-1.23-.6-1.84-1.805-1.84-.947 0-1.596.4-1.945 1.2v6.17h-1.445v-8.45h1.367zm20.03 7.43c.516 0 .966-.16 1.352-.47s.6-.7.64-1.17h1.368c-.026.48-.193.94-.5 1.38s-.72.8-1.235 1.05a3.53 3.53 0 0 1-1.625.39c-1.15 0-2.067-.4-2.75-1.15-.677-.77-1.015-1.83-1.015-3.16v-.24c0-.82.15-1.56.453-2.2s.734-1.13 1.297-1.5c.567-.35 1.237-.53 2.007-.53.948 0 1.735.28 2.36.85s.966 1.3 1.008 2.2h-1.368c-.04-.54-.25-1-.624-1.34s-.83-.53-1.376-.53c-.734 0-1.304.26-1.7.8-.4.52-.602 1.28-.602 2.28v.28c0 .97.2 1.72.602 2.25.4.52.974.8 1.718.8zm10.203.18c-.562.67-1.388 1-2.476 1-.9 0-1.59-.26-2.063-.78-.468-.53-.705-1.3-.71-2.33v-5.5h1.446v5.46c0 1.28.52 1.92 1.562 1.92 1.104 0 1.84-.4 2.203-1.23v-6.15h1.446v8.45h-1.375l-.032-.84zm7.696-6.32a5.22 5.22 0 0 0-.711-.05c-.948 0-1.59.4-1.93 1.2v6h-1.445v-8.45h1.406l.023.97c.474-.75 1.146-1.13 2.016-1.13.28 0 .495.04.64.1v1.34zm5.422 0a5.22 5.22 0 0 0-.711-.05c-.948 0-1.59.4-1.93 1.2v6h-1.445v-8.45h1.406l.023.97c.474-.75 1.146-1.13 2.016-1.13.28 0 .495.04.64.1v1.34zm4.687 7.32c-1.146 0-2.078-.38-2.797-1.13s-1.078-1.76-1.078-3.02v-.27c0-.84.16-1.58.477-2.24s.77-1.18 1.343-1.55c.58-.37 1.204-.56 1.875-.56 1.1 0 1.954.36 2.563 1.1.61.72.914 1.76.914 3.1v.6h-5.727c.02.83.263 1.5.727 2.02s1.063.77 1.78.77c.51 0 .943-.1 1.297-.32a3.17 3.17 0 0 0 .93-.82l.883.68c-.71 1.1-1.77 1.64-3.188 1.64zm-.18-7.58a1.91 1.91 0 0 0-1.468.64c-.396.42-.64 1-.735 1.78h4.235v-.1c-.042-.73-.24-1.3-.594-1.7-.354-.4-.833-.6-1.438-.6zm6.524-1.03l.047 1.06c.646-.8 1.49-1.22 2.53-1.22 1.786 0 2.688 1 2.703 3.02v5.6h-1.445v-5.6c-.005-.6-.146-1.06-.422-1.36-.27-.3-.695-.43-1.274-.43-.468 0-.88.12-1.234.37a2.54 2.54 0 0 0-.828.99v6.02h-1.445v-8.45h1.367zm9.422-2.05v2.05h1.578v1.1h-1.578v5.25c0 .33.07.6.21.76s.38.25.718.25c.167 0 .396-.03.688-.1v1.17c-.38.1-.75.16-1.11.16-.646 0-1.133-.2-1.46-.6s-.493-.95-.493-1.66v-5.25h-1.54v-1.1h1.54v-2.05h1.446zm4.844 10.5h-1.446v-12h1.446v12zm5.085-2.12l1.97-6.33h1.547l-3.398 9.75c-.526 1.4-1.362 2.1-2.508 2.1h-.274l-.54-.1v-1.17l.39.03c.5 0 .87-.1 1.14-.3.276-.2.502-.56.68-1.08l.32-.86-3.016-8.36h1.578l2.11 6.33zm16.266.13l1.625-6.46h1.445l-2.46 8.45h-1.17l-2.055-6.4-2 6.4H355.5l-2.453-8.45h1.437l1.664 6.33 1.97-6.33h1.164l2.008 6.46zm4.164-2.3c0-.83.162-1.58.485-2.24.328-.66.78-1.17 1.36-1.53s1.247-.54 1.992-.54c1.15 0 2.08.4 2.79 1.2.714.8 1.07 1.85 1.07 3.18v.1c0 .82-.158 1.56-.476 2.22a3.59 3.59 0 0 1-1.352 1.52c-.583.36-1.255.55-2.015.55-1.146 0-2.076-.4-2.79-1.2s-1.063-1.85-1.063-3.16v-.1zm1.453.17c0 .93.216 1.7.65 2.25.437.57 1.02.86 1.75.86s1.317-.3 1.75-.86c.432-.58.648-1.4.648-2.42 0-.93-.22-1.68-.664-2.25a2.08 2.08 0 0 0-1.75-.87c-.713 0-1.29.28-1.727.85s-.656 1.38-.656 2.44zm12.14-3.03a5.22 5.22 0 0 0-.711-.05c-.948 0-1.59.4-1.93 1.2v6h-1.445v-8.45h1.406l.024.97c.474-.75 1.145-1.13 2.015-1.13.282 0 .495.04.64.1v1.34zm3.695 3.25l-.906.94v2.97h-1.445v-12h1.445v7.26l.773-.93 2.633-2.78H387l-3.29 3.53 3.672 4.92h-1.695l-2.946-3.9zm10.672 1.67c0-.4-.148-.7-.445-.9-.292-.22-.805-.4-1.54-.56s-1.3-.34-1.742-.56-.745-.48-.954-.78c-.203-.3-.304-.67-.304-1.08 0-.7.29-1.28.875-1.76s1.338-.72 2.25-.72c.958 0 1.734.25 2.328.74a2.36 2.36 0 0 1 .898 1.9h-1.453c0-.4-.17-.74-.508-1.02-.333-.3-.755-.43-1.265-.43-.526 0-.938.1-1.235.34s-.445.53-.445.9c0 .35.138.6.414.8s.773.35 1.492.5 1.3.35 1.758.58c.448.22.78.5.992.8.22.3.328.7.328 1.15a2.18 2.18 0 0 1-.906 1.82c-.604.45-1.388.68-2.35.68-.678 0-1.276-.12-1.797-.36s-.93-.58-1.227-1c-.292-.44-.437-.9-.437-1.4h1.445c.026.48.22.87.578 1.15.365.3.844.43 1.438.43.546 0 .984-.1 1.312-.33.333-.23.5-.52.5-.9zm6.914-2.06c0-.83.162-1.58.484-2.24.33-.66.782-1.17 1.36-1.53s1.247-.54 1.992-.54c1.15 0 2.08.4 2.79 1.2.714.8 1.07 1.85 1.07 3.18v.1c0 .82-.158 1.56-.476 2.22a3.59 3.59 0 0 1-1.352 1.52c-.583.36-1.255.55-2.015.55-1.146 0-2.076-.4-2.79-1.2s-1.063-1.85-1.063-3.16v-.1zm1.453.17c0 .93.216 1.7.65 2.25.437.57 1.02.86 1.75.86s1.317-.3 1.75-.86c.432-.58.648-1.4.648-2.42 0-.93-.22-1.68-.664-2.25a2.08 2.08 0 0 0-1.75-.87c-.713 0-1.29.28-1.726.85s-.657 1.38-.657 2.44zm9.422-4.32l.047 1.06c.646-.8 1.5-1.22 2.53-1.22 1.787 0 2.688 1 2.703 3.02v5.6h-1.445v-5.6c-.005-.6-.146-1.06-.422-1.36-.27-.3-.695-.43-1.273-.43-.47 0-.88.12-1.235.37a2.54 2.54 0 0 0-.828.99v6.02h-1.445v-8.45h1.367z"/><ellipse rx="3" ry="2.981" transform="matrix(0 -1 -1 0 155.019 336)"/></g><path d="M155 61v274.5" stroke="#2f2f2f" stroke-width=".635"/><path d="M53.797 45.93c-1.287-.37-2.224-.823-2.812-1.36a2.62 2.62 0 0 1-.875-2c0-.896.357-1.635 1.07-2.22.72-.59 1.65-.883 2.797-.883.78 0 1.477.15 2.086.453.615.302 1.09.72 1.422 1.25a3.18 3.18 0 0 1 .508 1.742h-1.508c0-.687-.22-1.227-.656-1.617-.437-.396-1.055-.594-1.852-.594-.74 0-1.318.164-1.734.492-.41.323-.617.773-.617 1.352 0 .463.195.857.586 1.18.396.318 1.065.61 2.008.875.948.266 1.687.56 2.22.883.536.318.932.7 1.188 1.117.26.427.39.93.39 1.508 0 .922-.36 1.66-1.078 2.22-.72.552-1.68.828-2.883.828-.78 0-1.5-.148-2.187-.445-.677-.302-1.2-.714-1.57-1.234-.365-.52-.547-1.112-.547-1.773h1.508c0 .688.253 1.232.758 1.633.5.396 1.2.594 2.04.594.792 0 1.398-.16 1.82-.484s.633-.763.633-1.32-.195-.987-.586-1.29c-.39-.307-1.1-.61-2.125-.906zm9.43 5.227c-1.146 0-2.078-.375-2.797-1.125-.72-.755-1.078-1.763-1.078-3.023v-.266c0-.84.16-1.586.477-2.242.323-.66.77-1.177 1.344-1.547a3.38 3.38 0 0 1 1.875-.562c1.1 0 1.953.362 2.562 1.086s.914 1.76.914 3.11v.602h-5.726c.02.833.263 1.508.727 2.023.47.51 1.063.766 1.78.766.5 0 .943-.104 1.297-.312a3.26 3.26 0 0 0 .93-.828l.883.688c-.708 1.09-1.77 1.633-3.188 1.633zm-.18-7.578a1.92 1.92 0 0 0-1.469.641c-.396.422-.64 1.016-.734 1.78h4.234v-.11c-.042-.734-.24-1.302-.594-1.703-.354-.406-.833-.61-1.437-.61zm8.664 7.578c-1.146 0-2.078-.375-2.797-1.125-.72-.755-1.078-1.763-1.078-3.023v-.266c0-.84.16-1.586.477-2.242.323-.66.77-1.177 1.344-1.547a3.38 3.38 0 0 1 1.875-.562c1.1 0 1.953.362 2.563 1.086s.914 1.76.914 3.11v.602H69.28c.02.833.263 1.508.727 2.023.47.51 1.063.766 1.78.766.5 0 .943-.104 1.297-.312a3.26 3.26 0 0 0 .93-.828l.883.688c-.708 1.09-1.77 1.633-3.187 1.633zm-.18-7.578a1.92 1.92 0 0 0-1.469.641c-.396.422-.64 1.016-.734 1.78h4.234v-.11c-.042-.734-.24-1.302-.594-1.703-.354-.406-.833-.61-1.438-.61zm16.61 5.43l1.625-6.46h1.445L88.75 51h-1.172l-2.055-6.406-2 6.406h-1.172l-2.453-8.453h1.438L83 48.875l1.97-6.328h1.164l2.008 6.46zm5.992-5.437a3.07 3.07 0 0 1 2.5-1.18c1.787 0 2.688 1.008 2.703 3.023V51H97.89v-5.594c-.005-.61-.146-1.06-.422-1.352-.27-.292-.695-.437-1.273-.437-.47 0-.88.125-1.234.375s-.63.578-.828.984V51h-1.445V39h1.445v4.57zM106.72 51c-.084-.167-.15-.464-.203-.89-.672.698-1.474 1.047-2.407 1.047-.833 0-1.518-.234-2.054-.703a2.3 2.3 0 0 1-.797-1.797c0-.88.333-1.562 1-2.047.672-.5 1.614-.734 2.828-.734h1.406v-.664c0-.505-.15-.906-.453-1.203-.302-.302-.747-.453-1.336-.453-.515 0-.948.13-1.297.39s-.523.575-.523.945h-1.453c0-.422.148-.828.445-1.22.302-.396.708-.708 1.22-.937s1.08-.344 1.695-.344c.974 0 1.737.245 2.29.734.552.484.84 1.154.86 2.008v3.89c0 .776.098 1.393.296 1.852V51h-1.515zm-2.4-1.102a2.54 2.54 0 0 0 1.289-.352c.407-.234.7-.54.883-.914v-1.734h-1.133c-1.77 0-2.656.518-2.656 1.555 0 .453.15.807.453 1.063s.7.383 1.164.383zm7.844-9.398v2.047h1.578v1.117h-1.578v5.242c0 .34.07.594.21.766.14.167.38.25.72.25.166 0 .396-.03.687-.094V51c-.38.104-.75.156-1.11.156-.646 0-1.133-.195-1.46-.586s-.492-.945-.492-1.664v-5.242h-1.54v-1.117h1.54V40.5h1.445zm10.008 8.383l1.97-6.336h1.547l-3.4 9.758c-.526 1.406-1.362 2.11-2.508 2.11l-.273-.023-.54-.102v-1.172l.4.03c.5 0 .87-.1 1.14-.297s.503-.56.68-1.086l.32-.86-3.016-8.36h1.578l2.1 6.336zm4.305-2.187c0-.828.16-1.573.484-2.234.328-.66.78-1.172 1.36-1.53.584-.36 1.248-.54 1.992-.54 1.152 0 2.08.398 2.8 1.195s1.07 1.857 1.07 3.18v.102c0 .823-.16 1.563-.477 2.22-.312.65-.763 1.16-1.35 1.523s-1.255.547-2.016.547c-1.146 0-2.075-.398-2.79-1.195-.708-.797-1.062-1.852-1.062-3.164v-.102zm1.453.172c0 .938.216 1.7.648 2.258.438.568 1.02.852 1.75.852s1.318-.286 1.75-.86c.432-.578.65-1.385.65-2.422 0-.927-.222-1.677-.665-2.25a2.08 2.08 0 0 0-1.75-.867 2.07 2.07 0 0 0-1.726.852c-.438.568-.656 1.38-.656 2.438zm13.273 3.297c-.562.66-1.388.992-2.476.992-.9 0-1.59-.26-2.063-.78-.47-.526-.706-1.302-.71-2.328v-5.5h1.445v5.46c0 1.28.52 1.922 1.563 1.922 1.104 0 1.838-.41 2.203-1.234v-6.148h1.445V51h-1.375l-.03-.836zm7.695-6.32a4.31 4.31 0 0 0-.71-.055c-.948 0-1.592.404-1.93 1.21v6h-1.446v-8.453h1.407l.023.977c.474-.755 1.146-1.133 2.016-1.133.28 0 .495.037.64.11v1.344zm12.8 5.164l1.624-6.46h1.446L162.297 51h-1.172l-2.055-6.406-2 6.406h-1.172l-2.453-8.453h1.438l1.664 6.328 1.97-6.328h1.164l2.008 6.46zm8.054 2.148c-1.146 0-2.078-.375-2.797-1.125-.718-.755-1.078-1.763-1.078-3.023v-.266c0-.84.16-1.586.477-2.242.323-.66.77-1.177 1.344-1.547a3.38 3.38 0 0 1 1.874-.562c1.1 0 1.954.362 2.563 1.086s.914 1.76.914 3.11v.602h-5.727c.02.833.264 1.508.727 2.023.47.51 1.063.766 1.78.766.51 0 .943-.104 1.297-.312s.664-.484.93-.828l.883.688c-.71 1.09-1.77 1.633-3.188 1.633zm-.18-7.578a1.92 1.92 0 0 0-1.468.641c-.396.422-.64 1.016-.735 1.78h4.235v-.11c-.042-.734-.24-1.302-.594-1.703-.354-.406-.833-.61-1.438-.61zm8.665 7.578c-1.146 0-2.08-.375-2.797-1.125-.72-.755-1.078-1.763-1.078-3.023v-.266c0-.84.158-1.586.476-2.242.323-.66.77-1.177 1.344-1.547a3.38 3.38 0 0 1 1.875-.562c1.1 0 1.953.362 2.562 1.086s.914 1.76.914 3.11v.602h-5.726c.02.833.263 1.508.726 2.023.47.51 1.063.766 1.782.766.5 0 .942-.104 1.297-.312a3.25 3.25 0 0 0 .929-.828l.883.688c-.708 1.09-1.77 1.633-3.187 1.633zm-.18-7.578a1.92 1.92 0 0 0-1.469.641c-.396.422-.64 1.016-.734 1.78h4.234v-.11c-.042-.734-.24-1.302-.594-1.703-.354-.406-.833-.61-1.437-.61zm7.515 3.508l-.906.945V51h-1.445V39h1.445v7.258l.774-.93 2.632-2.78h1.758l-3.29 3.53L190.203 51h-1.695l-2.946-3.914zm11.3 3.914h-1.446V39h1.446v12zm1.937-4.305c0-.828.162-1.573.484-2.234.33-.66.782-1.172 1.36-1.53s1.247-.54 1.992-.54c1.15 0 2.08.398 2.79 1.195.714.797 1.07 1.857 1.07 3.18v.102c0 .823-.158 1.563-.476 2.22a3.56 3.56 0 0 1-1.352 1.523c-.583.365-1.255.547-2.015.547-1.146 0-2.076-.398-2.79-1.195s-1.063-1.852-1.063-3.164v-.102zm1.453.172c0 .938.216 1.7.65 2.258s1.02.852 1.75.852 1.317-.286 1.75-.86c.432-.578.648-1.385.648-2.422 0-.927-.22-1.677-.664-2.25a2.08 2.08 0 0 0-1.75-.867c-.714 0-1.29.284-1.727.852s-.656 1.38-.656 2.438zm7.672-.172c0-.828.162-1.573.484-2.234.33-.66.782-1.172 1.36-1.53s1.247-.54 1.992-.54c1.15 0 2.08.398 2.79 1.195.714.797 1.07 1.857 1.07 3.18v.102c0 .823-.158 1.563-.476 2.22a3.56 3.56 0 0 1-1.352 1.523c-.583.365-1.255.547-2.015.547-1.146 0-2.076-.398-2.79-1.195s-1.063-1.852-1.063-3.164v-.102zm1.453.172c0 .938.216 1.7.65 2.258s1.02.852 1.75.852 1.317-.286 1.75-.86c.432-.578.648-1.385.648-2.422 0-.927-.22-1.677-.664-2.25-.438-.578-1.02-.867-1.75-.867-.714 0-1.29.284-1.727.852s-.656 1.38-.656 2.438zm10.414.22l-.906.945V51h-1.445V39h1.445v7.258l.773-.93 2.633-2.78h1.758l-3.29 3.53L224.422 51h-1.695l-2.946-3.914zm10.672 1.672c0-.39-.148-.693-.445-.906-.292-.22-.805-.406-1.54-.562-.73-.156-1.3-.344-1.742-.562s-.745-.48-.954-.78c-.203-.302-.304-.66-.304-1.078 0-.693.29-1.28.875-1.758s1.338-.72 2.25-.72c.958 0 1.734.247 2.328.742a2.35 2.35 0 0 1 .898 1.898h-1.453c0-.396-.17-.737-.508-1.023-.333-.286-.755-.43-1.265-.43-.526 0-.938.115-1.235.344a1.08 1.08 0 0 0-.445.898c0 .35.138.612.414.79s.774.346 1.492.508c.724.16 1.3.354 1.758.578s.78.495.992.813c.22.313.328.695.328 1.148a2.17 2.17 0 0 1-.906 1.82c-.604.453-1.388.68-2.35.68-.677 0-1.276-.12-1.797-.36s-.93-.573-1.227-1c-.29-.432-.437-.898-.437-1.398h1.445c.026.484.22.87.578 1.156.365.28.844.422 1.438.422.547 0 .984-.11 1.312-.328.333-.224.5-.52.5-.89zM239.32 51h-1.445V39h1.445v12zm3.89 0h-1.445v-8.453h1.445V51zm-1.563-10.695c0-.234.07-.432.21-.594.146-.16.36-.242.64-.242s.495.08.64.242.218.36.218.594-.073.43-.218.586-.36.234-.64.234-.495-.078-.64-.234c-.14-.156-.21-.352-.21-.586zm6.243 6.78l-.907.945V51h-1.445V39h1.445v7.258l.774-.93 2.633-2.78h1.757l-3.29 3.53L252.53 51h-1.695l-2.945-3.914zm9.1 4.07c-1.146 0-2.078-.375-2.797-1.125-.718-.755-1.078-1.763-1.078-3.023v-.266c0-.84.16-1.586.477-2.242.323-.66.77-1.177 1.344-1.547a3.38 3.38 0 0 1 1.874-.562c1.1 0 1.954.362 2.563 1.086s.914 1.76.914 3.11v.602h-5.727c.02.833.264 1.508.727 2.023.47.51 1.063.766 1.78.766.51 0 .943-.104 1.297-.312s.664-.484.93-.828l.883.688c-.71 1.09-1.77 1.633-3.188 1.633zm-.18-7.578a1.92 1.92 0 0 0-1.468.641c-.396.422-.64 1.016-.735 1.78h4.235v-.11c-.042-.734-.24-1.302-.594-1.703-.354-.406-.833-.61-1.438-.61z" fill="#2f2f2f"/></svg>