<svg xmlns="http://www.w3.org/2000/svg" width="1150" height="1056" fill="none" xmlns:v="https://vecta.io/nano"><style><![CDATA[.B{fill:#2f2f2f}.C{stroke:#2f2f2f}.D{stroke-width:.635}]]></style><circle r="3" transform="matrix(0 -1 -1 0 944 116)" class="B"/><path d="M944 54v61.675" class="C D"/><circle r="3" transform="matrix(0 -1 -1 0 761 258)" class="B"/><path d="M683 54l-.085 200.015a3.98 3.98 0 0 0 3.983 3.985h74.746" class="C D"/><g class="B"><path d="M887.844 36.93c-1.287-.37-2.224-.823-2.813-1.36a2.62 2.62 0 0 1-.875-2 2.74 2.74 0 0 1 1.071-2.219c.718-.59 1.65-.883 2.796-.883.782 0 1.477.15 2.086.453.615.302 1.09.72 1.422 1.25.34.53.508 1.112.508 1.742h-1.508c0-.687-.22-1.227-.656-1.617-.437-.396-1.055-.594-1.852-.594-.74 0-1.317.164-1.734.492-.41.323-.617.773-.617 1.352 0 .463.195.857.586 1.18.396.318 1.065.61 2.008.875.948.266 1.687.56 2.218.883.537.318.933.7 1.188 1.117s.4.93.4 1.508c0 .922-.36 1.66-1.078 2.22-.718.552-1.68.828-2.882.828-.782 0-1.51-.148-2.188-.445-.677-.302-1.2-.714-1.57-1.234s-.547-1.112-.547-1.773h1.508c0 .688.252 1.232.757 1.633.51.396 1.19.594 2.04.594.79 0 1.398-.16 1.82-.484s.633-.763.633-1.32-.196-.987-.586-1.29c-.39-.307-1.1-.61-2.125-.906zm9.43 5.227c-1.145 0-2.078-.375-2.796-1.125-.72-.755-1.08-1.763-1.08-3.023v-.266c0-.84.16-1.586.477-2.242.323-.66.77-1.177 1.344-1.547a3.38 3.38 0 0 1 1.875-.562c1.1 0 1.953.362 2.562 1.086s.914 1.76.914 3.11v.602h-5.726c.02.833.263 1.508.726 2.023.47.51 1.063.766 1.782.766.5 0 .942-.104 1.296-.312s.664-.484.93-.828l.883.688c-.708 1.09-1.77 1.633-3.188 1.633zm-.18-7.578a1.92 1.92 0 0 0-1.469.641c-.396.422-.64 1.016-.734 1.78h4.234v-.11c-.042-.734-.24-1.302-.594-1.703-.354-.406-.833-.61-1.437-.61zM903.82 42h-1.445V30h1.445v12zm5.828.156c-1.145 0-2.078-.375-2.796-1.125-.72-.755-1.08-1.763-1.08-3.023v-.266c0-.84.16-1.586.477-2.242.323-.66.77-1.177 1.344-1.547a3.38 3.38 0 0 1 1.875-.562c1.1 0 1.953.362 2.562 1.086s.914 1.76.914 3.11v.602h-5.726c.02.833.263 1.508.726 2.023.47.51 1.063.766 1.782.766.5 0 .942-.104 1.296-.312a3.24 3.24 0 0 0 .93-.828l.883.688c-.708 1.09-1.77 1.633-3.188 1.633zm-.18-7.578a1.92 1.92 0 0 0-1.469.641c-.396.422-.64 1.016-.734 1.78h4.234v-.11c-.042-.734-.24-1.302-.594-1.703-.354-.406-.833-.61-1.437-.61zm8.547 6.398a2.08 2.08 0 0 0 1.351-.469c.386-.312.6-.703.64-1.172h1.367c-.026.484-.193.945-.5 1.383s-.72.786-1.234 1.047a3.53 3.53 0 0 1-1.625.391c-1.15 0-2.068-.383-2.75-1.148-.677-.77-1.016-1.823-1.016-3.156v-.242c0-.823.15-1.555.453-2.195s.735-1.138 1.297-1.492c.568-.354 1.237-.53 2.008-.53.948 0 1.734.284 2.36.852s.966 1.305 1.008 2.21h-1.367a1.97 1.97 0 0 0-.625-1.344 1.91 1.91 0 0 0-1.375-.531c-.735 0-1.305.266-1.71.797-.4.526-.602 1.29-.602 2.29v.273c0 .974.2 1.724.602 2.25s.974.79 1.72.79zm6.945-9.477v2.047h1.578v1.117h-1.578v5.242c0 .34.07.594.21.766.14.167.38.25.72.25.166 0 .395-.03.687-.094V42c-.38.104-.75.156-1.11.156-.646 0-1.133-.195-1.46-.586s-.492-.945-.492-1.664v-5.242h-1.54v-1.117h1.54V31.5h1.445zm9.203 0v2.047h1.578v1.117h-1.578v5.242c0 .34.07.594.21.766.14.167.38.25.72.25.166 0 .396-.03.687-.094V42c-.38.104-.75.156-1.11.156-.646 0-1.133-.195-1.46-.586s-.492-.945-.492-1.664v-5.242h-1.54v-1.117h1.54V31.5h1.445zm4.844 10.5h-1.446v-8.453h1.446V42zm-1.563-10.695c0-.234.07-.432.21-.594.146-.16.36-.242.64-.242s.495.08.64.242.218.36.218.594-.073.43-.218.586-.36.234-.64.234-.495-.078-.64-.234c-.14-.156-.21-.35-.21-.586zm5.243 2.242l.04.938c.62-.73 1.455-1.094 2.507-1.094 1.183 0 1.987.453 2.414 1.36a3.22 3.22 0 0 1 1.094-.984c.453-.25.987-.375 1.602-.375 1.854 0 2.797.982 2.828 2.945V42h-1.445v-5.578c0-.604-.138-1.055-.415-1.352-.276-.302-.74-.453-1.4-.453-.537 0-.982.16-1.336.484-.354.318-.56.747-.617 1.29V42h-1.453v-5.54c0-1.23-.602-1.844-1.805-1.844-.948 0-1.596.404-1.945 1.21V42h-1.446v-8.453h1.368zm16.18 8.61c-1.146 0-2.078-.375-2.797-1.125-.718-.755-1.078-1.763-1.078-3.023v-.266c0-.84.16-1.586.477-2.242.323-.66.77-1.177 1.343-1.547.58-.375 1.204-.562 1.876-.562 1.098 0 1.953.362 2.562 1.086s.914 1.76.914 3.11v.602h-5.726c.02.833.263 1.508.726 2.023.47.51 1.063.766 1.78.766.51 0 .943-.104 1.297-.312s.664-.484.93-.828l.883.688c-.71 1.09-1.77 1.633-3.188 1.633zm-.18-7.578a1.92 1.92 0 0 0-1.469.641c-.396.422-.64 1.016-.735 1.78h4.235v-.11c-.042-.734-.24-1.302-.594-1.703-.354-.406-.833-.61-1.437-.61zm13.2.266a4.31 4.31 0 0 0-.71-.055c-.948 0-1.592.404-1.93 1.21v6h-1.446v-8.453h1.407l.023.977c.474-.755 1.146-1.133 2.016-1.133.28 0 .495.037.64.11v1.344zM978.14 42c-.084-.167-.15-.464-.203-.89-.672.698-1.474 1.047-2.407 1.047-.833 0-1.518-.234-2.054-.703a2.3 2.3 0 0 1-.797-1.797c0-.88.333-1.562 1-2.047.672-.5 1.614-.734 2.828-.734h1.406v-.664c0-.505-.15-.906-.453-1.203-.302-.302-.747-.453-1.336-.453-.516 0-.948.13-1.297.39s-.523.575-.523.945h-1.453c0-.422.148-.828.445-1.22.302-.396.708-.708 1.22-.937s1.08-.344 1.695-.344c.974 0 1.737.245 2.29.734.552.484.84 1.154.86 2.008v3.89c0 .776.1 1.393.297 1.852V42h-1.515zm-2.4-1.102a2.54 2.54 0 0 0 1.289-.352c.407-.234.7-.54.883-.914v-1.734h-1.133c-1.77 0-2.656.518-2.656 1.555 0 .453.15.807.453 1.063s.7.383 1.164.383zm7.25-7.352l.047 1.063c.646-.812 1.5-1.22 2.53-1.22 1.787 0 2.688 1.008 2.703 3.023V42h-1.445v-5.594c-.005-.61-.146-1.06-.422-1.352-.27-.292-.695-.437-1.273-.437-.47 0-.88.125-1.235.375s-.63.578-.828.984V42h-1.445v-8.453h1.367zm7.117 4.156c0-1.318.305-2.365.914-3.14.6-.78 1.417-1.172 2.422-1.172 1.032 0 1.836.365 2.414 1.094l.07-.937h1.32v8.25c0 1.094-.326 1.956-.977 2.586-.645.63-1.515.945-2.61.945-.61 0-1.206-.13-1.79-.39s-1.03-.617-1.336-1.07l.75-.867c.62.766 1.378 1.148 2.273 1.148.704 0 1.25-.198 1.64-.594.396-.396.594-.953.594-1.672v-.727c-.578.667-1.367 1-2.367 1-1 0-1.792-.398-2.407-1.195-.61-.797-.914-1.883-.914-3.258zm1.453.164c0 .953.196 1.703.586 2.25.39.542.938.813 1.64.813.912 0 1.58-.414 2.008-1.242v-3.86c-.443-.807-1.107-1.21-1.992-1.21-.703 0-1.253.273-1.65.82s-.594 1.357-.594 2.43zm11.388 4.29c-1.15 0-2.08-.375-2.8-1.125-.72-.755-1.08-1.763-1.08-3.023v-.266c0-.84.16-1.586.477-2.242.323-.66.773-1.177 1.343-1.547a3.38 3.38 0 0 1 1.88-.562c1.1 0 1.95.362 2.56 1.086s.9 1.76.9 3.11v.602h-5.72c.02.833.26 1.508.72 2.023.47.51 1.06.766 1.78.766.5 0 .95-.104 1.3-.312s.66-.484.93-.828l.88.688c-.7 1.09-1.77 1.633-3.18 1.633zm-.18-7.578c-.6 0-1.08.214-1.47.64-.4.422-.64 1.016-.74 1.78h4.24v-.11c-.04-.734-.24-1.302-.6-1.703-.35-.406-.83-.61-1.43-.61z"/><path d="M558.117 36.93c-1.286-.37-2.224-.823-2.812-1.36a2.62 2.62 0 0 1-.875-2 2.74 2.74 0 0 1 1.07-2.219c.72-.59 1.65-.883 2.797-.883.78 0 1.476.15 2.086.453s1.088.72 1.422 1.25a3.18 3.18 0 0 1 .507 1.742h-1.507c0-.687-.22-1.227-.657-1.617-.437-.396-1.054-.594-1.85-.594-.74 0-1.318.164-1.735.492-.41.323-.617.773-.617 1.352 0 .463.196.857.586 1.18.396.318 1.065.61 2.008.875s1.688.56 2.22.883c.536.318.932.7 1.187 1.117.26.427.39.93.39 1.508 0 .922-.36 1.66-1.078 2.22-.72.552-1.68.828-2.883.828-.78 0-1.5-.148-2.187-.445-.678-.302-1.2-.714-1.57-1.234-.364-.52-.547-1.112-.547-1.773h1.508c0 .688.253 1.232.758 1.633.5.396 1.2.594 2.04.594.792 0 1.398-.16 1.82-.484s.633-.763.633-1.32-.195-.987-.586-1.29c-.4-.307-1.1-.61-2.125-.906zm7.367-2.36a3.07 3.07 0 0 1 2.5-1.18c1.787 0 2.688 1.008 2.704 3.023V42h-1.446v-5.594c-.005-.61-.146-1.06-.422-1.352s-.695-.437-1.273-.437c-.47 0-.88.125-1.235.375s-.63.578-.828.984V42h-1.445V30h1.445v4.57zM578.07 42c-.083-.167-.15-.464-.203-.89-.672.698-1.474 1.047-2.406 1.047-.833 0-1.518-.234-2.055-.703-.53-.474-.797-1.073-.797-1.797 0-.88.334-1.562 1-2.047.672-.5 1.615-.734 2.83-.734h1.406v-.664c0-.505-.15-.906-.453-1.203-.302-.302-.748-.453-1.336-.453-.516 0-.948.13-1.297.39s-.524.575-.524.945h-1.453c0-.422.15-.828.446-1.22.302-.396.708-.708 1.218-.937a4.13 4.13 0 0 1 1.696-.344c.974 0 1.737.245 2.29.734.552.484.838 1.154.86 2.008v3.89c0 .776.1 1.393.297 1.852V42h-1.516zm-2.398-1.102a2.54 2.54 0 0 0 1.289-.352c.406-.234.7-.54.883-.914v-1.734h-1.133c-1.77 0-2.656.518-2.656 1.555 0 .453.15.807.453 1.063s.7.383 1.164.383zm9.97-6.055a4.33 4.33 0 0 0-.711-.055c-.948 0-1.59.404-1.93 1.21v6h-1.445v-8.453h1.406l.023.977c.474-.755 1.146-1.133 2.016-1.133.28 0 .495.037.64.11v1.344zm4.687 7.312c-1.146 0-2.078-.375-2.797-1.125-.72-.755-1.078-1.763-1.078-3.023v-.266c0-.84.16-1.586.477-2.242.323-.66.77-1.177 1.343-1.547.58-.375 1.204-.562 1.875-.562 1.1 0 1.954.362 2.563 1.086s.914 1.76.914 3.11v.602h-5.727c.02.833.263 1.508.727 2.023.47.51 1.063.766 1.78.766.51 0 .943-.104 1.297-.312s.664-.484.93-.828l.883.688c-.71 1.09-1.77 1.633-3.188 1.633zm-.18-7.578a1.92 1.92 0 0 0-1.468.641c-.396.422-.64 1.016-.735 1.78h4.235v-.11c-.042-.734-.24-1.302-.594-1.703-.354-.406-.833-.61-1.438-.61zm5.1 9.688l-.82-.562c.49-.682.744-1.385.765-2.11V40.29h1.414v1.133c0 .526-.13 1.052-.4 1.578s-.58.948-.97 1.266zm14.297-6.398c0 1.286-.295 2.323-.883 3.11s-1.386 1.18-2.39 1.18c-1.026 0-1.833-.325-2.422-.977v4.07h-1.445V33.547h1.32l.07.938c.588-.73 1.406-1.094 2.453-1.094 1.015 0 1.818.383 2.406 1.148.594.766.89 1.83.89 3.195v.133zm-1.446-.164c0-.953-.203-1.706-.61-2.258a1.96 1.96 0 0 0-1.672-.828c-.875 0-1.53.388-1.97 1.164v4.04c.433.77 1.094 1.156 1.985 1.156.692 0 1.242-.273 1.648-.82.412-.552.617-1.37.617-2.453zm7.375-2.86c-.218-.037-.455-.055-.71-.055-.947 0-1.59.404-1.93 1.21v6h-1.446v-8.453h1.407l.023.977c.474-.755 1.146-1.133 2.016-1.133.28 0 .495.037.64.11v1.344zM618.39 42h-1.446v-8.453h1.446V42zm-1.563-10.695a.87.87 0 0 1 .211-.594c.146-.16.36-.242.64-.242s.494.08.64.242.22.36.22.594-.073.43-.22.586-.36.234-.64.234-.495-.078-.64-.234a.84.84 0 0 1-.211-.586zm5.25 2.242l.047 1.063c.646-.812 1.5-1.22 2.53-1.22 1.787 0 2.688 1.008 2.703 3.023V42h-1.445v-5.594c-.005-.61-.146-1.06-.422-1.352-.27-.292-.695-.437-1.273-.437-.47 0-.88.125-1.235.375s-.63.578-.828.984V42h-1.445v-8.453h1.367zM631.5 31.5v2.047h1.578v1.117H631.5v5.242c0 .34.07.594.21.766.14.167.38.25.72.25.166 0 .396-.03.687-.094V42c-.38.104-.75.156-1.11.156-.646 0-1.133-.195-1.46-.586s-.492-.945-.492-1.664v-5.242h-1.54v-1.117h1.54V31.5h1.445zm3.227 12.766l-.82-.562c.5-.682.745-1.385.766-2.11V40.29h1.414v1.133c0 .526-.13 1.052-.39 1.578-.255.526-.578.948-.968 1.266zM647.102 42c-.084-.167-.15-.464-.204-.89-.67.698-1.474 1.047-2.406 1.047-.833 0-1.518-.234-2.054-.703a2.3 2.3 0 0 1-.797-1.797c0-.88.333-1.562 1-2.047.67-.5 1.614-.734 2.828-.734h1.406v-.664c0-.505-.15-.906-.453-1.203-.302-.302-.748-.453-1.336-.453-.516 0-.948.13-1.297.39s-.523.575-.523.945h-1.454c0-.422.15-.828.446-1.22.302-.396.708-.708 1.22-.937s1.08-.344 1.695-.344c.974 0 1.737.245 2.29.734.552.484.838 1.154.86 2.008v3.89c0 .776.1 1.393.297 1.852V42h-1.515zm-2.4-1.102a2.54 2.54 0 0 0 1.289-.352c.406-.234.7-.54.883-.914v-1.734h-1.133c-1.77 0-2.656.518-2.656 1.555 0 .453.15.807.453 1.063s.7.383 1.164.383zm7.25-7.352L652 34.61c.646-.812 1.5-1.22 2.53-1.22 1.787 0 2.688 1.008 2.703 3.023V42h-1.445v-5.594c-.005-.61-.146-1.06-.422-1.352-.27-.292-.695-.437-1.273-.437-.47 0-.88.125-1.235.375s-.63.578-.828.984V42h-1.445v-8.453h1.367zm7.11 4.156c0-1.297.308-2.338.922-3.125a2.91 2.91 0 0 1 2.414-1.187c1 0 1.774.34 2.352 1.016V30h1.445v12h-1.328l-.07-.906c-.578.708-1.383 1.062-2.414 1.062-.98 0-1.78-.4-2.4-1.203-.614-.802-.922-1.85-.922-3.14v-.11zm1.446.164c0 .958.198 1.708.594 2.25s.942.813 1.64.813c.917 0 1.586-.41 2.008-1.234v-3.883a2.12 2.12 0 0 0-1.992-1.195c-.71 0-1.26.273-1.656.82s-.594 1.357-.594 2.43zm15.414 4.29c-1.146 0-2.078-.375-2.797-1.125-.72-.755-1.078-1.763-1.078-3.023v-.266c0-.84.16-1.586.476-2.242.323-.66.77-1.177 1.344-1.547a3.38 3.38 0 0 1 1.875-.562c1.1 0 1.953.362 2.563 1.086s.914 1.76.914 3.11v.602h-5.727c.02.833.263 1.508.727 2.023.47.51 1.062.766 1.78.766.5 0 .943-.104 1.297-.312s.664-.484.93-.828l.882.688c-.708 1.09-1.77 1.633-3.187 1.633zm-.18-7.578a1.92 1.92 0 0 0-1.469.641c-.395.422-.64 1.016-.734 1.78h4.234v-.11c-.04-.734-.24-1.302-.593-1.703-.354-.406-.834-.61-1.438-.61zm7.992 2.055l1.875-3.086h1.688l-2.766 4.18L687.383 42h-1.672l-1.953-3.164L681.805 42h-1.68l2.852-4.273-2.766-4.18h1.672l1.85 3.086zm12.243 1.234c0 1.286-.295 2.323-.883 3.11s-1.386 1.18-2.39 1.18c-1.026 0-1.833-.325-2.422-.977v4.07h-1.445V33.547h1.32l.07.938c.588-.73 1.406-1.094 2.453-1.094 1.015 0 1.817.383 2.406 1.148s.89 1.83.89 3.195v.133zm-1.446-.164c0-.953-.203-1.706-.61-2.258a1.96 1.96 0 0 0-1.672-.828c-.875 0-1.53.388-1.97 1.164v4.04c.433.77 1.094 1.156 1.985 1.156.692 0 1.242-.273 1.648-.82.412-.552.617-1.37.617-2.453zm2.907-.008c0-.828.16-1.573.484-2.234s.78-1.172 1.36-1.53c.584-.36 1.248-.54 1.992-.54 1.15 0 2.08.398 2.79 1.195.714.797 1.07 1.857 1.07 3.18v.102c0 .823-.16 1.563-.477 2.22-.312.65-.763 1.16-1.35 1.523s-1.256.547-2.016.547c-1.146 0-2.075-.398-2.79-1.195-.708-.797-1.062-1.852-1.062-3.164v-.102zm1.453.172c0 .938.216 1.7.648 2.258.438.568 1.02.852 1.75.852s1.318-.286 1.75-.86c.432-.578.65-1.385.65-2.422 0-.927-.222-1.677-.665-2.25a2.08 2.08 0 0 0-1.75-.867 2.07 2.07 0 0 0-1.726.852c-.438.568-.656 1.38-.656 2.438zm12.14-3.023c-.22-.037-.455-.055-.71-.055-.948 0-1.59.404-1.93 1.21v6h-1.446v-8.453h1.407l.023.977c.474-.755 1.146-1.133 2.016-1.133.28 0 .494.037.64.11v1.344zm3.688-3.344v2.047h1.578v1.117h-1.578v5.242c0 .34.07.594.21.766.14.167.38.25.718.25.167 0 .396-.03.688-.094V42c-.38.104-.75.156-1.11.156-.646 0-1.133-.195-1.46-.586s-.493-.945-.493-1.664v-5.242h-1.54v-1.117h1.54V31.5h1.446zm7.187 5.883c0-1.177.156-2.307.47-3.39s.79-2.068 1.414-2.953 1.273-1.51 1.945-1.875l.297.953c-.76.583-1.385 1.474-1.875 2.672-.484 1.198-.75 2.54-.797 4.023l-.007.664c0 2 .367 3.755 1.1 5.234.443.886.97 1.578 1.578 2.078l-.297.883c-.692-.385-1.354-1.03-1.984-1.937-1.23-1.77-1.844-3.888-1.844-6.352zm7.25.164V42h-1.5V30.625h4.196c1.244 0 2.218.318 2.92.953.71.635 1.063 1.477 1.063 2.523 0 1.104-.346 1.956-1.04 2.555-.688.594-1.675.89-2.96.89h-2.68zm0-1.227h2.696c.802 0 1.416-.187 1.843-.562.427-.38.64-.927.64-1.64 0-.677-.214-1.22-.64-1.625s-1.013-.617-1.757-.633h-2.782v4.46zM737.75 42V30.625h3.21c1 0 1.865.22 2.625.656a4.42 4.42 0 0 1 1.758 1.867c.416.807.627 1.734.633 2.78v.727c0 1.073-.21 2.013-.625 2.82a4.34 4.34 0 0 1-1.774 1.859c-.766.432-1.66.654-2.68.664h-3.148zm1.5-10.14v8.914h1.578c1.156 0 2.055-.36 2.695-1.078.646-.72.97-1.742.97-3.07v-.664c0-1.292-.304-2.294-.914-3.008-.604-.72-1.463-1.083-2.578-1.094h-1.75zm15.273 5.117h-4.773V42h-1.5V30.625h7.047v1.234h-5.547v3.89h4.773v1.227zm2.633 6h-1.242l4.75-12.352h1.234l-4.742 12.352zm12.96-6.234h-4.93v4.03h5.726V42h-7.226V30.625h7.148v1.234h-5.648v3.656h4.93v1.227zm5.274-.11l1.875-3.086h1.687l-2.765 4.18L779.04 42h-1.672l-1.953-3.164L773.46 42h-1.68l2.852-4.273-2.766-4.18h1.672l1.852 3.086zm8.336 4.344a2.08 2.08 0 0 0 1.351-.469c.386-.312.6-.703.64-1.172h1.367c-.026.484-.193.945-.5 1.383s-.72.786-1.234 1.047a3.53 3.53 0 0 1-1.625.391c-1.15 0-2.068-.383-2.75-1.148-.678-.77-1.016-1.823-1.016-3.156v-.242c0-.823.15-1.555.453-2.195s.734-1.138 1.297-1.492 1.237-.53 2.008-.53c.948 0 1.734.284 2.36.852s.966 1.305 1.008 2.21h-1.367a1.97 1.97 0 0 0-.625-1.344 1.91 1.91 0 0 0-1.375-.531c-.735 0-1.305.266-1.71.797-.4.526-.602 1.29-.602 2.29v.273c0 .974.2 1.724.602 2.25s.974.79 1.72.79zm8.492 1.18c-1.146 0-2.078-.375-2.797-1.125-.72-.755-1.078-1.763-1.078-3.023v-.266c0-.84.16-1.586.476-2.242.323-.66.77-1.177 1.344-1.547a3.38 3.38 0 0 1 1.875-.562c1.1 0 1.953.362 2.563 1.086s.914 1.76.914 3.11v.602h-5.727c.02.833.263 1.508.727 2.023a2.31 2.31 0 0 0 1.781.766c.5 0 .943-.104 1.297-.312a3.25 3.25 0 0 0 .929-.828l.883.688c-.708 1.09-1.77 1.633-3.187 1.633zm-.18-7.578a1.92 1.92 0 0 0-1.469.641c-.396.422-.64 1.016-.734 1.78h4.234v-.11c-.04-.734-.24-1.302-.593-1.703-.355-.406-.834-.61-1.438-.61zM798.766 42h-1.446V30h1.446v12zm5.656-4.54a12.04 12.04 0 0 1-.461 3.344 9.74 9.74 0 0 1-1.399 2.945c-.624.9-1.28 1.542-1.968 1.922l-.305-.883c.802-.615 1.445-1.568 1.93-2.86.49-1.297.74-2.734.75-4.312v-.25a12.82 12.82 0 0 0-.344-3.047c-.23-.943-.55-1.786-.96-2.53-.406-.745-.865-1.326-1.375-1.742l.305-.883c.687.38 1.34 1.016 1.96 1.906s1.09 1.872 1.398 2.945c.313 1.073.47 2.22.47 3.445z"/><circle r="3" transform="matrix(0 -1 -1 0 239 178)"/></g><path d="M239 58v118.547" class="C D"/><g class="B"><path d="M203.648 36.977h-4.773V42h-1.5V30.625h7.047v1.234h-5.547v3.89h4.773v1.227zM207.562 42h-1.445v-8.453h1.445V42zM206 31.305a.87.87 0 0 1 .211-.594c.146-.16.36-.242.64-.242s.494.08.64.242.22.36.22.594-.073.43-.22.586-.36.234-.64.234-.495-.078-.64-.234a.84.84 0 0 1-.211-.586zM211.453 42h-1.445V30h1.445v12zm4.28-10.5v2.047h1.578v1.117h-1.578v5.242c0 .34.07.594.21.766.14.167.38.25.72.25.167 0 .396-.03.688-.094V42c-.38.104-.75.156-1.1.156-.646 0-1.133-.195-1.46-.586s-.492-.945-.492-1.664v-5.242h-1.54v-1.117h1.54V31.5h1.445zm6.782 10.656c-1.146 0-2.078-.375-2.797-1.125-.72-.755-1.078-1.763-1.078-3.023v-.266c0-.84.158-1.586.476-2.242.323-.66.77-1.177 1.344-1.547a3.38 3.38 0 0 1 1.875-.562c1.1 0 1.953.362 2.562 1.086s.914 1.76.914 3.11v.602h-5.726c.02.833.263 1.508.726 2.023.47.51 1.063.766 1.782.766.5 0 .942-.104 1.297-.312a3.25 3.25 0 0 0 .929-.828l.883.688c-.708 1.09-1.77 1.633-3.187 1.633zm-.18-7.578a1.92 1.92 0 0 0-1.469.641c-.396.422-.64 1.016-.734 1.78h4.234v-.11c-.04-.734-.24-1.302-.594-1.703-.354-.406-.833-.61-1.437-.61zm9.242.266a4.33 4.33 0 0 0-.711-.055c-.948 0-1.59.404-1.93 1.21v6h-1.446v-8.453h1.406l.024.977c.474-.755 1.146-1.133 2.016-1.133.28 0 .494.037.64.11v1.344zm9.39 0a4.33 4.33 0 0 0-.711-.055c-.948 0-1.59.404-1.93 1.21v6h-1.445v-8.453h1.406l.023.977c.474-.755 1.146-1.133 2.016-1.133.28 0 .495.037.64.11v1.344zm4.687 7.312c-1.146 0-2.078-.375-2.797-1.125-.718-.755-1.078-1.763-1.078-3.023v-.266c0-.84.16-1.586.477-2.242.323-.66.77-1.177 1.344-1.547a3.38 3.38 0 0 1 1.875-.562c1.1 0 1.953.362 2.562 1.086s.914 1.76.914 3.11v.602h-5.726c.02.833.263 1.508.726 2.023.47.51 1.063.766 1.78.766.51 0 .943-.104 1.297-.312s.664-.484.93-.828l.883.688c-.71 1.09-1.77 1.633-3.188 1.633zm-.18-7.578a1.92 1.92 0 0 0-1.469.641c-.396.422-.64 1.016-.735 1.78h4.235v-.11c-.042-.734-.24-1.302-.594-1.703-.354-.406-.833-.61-1.437-.61zm12.296 3.29c0 1.286-.294 2.323-.882 3.11s-1.386 1.18-2.39 1.18c-1.026 0-1.833-.325-2.422-.977v4.07h-1.445V33.547h1.32l.07.938c.59-.73 1.407-1.094 2.454-1.094 1.015 0 1.817.383 2.406 1.148s.9 1.83.9 3.195v.133zm-1.445-.164c0-.953-.203-1.706-.61-2.258s-.964-.828-1.672-.828c-.875 0-1.53.388-1.97 1.164v4.04c.432.77 1.094 1.156 1.984 1.156.693 0 1.243-.273 1.65-.82.41-.552.617-1.37.617-2.453zm2.906-.008c0-.828.162-1.573.485-2.234.328-.66.78-1.172 1.36-1.53.583-.36 1.248-.54 1.992-.54 1.15 0 2.08.398 2.79 1.195.714.797 1.07 1.857 1.07 3.18v.102c0 .823-.16 1.563-.477 2.22-.312.65-.763 1.16-1.35 1.523s-1.256.547-2.016.547c-1.146 0-2.076-.398-2.79-1.195s-1.063-1.852-1.063-3.164v-.102zm1.454.172c0 .938.216 1.7.648 2.258s1.02.852 1.75.852 1.318-.286 1.75-.86c.432-.578.648-1.385.648-2.422 0-.927-.22-1.677-.664-2.25a2.08 2.08 0 0 0-1.75-.867 2.07 2.07 0 0 0-1.726.852c-.438.568-.656 1.38-.656 2.438zm12.14-3.023a4.33 4.33 0 0 0-.711-.055c-.948 0-1.59.404-1.93 1.21v6h-1.446v-8.453h1.406l.024.977c.474-.755 1.146-1.133 2.016-1.133.28 0 .494.037.64.11v1.344zm3.688-3.344v2.047h1.578v1.117h-1.578v5.242c0 .34.07.594.21.766.14.167.38.25.718.25.167 0 .396-.03.688-.094V42a4.19 4.19 0 0 1-1.11.156c-.645 0-1.132-.195-1.46-.586s-.492-.945-.492-1.664v-5.242h-1.54v-1.117h1.54V31.5h1.446zm8.195 8.258c0-.39-.15-.693-.445-.906-.292-.22-.805-.406-1.54-.562s-1.3-.344-1.743-.562c-.427-.22-.744-.48-.953-.78-.203-.302-.304-.66-.304-1.078 0-.693.29-1.28.875-1.758s1.338-.72 2.25-.72c.958 0 1.734.247 2.328.742a2.35 2.35 0 0 1 .898 1.898h-1.453c0-.396-.17-.737-.508-1.023-.333-.286-.755-.43-1.265-.43-.526 0-.938.115-1.235.344a1.08 1.08 0 0 0-.445.898c0 .35.138.612.414.79s.773.346 1.492.508c.724.16 1.3.354 1.758.578s.78.495.992.813c.22.313.328.695.328 1.148a2.17 2.17 0 0 1-.906 1.82c-.604.453-1.388.68-2.352.68-.677 0-1.276-.12-1.796-.36s-.93-.573-1.227-1a2.45 2.45 0 0 1-.437-1.398h1.445c.026.484.22.87.578 1.156.365.28.844.422 1.437.422.547 0 .985-.11 1.313-.328.333-.224.5-.52.5-.89z"/><circle r="3" transform="matrix(0 1 1 0 154 925)"/></g><path d="M154 983v-57.64" class="C D"/><g class="B"><path d="M32.063 1008.93c-1.287-.37-2.224-.82-2.812-1.36a2.62 2.62 0 0 1-.875-2c0-.9.357-1.64 1.07-2.22.72-.6 1.65-.88 2.797-.88.78 0 1.477.15 2.086.45.615.3 1.09.72 1.422 1.25a3.17 3.17 0 0 1 .508 1.74H34.75c0-.68-.22-1.22-.656-1.6-.438-.4-1.055-.6-1.852-.6-.74 0-1.318.17-1.734.5-.41.32-.617.77-.617 1.35 0 .46.195.85.586 1.18.396.3 1.065.6 2.008.87.948.27 1.688.56 2.22.88.537.32.932.7 1.188 1.12.26.43.39.93.39 1.5 0 .92-.36 1.66-1.078 2.22-.72.55-1.68.83-2.883.83-.78 0-1.5-.15-2.188-.45s-1.2-.7-1.57-1.23c-.365-.52-.547-1.12-.547-1.78h1.508c0 .7.253 1.23.758 1.64.51.4 1.2.6 2.04.6.792 0 1.398-.16 1.82-.48.422-.33.633-.77.633-1.33 0-.55-.195-.98-.586-1.28-.39-.3-1.1-.6-2.125-.9zm9.43 5.23c-1.146 0-2.078-.38-2.797-1.13s-1.078-1.76-1.078-3.02v-.27c0-.84.16-1.58.477-2.24.323-.66.77-1.18 1.344-1.55.578-.37 1.203-.56 1.875-.56 1.1 0 1.953.36 2.563 1.1.61.72.914 1.76.914 3.1v.6h-5.727c.02.83.263 1.5.727 2.02.47.5 1.063.77 1.78.77.5 0 .943-.1 1.297-.32.354-.2.664-.48.93-.82l.883.68c-.708 1.1-1.77 1.64-3.187 1.64zm-.18-7.58a1.91 1.91 0 0 0-1.469.64c-.396.42-.64 1-.734 1.78h4.234v-.1c-.042-.73-.24-1.3-.594-1.7-.354-.4-.833-.6-1.437-.6zm8.664 7.58c-1.146 0-2.078-.38-2.797-1.13s-1.078-1.76-1.078-3.02v-.27c0-.84.16-1.58.477-2.24.323-.66.77-1.18 1.344-1.55.578-.37 1.203-.56 1.875-.56 1.1 0 1.953.36 2.563 1.1.61.72.914 1.76.914 3.1v.6h-5.727c.02.83.263 1.5.727 2.02.47.5 1.063.77 1.78.77.5 0 .943-.1 1.297-.32.354-.2.664-.48.93-.82l.883.68c-.708 1.1-1.77 1.64-3.187 1.64zm-.18-7.58a1.91 1.91 0 0 0-1.469.64c-.396.42-.64 1-.734 1.78h4.234v-.1c-.042-.73-.24-1.3-.594-1.7-.354-.4-.833-.6-1.437-.6zm11.086-3.08v2.05h1.578v1.1h-1.578v5.25c0 .33.07.6.21.76s.38.25.72.25c.167 0 .396-.03.688-.1v1.17c-.38.1-.75.16-1.11.16-.646 0-1.133-.2-1.46-.6s-.492-.95-.492-1.66v-5.25h-1.54v-1.1h1.54v-2.05h1.445zm4.844 10.5H64.28v-8.45h1.445v8.45zm-1.562-10.7c0-.23.07-.43.21-.6.146-.16.36-.24.64-.24s.495.08.64.24a.85.85 0 0 1 .219.59.83.83 0 0 1-.219.59c-.146.16-.36.23-.64.23s-.495-.07-.64-.23a.85.85 0 0 1-.211-.59zm5.242 2.25l.04.93c.62-.72 1.456-1.1 2.508-1.1 1.182 0 1.987.45 2.414 1.36.28-.4.646-.73 1.094-.98.453-.25.987-.38 1.602-.38 1.854 0 2.797.98 2.828 2.95v5.66h-1.445v-5.58c0-.6-.138-1.05-.414-1.35s-.74-.45-1.39-.45c-.536 0-.982.16-1.336.48s-.56.75-.617 1.3v5.6h-1.453v-5.54c0-1.23-.602-1.84-1.805-1.84-.948 0-1.596.4-1.945 1.2v6.17H68.04v-8.45h1.367zm16.18 8.6c-1.146 0-2.078-.38-2.797-1.13s-1.078-1.76-1.078-3.02v-.27c0-.84.16-1.58.477-2.24.323-.66.77-1.18 1.344-1.55.578-.37 1.203-.56 1.875-.56 1.1 0 1.953.36 2.563 1.1.61.72.914 1.76.914 3.1v.6h-5.727c.02.83.263 1.5.727 2.02.47.5 1.063.77 1.78.77.5 0 .943-.1 1.297-.32a3.16 3.16 0 0 0 .93-.82l.883.68c-.708 1.1-1.77 1.64-3.187 1.64zm-.18-7.58a1.91 1.91 0 0 0-1.469.64c-.396.42-.64 1-.734 1.78h4.234v-.1c-.042-.73-.24-1.3-.594-1.7-.354-.4-.833-.6-1.438-.6zm16.282 3.3c0 1.3-.297 2.33-.89 3.1a2.83 2.83 0 0 1-2.391 1.18c-1.068 0-1.893-.38-2.477-1.14l-.07.98H94.53v-12h1.445v4.48c.583-.73 1.388-1.1 2.414-1.1s1.83.4 2.414 1.16c.588.78.883 1.84.883 3.2v.13zm-1.446-.17c0-.98-.2-1.74-.57-2.28-.38-.53-.927-.8-1.64-.8-.953 0-1.638.44-2.055 1.33v3.65c.443.9 1.133 1.33 2.07 1.33.693 0 1.232-.27 1.617-.8.385-.53.578-1.34.578-2.42zm7.36-2.86a5.22 5.22 0 0 0-.711-.05c-.948 0-1.592.4-1.93 1.2v6h-1.445v-8.45h1.406l.023.97c.474-.75 1.146-1.13 2.016-1.13.28 0 .495.04.64.1v1.34zm.796 2.86c0-.83.162-1.58.485-2.24.328-.66.78-1.17 1.36-1.53.584-.36 1.248-.54 1.992-.54 1.15 0 2.08.4 2.79 1.2.714.8 1.07 1.85 1.07 3.18v.1c0 .82-.16 1.56-.477 2.22-.312.65-.763 1.15-1.35 1.52-.584.36-1.256.55-2.016.55-1.146 0-2.076-.4-2.79-1.2-.708-.8-1.063-1.85-1.063-3.16v-.1zm1.454.17c0 .93.216 1.7.648 2.25a2.1 2.1 0 0 0 1.75.86c.734 0 1.318-.3 1.75-.86.432-.58.648-1.4.648-2.42 0-.93-.22-1.68-.664-2.25a2.08 2.08 0 0 0-1.75-.87c-.713 0-1.29.28-1.726.85s-.656 1.38-.656 2.44zm10.414.22l-.907.94v2.97h-1.445v-12h1.445v7.26l.774-.93 2.633-2.78h1.757l-3.29 3.53 3.672 4.92h-1.695l-2.945-3.9zm9.1 4.07c-1.146 0-2.078-.38-2.797-1.13s-1.078-1.76-1.078-3.02v-.27c0-.84.16-1.58.477-2.24.323-.66.77-1.18 1.343-1.55.58-.37 1.204-.56 1.876-.56 1.098 0 1.953.36 2.562 1.1.61.72.914 1.76.914 3.1v.6h-5.726c.02.83.263 1.5.726 2.02.47.5 1.063.77 1.78.77.51 0 .943-.1 1.297-.32a3.17 3.17 0 0 0 .93-.82l.883.68c-.71 1.1-1.77 1.64-3.188 1.64zm-.18-7.58a1.91 1.91 0 0 0-1.469.64c-.396.42-.64 1-.735 1.78h4.235v-.1c-.042-.73-.24-1.3-.594-1.7-.354-.4-.833-.6-1.437-.6zm6.523-1.03l.047 1.06c.646-.8 1.49-1.22 2.53-1.22 1.787 0 2.688 1 2.703 3.02v5.6h-1.445v-5.6c-.005-.6-.146-1.06-.422-1.36-.27-.3-.695-.43-1.273-.43-.47 0-.88.12-1.235.37a2.54 2.54 0 0 0-.828.99v6.02h-1.445v-8.45h1.367zm11.078 4.15c0-1.3.307-2.34.922-3.12.615-.8 1.42-1.2 2.414-1.2s1.773.34 2.352 1.02v-4.4h1.445v12h-1.328l-.07-.9c-.578.7-1.382 1.07-2.414 1.07-.98 0-1.778-.4-2.398-1.2-.615-.8-.922-1.85-.922-3.14v-.1zm1.445.17c0 .96.198 1.7.594 2.25s.943.8 1.64.8c.916 0 1.586-.4 2.008-1.23v-3.9c-.433-.8-1.097-1.2-1.993-1.2-.708 0-1.26.27-1.656.82-.396.54-.594 1.35-.594 2.43zm7.555-.17c0-.83.162-1.58.484-2.24.33-.66.782-1.17 1.36-1.53s1.247-.54 1.992-.54c1.15 0 2.08.4 2.79 1.2.714.8 1.07 1.85 1.07 3.18v.1c0 .82-.158 1.56-.476 2.22a3.59 3.59 0 0 1-1.352 1.52c-.583.36-1.255.55-2.015.55-1.146 0-2.076-.4-2.79-1.2s-1.063-1.85-1.063-3.16v-.1zm1.453.17c0 .93.216 1.7.65 2.25.437.57 1.02.86 1.75.86s1.317-.3 1.75-.86c.432-.58.648-1.4.648-2.42 0-.93-.22-1.68-.664-2.25a2.08 2.08 0 0 0-1.75-.87c-.714 0-1.29.28-1.727.85s-.656 1.38-.656 2.44zm15.54 2.14l1.625-6.46h1.446l-2.46 8.45h-1.172l-2.055-6.4-2 6.4h-1.172l-2.453-8.45h1.438l1.664 6.33 1.968-6.33h1.164l2.008 6.46zm5.914-6.46l.047 1.06c.646-.8 1.5-1.22 2.53-1.22 1.787 0 2.688 1 2.704 3.02v5.6h-1.446v-5.6c-.005-.6-.146-1.06-.422-1.36-.27-.3-.695-.43-1.273-.43a2.08 2.08 0 0 0-1.234.37c-.355.25-.63.58-.83 1v6.02h-1.445v-8.45h1.367zm18.586 4.32c0 1.3-.297 2.33-.9 3.1a2.83 2.83 0 0 1-2.391 1.18c-1.068 0-1.893-.38-2.477-1.14l-.07.98h-1.328v-12h1.445v4.48c.584-.73 1.388-1.1 2.414-1.1s1.83.4 2.414 1.16c.59.78.883 1.84.883 3.2v.13zm-1.445-.17c0-.98-.2-1.74-.57-2.28-.38-.53-.927-.8-1.64-.8-.953 0-1.638.44-2.055 1.33v3.65c.443.9 1.133 1.33 2.07 1.33.692 0 1.23-.27 1.617-.8.385-.53.578-1.34.578-2.42zm5.945 2.18l1.97-6.33h1.547l-3.4 9.75c-.526 1.4-1.362 2.1-2.507 2.1h-.274l-.54-.1v-1.17l.39.03c.49 0 .87-.1 1.14-.3.276-.2.503-.56.68-1.08l.32-.86-3.015-8.36h1.578l2.11 6.33zm14 1.28c-.562.67-1.388 1-2.476 1-.9 0-1.59-.26-2.063-.78-.47-.53-.706-1.3-.71-2.33v-5.5h1.446v5.46c0 1.28.52 1.92 1.562 1.92 1.104 0 1.84-.4 2.203-1.23v-6.15h1.446v8.45h-1.376l-.03-.84zm8.53-1.4c0-.4-.148-.7-.445-.9-.29-.22-.805-.4-1.54-.56s-1.3-.34-1.742-.56-.745-.48-.953-.78c-.203-.3-.305-.67-.305-1.08 0-.7.292-1.28.875-1.76.59-.48 1.34-.72 2.25-.72.958 0 1.735.25 2.328.74.6.5.9 1.13.9 1.9h-1.453c0-.4-.17-.74-.508-1.02-.334-.3-.755-.43-1.266-.43-.526 0-.937.1-1.234.34s-.446.53-.446.9c0 .35.138.6.415.8s.773.35 1.492.5 1.3.35 1.758.58c.447.22.778.5.992.8.218.3.328.7.328 1.15a2.18 2.18 0 0 1-.906 1.82c-.605.45-1.388.68-2.352.68-.677 0-1.276-.12-1.797-.36s-.93-.58-1.226-1c-.292-.44-.438-.9-.438-1.4h1.445c.026.48.22.87.578 1.15.365.3.844.43 1.438.43.547 0 .984-.1 1.312-.33.334-.23.5-.52.5-.9zm6.836 2.4c-1.145 0-2.078-.38-2.796-1.13s-1.08-1.76-1.08-3.02v-.27c0-.84.16-1.58.477-2.24s.77-1.18 1.344-1.55 1.203-.56 1.875-.56c1.1 0 1.953.36 2.562 1.1.6.72.914 1.76.914 3.1v.6h-5.726c.02.83.263 1.5.726 2.02.47.5 1.063.77 1.782.77.5 0 .942-.1 1.296-.32.355-.2.665-.48.93-.82l.883.68c-.708 1.1-1.77 1.64-3.188 1.64zm-.18-7.58a1.91 1.91 0 0 0-1.469.64c-.396.42-.64 1-.734 1.78H233v-.1c-.042-.73-.24-1.3-.594-1.7-.354-.4-.833-.6-1.437-.6zm9.242.26a5.22 5.22 0 0 0-.711-.05c-.948 0-1.59.4-1.93 1.2v6h-1.445v-8.45h1.406l.024.97c.474-.75 1.146-1.13 2.015-1.13.282 0 .495.04.64.1v1.34zm10.523 7.16c-.083-.17-.15-.46-.203-.9-.672.7-1.474 1.05-2.406 1.05-.833 0-1.518-.24-2.055-.7a2.29 2.29 0 0 1-.797-1.79c0-.88.334-1.57 1-2.05.672-.5 1.615-.73 2.83-.73h1.406v-.67c0-.5-.15-.9-.453-1.2-.302-.3-.748-.46-1.336-.46-.516 0-.948.13-1.297.4-.35.26-.524.57-.524.94h-1.453c0-.42.15-.83.446-1.22.302-.4.708-.7 1.218-.94.516-.22 1.08-.34 1.696-.34.974 0 1.737.25 2.29.73.552.5.838 1.16.86 2v3.9c0 .78.1 1.4.297 1.86v.12h-1.516zm-2.398-1.1c.453 0 .883-.12 1.29-.35.406-.24.7-.54.883-.92v-1.73h-1.133c-1.77 0-2.656.52-2.656 1.55 0 .46.15.8.453 1.07.302.25.7.38 1.164.38zm7.25-7.35l.047 1.06c.646-.8 1.49-1.22 2.53-1.22 1.787 0 2.688 1 2.703 3.02v5.6h-1.445v-5.6c-.005-.6-.146-1.06-.422-1.36-.27-.3-.695-.43-1.273-.43-.47 0-.88.12-1.235.37a2.54 2.54 0 0 0-.828.99v6.02h-1.445v-8.45h1.367zm7.11 4.15c0-1.3.308-2.34.922-3.12.615-.8 1.42-1.2 2.414-1.2s1.774.34 2.352 1.02v-4.4h1.445v12H268.5l-.07-.9c-.578.7-1.383 1.07-2.414 1.07-.98 0-1.78-.4-2.4-1.2-.614-.8-.922-1.85-.922-3.14v-.1zm1.446.17c0 .96.198 1.7.593 2.25s.943.8 1.64.8c.917 0 1.586-.4 2.008-1.23v-3.9c-.432-.8-1.097-1.2-1.992-1.2-.71 0-1.26.27-1.657.82-.395.54-.593 1.35-.593 2.43zm17.125 4.13c-.084-.17-.15-.46-.204-.9-.67.7-1.473 1.05-2.406 1.05-.833 0-1.518-.24-2.054-.7s-.797-1.07-.797-1.8c0-.88.333-1.57 1-2.05.672-.5 1.614-.73 2.828-.73h1.406v-.67c0-.5-.15-.9-.453-1.2-.302-.3-.747-.46-1.336-.46-.516 0-.948.13-1.297.4-.35.26-.523.57-.523.94h-1.453c0-.42.148-.83.445-1.22a3.15 3.15 0 0 1 1.219-.94c.515-.22 1.08-.34 1.695-.34.974 0 1.737.25 2.29.73.552.5.84 1.16.86 2v3.9c0 .78.1 1.4.297 1.86v.12h-1.515zm-2.4-1.1c.453 0 .883-.12 1.29-.35.406-.24.7-.54.883-.92v-1.73h-1.133c-1.77 0-2.656.52-2.656 1.55 0 .46.15.8.453 1.07.302.25.7.38 1.164.38zm9.274.08c.515 0 .966-.16 1.35-.47s.6-.7.64-1.17h1.367c-.026.48-.193.94-.5 1.38s-.72.8-1.234 1.05-1.052.4-1.625.4c-1.15 0-2.068-.4-2.75-1.15-.677-.77-1.016-1.83-1.016-3.16v-.24c0-.82.15-1.56.453-2.2s.734-1.13 1.297-1.5c.568-.35 1.237-.53 2.008-.53.948 0 1.734.28 2.36.85s.966 1.3 1.008 2.2h-1.367c-.042-.54-.25-1-.625-1.34s-.828-.53-1.375-.53c-.735 0-1.305.26-1.71.8-.4.52-.602 1.28-.602 2.28v.28c0 .97.2 1.72.602 2.25.4.52.974.8 1.72.8zm6.945-9.48v2.05h1.578v1.1h-1.578v5.25c0 .33.07.6.21.76s.38.25.72.25c.166 0 .395-.03.687-.1v1.17c-.38.1-.75.16-1.11.16-.646 0-1.133-.2-1.46-.6s-.492-.95-.492-1.66v-5.25h-1.54v-1.1h1.54v-2.05h1.445zm4.844 10.5h-1.446v-8.45h1.446v8.45zm-1.563-10.7a.87.87 0 0 1 .211-.59c.146-.16.36-.24.64-.24s.495.08.64.24a.85.85 0 0 1 .219.59.83.83 0 0 1-.219.59c-.145.16-.36.23-.64.23s-.495-.07-.64-.23c-.14-.16-.21-.35-.21-.6zm6.672 8.74l2.094-6.5h1.476l-3.03 8.45h-1.1l-3.063-8.45h1.477l2.148 6.5zm6.53 1.96h-1.445v-8.45h1.445v8.45zm-1.562-10.7c0-.23.07-.43.21-.6s.36-.24.64-.24.495.08.64.24a.85.85 0 0 1 .219.59.83.83 0 0 1-.219.59c-.146.16-.36.23-.64.23s-.494-.07-.64-.23-.21-.35-.21-.6zm5.844.2v2.05h1.578v1.1h-1.578v5.25c0 .33.07.6.2.76s.38.25.72.25c.167 0 .396-.03.688-.1v1.17c-.38.1-.75.16-1.1.16-.645 0-1.132-.2-1.46-.6s-.492-.95-.492-1.66v-5.25h-1.54v-1.1h1.54v-2.05h1.446zm6.04 8.38l1.968-6.33h1.547l-3.398 9.75c-.526 1.4-1.362 2.1-2.508 2.1h-.273l-.54-.1v-1.17l.4.03c.5 0 .87-.1 1.14-.3s.502-.56.68-1.08l.32-.86-3.016-8.36h1.578l2.1 6.33z"/><circle r="3" transform="matrix(0 1 1 0 752 923)"/></g><path d="M924 985l.04-59.012c.001-1.652-1.334-2.988-2.986-2.988H750.556" class="C D"/><path d="M834.133 1008.93c-1.287-.37-2.224-.82-2.813-1.36a2.62 2.62 0 0 1-.875-2c0-.9.357-1.64 1.07-2.22.718-.6 1.65-.88 2.796-.88.782 0 1.477.15 2.086.45.615.3 1.09.72 1.422 1.25.34.53.508 1.1.508 1.74h-1.508c0-.68-.218-1.22-.656-1.6-.437-.4-1.055-.6-1.852-.6-.74 0-1.317.17-1.734.5-.41.32-.617.77-.617 1.35 0 .46.195.85.586 1.18.396.3 1.065.6 2.008.87.948.27 1.687.56 2.218.88.537.32.933.7 1.188 1.12s.39.93.39 1.5c0 .92-.36 1.66-1.08 2.22-.718.55-1.68.83-2.882.83-.782 0-1.51-.15-2.188-.45s-1.2-.7-1.57-1.23-.547-1.12-.547-1.78h1.508c0 .7.252 1.23.758 1.64.5.4 1.2.6 2.04.6.79 0 1.398-.16 1.82-.48.422-.33.633-.77.633-1.33 0-.55-.196-.98-.586-1.28-.39-.3-1.1-.6-2.125-.9zm9.43 5.23c-1.145 0-2.078-.38-2.796-1.13s-1.078-1.76-1.078-3.02v-.27c0-.84.158-1.58.476-2.24s.77-1.18 1.344-1.55 1.203-.56 1.875-.56c1.1 0 1.953.36 2.562 1.1.6.72.914 1.76.914 3.1v.6h-5.726c.02.83.263 1.5.726 2.02.47.5 1.063.77 1.782.77.5 0 .942-.1 1.297-.32.354-.2.664-.48.93-.82l.883.68c-.708 1.1-1.77 1.64-3.188 1.64zm-.18-7.58a1.91 1.91 0 0 0-1.469.64c-.396.42-.64 1-.734 1.78h4.234v-.1c-.042-.73-.24-1.3-.594-1.7-.354-.4-.833-.6-1.437-.6zm8.664 7.58c-1.146 0-2.078-.38-2.797-1.13s-1.078-1.76-1.078-3.02v-.27c0-.84.16-1.58.476-2.24.323-.66.77-1.18 1.344-1.55.578-.37 1.203-.56 1.875-.56 1.1 0 1.953.36 2.563 1.1.61.72.914 1.76.914 3.1v.6h-5.727c.02.83.263 1.5.727 2.02s1.062.77 1.78.77c.5 0 .943-.1 1.297-.32a3.17 3.17 0 0 0 .93-.82l.882.68c-.708 1.1-1.77 1.64-3.187 1.64zm-.18-7.58a1.91 1.91 0 0 0-1.469.64c-.395.42-.64 1-.734 1.78h4.234v-.1c-.04-.73-.24-1.3-.593-1.7-.354-.4-.834-.6-1.438-.6zm12.516 6.4c.515 0 .966-.16 1.35-.47s.6-.7.64-1.17h1.367c-.026.48-.193.94-.5 1.38s-.72.8-1.234 1.05-1.052.4-1.625.4c-1.15 0-2.068-.4-2.75-1.15-.677-.77-1.016-1.83-1.016-3.16v-.24c0-.82.15-1.56.453-2.2s.735-1.13 1.297-1.5c.568-.35 1.237-.53 2.008-.53.948 0 1.734.28 2.36.85.63.57.967 1.3 1.008 2.2h-1.367c-.042-.54-.25-1-.625-1.34s-.828-.53-1.375-.53c-.734 0-1.305.26-1.71.8-.4.52-.602 1.28-.602 2.28v.28c0 .97.2 1.72.602 2.25.4.52.974.8 1.72.8zm10.203 1.02c-.083-.17-.15-.46-.203-.9-.672.7-1.474 1.05-2.406 1.05-.834 0-1.52-.24-2.055-.7a2.29 2.29 0 0 1-.797-1.79c0-.88.333-1.57 1-2.05.672-.5 1.615-.73 2.828-.73h1.406v-.67c0-.5-.15-.9-.453-1.2-.302-.3-.747-.46-1.336-.46-.515 0-.948.13-1.297.4-.35.26-.523.57-.523.94h-1.453c0-.42.148-.83.445-1.22.302-.4.71-.7 1.22-.94a4.28 4.28 0 0 1 1.695-.34c.974 0 1.737.25 2.29.73.552.5.84 1.16.86 2v3.9c0 .78.1 1.4.297 1.86v.12h-1.516zm-2.398-1.1c.453 0 .882-.12 1.29-.35.406-.24.7-.54.882-.92v-1.73h-1.132c-1.77 0-2.657.52-2.657 1.55 0 .46.15.8.453 1.07.303.25.69.38 1.165.38zm7.453 1.1h-1.446v-12h1.446v12zm5.71-1.02c.515 0 .966-.16 1.35-.47s.6-.7.64-1.17h1.367c-.026.48-.193.94-.5 1.38s-.72.8-1.234 1.05-1.053.4-1.625.4c-1.15 0-2.068-.4-2.75-1.15-.678-.77-1.016-1.83-1.016-3.16v-.24c0-.82.15-1.56.453-2.2s.734-1.13 1.297-1.5c.568-.35 1.237-.53 2.008-.53.948 0 1.734.28 2.36.85s.966 1.3 1.008 2.2h-1.367c-.042-.54-.25-1-.625-1.34s-.828-.53-1.375-.53c-.735 0-1.305.26-1.71.8-.4.52-.602 1.28-.602 2.28v.28c0 .97.2 1.72.602 2.25.4.52.974.8 1.72.8zm10.203.18c-.563.67-1.388 1-2.477 1-.9 0-1.588-.26-2.062-.78-.47-.53-.706-1.3-.71-2.33v-5.5h1.445v5.46c0 1.28.52 1.92 1.562 1.92 1.105 0 1.84-.4 2.204-1.23v-6.15h1.445v8.45h-1.375l-.03-.84zm5.18.84h-1.445v-12h1.445v12zm7.54 0c-.083-.17-.15-.46-.203-.9-.672.7-1.474 1.05-2.406 1.05-.833 0-1.518-.24-2.055-.7a2.29 2.29 0 0 1-.797-1.79c0-.88.334-1.57 1-2.05.672-.5 1.615-.73 2.83-.73h1.406v-.67c0-.5-.15-.9-.453-1.2-.302-.3-.748-.46-1.336-.46-.516 0-.948.13-1.297.4-.35.26-.523.57-.523.94h-1.454c0-.42.15-.83.446-1.22.302-.4.708-.7 1.218-.94.516-.22 1.08-.34 1.696-.34.974 0 1.737.25 2.29.73.552.5.838 1.16.86 2v3.9c0 .78.1 1.4.297 1.86v.12h-1.516zm-2.398-1.1c.453 0 .883-.12 1.29-.35.406-.24.7-.54.883-.92v-1.73h-1.133c-1.77 0-2.656.52-2.656 1.55 0 .46.15.8.453 1.07.302.25.7.38 1.164.38zm7.844-9.4v2.05h1.578v1.1h-1.578v5.25c0 .33.07.6.21.76s.38.25.718.25c.167 0 .396-.03.688-.1v1.17c-.38.1-.75.16-1.11.16-.646 0-1.133-.2-1.46-.6s-.493-.95-.493-1.66v-5.25h-1.54v-1.1h1.54v-2.05h1.446zm6.78 10.66c-1.146 0-2.078-.38-2.797-1.13s-1.078-1.76-1.078-3.02v-.27c0-.84.16-1.58.477-2.24s.77-1.18 1.343-1.55 1.203-.56 1.875-.56c1.1 0 1.953.36 2.563 1.1.61.72.914 1.76.914 3.1v.6h-5.727c.02.83.263 1.5.727 2.02s1.062.77 1.78.77c.51 0 .943-.1 1.297-.32a3.17 3.17 0 0 0 .93-.82l.883.68c-.71 1.1-1.77 1.64-3.188 1.64zm-.18-7.58a1.91 1.91 0 0 0-1.468.64c-.396.42-.64 1-.735 1.78h4.235v-.1c-.042-.73-.24-1.3-.594-1.7-.354-.4-.834-.6-1.438-.6zm4.805 3.12c0-1.3.307-2.34.922-3.12.614-.8 1.42-1.2 2.414-1.2s1.773.34 2.35 1.02v-4.4h1.446v12h-1.328l-.07-.9c-.578.7-1.382 1.07-2.414 1.07-.98 0-1.778-.4-2.398-1.2-.615-.8-.922-1.85-.922-3.14v-.1zm1.445.17c0 .96.198 1.7.594 2.25s.943.8 1.64.8c.916 0 1.586-.4 2.007-1.23v-3.9c-.432-.8-1.096-1.2-1.992-1.2-.708 0-1.26.27-1.656.82-.396.54-.594 1.35-.594 2.43zm13.352-3.3a3.06 3.06 0 0 1 2.5-1.18c1.786 0 2.687 1 2.703 3.02v5.6h-1.445v-5.6c-.006-.6-.146-1.06-.422-1.36-.27-.3-.696-.43-1.274-.43-.468 0-.88.12-1.234.37a2.54 2.54 0 0 0-.828.99v6.02h-1.445v-12h1.445v4.57zm6.984 3.13c0-.83.162-1.58.485-2.24.328-.66.78-1.17 1.36-1.53s1.247-.54 1.992-.54c1.15 0 2.08.4 2.79 1.2.714.8 1.07 1.85 1.07 3.18v.1c0 .82-.16 1.56-.477 2.22a3.59 3.59 0 0 1-1.352 1.52c-.583.36-1.255.55-2.015.55-1.146 0-2.076-.4-2.79-1.2s-1.063-1.85-1.063-3.16v-.1zm1.453.17c0 .93.217 1.7.65 2.25.437.57 1.02.86 1.75.86s1.318-.3 1.75-.86c.432-.58.648-1.4.648-2.42 0-.93-.22-1.68-.664-2.25a2.08 2.08 0 0 0-1.75-.87c-.713 0-1.29.28-1.726.85s-.657 1.38-.657 2.44zm13.274 3.3c-.563.67-1.388 1-2.477 1-.9 0-1.588-.26-2.062-.78-.47-.53-.706-1.3-.71-2.33v-5.5h1.445v5.46c0 1.28.52 1.92 1.563 1.92 1.104 0 1.838-.4 2.203-1.23v-6.15h1.445v8.45h-1.375l-.03-.84zm7.695-6.32a5.22 5.22 0 0 0-.711-.05c-.948 0-1.59.4-1.93 1.2v6h-1.446v-8.45h1.406l.024.97c.474-.75 1.146-1.13 2.016-1.13.28 0 .494.04.64.1v1.34zm2.906 7.16h-1.445v-12h1.445v12zm5.086-2.12l1.97-6.33h1.547l-3.398 9.75c-.527 1.4-1.362 2.1-2.508 2.1h-.274l-.54-.1v-1.17l.39.03c.49 0 .87-.1 1.14-.3.276-.2.503-.56.68-1.08l.32-.86-3.015-8.36h1.578l2.11 6.33zm12.868-5.04a5.22 5.22 0 0 0-.711-.05c-.948 0-1.592.4-1.93 1.2v6h-1.445v-8.45h1.406l.023.97c.474-.75 1.146-1.13 2.016-1.13.28 0 .495.04.64.1v1.34zm6.242 7.16c-.084-.17-.15-.46-.203-.9-.672.7-1.474 1.05-2.407 1.05-.833 0-1.518-.24-2.054-.7s-.797-1.07-.797-1.8c0-.88.333-1.57 1-2.05.672-.5 1.614-.73 2.828-.73h1.406v-.67c0-.5-.15-.9-.453-1.2-.302-.3-.747-.46-1.336-.46-.516 0-.948.13-1.297.4-.35.26-.523.57-.523.94h-1.453c0-.42.148-.83.445-1.22a3.15 3.15 0 0 1 1.219-.94c.515-.22 1.08-.34 1.695-.34.974 0 1.737.25 2.29.73.552.5.84 1.16.86 2v3.9c0 .78.1 1.4.297 1.86v.12h-1.515zm-2.4-1.1c.453 0 .883-.12 1.29-.35.407-.24.7-.54.883-.92v-1.73h-1.133c-1.77 0-2.656.52-2.656 1.55 0 .46.15.8.453 1.07.302.25.7.38 1.164.38zm7.85-9.4v2.05h1.57v1.1h-1.57v5.25c0 .33.07.6.2.76s.38.25.7.25a3.61 3.61 0 0 0 .69-.09v1.17c-.38.1-.75.16-1.1.16-.64 0-1.13-.2-1.46-.6s-.5-.95-.5-1.66v-5.25h-1.54v-1.1h1.54v-2.05h1.45zm6.78 10.66c-1.15 0-2.08-.38-2.8-1.13s-1.08-1.76-1.08-3.02v-.27c0-.84.16-1.58.48-2.24s.77-1.18 1.34-1.55a3.42 3.42 0 0 1 1.88-.56c1.1 0 1.95.36 2.56 1.1.6.72.9 1.76.9 3.1v.6h-5.72c.02.83.26 1.5.72 2.02a2.33 2.33 0 0 0 1.78.77c.5 0 .95-.1 1.3-.32.36-.2.67-.48.93-.82l.88.68c-.7 1.1-1.77 1.64-3.18 1.64zm-.18-7.58c-.6 0-1.08.2-1.47.64-.4.42-.64 1-.74 1.78h4.24v-.1c-.04-.73-.24-1.3-.6-1.7-.35-.4-.83-.6-1.43-.6z" class="B"/></svg>