<svg xmlns="http://www.w3.org/2000/svg" width="1150" height="715" fill="none" xmlns:v="https://vecta.io/nano"><ellipse rx="2.5" ry="2.484" transform="matrix(0 -1 -1 0 932.484 180.5)" fill="#2f2f2f"/><path d="M932 49.5V181" stroke="#2f2f2f" stroke-width=".635"/><g fill="#2f2f2f"><path d="M821.414 41h-1.5V29.625h1.5V41zm3.89-8.453l.047 1.063c.645-.812 1.49-1.22 2.53-1.22 1.786 0 2.687 1.008 2.703 3.023V41h-1.445v-5.594c-.006-.61-.146-1.06-.422-1.352s-.696-.437-1.274-.437c-.468 0-.88.125-1.234.375s-.63.578-.828.984V41h-1.445v-8.453h1.367zm10.25 6.492l2.093-6.492h1.477L836.094 41h-1.102l-3.062-8.453h1.476l2.15 6.492zm6.53 1.96h-1.445v-8.453h1.445V41zm-1.563-10.695c0-.234.07-.432.21-.594.146-.16.36-.242.64-.242s.495.08.64.242.218.36.218.594-.073.43-.218.586-.36.234-.64.234-.495-.078-.64-.234c-.14-.156-.21-.35-.21-.586zm5.844.195v2.047h1.578v1.117h-1.578v5.242c0 .34.07.594.21.766.14.167.38.25.72.25.167 0 .396-.03.687-.094V41c-.38.104-.75.156-1.11.156-.646 0-1.133-.195-1.46-.586s-.492-.945-.492-1.664v-5.242h-1.54v-1.117h1.54V30.5h1.445zm6.78 10.656c-1.145 0-2.078-.375-2.796-1.125-.72-.755-1.08-1.763-1.08-3.023v-.266c0-.84.16-1.586.477-2.242.323-.66.77-1.177 1.344-1.547a3.38 3.38 0 0 1 1.875-.562c1.1 0 1.953.362 2.562 1.086s.914 1.76.914 3.11v.602h-5.726c.02.833.263 1.508.726 2.023.47.51 1.063.766 1.782.766.5 0 .942-.104 1.296-.312a3.24 3.24 0 0 0 .93-.828l.883.688c-.708 1.09-1.77 1.633-3.188 1.633zm-.18-7.578a1.92 1.92 0 0 0-1.469.641c-.396.422-.64 1.016-.734 1.78H855v-.11c-.042-.734-.24-1.302-.594-1.703-.354-.406-.833-.61-1.437-.61zm14.343 6.586c-.562.66-1.388.992-2.476.992-.9 0-1.59-.26-2.063-.78-.468-.526-.705-1.302-.71-2.328v-5.5h1.446v5.46c0 1.28.52 1.922 1.562 1.922 1.104 0 1.84-.41 2.203-1.234v-6.148h1.446V41h-1.375l-.032-.836zm4.977-7.617l.047 1.063c.646-.812 1.5-1.22 2.53-1.22 1.787 0 2.688 1.008 2.703 3.023V41h-1.445v-5.594c-.005-.61-.146-1.06-.422-1.352-.27-.292-.695-.437-1.273-.437-.47 0-.88.125-1.235.375s-.63.578-.828.984V41h-1.445v-8.453h1.367zM881.32 41h-1.445V29h1.445v12zm3.89 0h-1.445v-8.453h1.445V41zm-1.563-10.695c0-.234.07-.432.21-.594.146-.16.36-.242.64-.242s.495.08.64.242.218.36.218.594-.073.43-.218.586-.36.234-.64.234-.495-.078-.64-.234c-.14-.156-.21-.35-.21-.586zm5.243 2.242l.04.938c.62-.73 1.455-1.094 2.508-1.094 1.182 0 1.986.453 2.414 1.36.28-.406.645-.734 1.093-.984s.987-.375 1.602-.375c1.854 0 2.797.982 2.828 2.945V41h-1.445v-5.578c0-.604-.138-1.055-.414-1.352-.276-.302-.74-.453-1.39-.453-.536 0-.982.16-1.336.484-.354.318-.56.747-.617 1.29V41h-1.453v-5.54c0-1.23-.602-1.844-1.805-1.844-.948 0-1.596.404-1.945 1.21V41h-1.446v-8.453h1.368zM903.133 41h-1.445v-8.453h1.445V41zm-1.563-10.695c0-.234.07-.432.21-.594.146-.16.36-.242.64-.242s.495.08.64.242.22.36.22.594-.073.43-.22.586-.36.234-.64.234-.495-.078-.64-.234c-.14-.156-.21-.35-.21-.586zm5.844.195v2.047h1.578v1.117h-1.578v5.242c0 .34.07.594.21.766.14.167.38.25.72.25.166 0 .396-.03.687-.094V41c-.38.104-.75.156-1.11.156-.646 0-1.133-.195-1.46-.586s-.492-.945-.492-1.664v-5.242h-1.54v-1.117h1.54V30.5h1.445zm6.78 10.656c-1.146 0-2.078-.375-2.797-1.125-.718-.755-1.078-1.763-1.078-3.023v-.266c0-.84.16-1.586.477-2.242.323-.66.77-1.177 1.344-1.547a3.38 3.38 0 0 1 1.875-.562c1.1 0 1.953.362 2.562 1.086s.914 1.76.914 3.11v.602h-5.726c.02.833.263 1.508.726 2.023.47.51 1.063.766 1.78.766.51 0 .943-.104 1.297-.312s.664-.484.93-.828l.883.688c-.71 1.09-1.77 1.633-3.188 1.633zm-.18-7.578a1.92 1.92 0 0 0-1.469.641c-.396.422-.64 1.016-.735 1.78h4.235v-.11c-.042-.734-.24-1.302-.594-1.703-.354-.406-.833-.61-1.437-.61zm4.804 3.125c0-1.297.308-2.338.922-3.125a2.91 2.91 0 0 1 2.414-1.187c1 0 1.774.34 2.352 1.016V29h1.445v12h-1.328l-.07-.906c-.578.708-1.383 1.062-2.414 1.062-.98 0-1.78-.4-2.4-1.203-.614-.802-.922-1.85-.922-3.14v-.11zm1.446.164c0 .958.198 1.708.593 2.25s.943.813 1.64.813c.917 0 1.586-.41 2.008-1.234v-3.883a2.12 2.12 0 0 0-1.992-1.195c-.71 0-1.26.273-1.657.82s-.593 1.357-.593 2.43zm13.273-4.32l.047 1.063c.646-.812 1.5-1.22 2.53-1.22 1.787 0 2.688 1.008 2.703 3.023V41h-1.445v-5.594c-.005-.61-.146-1.06-.422-1.352-.27-.292-.695-.437-1.273-.437-.47 0-.88.125-1.235.375s-.63.578-.828.984V41h-1.445v-8.453h1.367zm12.68 7.617c-.563.66-1.388.992-2.477.992-.9 0-1.588-.26-2.062-.78-.47-.526-.706-1.302-.71-2.328v-5.5h1.445v5.46c0 1.28.52 1.922 1.563 1.922 1.104 0 1.838-.41 2.203-1.234v-6.148h1.445V41h-1.375l-.03-.836zm4.97-7.617l.04.938c.62-.73 1.455-1.094 2.507-1.094 1.183 0 1.987.453 2.414 1.36a3.22 3.22 0 0 1 1.094-.984c.453-.25.987-.375 1.602-.375 1.854 0 2.797.982 2.828 2.945V41h-1.445v-5.578c0-.604-.138-1.055-.415-1.352-.276-.302-.74-.453-1.4-.453-.537 0-.982.16-1.336.484-.354.318-.56.747-.617 1.29V41h-1.453v-5.54c0-1.23-.602-1.844-1.805-1.844-.948 0-1.596.404-1.945 1.21V41h-1.446v-8.453h1.368zm19.828 4.32c0 1.292-.297 2.33-.89 3.117-.594.78-1.39 1.172-2.39 1.172-1.067 0-1.893-.378-2.476-1.133l-.07.977h-1.33V29h1.446v4.477c.583-.724 1.388-1.086 2.414-1.086s1.83.388 2.414 1.164.883 1.84.883 3.188v.125zm-1.446-.164c0-.984-.2-1.745-.57-2.28s-.927-.805-1.64-.805c-.953 0-1.638.443-2.054 1.328v3.656c.442.885 1.133 1.328 2.07 1.328.693 0 1.232-.268 1.617-.805s.578-1.344.578-2.422zm6.782 4.453c-1.146 0-2.08-.375-2.797-1.125-.72-.755-1.078-1.763-1.078-3.023v-.266c0-.84.158-1.586.476-2.242.323-.66.77-1.177 1.344-1.547a3.38 3.38 0 0 1 1.875-.562c1.1 0 1.953.362 2.562 1.086s.914 1.76.914 3.11v.602h-5.726c.02.833.263 1.508.726 2.023.47.51 1.063.766 1.782.766.5 0 .942-.104 1.297-.312a3.25 3.25 0 0 0 .929-.828l.883.688c-.708 1.09-1.77 1.633-3.187 1.633zm-.18-7.578a1.92 1.92 0 0 0-1.469.641c-.396.422-.64 1.016-.734 1.78h4.234v-.11c-.042-.734-.24-1.302-.594-1.703-.354-.406-.833-.61-1.437-.61zm9.242.266a4.33 4.33 0 0 0-.711-.055c-.948 0-1.59.404-1.93 1.21v6h-1.445v-8.453h1.406l.024.977c.474-.755 1.146-1.133 2.015-1.133.282 0 .495.037.64.11v1.344zm4.922 2.852c0-.828.16-1.573.484-2.234s.782-1.172 1.36-1.53c.583-.36 1.247-.54 1.992-.54 1.15 0 2.08.398 2.79 1.195s1.07 1.857 1.07 3.18v.102c0 .823-.16 1.563-.476 2.22a3.56 3.56 0 0 1-1.352 1.523c-.583.365-1.255.547-2.015.547-1.146 0-2.076-.398-2.8-1.195-.708-.797-1.062-1.852-1.062-3.164v-.102zm1.453.172c0 .938.216 1.7.65 2.258s1.02.852 1.75.852 1.317-.286 1.75-.86c.432-.578.648-1.385.648-2.422 0-.927-.22-1.677-.664-2.25-.438-.578-1.02-.867-1.75-.867-.714 0-1.29.284-1.727.852s-.656 1.38-.656 2.438zm8.76 4.133v-7.336h-1.33v-1.117h1.33v-.867c0-.906.25-1.607.73-2.102.5-.495 1.17-.742 2.06-.742.33 0 .66.044 1 .133l-.08 1.172c-.24-.047-.5-.07-.78-.07-.47 0-.83.138-1.1.414-.25.27-.38.66-.38 1.172v.89h1.8v1.117h-1.8V41h-1.45zm14.04-.836c-.56.66-1.38.992-2.47.992-.9 0-1.6-.26-2.07-.78-.46-.526-.7-1.302-.7-2.328v-5.5h1.45v5.46c0 1.28.52 1.922 1.56 1.922 1.1 0 1.84-.41 2.2-1.234v-6.148h1.45V41h-1.38l-.03-.836zm8.53-1.406c0-.39-.14-.693-.44-.906-.3-.22-.8-.406-1.54-.562-.73-.156-1.3-.344-1.74-.562s-.75-.48-.95-.78c-.2-.302-.3-.66-.3-1.078 0-.693.3-1.28.88-1.758.58-.48 1.33-.72 2.25-.72.95 0 1.73.247 2.32.742a2.35 2.35 0 0 1 .9 1.898h-1.45c0-.396-.17-.737-.5-1.023-.33-.286-.75-.43-1.26-.43-.53 0-.94.115-1.24.344s-.44.53-.44.898c0 .35.13.612.4.79s.77.346 1.5.508c.73.16 1.3.354 1.76.578s.78.495 1 .813c.22.313.33.695.33 1.148a2.16 2.16 0 0 1-.91 1.82c-.6.453-1.38.68-2.35.68-.67 0-1.27-.12-1.8-.36-.53-.24-.93-.573-1.23-1-.3-.432-.44-.898-.44-1.398h1.45c.02.484.22.87.58 1.156.36.28.84.422 1.43.422.55 0 1-.11 1.3-.328.34-.224.5-.52.5-.89zm6.84 2.398c-1.14 0-2.08-.375-2.8-1.125-.7-.755-1.07-1.763-1.07-3.023v-.266c0-.84.15-1.586.47-2.242.33-.66.77-1.177 1.35-1.547a3.35 3.35 0 0 1 1.87-.562c1.1 0 1.95.362 2.56 1.086s.92 1.76.92 3.11v.602h-5.73c.02.833.26 1.508.73 2.023.47.51 1.06.766 1.78.766.5 0 .94-.104 1.3-.312.35-.208.66-.484.93-.828l.88.688c-.7 1.09-1.77 1.633-3.2 1.633zm-.18-7.578c-.58 0-1.07.214-1.47.64-.4.422-.64 1.016-.73 1.78h4.23v-.11c-.04-.734-.24-1.302-.6-1.703-.36-.406-.83-.61-1.44-.61zm9.24.266c-.22-.037-.45-.055-.7-.055-.95 0-1.6.404-1.93 1.21v6h-1.44v-8.453h1.4l.03.977c.47-.755 1.14-1.133 2-1.133.28 0 .5.037.64.11v1.344zm6.26 4.914c0-.39-.15-.693-.44-.906-.3-.22-.8-.406-1.54-.562s-1.3-.344-1.75-.562c-.42-.22-.74-.48-.95-.78-.2-.302-.3-.66-.3-1.078 0-.693.3-1.28.87-1.758.6-.48 1.34-.72 2.25-.72.96 0 1.74.247 2.33.742a2.35 2.35 0 0 1 .9 1.898h-1.45c0-.396-.17-.737-.5-1.023s-.76-.43-1.27-.43c-.52 0-.94.115-1.23.344-.3.23-.45.53-.45.898 0 .35.14.612.42.79.27.177.77.346 1.5.508s1.3.354 1.76.578c.44.224.77.495 1 .813.22.313.33.695.33 1.148 0 .755-.3 1.362-.9 1.82-.6.453-1.4.68-2.35.68-.68 0-1.28-.12-1.8-.36s-.93-.573-1.22-1c-.3-.432-.44-.898-.44-1.398h1.44c.03.484.22.87.58 1.156.37.28.85.422 1.44.422.55 0 .98-.11 1.3-.328.33-.224.5-.52.5-.89z"/><circle r="3" transform="matrix(0 1 1 0 557 537)"/></g><path d="M505 660V540a3 3 0 0 1 3-3h49" stroke="#2f2f2f" stroke-width=".635"/><g fill="#2f2f2f"><path d="M450.875 677.93c-1.286-.37-2.224-.823-2.813-1.36a2.62 2.62 0 0 1-.874-2c0-.896.356-1.635 1.07-2.218.72-.59 1.65-.883 2.797-.883.78 0 1.476.15 2.086.453s1.088.72 1.42 1.25c.34.53.508 1.112.508 1.742h-1.508c0-.687-.218-1.226-.656-1.617-.437-.396-1.054-.594-1.85-.594-.74 0-1.318.164-1.735.492-.41.323-.617.774-.617 1.352 0 .463.195.857.586 1.18.396.317 1.065.61 2.008.875s1.687.56 2.22.882c.536.318.932.7 1.187 1.118.26.427.39.93.39 1.507 0 .922-.36 1.662-1.078 2.22s-1.68.828-2.883.828c-.78 0-1.51-.148-2.188-.445s-1.2-.714-1.57-1.234-.547-1.112-.547-1.774h1.508c0 .688.253 1.232.758 1.633.5.396 1.2.594 2.04.594.79 0 1.398-.162 1.82-.485s.633-.763.633-1.32-.195-.987-.586-1.29-1.1-.61-2.125-.906zm9.43 5.226c-1.146 0-2.078-.375-2.797-1.125s-1.078-1.763-1.078-3.023v-.266c0-.838.16-1.586.476-2.242.323-.66.77-1.177 1.344-1.547a3.38 3.38 0 0 1 1.875-.562c1.1 0 1.953.362 2.563 1.086s.914 1.76.914 3.11v.602h-5.727c.02.833.263 1.507.727 2.023.468.5 1.062.766 1.78.766.5 0 .943-.105 1.297-.313a3.24 3.24 0 0 0 .929-.828l.883.687c-.708 1.09-1.77 1.633-3.187 1.633zm-.18-7.578c-.583 0-1.073.214-1.47.64-.396.422-.64 1.015-.734 1.78h4.234v-.11c-.04-.735-.24-1.302-.594-1.703-.354-.407-.833-.6-1.437-.6zm7.117-3.078v2.047h1.578v1.117h-1.578v5.242c0 .34.07.594.21.766s.38.25.72.25c.167 0 .396-.03.687-.094V683c-.38.104-.75.156-1.11.156-.646 0-1.133-.195-1.46-.586s-.492-.945-.492-1.664v-5.242h-1.54v-1.117h1.54V672.5h1.445zm8.688 3.07a3.07 3.07 0 0 1 2.5-1.179c1.786 0 2.687 1.007 2.703 3.023V683h-1.445v-5.594c-.006-.61-.146-1.06-.422-1.35s-.696-.438-1.274-.438c-.47 0-.88.125-1.234.375s-.63.578-.828.985V683h-1.446v-12h1.446v4.57zm6.984 3.125c0-.828.162-1.573.484-2.234.33-.662.782-1.172 1.36-1.53.583-.36 1.247-.54 1.992-.54 1.15 0 2.08.398 2.79 1.195.714.797 1.07 1.857 1.07 3.18v.1c0 .823-.158 1.563-.476 2.22-.313.65-.763 1.16-1.352 1.523-.583.365-1.255.547-2.015.547-1.146 0-2.076-.398-2.79-1.195s-1.063-1.852-1.063-3.164v-.102zm1.453.172c0 .938.216 1.7.65 2.258s1.02.852 1.75.852 1.317-.287 1.75-.86.648-1.385.648-2.422c0-.927-.22-1.677-.664-2.25-.438-.578-1.02-.867-1.75-.867-.714 0-1.29.284-1.727.852s-.656 1.38-.656 2.437zm13.274 3.297c-.563.662-1.388.992-2.477.992-.9 0-1.588-.26-2.062-.78-.47-.526-.706-1.302-.71-2.328v-5.5h1.445v5.46c0 1.28.52 1.922 1.562 1.922 1.105 0 1.84-.412 2.204-1.235v-6.148h1.445V683h-1.375l-.03-.836zm7.695-6.32c-.22-.037-.456-.055-.71-.055-.948 0-1.59.404-1.93 1.21v6h-1.445v-8.453h1.406l.024.976c.474-.755 1.146-1.132 2.015-1.132.282 0 .495.036.64.11v1.344zm2.906 7.156h-1.445v-12h1.445v12zm5.086-2.117l1.97-6.336h1.547l-3.4 9.758c-.526 1.406-1.362 2.11-2.507 2.11l-.274-.023-.54-.102v-1.172l.39.03c.49 0 .87-.1 1.14-.296s.503-.56.68-1.086l.32-.86-3.015-8.36h1.578l2.11 6.336zm12.867-5.04a4.26 4.26 0 0 0-.711-.055c-.948 0-1.59.404-1.93 1.21v6h-1.446v-8.453h1.407l.023.976c.474-.755 1.146-1.132 2.016-1.132.28 0 .494.036.64.11v1.344zm6.243 7.156c-.084-.167-.152-.464-.204-.89-.672.698-1.474 1.047-2.406 1.047-.833 0-1.518-.234-2.055-.703-.53-.474-.796-1.073-.796-1.797 0-.88.333-1.562 1-2.047s1.614-.734 2.828-.734h1.406v-.664c0-.505-.15-.906-.453-1.203-.302-.302-.748-.453-1.336-.453-.516 0-.948.13-1.297.4s-.523.576-.523.946h-1.454c0-.422.15-.83.446-1.22.302-.396.708-.708 1.218-.938.516-.23 1.08-.343 1.696-.343.974 0 1.737.244 2.29.734.552.484.838 1.154.86 2.008v3.9c0 .776.1 1.394.297 1.852V683h-1.515zm-2.4-1.102c.453 0 .883-.117 1.29-.35s.7-.54.883-.914v-1.735h-1.133c-1.77 0-2.656.52-2.656 1.555 0 .453.15.807.453 1.063s.7.382 1.164.382zm7.844-9.398v2.047h1.578v1.117h-1.578v5.242c0 .34.07.594.21.766s.38.25.718.25c.167 0 .396-.03.688-.094V683c-.38.104-.75.156-1.11.156-.646 0-1.133-.195-1.46-.586s-.492-.945-.492-1.664v-5.242h-1.54v-1.117h1.54V672.5h1.445zm6.78 10.656c-1.146 0-2.078-.375-2.797-1.125s-1.078-1.763-1.078-3.023v-.266c0-.838.16-1.586.477-2.242.323-.66.77-1.177 1.343-1.547a3.38 3.38 0 0 1 1.875-.562c1.1 0 1.954.362 2.563 1.086s.914 1.76.914 3.11v.602h-5.727c.02.833.263 1.507.727 2.023.47.5 1.062.766 1.78.766.51 0 .943-.105 1.297-.313s.664-.484.93-.828l.883.687c-.71 1.09-1.77 1.633-3.188 1.633zm-.18-7.578a1.92 1.92 0 0 0-1.468.641c-.396.422-.64 1.015-.735 1.78h4.235v-.11c-.042-.735-.24-1.302-.594-1.703-.354-.407-.833-.6-1.438-.6zm10.078 5.18c0-.39-.148-.693-.445-.906-.29-.22-.805-.407-1.54-.563-.73-.156-1.3-.344-1.742-.562s-.745-.48-.953-.782-.305-.66-.305-1.078c0-.693.292-1.278.875-1.758.59-.48 1.34-.718 2.25-.718.958 0 1.735.247 2.328.742a2.35 2.35 0 0 1 .899 1.898h-1.453c0-.396-.17-.737-.508-1.023s-.755-.43-1.266-.43c-.526 0-.937.115-1.234.344a1.08 1.08 0 0 0-.446.898c0 .35.138.612.415.79s.773.347 1.492.508c.724.162 1.3.354 1.758.578s.778.495.992.813c.218.312.328.695.328 1.148 0 .755-.302 1.362-.906 1.82-.605.453-1.388.68-2.352.68-.677 0-1.276-.12-1.797-.36s-.93-.573-1.226-1a2.45 2.45 0 0 1-.438-1.399h1.445c.026.485.22.87.578 1.157.365.28.844.422 1.438.422.547 0 .984-.1 1.312-.33.334-.224.5-.52.5-.9z"/><circle r="3" transform="matrix(0 1 1 0 925 539)"/></g><path d="M925 661V540" stroke="#2f2f2f" stroke-width=".635"/><path d="M848.742 679.39c-.14 1.203-.586 2.132-1.336 2.79-.745.65-1.737.976-2.976.976-1.344 0-2.422-.482-3.235-1.445-.807-.964-1.21-2.253-1.21-3.867v-1.094c0-1.057.188-1.987.563-2.79s.917-1.417 1.61-1.844 1.495-.648 2.406-.648c1.21 0 2.178.338 2.907 1.015.73.672 1.153 1.605 1.273 2.797h-1.508c-.13-.906-.414-1.562-.85-1.97s-1.04-.61-1.82-.61c-.958 0-1.7.354-2.257 1.063-.542.708-.813 1.716-.813 3.023v1.102c0 1.234.258 2.216.774 2.945s1.237 1.094 2.164 1.094c.833 0 1.47-.188 1.914-.563s.745-1.04.9-1.976h1.508zm1.446-.696c0-.828.16-1.573.484-2.234s.78-1.172 1.36-1.53c.584-.36 1.248-.54 1.992-.54 1.15 0 2.08.398 2.79 1.195.714.797 1.07 1.857 1.07 3.18v.1c0 .823-.16 1.563-.477 2.22-.312.65-.763 1.16-1.35 1.523s-1.256.547-2.016.547c-1.146 0-2.075-.398-2.79-1.195-.708-.797-1.062-1.852-1.062-3.164v-.102zm1.453.172c0 .938.216 1.7.648 2.258.438.568 1.02.852 1.75.852s1.318-.287 1.75-.86.65-1.385.65-2.422c0-.927-.222-1.677-.665-2.25a2.08 2.08 0 0 0-1.75-.867 2.07 2.07 0 0 0-1.726.852c-.438.567-.656 1.38-.656 2.437zm9.42-4.32l.047 1.062a3.08 3.08 0 0 1 2.532-1.218c1.786 0 2.687 1.007 2.703 3.023V683h-1.446v-5.594c-.005-.61-.145-1.06-.42-1.35-.27-.292-.696-.438-1.274-.438-.47 0-.88.125-1.234.375s-.63.578-.828.985V683h-1.446v-8.453h1.367zm9.422-2.047v2.047h1.578v1.117h-1.578v5.242c0 .34.07.594.21.766s.38.25.72.25c.167 0 .396-.03.688-.094V683a4.2 4.2 0 0 1-1.11.156c-.646 0-1.133-.195-1.46-.586s-.492-.945-.492-1.664v-5.242h-1.54v-1.117h1.54V672.5h1.445zm7.36 3.344c-.22-.037-.456-.055-.71-.055-.948 0-1.59.404-1.93 1.21v6h-1.445v-8.453h1.406l.024.976c.473-.755 1.145-1.132 2.015-1.132.28 0 .495.036.64.11v1.344zm.797 2.85c0-.828.16-1.573.484-2.234s.78-1.172 1.36-1.53c.584-.36 1.248-.54 1.993-.54 1.15 0 2.08.398 2.79 1.195s1.07 1.857 1.07 3.18v.1c0 .823-.16 1.563-.477 2.22-.312.65-.763 1.16-1.35 1.523s-1.255.547-2.016.547c-1.146 0-2.075-.398-2.79-1.195-.708-.797-1.062-1.852-1.062-3.164v-.102zm1.453.172c0 .938.216 1.7.648 2.258.438.568 1.02.852 1.75.852.735 0 1.318-.287 1.75-.86s.65-1.385.65-2.422c0-.927-.222-1.677-.664-2.25-.438-.578-1.02-.867-1.75-.867-.714 0-1.29.284-1.727.852s-.656 1.38-.656 2.437zM889.72 683h-1.446v-12h1.446v12zm11.508 0c-.084-.167-.15-.464-.204-.89-.67.698-1.474 1.047-2.406 1.047-.833 0-1.518-.234-2.055-.703-.53-.474-.796-1.073-.796-1.797 0-.88.333-1.562 1-2.047.672-.49 1.614-.734 2.828-.734H901v-.664c0-.505-.15-.906-.453-1.203-.302-.302-.748-.453-1.336-.453-.516 0-.948.13-1.297.4s-.523.576-.523.946h-1.453c0-.422.148-.83.445-1.22a3.09 3.09 0 0 1 1.219-.938c.515-.23 1.08-.343 1.695-.343.974 0 1.737.244 2.29.734.552.484.838 1.154.86 2.008v3.9c0 .776.1 1.394.297 1.852V683h-1.515zm-2.4-1.102c.453 0 .883-.117 1.29-.35s.7-.54.883-.914v-1.735h-1.133c-1.77 0-2.656.52-2.656 1.555 0 .453.15.807.453 1.063s.7.382 1.164.382zm9.274.08c.515 0 .966-.157 1.35-.47s.6-.703.64-1.172h1.367c-.026.484-.193.945-.5 1.383s-.72.786-1.234 1.047-1.053.4-1.625.4c-1.15 0-2.068-.383-2.75-1.148-.678-.77-1.016-1.823-1.016-3.156v-.243c0-.823.15-1.554.453-2.195s.734-1.138 1.297-1.492 1.237-.53 2.008-.53c.948 0 1.734.283 2.36.85s.966 1.305 1.008 2.21h-1.367c-.042-.547-.25-.995-.625-1.344a1.91 1.91 0 0 0-1.375-.531c-.735 0-1.305.266-1.71.797s-.602 1.29-.602 2.29v.274c0 .973.2 1.723.602 2.25s.974.79 1.72.79zm8.375 0c.515 0 .966-.157 1.35-.47s.6-.703.64-1.172h1.367c-.026.484-.193.945-.5 1.383s-.72.786-1.234 1.047-1.053.4-1.625.4c-1.15 0-2.068-.383-2.75-1.148-.678-.77-1.016-1.823-1.016-3.156v-.243c0-.823.15-1.554.453-2.195s.734-1.138 1.297-1.492 1.237-.53 2.008-.53c.948 0 1.734.283 2.36.85s.966 1.305 1.008 2.21h-1.367c-.042-.547-.25-.995-.625-1.344a1.91 1.91 0 0 0-1.375-.531c-.735 0-1.305.266-1.71.797s-.602 1.29-.602 2.29v.274c0 .973.2 1.723.602 2.25s.974.79 1.72.79zm8.492 1.18c-1.146 0-2.078-.375-2.797-1.125s-1.078-1.763-1.078-3.023v-.266c0-.838.16-1.586.476-2.242.323-.66.77-1.177 1.344-1.547a3.38 3.38 0 0 1 1.875-.562c1.1 0 1.953.362 2.563 1.086s.914 1.76.914 3.11v.602h-5.727c.02.833.263 1.507.727 2.023.468.5 1.062.766 1.78.766.5 0 .943-.105 1.297-.313a3.24 3.24 0 0 0 .929-.828l.883.687c-.708 1.09-1.77 1.633-3.187 1.633zm-.18-7.578c-.583 0-1.073.214-1.47.64-.396.422-.64 1.015-.734 1.78h4.234v-.11c-.04-.735-.24-1.302-.593-1.703-.355-.407-.834-.6-1.438-.6zm10.078 5.18c0-.39-.148-.693-.445-.906-.292-.22-.805-.407-1.54-.563s-1.3-.344-1.742-.562c-.427-.22-.745-.48-.953-.782s-.305-.66-.305-1.078c0-.693.29-1.278.875-1.758s1.338-.718 2.25-.718c.958 0 1.734.247 2.328.742a2.35 2.35 0 0 1 .898 1.898h-1.453c0-.396-.17-.737-.508-1.023-.333-.287-.755-.43-1.265-.43-.526 0-.938.115-1.235.344s-.445.53-.445.898c0 .35.138.612.414.79s.774.347 1.492.508c.724.162 1.3.354 1.758.578s.78.495.992.813c.22.312.328.695.328 1.148 0 .755-.302 1.362-.906 1.82-.604.453-1.388.68-2.35.68-.677 0-1.276-.12-1.797-.36s-.93-.573-1.227-1c-.29-.432-.437-.9-.437-1.4h1.445c.026.485.22.87.578 1.157.365.28.844.422 1.438.422.547 0 .984-.1 1.312-.33.334-.224.5-.52.5-.9zm8.25 0c0-.39-.148-.693-.445-.906-.292-.22-.805-.407-1.54-.563s-1.3-.344-1.742-.562c-.427-.22-.745-.48-.953-.782s-.305-.66-.305-1.078c0-.693.29-1.278.875-1.758s1.338-.718 2.25-.718c.958 0 1.734.247 2.328.742a2.35 2.35 0 0 1 .898 1.898h-1.453c0-.396-.17-.737-.508-1.023-.333-.287-.755-.43-1.265-.43-.526 0-.938.115-1.235.344s-.445.53-.445.898c0 .35.138.612.414.79s.774.347 1.492.508c.724.162 1.3.354 1.758.578s.78.495.992.813c.22.312.328.695.328 1.148 0 .755-.302 1.362-.906 1.82-.604.453-1.388.68-2.35.68-.677 0-1.276-.12-1.797-.36s-.93-.573-1.227-1c-.29-.432-.437-.9-.437-1.4h1.445c.026.485.22.87.578 1.157.365.28.844.422 1.438.422.547 0 .984-.1 1.312-.33.334-.224.5-.52.5-.9zm14.453-1.89c0 1.292-.297 2.33-.9 3.117s-1.39 1.172-2.39 1.172c-1.068 0-1.893-.377-2.477-1.133l-.07.977h-1.328v-12h1.445v4.477c.584-.724 1.388-1.086 2.414-1.086s1.83.388 2.415 1.164.882 1.838.882 3.187v.125zm-1.445-.164c0-.984-.2-1.745-.57-2.28s-.927-.805-1.64-.805c-.953 0-1.638.443-2.055 1.328v3.657c.443.885 1.133 1.328 2.07 1.328.692 0 1.23-.27 1.617-.805s.578-1.344.578-2.422zm5.945 2.18l1.97-6.336h1.547l-3.398 9.758c-.527 1.406-1.362 2.11-2.508 2.11l-.274-.023-.54-.102v-1.172l.39.03c.49 0 .87-.1 1.14-.296.276-.198.503-.56.68-1.086l.32-.86-3.015-8.36h1.578l2.11 6.336zm8.438-2.18c0-1.318.304-2.364.914-3.14s1.417-1.17 2.422-1.17c1.03 0 1.836.364 2.414 1.093l.07-.937h1.32v8.25c0 1.094-.325 1.956-.976 2.586s-1.516.945-2.6.945c-.61 0-1.205-.13-1.79-.4s-1.028-.618-1.335-1.07l.75-.867c.62.766 1.377 1.148 2.273 1.148.703 0 1.25-.197 1.64-.593s.593-.953.593-1.672v-.727c-.578.667-1.367 1-2.367 1-.99 0-1.792-.398-2.406-1.195s-.914-1.883-.914-3.258zm1.453.164c0 .953.195 1.703.586 2.25s.937.813 1.64.813c.91 0 1.58-.414 2.007-1.242v-3.86c-.442-.807-1.106-1.21-1.992-1.21-.703 0-1.252.274-1.648.82s-.594 1.356-.594 2.43zm11.96-3.023c-.22-.037-.456-.055-.71-.055-.948 0-1.59.404-1.93 1.21v6h-1.445v-8.453h1.406l.024.976c.474-.755 1.145-1.132 2.015-1.132.28 0 .495.036.64.11v1.344zm.797 2.85c0-.828.16-1.573.484-2.234s.78-1.172 1.36-1.53c.584-.36 1.248-.54 1.993-.54 1.15 0 2.08.398 2.79 1.195s1.07 1.857 1.07 3.18v.1c0 .823-.16 1.563-.476 2.22-.313.65-.764 1.16-1.352 1.523s-1.255.547-2.016.547c-1.146 0-2.075-.398-2.79-1.195-.708-.797-1.062-1.852-1.062-3.164v-.102zm1.453.172c0 .938.216 1.7.648 2.258.438.568 1.02.852 1.75.852.735 0 1.318-.287 1.75-.86s.65-1.385.65-2.422c0-.927-.222-1.677-.664-2.25-.438-.578-1.02-.867-1.75-.867-.714 0-1.29.284-1.727.852s-.656 1.38-.656 2.437zm13.273 3.297c-.562.662-1.388.992-2.476.992-.9 0-1.59-.26-2.063-.78-.468-.526-.705-1.302-.71-2.328v-5.5h1.446v5.46c0 1.28.52 1.922 1.562 1.922 1.104 0 1.84-.412 2.203-1.235v-6.148h1.444V683h-1.373l-.032-.836zm10.755-3.297c0 1.287-.3 2.323-.9 3.1a2.82 2.82 0 0 1-2.39 1.179c-1.02 0-1.83-.325-2.42-.976v4.07h-1.45v-11.703h1.33l.07.937c.58-.73 1.4-1.093 2.45-1.093 1 0 1.82.382 2.4 1.148.6.766.9 1.83.9 3.195v.133zm-1.45-.164c0-.953-.2-1.706-.6-2.258a1.96 1.96 0 0 0-1.67-.828c-.88 0-1.53.388-1.97 1.164v4.04c.43.77 1.1 1.157 1.98 1.157a1.93 1.93 0 0 0 1.65-.821c.4-.552.62-1.37.62-2.453z" fill="#2f2f2f"/></svg>