<svg xmlns="http://www.w3.org/2000/svg" xmlnsXlink="http://www.w3.org/1999/xlink" xmlnsV="https://vecta.io/nano" fill="none"><path d="M130 41.122c0 2.531-1.674 4.581-3.744 4.581H3.748C1.679 45.703 0 43.653 0 41.122V4.587C0 2.057 1.679 0 3.748 0h122.508c2.07 0 3.743 2.057 3.743 4.587L130 41.122z" fill="#000"></path><path d="M56.677 28.124h-4.745v3.555h5.546v1.603h-7.554V21.729h7.498v1.619h-5.491v3.19h4.745v1.587zm1.73.801c0-1.323.307-2.383.92-3.182s1.436-1.206 2.468-1.206c.91 0 1.645.317 2.206.952v-4.396h1.928V33.28h-1.746l-.095-.889c-.577.698-1.346 1.047-2.309 1.047a2.94 2.94 0 0 1-2.444-1.214c-.619-.809-.928-1.91-.928-3.301zm1.928.167c0 .873.167 1.555.5 2.047.338.487.817.73 1.436.73.788 0 1.365-.352 1.73-1.055v-3.666c-.354-.688-.926-1.032-1.714-1.032-.624 0-1.106.249-1.444.746s-.508 1.235-.508 2.23zm7.268-.167c0-1.333.312-2.396.936-3.19.63-.799 1.463-1.198 2.499-1.198.979 0 1.748.341 2.309 1.023l.087-.865h1.738v8.323c0 1.127-.352 2.015-1.055 2.666-.698.651-1.642.976-2.833.976a4.56 4.56 0 0 1-1.849-.397c-.598-.259-1.053-.6-1.365-1.023l.912-1.159c.592.704 1.322 1.055 2.19 1.055.64 0 1.145-.175 1.515-.524.37-.344.555-.852.555-1.523v-.579c-.555.619-1.296.928-2.222.928-1.005 0-1.828-.399-2.468-1.198s-.952-1.904-.952-3.317zm1.92.167c0 .862.175 1.542.524 2.039s.844.738 1.468.738c.778 0 1.354-.333 1.73-1v-3.777c-.365-.651-.936-.976-1.714-.976a1.71 1.71 0 0 0-1.484.754c-.349.502-.524 1.243-.524 2.222zm11.418 4.348c-1.222 0-2.214-.384-2.975-1.151s-1.135-1.799-1.135-3.079v-.238c0-.857.164-1.621.492-2.293s.799-1.203 1.397-1.579a3.68 3.68 0 0 1 1.999-.563c1.169 0 2.071.373 2.706 1.119s.96 1.801.96 3.166v.778h-5.61c.058.709.294 1.27.706 1.682.418.413.942.619 1.571.619.883 0 1.603-.357 2.158-1.071l1.04.992a3.49 3.49 0 0 1-1.381 1.198c-.571.28-1.214.421-1.928.421zm-.23-7.355c-.529 0-.957.185-1.285.555-.323.37-.529.886-.619 1.547h3.674v-.143c-.042-.645-.214-1.132-.516-1.46s-.719-.5-1.254-.5zm-25.982-9.777l-.126.131c-.546.505-1.362.758-2.449.758-.902 0-1.618-.275-2.149-.824s-.797-1.306-.797-2.269v-.355c0-.964.253-1.718.758-2.264s1.202-.818 2.089-.818c.782 0 1.4.178 1.855.535s.727.878.818 1.577h-1.293c-.066-.364-.209-.629-.431-.796s-.524-.251-.916-.251c-1.033 0-1.549.682-1.549 2.046v.349c0 .665.145 1.167.436 1.506s.706.507 1.244.507.935-.104 1.189-.311v-1.091H52.05v-.966h2.678v2.537zm5.22-1.948h-2.738v1.691h3.208v1.058h-4.533v-6.355h4.517v1.069h-3.191v1.473h2.738v1.064zm6.41-2.536h-2.106v5.286h-1.326v-5.286h-2.078v-1.069h5.51v1.069zm7.675 2.695h-2.717v2.591h-1.326v-6.355H74.4v1.069h-3.082v1.631h2.717v1.064zm6.775-.442c0 .96-.264 1.72-.791 2.28s-1.216.84-2.078.84-1.555-.28-2.089-.84-.802-1.333-.802-2.308v-.251c0-.625.12-1.176.36-1.653a2.57 2.57 0 0 1 1.02-1.096c.436-.255.936-.382 1.5-.382.873 0 1.571.286 2.095.856s.785 1.336.785 2.307v.245zm-1.32-.289c0-.665-.136-1.173-.409-1.522s-.656-.524-1.151-.524c-.487 0-.869.175-1.146.524s-.415.857-.415 1.522v.289c0 .647.138 1.153.415 1.517s.666.54 1.157.54.876-.176 1.146-.529.404-.865.404-1.527v-.289zm4.948 1.004H83.22v2.318h-1.326v-6.355h2.487c.793 0 1.407.167 1.844.502s.655.806.655 1.424c0 .855-.409 1.447-1.227 1.778l1.495 2.591v.06H85.73l-1.293-2.318zm-1.216-1.058h1.162c.393 0 .687-.085.884-.256s.295-.404.295-.687c0-.295-.096-.529-.289-.704s-.486-.262-.889-.262H83.22v1.909z" fill="#fff"></path><use xlinkHref="#G" fill="url(#A)"></use><use xlinkHref="#G" opacity=".35" fill="url(#B)"></use><use xlinkHref="#H" fill="url(#C)"></use><use xlinkHref="#H" opacity=".41" fill="url(#D)"></use><use xlinkHref="#I" fill="url(#E)"></use><use xlinkHref="#I" fill="url(#F)"></use><defs><linearGradient id="A" x1="17.651" y1="29.054" x2="37.852" y2="29.054" xlinkHref="#J"><stop stop-color="#0c59a4"></stop><stop offset="1" stop-color="#114a8b"></stop></linearGradient><radialGradient id="B" cx="0" cy="0" r="1" gradientTransform="matrix(10.8036,0,0,10.2634,28.8082,29.213)" xlinkHref="#J"><stop offset=".72" stop-opacity="0"></stop><stop offset=".95" stop-opacity=".53"></stop><stop offset="1"></stop></radialGradient><linearGradient id="C" x1="28.301" y1="20.292" x2="15.684" y2="34.035" xlinkHref="#J"><stop stop-color="#1b9de2"></stop><stop offset=".16" stop-color="#1595df"></stop><stop offset=".67" stop-color="#0680d7"></stop><stop offset="1" stop-color="#0078d4"></stop></linearGradient><radialGradient id="D" cx="0" cy="0" r="1" gradientTransform="matrix(2.433679744559501,-16.06237751364725,12.976793774898514,1.9661697113309367,18.9962,31.5413)" xlinkHref="#J"><stop offset=".76" stop-opacity="0"></stop><stop offset=".95" stop-opacity=".5"></stop><stop offset="1"></stop></radialGradient><radialGradient id="E" cx="0" cy="0" r="1" gradientTransform="translate(13.9294 14.3663) rotate(92.2906) scale(22.9474 48.8732)" xlinkHref="#J"><stop stop-color="#35c1f1"></stop><stop offset=".11" stop-color="#34c1ed"></stop><stop offset=".23" stop-color="#2fc2df"></stop><stop offset=".31" stop-color="#2bc3d2"></stop><stop offset=".67" stop-color="#36c752"></stop></radialGradient><radialGradient id="F" cx="0" cy="0" r="1" gradientTransform="matrix(3.0871671302066788,10.584576253689681,-8.607379406300497,2.510484892683907,38.1927,17.7677)" xlinkHref="#J"><stop stop-color="#66eb6e"></stop><stop offset="1" stop-color="#66eb6e" stop-opacity="0"></stop></radialGradient><path id="G" d="M37.173 30.582a10.62 10.62 0 0 1-1.194.534 11.54 11.54 0 0 1-4.066.732c-5.36 0-10.029-3.687-10.029-8.418.007-.634.183-1.256.51-1.8s.793-.99 1.351-1.294c-4.848.204-6.094 5.256-6.094 8.215 0 8.368 7.713 9.217 9.374 9.217.896 0 2.247-.261 3.058-.517l.148-.05c3.121-1.079 5.781-3.188 7.544-5.981.054-.085.078-.186.069-.286s-.052-.194-.121-.268-.161-.121-.26-.137-.201.003-.289.052z"></path><path id="H" d="M22.976 36.345a8.97 8.97 0 0 1-2.576-2.417c-.786-1.077-1.327-2.314-1.585-3.622s-.226-2.658.092-3.953.917-2.505 1.753-3.544 1.889-1.884 3.085-2.473c.353-.166.957-.468 1.76-.453.566.004 1.123.139 1.628.395s.944.624 1.282 1.078a3.61 3.61 0 0 1 .72 2.114c0-.024 2.771-9.016-9.061-9.016-4.973 0-9.062 4.719-9.062 8.859a14.74 14.74 0 0 0 1.372 6.343 14.5 14.5 0 0 0 17.713 7.602 8.56 8.56 0 0 1-7.111-.906l-.01-.005z"></path><path id="I" d="M28.254 25.861c-.092.119-.374.283-.374.641 0 .296.192.58.535.819 1.629 1.133 4.7.983 4.708.983 1.207-.003 2.391-.329 3.429-.946a6.95 6.95 0 0 0 2.52-2.536c.605-1.051.924-2.241.926-3.453.029-2.538-.906-4.226-1.284-4.974C36.313 11.7 31.132 9 25.498 9A14.5 14.5 0 0 0 11 23.295c.054-4.139 4.168-7.481 9.061-7.481.396 0 2.657.038 4.757 1.141 1.851.972 2.82 2.145 3.494 3.309.7 1.209.825 2.736.825 3.344s-.31 1.51-.883 2.255z"></path><linearGradient id="J" gradientUnits="userSpaceOnUse"></linearGradient></defs></svg>