<svg width="13" height="11" viewBox="0 0 13 11" fill="none" xmlns="http://www.w3.org/2000/svg">
<path fill-rule="evenodd" clip-rule="evenodd" d="M0.3 1.05793C-0.1 1.45793 -0.1 2.05793 0.3 2.45793C0.7 2.85793 1.3 2.85793 1.7 2.45793C2.1 2.05793 2.1 1.45793 1.7 1.05793C1.3 0.657935 0.7 0.657935 0.3 1.05793ZM4 1.25793V2.25793H13V1.25793H4ZM0.3 5.05793C-0.1 5.45793 -0.1 6.05793 0.3 6.45793C0.7 6.85793 1.3 6.85793 1.7 6.45793C2.1 6.05793 2.1 5.45793 1.7 5.05793C1.3 4.65793 0.7 4.65793 0.3 5.05793ZM4 6.25793H13V5.25793H4V6.25793ZM0.3 9.05793C-0.1 9.45793 -0.1 10.0579 0.3 10.4579C0.7 10.8579 1.3 10.8579 1.7 10.4579C2.1 10.0579 2.1 9.45793 1.7 9.05793C1.3 8.65793 0.7 8.65793 0.3 9.05793ZM4 10.2579H13V9.25793H4V10.2579Z" fill="#03A9F4"/>
</svg>
