<svg xmlns="http://www.w3.org/2000/svg" viewBox="0 0 16 20" fill="currentColor"><path d="M16 14.1C16 10.9 12.4878 10.9 12.4878 6.4C12.4878 4.5 11.4146 2.9 9.7561 2.2C9.7561 2.1 9.7561 2 9.7561 1.8C9.7561 0.799999 8.97561 0 8 0C7.02439 0 6.2439 0.799999 6.2439 1.8C6.2439 1.9 6.2439 2 6.2439 2.2C4.68292 2.9 3.51219 4.5 3.51219 6.4C3.51219 10.9 0 10.9 0 14.1C0 15.5 2.2439 16.7 5.36586 17.1C5.36586 17.2 5.36586 17.2 5.36586 17.3C5.36586 18.8 6.53658 20 8 20C9.46342 20 10.6341 18.8 10.6341 17.3C10.6341 17.2 10.6341 17.2 10.6341 17.1C13.7561 16.7 16 15.5 16 14.1ZM8 0.900002C8.48781 0.900002 8.87804 1.3 8.87804 1.8C8.87804 2.3 8.48781 2.7 8 2.7C7.5122 2.7 7.12196 2.3 7.12196 1.8C7.12196 1.3 7.5122 0.900002 8 0.900002ZM2.24391 11.6C3.21952 10.5 4.4878 9.2 4.4878 6.3C4.4878 4.8 5.36585 3.5 6.7317 2.9C7.02439 3.3 7.5122 3.5 8.09757 3.5C8.68293 3.5 9.07317 3.2 9.46342 2.9C10.7317 3.4 11.7073 4.7 11.7073 6.3C11.7073 9.1 12.9756 10.5 13.9512 11.6C14.1463 11.8 14.3415 12 14.439 12.2C13.561 13 11.122 13.6 8.09757 13.6C5.17074 13.6 2.63415 13 1.7561 12.2C1.85366 12 2.04878 11.8 2.24391 11.6ZM8 19.1C7.02439 19.1 6.2439 18.3 6.2439 17.3V17.2C6.82927 17.3 7.41463 17.3 8 17.3C8.58537 17.3 9.17074 17.3 9.7561 17.2V17.3C9.7561 18.3 8.97561 19.1 8 19.1ZM8 16.4C3.41463 16.4 0.878043 14.9 0.878043 14.1C0.878043 13.6 0.975607 13.2 1.17073 12.9C2.34146 13.9 4.97561 14.6 8 14.6C11.0244 14.6 13.561 13.9 14.8293 12.9C15.0244 13.3 15.122 13.6 15.122 14.1C15.122 14.9 12.5854 16.4 8 16.4Z" fill="currentColor"/></svg>