<svg width="19" height="19" viewBox="0 0 19 19" fill="none" xmlns="http://www.w3.org/2000/svg">
<path fill-rule="evenodd" clip-rule="evenodd" d="M9.5 19C14.7467 19 19 14.7467 19 9.5C19 4.25329 14.7467 0 9.5 0C4.25329 0 0 4.25329 0 9.5C0 14.7467 4.25329 19 9.5 19ZM9.50001 18.05C14.222 18.05 18.05 14.222 18.05 9.5C18.05 4.77797 14.222 0.95 9.50001 0.95C4.77798 0.95 0.950012 4.77797 0.950012 9.5C0.950012 14.222 4.77798 18.05 9.50001 18.05Z" fill="#03A9F4"/>
<path fill-rule="evenodd" clip-rule="evenodd" d="M9.97983 4.75005L9.03938 4.75005L9.03938 9.02062L4.76881 9.02062V9.96107L9.03938 9.96107L9.03938 14.2316L9.97983 14.2316L9.97983 9.96107L14.2504 9.96107V9.02062L9.97983 9.02062L9.97983 4.75005Z" fill="#03A9F4"/>
</svg>
