<svg xmlns="http://www.w3.org/2000/svg" viewBox="0 0 20 20" fill="currentColor"><path d="M9 14H10V13H9V14ZM9.5 0C4.23182 0 0 4.275 0 9.5C0 14.7682 4.23182 19 9.5 19C14.7682 19 19 14.7682 19 9.5C19 4.275 14.7682 0 9.5 0ZM9.5 18C4.75 18 1.00781 14.25 1.00781 9.5C1.00781 4.75 4.75 1.02597 9.5 1.02597C14.25 1.02597 18.0078 4.75 18.0078 9.5C18.0078 14.25 14.25 18 9.5 18ZM11.3318 5.99773C10.808 5.57864 10.1593 5.39339 9.5 5.39339C8.85354 5.39339 8.17744 5.64678 7.71484 6.10938C7.45575 6.36847 7.25845 6.67408 7.12891 7.01953C7.0116 7.33235 7 7.66603 7 7.99609H7.99609V7.86655C7.99609 7.44047 8.05579 7.12419 8.32812 6.78377C8.59418 6.42903 9.07338 6.29106 9.5 6.29106C9.9669 6.29106 10.3037 6.39334 10.6755 6.67218C10.9823 6.97902 11.1159 7.29372 11.1159 7.725C11.1159 7.98409 11.0295 8.24319 10.9 8.50228C10.7705 8.71819 10.5948 8.90128 10.3789 9.11719C10.1198 9.3331 9.90681 9.58183 9.73408 9.75455C9.56136 9.92728 9.38863 10.1432 9.30226 10.3159C9.17272 10.5318 9.08637 10.7477 9.04319 11.0068C9 11.2659 9 11.5547 9 11.9136V12H10V11.9136C10 11.5682 9.99318 11.2852 9.99318 11.0932C10 10.8633 10.0795 10.7909 10.1227 10.6614C10.2091 10.5318 10.3119 10.4186 10.4414 10.2891C10.571 10.1595 10.7704 9.97046 11.0295 9.71137C11.3318 9.4091 11.5732 9.13842 11.7891 8.79297C11.978 8.4907 12.0781 8.15078 12.0781 7.67578C12.0781 7.03925 11.8372 6.40202 11.3318 5.99773Z" fill="currentColor"/></svg>