<svg xmlns="http://www.w3.org/2000/svg" viewBox="0 0 20 20" fill="currentColor"><path d="M19.3 8L18.3 7.8C18.1 7.1 17.8 6.4 17.4 5.7L18 4.8C18.2 4.5 18.3 4.1 18 3.9L16.1 2C16 1.9 15.8 1.8 15.7 1.8C15.5 1.8 15.3 1.9 15.2 2L14.3 2.5C13.7 2.1 13 1.8 12.2 1.6L12 0.6C11.9 0.3 11.7 0 11.3 0H8.7C8.3 0 8.1 0.3 8 0.7L7.8 1.7C7 1.8 6.3 2.1 5.7 2.5L4.8 2C4.7 1.9 4.5 1.8 4.3 1.8C4.1 1.8 4 1.9 3.9 2L2 3.9C1.7 4.1 1.8 4.5 2 4.8L2.5 5.7C2.1 6.3 1.8 7 1.6 7.8L0.7 8C0.3 8.1 0 8.3 0 8.7V11.4C0 11.8 0.3 12 0.7 12.1L1.7 12.3C1.9 13 2.2 13.7 2.6 14.4L2 15.2C1.8 15.5 1.7 15.9 2 16.1L3.9 18C4 18.1 4.2 18.2 4.3 18.2C4.5 18.2 4.7 18.1 4.8 18L5.7 17.5C6.3 17.9 7 18.2 7.8 18.4L8 19.4C8.1 19.7 8.3 20 8.7 20H11.4C11.8 20 12 19.7 12.1 19.3L12.3 18.3C13 18.1 13.7 17.8 14.4 17.4L15.3 17.9C15.5 18 15.7 18.1 15.8 18.1C15.9 18.1 16.1 18.1 16.2 17.9L18.1 16C18.4 15.7 18.3 15.3 18.1 15.1L17.6 14.2C18 13.6 18.3 12.9 18.5 12.1L19.5 11.9C19.8 11.8 20 11.6 20 11.2V8.7C19.8 8.3 19.7 8.1 19.3 8ZM19 11.1L18.1 11.3C17.8 11.4 17.5 11.6 17.4 11.9C17.2 12.5 17 13.2 16.6 13.8C16.4 14.1 16.4 14.4 16.6 14.7L17.1 15.5L15.5 17.1L14.7 16.6C14.6 16.5 14.4 16.5 14.2 16.5C14 16.5 13.9 16.5 13.8 16.6C13.2 16.9 12.6 17.2 12 17.4C11.7 17.5 11.4 17.7 11.4 18.1L11.1 19H8.9L8.7 18.1C8.6 17.8 8.4 17.5 8.1 17.4C7.5 17.2 6.8 17 6.3 16.6C6.2 16.5 6 16.5 5.9 16.5C5.7 16.5 5.6 16.5 5.4 16.6L4.6 17.1L3 15.5L3.5 14.7C3.7 14.4 3.7 14.1 3.5 13.8C3 13.3 2.8 12.6 2.6 12C2.5 11.7 2.3 11.4 1.9 11.4L1 11.1V8.9L2 8.7C2.3 8.6 2.5 8.3 2.6 8C2.8 7.4 3 6.7 3.4 6.2C3.6 5.9 3.6 5.6 3.4 5.3L2.9 4.4L4.5 2.8L5.3 3.3C5.4 3.4 5.6 3.4 5.8 3.4C6 3.4 6.1 3.4 6.2 3.3C6.8 3 7.4 2.8 8 2.6C8.3 2.5 8.6 2.3 8.6 1.9L8.9 1H11.1L11.3 1.9C11.4 2.2 11.6 2.5 11.9 2.6C12.5 2.8 13.2 3 13.7 3.4C13.8 3.5 14 3.5 14.1 3.5C14.3 3.5 14.4 3.5 14.6 3.4L15.4 2.9L17 4.5L16.5 5.3C16.3 5.6 16.3 5.9 16.5 6.2C17 6.7 17.3 7.4 17.4 8C17.5 8.3 17.7 8.6 18.1 8.6L19 8.9V11.1ZM10 5C7.2 5 5 7.2 5 10C5 12.8 7.2 15 10 15C12.8 15 15 12.8 15 10C15 7.2 12.8 5 10 5ZM10 14C7.8 14 6 12.2 6 10C6 7.8 7.8 6 10 6C12.2 6 14 7.8 14 10C14 12.2 12.3 14 10 14Z" fill="#818181"/></svg>