<svg xmlns="http://www.w3.org/2000/svg" viewBox="0 0 20 20" fill="currentColor"><path d="M18.2 12.7C19 13 20 13.7 20 15.5C20 15.5 20 16 19.5 16H17.5C17.4 15.7 17.2 15.3 17.1 15H19.1C19 14.1 18.4 13.8 17.8 13.6C17.2 13.4 16.5277 12.6 16.5277 11.1C16.5277 9.70001 17.4016 9.19999 17.6016 8.89999C17.6016 8.79999 17.7016 8.60001 17.6016 8.10001C17.6016 7.90001 17.6016 7.7 17.7016 7.5C17.9016 7.1 18.1 6.29999 17.9 5.79999C17.5 4.79999 17.3 4.59999 16.9 4.39999C16.9 4.39999 16.8 4.39999 16.8 4.29999C16.7 4.19999 16.2 4.10001 15.8 4.10001C15.6 4.10001 15.4 4.10001 15.2 4.20001C15.2 4.00001 15.1 3.90001 15 3.70001C14.9 3.60001 14.9 3.39999 14.8 3.29999C15.1 3.19999 15.4 3.10001 15.7 3.10001C16.4 3.10001 17.1 3.4 17.3 3.5C18 3.8 18.3 4.29999 18.8 5.39999C19.2 6.29999 18.7 7.39999 18.5 7.89999C18.8 9.09999 18.4 9.5 18.4 9.5C18.2 9.8 17.5 10.2 17.5 11.4C17.5 12.5 18.2 12.7 18.2 12.7ZM13.4 9.5C13.1 9.9 12.5 10.4 12.5 11.9C12.5 13.6 13.6 14 13.6 14C14.6 14.4 16.4 15.1 16.4 17.5C16.4 17.5 16.4 18 15.9 18H3.9C3.4 18 3.4 17.5 3.4 17.5C3.4 15 5.2 14.3 6.3 14C6.3 14 7.5 13.6 7.5 11.9C7.5 10.4 6.7 9.9 6.5 9.5C6.5 9.5 6.1 9 6.4 7.5C6.1 6.8 5.5 5.49999 6 4.29999C6.6 2.89999 7.3 1.9 8.2 1.5C8.5 1.3 9.7 1 10.5 1C10.9 1 11.8 1.09999 12.2 1.29999C12.7 1.59999 13.2 2.70001 13.6 3.70001C14.3 5.40001 14 6.7 13.4 7.5C13.9 9 13.4 9.5 13.4 9.5ZM12.7 4C12.3 3.1 12.1 2.30001 11.8 2.10001C11.6 2.00001 10.9 1.89999 10.5 1.89999C9.8 1.89999 8.8 2.20001 8.7 2.20001C8.7 2.20001 8.6 2.19999 8.6 2.29999C7.9 2.59999 7.4 3.4 7 4.5C6.7 5.3 6.99008 6.39999 7.19008 6.89999C7.19008 6.89999 7.39008 7.1 7.29008 7.5C7.09008 8.3 7.19008 8.70001 7.19008 8.70001C7.19008 8.70001 7.29008 8.79999 7.29008 8.89999C7.59008 9.29999 8.43509 10.1 8.43509 11.7C8.43509 13.6 7.5 14.4 6.6 14.7C5.5 15.1 4.57922 15.7256 4.37922 17.0256H15.4792C15.2792 15.7256 14.5 15.1 13.4 14.7C12.6 14.5 11.6295 13.6 11.6295 11.7C11.6295 10.1 12.1 9.69999 12.5 9.29999C12.6 9.19999 12.7 9.10001 12.7 9.10001C12.7 9.00001 12.8 8.30001 12.6 7.60001C12.5 7.30001 12.6 7.09999 12.7 6.89999C12.9 6.59999 13.5 5.7 12.7 4ZM4.9 4.10001C4.7 4.00001 4.6 4 4.3 4C3.8 4 3.4 4.20001 3.3 4.20001C3.3 4.20001 3.17754 4.26809 3.11373 4.29999C2.71373 4.49999 2.55002 4.51588 2.15002 5.51588C1.95002 6.11588 2.27517 6.97341 2.47517 7.37341C2.57517 7.57341 2.5299 7.79214 2.5299 7.99214C2.4299 8.49214 2.5 8.69999 2.6 8.79999C2.8 9.09999 3.6 9.70001 3.6 11.1C3.6 12.1843 2.9 13.4 2.2 13.5C1.6 13.7 1.1 14.1 0.9 15H2.9C2.7 15.3 2.6 15.6 2.5 16H0.5C0 16 0 15.5 0 15.5C0 13.7 0.999999 12.9 1.8 12.6C1.8 12.6 2.6 12.3807 2.6 10.9807C2.6 9.78073 1.96224 9.65462 1.76224 9.35462C1.76224 9.35462 1.2 8.7 1.5 7.5C1.3 7 0.800001 6 1.2 5C1.7 3.9 2 3.67568 2.7 3.37568C2.9 3.17568 3.7 2.97568 4.3 2.97568C4.6 2.97568 4.9 3.07567 5.2 3.17567C5.1 3.27567 5.1 3.47566 5 3.57566C5 4.07566 4.9 3.90001 4.9 4.10001Z" fill="#818181"/></svg>